<?xml version="1.0" encoding="UTF-8"?>
<svg id="Illustration" xmlns="http://www.w3.org/2000/svg" xmlns:xlink="http://www.w3.org/1999/xlink" version="1.1" viewBox="0 0 2000 2000">
  <!-- Generator: Adobe Illustrator 29.7.1, SVG Export Plug-In . SVG Version: 2.1.1 Build 8)  -->
  <defs>
    <linearGradient id="_ÂÁ_Ï_ÌÌ_È_ËÂÌÚ_98" data-name="¡ÂÁ˚ÏˇÌÌ˚È „‡‰ËÂÌÚ 98" x1="1740.471" y1="348.234" x2="-165.414" y2="1552.158" gradientUnits="userSpaceOnUse">
      <stop offset=".254" stop-color="#cd92e1"/>
      <stop offset=".531" stop-color="#e4c5ef"/>
      <stop offset=".784" stop-color="#f7effa"/>
      <stop offset=".914" stop-color="#fff"/>
    </linearGradient>
    <linearGradient id="_ÂÁ_Ï_ÌÌ_È_ËÂÌÚ_981" data-name="¡ÂÁ˚ÏˇÌÌ˚È „‡‰ËÂÌÚ 98" x1="1837.339" y1="501.584" x2="-68.545" y2="1705.507" xlink:href="#_ÂÁ_Ï_ÌÌ_È_ËÂÌÚ_98"/>
    <linearGradient id="_ÂÁ_Ï_ÌÌ_È_ËÂÌÚ_9" data-name="¡ÂÁ˚ÏˇÌÌ˚È „‡‰ËÂÌÚ 9" x1="204.178" y1="1021.911" x2="514.808" y2="1021.911" gradientUnits="userSpaceOnUse">
      <stop offset="0" stop-color="#fec045"/>
      <stop offset="1" stop-color="#f47555"/>
    </linearGradient>
    <linearGradient id="_ÂÁ_Ï_ÌÌ_È_ËÂÌÚ_167" data-name="¡ÂÁ˚ÏˇÌÌ˚È „‡‰ËÂÌÚ 167" x1="268.539" y1="1198.982" x2="722.133" y2="792.447" gradientUnits="userSpaceOnUse">
      <stop offset=".103" stop-color="#e4d6f8"/>
      <stop offset=".343" stop-color="#eee6fa"/>
      <stop offset=".699" stop-color="#faf8fd"/>
      <stop offset=".954" stop-color="#fff"/>
    </linearGradient>
    <linearGradient id="_ÂÁ_Ï_ÌÌ_È_ËÂÌÚ_982" data-name="¡ÂÁ˚ÏˇÌÌ˚È „‡‰ËÂÌÚ 98" x1="1633.615" y1="959.623" x2="1861.719" y2="697.532" xlink:href="#_ÂÁ_Ï_ÌÌ_È_ËÂÌÚ_98"/>
    <linearGradient id="_ÂÁ_Ï_ÌÌ_È_ËÂÌÚ_40" data-name="¡ÂÁ˚ÏˇÌÌ˚È „‡‰ËÂÌÚ 40" x1="1591.651" y1="494.32" x2="1293.612" y2="660.333" gradientUnits="userSpaceOnUse">
      <stop offset=".005" stop-color="#e4d6f8"/>
      <stop offset=".999" stop-color="#fff"/>
    </linearGradient>
    <linearGradient id="_ÂÁ_Ï_ÌÌ_È_ËÂÌÚ_91" data-name="¡ÂÁ˚ÏˇÌÌ˚È „‡‰ËÂÌÚ 9" x1="1192.247" y1="618.141" x2="1472.056" y2="618.141" xlink:href="#_ÂÁ_Ï_ÌÌ_È_ËÂÌÚ_9"/>
    <linearGradient id="_ÂÁ_Ï_ÌÌ_È_ËÂÌÚ_92" data-name="¡ÂÁ˚ÏˇÌÌ˚È „‡‰ËÂÌÚ 9" x1="1175.49" y1="660.476" x2="1270.241" y2="660.476" xlink:href="#_ÂÁ_Ï_ÌÌ_È_ËÂÌÚ_9"/>
    <linearGradient id="_ÂÁ_Ï_ÌÌ_È_ËÂÌÚ_401" data-name="¡ÂÁ˚ÏˇÌÌ˚È „‡‰ËÂÌÚ 40" x1="1867.398" y1="856.648" x2="1436.025" y2="1109.59" xlink:href="#_ÂÁ_Ï_ÌÌ_È_ËÂÌÚ_40"/>
    <linearGradient id="_ÂÁ_Ï_ÌÌ_È_ËÂÌÚ_983" data-name="¡ÂÁ˚ÏˇÌÌ˚È „‡‰ËÂÌÚ 98" x1="1590.454" y1="796.322" x2="1579.669" y2="1256.117" xlink:href="#_ÂÁ_Ï_ÌÌ_È_ËÂÌÚ_98"/>
    <linearGradient id="_ÂÁ_Ï_ÌÌ_È_ËÂÌÚ_984" data-name="¡ÂÁ˚ÏˇÌÌ˚È „‡‰ËÂÌÚ 98" x1="1591.174" y1="796.338" x2="1580.389" y2="1256.134" xlink:href="#_ÂÁ_Ï_ÌÌ_È_ËÂÌÚ_98"/>
    <linearGradient id="_ÂÁ_Ï_ÌÌ_È_ËÂÌÚ_985" data-name="¡ÂÁ˚ÏˇÌÌ˚È „‡‰ËÂÌÚ 98" x1="1591.894" y1="796.356" x2="1581.109" y2="1256.152" xlink:href="#_ÂÁ_Ï_ÌÌ_È_ËÂÌÚ_98"/>
    <linearGradient id="_ÂÁ_Ï_ÌÌ_È_ËÂÌÚ_986" data-name="¡ÂÁ˚ÏˇÌÌ˚È „‡‰ËÂÌÚ 98" x1="1118.765" y1="542.325" x2="1314.353" y2="299.187" xlink:href="#_ÂÁ_Ï_ÌÌ_È_ËÂÌÚ_98"/>
    <linearGradient id="_ÂÁ_Ï_ÌÌ_È_ËÂÌÚ_93" data-name="¡ÂÁ˚ÏˇÌÌ˚È „‡‰ËÂÌÚ 9" x1="501.443" y1="538.775" x2="752.424" y2="808.057" xlink:href="#_ÂÁ_Ï_ÌÌ_È_ËÂÌÚ_9"/>
    <linearGradient id="_ÂÁ_Ï_ÌÌ_È_ËÂÌÚ_94" data-name="¡ÂÁ˚ÏˇÌÌ˚È „‡‰ËÂÌÚ 9" x1="474.284" y1="564.606" x2="724.885" y2="833.48" xlink:href="#_ÂÁ_Ï_ÌÌ_È_ËÂÌÚ_9"/>
    <linearGradient id="_ÂÁ_Ï_ÌÌ_È_ËÂÌÚ_240" data-name="¡ÂÁ˚ÏˇÌÌ˚È „‡‰ËÂÌÚ 240" x1="907.497" y1="957.022" x2="1072.845" y2="957.022" gradientUnits="userSpaceOnUse">
      <stop offset="0" stop-color="#ffcfa6"/>
      <stop offset=".691" stop-color="#ffb88c"/>
    </linearGradient>
    <linearGradient id="_ÂÁ_Ï_ÌÌ_È_ËÂÌÚ_235" data-name="¡ÂÁ˚ÏˇÌÌ˚È „‡‰ËÂÌÚ 235" x1="916.83" y1="948.125" x2="1049.163" y2="948.125" gradientUnits="userSpaceOnUse">
      <stop offset=".325" stop-color="#d34f63"/>
      <stop offset=".995" stop-color="#ea8e67"/>
    </linearGradient>
    <linearGradient id="_ÂÁ_Ï_ÌÌ_È_ËÂÌÚ_21" data-name="¡ÂÁ˚ÏˇÌÌ˚È „‡‰ËÂÌÚ 21" x1="876.483" y1="841.403" x2="904.424" y2="769.834" gradientUnits="userSpaceOnUse">
      <stop offset="0" stop-color="#d34f63"/>
      <stop offset=".995" stop-color="#ea8e67"/>
    </linearGradient>
    <linearGradient id="_ÂÁ_Ï_ÌÌ_È_ËÂÌÚ_243" data-name="¡ÂÁ˚ÏˇÌÌ˚È „‡‰ËÂÌÚ 243" x1="864.338" y1="809.245" x2="900.123" y2="774.44" gradientUnits="userSpaceOnUse">
      <stop offset=".019" stop-color="#d65764"/>
      <stop offset=".63" stop-color="#ffc6a6"/>
    </linearGradient>
    <linearGradient id="_ÂÁ_Ï_ÌÌ_È_ËÂÌÚ_83" data-name="¡ÂÁ˚ÏˇÌÌ˚È „‡‰ËÂÌÚ 83" x1="1047.684" y1="856.714" x2="1123.174" y2="770.931" gradientUnits="userSpaceOnUse">
      <stop offset="0" stop-color="#d34f63"/>
      <stop offset=".1" stop-color="#da6264"/>
      <stop offset=".251" stop-color="#e27a65"/>
      <stop offset=".391" stop-color="#e88966"/>
      <stop offset=".51" stop-color="#ea8e67"/>
      <stop offset=".96" stop-color="#ffdfc9"/>
    </linearGradient>
    <linearGradient id="_ÂÁ_Ï_ÌÌ_È_ËÂÌÚ_89" data-name="¡ÂÁ˚ÏˇÌÌ˚È „‡‰ËÂÌÚ 89" x1="1112.18" y1="767.128" x2="899.439" y2="1016.142" gradientUnits="userSpaceOnUse">
      <stop offset=".639" stop-color="#ffd3b3"/>
      <stop offset=".691" stop-color="#ffb88c"/>
    </linearGradient>
    <linearGradient id="_ÂÁ_Ï_ÌÌ_È_ËÂÌÚ_2401" data-name="¡ÂÁ˚ÏˇÌÌ˚È „‡‰ËÂÌÚ 240" x1="1077.234" y1="690.54" x2="893.895" y2="875.841" xlink:href="#_ÂÁ_Ï_ÌÌ_È_ËÂÌÚ_240"/>
    <linearGradient id="_ÂÁ_Ï_ÌÌ_È_ËÂÌÚ_241" data-name="¡ÂÁ˚ÏˇÌÌ˚È „‡‰ËÂÌÚ 241" x1="891.668" y1="802.419" x2="1080.498" y2="802.419" gradientUnits="userSpaceOnUse">
      <stop offset="0" stop-color="#d34f63"/>
      <stop offset=".86" stop-color="#ea8e67"/>
    </linearGradient>
    <linearGradient id="_ÂÁ_Ï_ÌÌ_È_ËÂÌÚ_41" data-name="¡ÂÁ˚ÏˇÌÌ˚È „‡‰ËÂÌÚ 41" x1="865.878" y1="704.558" x2="1094.722" y2="704.558" gradientUnits="userSpaceOnUse">
      <stop offset=".255" stop-color="#25254e"/>
      <stop offset="1" stop-color="#000"/>
    </linearGradient>
    <linearGradient id="_ÂÁ_Ï_ÌÌ_È_ËÂÌÚ_211" data-name="¡ÂÁ˚ÏˇÌÌ˚È „‡‰ËÂÌÚ 21" x1="1493.258" y1="972.379" x2="1489.186" y2="977.059" gradientTransform="translate(-618.616 1589.978) rotate(-56.729)" xlink:href="#_ÂÁ_Ï_ÌÌ_È_ËÂÌÚ_21"/>
    <linearGradient id="_ÂÁ_Ï_ÌÌ_È_ËÂÌÚ_311" data-name="¡ÂÁ˚ÏˇÌÌ˚È „‡‰ËÂÌÚ 311" x1="1261.795" y1="1009.462" x2="517.607" y2="1686.889" gradientUnits="userSpaceOnUse">
      <stop offset="0" stop-color="#f789f7"/>
      <stop offset=".807" stop-color="#4517c6"/>
    </linearGradient>
    <linearGradient id="_ÂÁ_Ï_ÌÌ_È_ËÂÌÚ_39" data-name="¡ÂÁ˚ÏˇÌÌ˚È „‡‰ËÂÌÚ 39" x1="1225.993" y1="1042.052" x2="536.066" y2="1670.086" gradientUnits="userSpaceOnUse">
      <stop offset=".226" stop-color="#9c4fde"/>
      <stop offset=".485" stop-color="#5c24b5"/>
      <stop offset=".748" stop-color="#2f0d8e"/>
    </linearGradient>
    <linearGradient id="_ÂÁ_Ï_ÌÌ_È_ËÂÌÚ_27" data-name="¡ÂÁ˚ÏˇÌÌ˚È „‡‰ËÂÌÚ 27" x1="1087.163" y1="908.789" x2="880.301" y2="1088.2" gradientUnits="userSpaceOnUse">
      <stop offset=".226" stop-color="#9c4fde"/>
      <stop offset=".585" stop-color="#5c24b5"/>
      <stop offset=".908" stop-color="#2f0d8e"/>
    </linearGradient>
    <linearGradient id="_ÂÁ_Ï_ÌÌ_È_ËÂÌÚ_230" data-name="¡ÂÁ˚ÏˇÌÌ˚È „‡‰ËÂÌÚ 230" x1="1133.861" y1="607.025" x2="1241.05" y2="607.025" gradientTransform="translate(1939.822 -249.038) rotate(165.393) scale(1 -1)" gradientUnits="userSpaceOnUse">
      <stop offset=".005" stop-color="#d997d6"/>
      <stop offset=".999" stop-color="#e8afdc"/>
    </linearGradient>
    <linearGradient id="_ÂÁ_Ï_ÌÌ_È_ËÂÌÚ_212" data-name="¡ÂÁ˚ÏˇÌÌ˚È „‡‰ËÂÌÚ 21" x1="1054.036" y1="740.065" x2="1038.063" y2="802.937" xlink:href="#_ÂÁ_Ï_ÌÌ_È_ËÂÌÚ_21"/>
    <linearGradient id="_ÂÁ_Ï_ÌÌ_È_ËÂÌÚ_411" data-name="¡ÂÁ˚ÏˇÌÌ˚È „‡‰ËÂÌÚ 41" x1="1014.288" y1="767.009" x2="1076.033" y2="767.009" xlink:href="#_ÂÁ_Ï_ÌÌ_È_ËÂÌÚ_41"/>
    <linearGradient id="_ÂÁ_Ï_ÌÌ_È_ËÂÌÚ_13" data-name="¡ÂÁ˚ÏˇÌÌ˚È „‡‰ËÂÌÚ 13" x1="1017.401" y1="799.481" x2="1061.253" y2="799.481" gradientUnits="userSpaceOnUse">
      <stop offset="0" stop-color="#ffcfa6"/>
      <stop offset=".995" stop-color="#ffb88c"/>
    </linearGradient>
    <linearGradient id="_ÂÁ_Ï_ÌÌ_È_ËÂÌÚ_3" data-name="¡ÂÁ˚ÏˇÌÌ˚È „‡‰ËÂÌÚ 3" x1="988.14" y1="887.239" x2="996.689" y2="847.492" gradientUnits="userSpaceOnUse">
      <stop offset=".325" stop-color="#d34f63"/>
      <stop offset=".712" stop-color="#ea8e67"/>
    </linearGradient>
    <linearGradient id="_ÂÁ_Ï_ÌÌ_È_ËÂÌÚ_35" data-name="¡ÂÁ˚ÏˇÌÌ˚È „‡‰ËÂÌÚ 35" x1="934.975" y1="741.45" x2="945.151" y2="794.592" gradientUnits="userSpaceOnUse">
      <stop offset=".232" stop-color="#d34f63"/>
      <stop offset=".385" stop-color="#da6364"/>
      <stop offset=".608" stop-color="#e37a65"/>
      <stop offset=".817" stop-color="#e88966"/>
      <stop offset=".995" stop-color="#ea8e67"/>
    </linearGradient>
    <linearGradient id="_ÂÁ_Ï_ÌÌ_È_ËÂÌÚ_412" data-name="¡ÂÁ˚ÏˇÌÌ˚È „‡‰ËÂÌÚ 41" x1="1360.205" y1="767.639" x2="1421.949" y2="767.639" gradientTransform="translate(2331.699) rotate(-180) scale(1 -1)" xlink:href="#_ÂÁ_Ï_ÌÌ_È_ËÂÌÚ_41"/>
    <linearGradient id="_ÂÁ_Ï_ÌÌ_È_ËÂÌÚ_131" data-name="¡ÂÁ˚ÏˇÌÌ˚È „‡‰ËÂÌÚ 13" x1="1363.318" y1="800.111" x2="1407.171" y2="800.111" gradientTransform="translate(2331.699) rotate(-180) scale(1 -1)" xlink:href="#_ÂÁ_Ï_ÌÌ_È_ËÂÌÚ_13"/>
    <linearGradient id="_ÂÁ_Ï_ÌÌ_È_ËÂÌÚ_33" data-name="¡ÂÁ˚ÏˇÌÌ˚È „‡‰ËÂÌÚ 33" x1="838.037" y1="1012.196" x2="1109.932" y2="1010.889" gradientUnits="userSpaceOnUse">
      <stop offset=".005" stop-color="#93246b"/>
      <stop offset="1" stop-color="#fc77aa"/>
    </linearGradient>
    <linearGradient id="_ÂÁ_Ï_ÌÌ_È_ËÂÌÚ_267" data-name="¡ÂÁ˚ÏˇÌÌ˚È „‡‰ËÂÌÚ 267" x1="2176.823" y1="901.628" x2="2070.898" y2="985.777" gradientTransform="translate(-944.784 856.218) rotate(-16.558) scale(.873 .759)" gradientUnits="userSpaceOnUse">
      <stop offset=".107" stop-color="#ffbde7"/>
      <stop offset="1" stop-color="#fc77aa"/>
    </linearGradient>
    <linearGradient id="_ÂÁ_Ï_ÌÌ_È_ËÂÌÚ_80" data-name="¡ÂÁ˚ÏˇÌÌ˚È „‡‰ËÂÌÚ 80" x1="1300.958" y1="863.107" x2="855.506" y2="1360.456" gradientUnits="userSpaceOnUse">
      <stop offset=".357" stop-color="#ff9ff3"/>
      <stop offset=".561" stop-color="#dd79f0"/>
      <stop offset=".722" stop-color="#ab58e2"/>
    </linearGradient>
    <linearGradient id="_ÂÁ_Ï_ÌÌ_È_ËÂÌÚ_350" data-name="¡ÂÁ˚ÏˇÌÌ˚È „‡‰ËÂÌÚ 350" x1="2929.062" y1="1253.984" x2="2903.565" y2="1381.468" gradientTransform="translate(-2051.538 930.246) rotate(-21.845)" gradientUnits="userSpaceOnUse">
      <stop offset="0" stop-color="#ffd2ef"/>
      <stop offset=".166" stop-color="#fecbef"/>
      <stop offset=".391" stop-color="#fcbaf0"/>
      <stop offset=".647" stop-color="#fa9ef1"/>
      <stop offset=".684" stop-color="#fa9af2"/>
      <stop offset=".791" stop-color="#ea8bef"/>
      <stop offset=".888" stop-color="#d87aec"/>
    </linearGradient>
    <linearGradient id="_ÂÁ_Ï_ÌÌ_È_ËÂÌÚ_95" data-name="¡ÂÁ˚ÏˇÌÌ˚È „‡‰ËÂÌÚ 9" x1="1174.37" y1="1118.375" x2="790.092" y2="1534.022" xlink:href="#_ÂÁ_Ï_ÌÌ_È_ËÂÌÚ_9"/>
    <linearGradient id="_ÂÁ_Ï_ÌÌ_È_ËÂÌÚ_42" data-name="¡ÂÁ˚ÏˇÌÌ˚È „‡‰ËÂÌÚ 42" x1="978.093" y1="1354.914" x2="1035.936" y2="1311.45" gradientUnits="userSpaceOnUse">
      <stop offset=".424" stop-color="#f37753"/>
      <stop offset=".864" stop-color="#d85335"/>
    </linearGradient>
    <linearGradient id="_ÂÁ_Ï_ÌÌ_È_ËÂÌÚ_19" data-name="¡ÂÁ˚ÏˇÌÌ˚È „‡‰ËÂÌÚ 19" x1="1081.592" y1="1251.579" x2="830.611" y2="1444.716" gradientUnits="userSpaceOnUse">
      <stop offset=".424" stop-color="#f37753"/>
      <stop offset=".999" stop-color="#d85335"/>
    </linearGradient>
    <linearGradient id="_ÂÁ_Ï_ÌÌ_È_ËÂÌÚ_76" data-name="¡ÂÁ˚ÏˇÌÌ˚È „‡‰ËÂÌÚ 76" x1="798.616" y1="1370.502" x2="665.93" y2="1485.258" gradientUnits="userSpaceOnUse">
      <stop offset=".313" stop-color="#e4d6f8"/>
      <stop offset=".713" stop-color="#a17ff4"/>
      <stop offset="1" stop-color="#6f3cc7"/>
    </linearGradient>
    <linearGradient id="_ÂÁ_Ï_ÌÌ_È_ËÂÌÚ_158" data-name="¡ÂÁ˚ÏˇÌÌ˚È „‡‰ËÂÌÚ 158" x1="721.865" y1="1313.082" x2="617.289" y2="1511.776" gradientUnits="userSpaceOnUse">
      <stop offset=".007" stop-color="#fff"/>
      <stop offset=".747" stop-color="#eac1e7"/>
    </linearGradient>
    <linearGradient id="_ÂÁ_Ï_ÌÌ_È_ËÂÌÚ_1581" data-name="¡ÂÁ˚ÏˇÌÌ˚È „‡‰ËÂÌÚ 158" x1="841.145" y1="1337.801" x2="688.857" y2="1584.207" xlink:href="#_ÂÁ_Ï_ÌÌ_È_ËÂÌÚ_158"/>
    <linearGradient id="_ÂÁ_Ï_ÌÌ_È_ËÂÌÚ_115" data-name="¡ÂÁ˚ÏˇÌÌ˚È „‡‰ËÂÌÚ 115" x1="315.613" y1="1443.642" x2="1703.84" y2="1443.642" gradientUnits="userSpaceOnUse">
      <stop offset=".078" stop-color="#d684ce"/>
      <stop offset=".917" stop-color="#6f3cc7"/>
    </linearGradient>
  </defs>
  <g display="none">
    <polygon points="2000 0 1000 0 0 0 0 1000 0 2000 1000 2000 2000 2000 2000 1000 2000 0" fill="#fff"/>
  </g>
  <g>
    <g>
      <path d="M1070.374,753.483c16.933,18.629,34.631,35.591,54.071,50.372,19.441,14.78,40.624,27.379,64.529,37.282,22.38,9.271,46.312,13.593,70.618,13.663,24.307.069,48.986-4.115,72.86-11.858,17.647-5.724,36.69-15.893,51.908-29.42,15.218-13.527,26.611-30.412,28.957-49.567,2.887-23.561-5.701-46.051-20.043-64.827-14.342-18.774-34.44-33.836-54.571-42.54-14.858-6.424-30.12-12.321-44.82-19.133-14.699-6.811-28.838-14.538-41.448-24.619-10.378-8.296-19.431-17.965-28.232-27.908-8.802-9.942-17.352-20.16-26.727-29.552-.508-.51-1.019-1.015-1.532-1.515-.513-.5-1.03-.995-1.548-1.487-12.106-11.462-25.499-20.286-40.14-25.797-14.641-5.511-30.529-7.712-47.626-5.929-17.079,1.78-33.122,6.786-46.916,15.198-13.793,8.412-25.336,20.231-33.416,35.636-16.555,31.568-16.608,64.827-7.067,96.226s28.677,60.937,50.499,85.063c.107.118.214.237.321.356.108.118.216.236.322.354Z" fill="url(#_ÂÁ_Ï_ÌÌ_È_ËÂÌÚ_98)"/>
      <path d="M1535.719,990.452c-38.944-29.01-84.306-45.273-131.694-57.471-47.389-12.198-96.806-20.33-143.861-33.077-68.833-18.737-134.222-48.241-194.263-86.208-60.042-37.966-114.737-84.393-162.181-136.976-20.556-22.857-40.278-47.197-61.778-69.243-21.5-22.047-44.778-41.799-72.444-55.48-29.556-14.78-62.167-21.346-95.319-21.771-33.153-.426-66.848,5.288-98.57,15.068-56.556,17.528-108.778,48.049-152.458,87.76-43.681,39.711-78.82,88.611-101.209,142.896-45.444,110.053-37.472,234.118.681,351.286,38.152,117.169,106.486,227.441,181.763,309.913.944.989,1.861,2.004,2.778,3.021.917,1.017,1.833,2.033,2.778,3.022h1054.667c12.722-17.967,24.194-36.868,34.292-56.661,10.097-19.794,18.819-40.48,26.042-62.018,19.499-58.461,22.055-123.542,7.305-183.226-14.75-59.682-46.806-113.968-96.528-150.836Z" fill="url(#_ÂÁ_Ï_ÌÌ_È_ËÂÌÚ_981)"/>
    </g>
    <path d="M720.532,743.334c1.822,4.97,4.343,9.74,6.947,14.48s5.29,9.45,7.443,14.299c2.416,5.441,5.002,10.805,7.544,16.176,2.543,5.371,5.043,10.75,7.287,16.221,1.001,2.441,1.98,4.877,3.008,7.282,1.028,2.406,2.106,4.781,3.304,7.101,0,0-14.922-13.719-29.586-27.987-14.663-14.269-29.068-29.087-28.029-31.283,1.06-2.241,6.013-5.143,11.031-7.936,5.018-2.791,10.098-5.471,11.411-7.268l-.361-1.086Z" fill="#fff"/>
    <g>
      <g>
        <path d="M245.204,981.053l114.201-.245,114.202-.246c12.611-.027,23.747,5.576,31.251,14.301,7.504,8.726,11.378,20.574,9.464,33.039l-.038.246-.038.245c-1.539,10.029-6.623,18.746-13.858,24.956-7.236,6.209-16.623,9.911-26.77,9.911h-228.328c-12.704,0-23.888-5.706-31.371-14.544-7.483-8.839-11.265-20.811-9.169-33.342h0c1.654-9.888,6.756-18.457,13.949-24.559,7.192-6.103,16.478-9.739,26.503-9.761Z" fill="url(#_ÂÁ_Ï_ÌÌ_È_ËÂÌÚ_9)"/>
        <path d="M562.584,1124.5c-1.055-1.001-6.944-6.446-14.569-13.668-7.626-7.222-16.987-16.222-24.987-24.333-.722.111-1.472.194-2.236.251-.764.056-1.542.083-2.32.083h-228.333c-12.722,0-23.889-5.722-31.361-14.57-7.472-8.847-11.25-20.819-9.194-33.319.833-4.944,2.528-9.557,4.917-13.695,2.389-4.139,5.472-7.806,9.083-10.861,3.556-3.056,7.667-5.5,12.139-7.18,4.472-1.681,9.306-2.598,14.306-2.598l114.222-.222,114.222-.221c12.611-.056,23.75,5.528,31.25,14.25,7.5,8.722,11.361,20.583,9.417,33.083v.443c-.889,5.723-2.917,11.001-5.82,15.626-2.902,4.626-6.68,8.598-11.069,11.709,2.278,5.167,4.75,10.278,7.181,15.402,2.43,5.124,4.819,10.263,6.93,15.486,1,2.444,2,4.861,3.028,7.25,1.028,2.389,2.083,4.751,3.194,7.084Z" fill="url(#_ÂÁ_Ï_ÌÌ_È_ËÂÌÚ_167)"/>
        <path d="M301.813,1045.589c0,4.071-1.65,7.758-4.318,10.425s-6.354,4.319-10.427,4.319-7.757-1.65-10.426-4.319-4.318-6.354-4.318-10.425,1.65-7.758,4.318-10.426c2.669-2.669,6.354-4.319,10.426-4.319s7.758,1.65,10.427,4.319c2.668,2.668,4.318,6.354,4.318,10.426Z" fill="#a17ff4"/>
        <polygon points="515.783 1038.506 419.677 1038.506 323.57 1038.506 323.57 1035.597 323.57 1032.687 419.677 1032.687 515.783 1032.687 515.783 1035.597 515.783 1038.506" fill="#a17ff4"/>
        <polygon points="515.783 1056.449 419.677 1056.449 323.57 1056.449 323.57 1053.539 323.57 1050.629 419.677 1050.629 515.783 1050.629 515.783 1053.539 515.783 1056.449" fill="#a17ff4"/>
      </g>
      <g>
        <g>
          <path d="M1691.546,859.579c4.407,11.883,13.212,20.854,23.888,25.754,10.674,4.899,23.219,5.727,35.102,1.32,11.882-4.407,20.854-13.213,25.753-23.888,4.9-10.676,5.727-23.22,1.32-35.102-4.407-11.883-13.212-20.854-23.888-25.754-10.674-4.899-23.219-5.726-35.102-1.319-11.882,4.407-20.854,13.212-25.753,23.887-4.9,10.676-5.727,23.22-1.32,35.102Z" fill="#e53e53"/>
          <path d="M1734.58,904.861c-16.889,0-32.202-6.868-43.293-17.958-11.09-11.089-17.959-26.399-17.959-43.283s6.869-32.193,17.959-43.283c11.091-11.089,26.404-17.958,43.293-17.958s32.193,6.869,43.283,17.958c11.089,11.09,17.958,26.4,17.958,43.283s-6.869,32.194-17.958,43.283c-11.09,11.09-26.4,17.958-43.283,17.958ZM1734.58,786.156c-15.848,0-30.217,6.444-40.623,16.851-10.408,10.405-16.853,24.771-16.853,40.613s6.446,30.209,16.853,40.614c10.407,10.406,24.775,16.851,40.623,16.851s30.208-6.446,40.614-16.851c10.406-10.405,16.851-24.772,16.851-40.614s-6.446-30.208-16.851-40.613c-10.407-10.407-24.772-16.851-40.614-16.851Z" fill="url(#_ÂÁ_Ï_ÌÌ_È_ËÂÌÚ_982)"/>
        </g>
        <path d="M1735.666,873.852h0c-1.457,0-2.776-.591-3.731-1.546-.954-.956-1.546-2.275-1.546-3.732h0c0-1.457.591-2.777,1.546-3.731.956-.956,2.274-1.546,3.731-1.546h0c1.458,0,2.777.59,3.732,1.546.954.954,1.546,2.274,1.546,3.731h0c0,1.458-.591,2.777-1.546,3.732-.956.954-2.275,1.546-3.732,1.546Z" fill="#fff"/>
        <polygon points="1741.029 854.682 1736.016 854.682 1731.002 854.682 1730.247 832.713 1729.491 810.744 1735.832 810.744 1742.172 810.744 1741.601 832.713 1741.029 854.682" fill="#fff"/>
      </g>
      <path d="M408.543,878.302c1.822,4.97,4.343,9.74,6.947,14.48,2.603,4.74,5.29,9.45,7.443,14.299,2.416,5.441,5.002,10.804,7.546,16.176,2.542,5.371,5.042,10.75,7.285,16.221,1.001,2.441,1.98,4.877,3.008,7.282,1.029,2.406,2.107,4.781,3.304,7.101,0,0-14.922-13.719-29.586-27.987-14.663-14.269-29.067-29.087-28.029-31.283,1.06-2.241,6.013-5.143,11.031-7.935,5.018-2.791,10.098-5.471,11.411-7.268l-.361-1.086Z" fill="#fff"/>
      <path d="M412.402,927.077h-66.052c-4.349,0-8.286-1.762-11.136-4.612s-4.612-6.787-4.612-11.135v-66.053c0-4.349,1.762-8.286,4.612-11.136s6.787-4.612,11.136-4.612h66.052c4.349,0,8.287,1.762,11.136,4.612,2.85,2.85,4.613,6.787,4.613,11.136v66.053c0,4.349-1.763,8.285-4.613,11.135-2.849,2.85-6.787,4.612-11.136,4.612Z" fill="#fff"/>
      <g>
        <polygon points="410.893 862.421 379.377 862.421 347.859 862.421 347.859 859.511 347.859 856.601 379.377 856.601 410.893 856.601 410.893 859.511 410.893 862.421" fill="#e4d6f8"/>
        <polygon points="410.73 881.13 379.213 881.13 347.696 881.13 347.696 878.22 347.696 875.31 379.213 875.31 410.73 875.31 410.73 878.22 410.73 881.13" fill="#e4d6f8"/>
        <polygon points="410.73 900.003 379.213 900.003 347.696 900.003 347.696 897.093 347.696 894.183 379.213 894.183 410.73 894.183 410.73 897.093 410.73 900.003" fill="#e4d6f8"/>
      </g>
      <g>
        <path d="M1500.749,564.803v156.79c0,5.237-2.017,9.978-5.269,13.41-3.251,3.431-7.737,5.555-12.676,5.555h-317.264c-4.863-.12-9.254-2.282-12.431-5.703-3.176-3.422-5.137-8.103-5.137-13.261v-156.79c0-5.237,2.017-9.978,5.278-13.409,3.261-3.432,7.766-5.554,12.742-5.554h316.812c4.939,0,9.424,2.122,12.676,5.554,3.252,3.431,5.269,8.172,5.269,13.409Z" fill="url(#_ÂÁ_Ï_ÌÌ_È_ËÂÌÚ_40)"/>
        <path d="M1500.749,550.779v17.735h-352.777v-17.735c0-5.656,2.017-10.775,5.278-14.48,3.261-3.706,7.766-5.997,12.742-5.997h316.812c4.939,0,9.424,2.291,12.676,5.997,3.252,3.706,5.269,8.824,5.269,14.48Z" fill="#a17ff4"/>
        <g>
          <polygon points="1240.757 601.761 1208.123 601.761 1175.49 601.761 1175.49 596.973 1175.49 592.184 1208.123 592.184 1240.757 592.184 1240.757 596.973 1240.757 601.761" fill="#e4d6f8"/>
          <polygon points="1472.056 622.929 1332.151 622.929 1192.247 622.929 1192.247 618.14 1192.247 613.352 1332.151 613.352 1472.056 613.352 1472.056 618.14 1472.056 622.929" fill="url(#_ÂÁ_Ï_ÌÌ_È_ËÂÌÚ_91)"/>
          <polygon points="1472.056 644.097 1332.151 644.097 1192.247 644.097 1192.247 639.308 1192.247 634.52 1332.151 634.52 1472.056 634.52 1472.056 639.308 1472.056 644.097" fill="#e4d6f8"/>
          <polygon points="1270.241 665.263 1222.866 665.263 1175.49 665.263 1175.49 660.476 1175.49 655.688 1222.866 655.688 1270.241 655.688 1270.241 660.476 1270.241 665.263" fill="url(#_ÂÁ_Ï_ÌÌ_È_ËÂÌÚ_92)"/>
          <polygon points="1472.056 686.431 1332.151 686.431 1192.247 686.431 1192.247 681.643 1192.247 676.856 1332.151 676.856 1472.056 676.856 1472.056 681.643 1472.056 686.431" fill="#e4d6f8"/>
          <polygon points="1447.639 707.599 1319.943 707.599 1192.247 707.599 1192.247 702.811 1192.247 698.023 1319.943 698.023 1447.639 698.023 1447.639 702.811 1447.639 707.599" fill="#e4d6f8"/>
        </g>
        <g>
          <path d="M1469.65,549.408c0,2.081.843,3.964,2.207,5.328s3.247,2.207,5.328,2.207,3.965-.843,5.328-2.207,2.207-3.247,2.207-5.328-.843-3.963-2.207-5.328c-1.363-1.363-3.248-2.207-5.328-2.207s-3.964.843-5.328,2.207c-1.363,1.364-2.207,3.248-2.207,5.328Z" fill="#fff"/>
          <path d="M1442.687,549.408c0,2.081.843,3.964,2.207,5.328,1.363,1.363,3.247,2.207,5.328,2.207s3.963-.843,5.328-2.207c1.363-1.363,2.207-3.247,2.207-5.328s-.843-3.963-2.207-5.328c-1.364-1.363-3.248-2.207-5.328-2.207s-3.964.843-5.328,2.207c-1.363,1.364-2.207,3.248-2.207,5.328Z" fill="#fff"/>
          <path d="M1415.722,549.408c0,2.081.843,3.964,2.208,5.328,1.363,1.363,3.247,2.207,5.327,2.207s3.964-.843,5.328-2.207,2.207-3.247,2.207-5.328-.843-3.963-2.207-5.328c-1.363-1.363-3.247-2.207-5.328-2.207s-3.963.843-5.327,2.207-2.208,3.248-2.208,5.328Z" fill="#fff"/>
        </g>
      </g>
      <path d="M1657.713,908.557h-293.871c-4.349,0-8.287,1.762-11.135,4.612-2.85,2.85-4.613,6.787-4.613,11.136v114.909c0,4.349,1.763,8.286,4.613,11.136,2.849,2.85,6.787,4.612,11.135,4.612h293.871c4.348,0,8.286-1.762,11.136-4.612,2.849-2.85,4.612-6.787,4.612-11.136v-114.909c0-4.349-1.763-8.285-4.612-11.136-2.85-2.85-6.788-4.612-11.136-4.612Z" fill="#e4d6f8"/>
      <path d="M1732.877,948.482h-293.871c-4.349,0-8.286,1.762-11.136,4.612s-4.613,6.787-4.613,11.136v114.909c0,4.349,1.763,8.285,4.613,11.136s6.787,4.612,11.136,4.612h293.871c4.348,0,8.285-1.762,11.136-4.612,2.849-2.85,4.612-6.787,4.612-11.136v-114.909c0-4.349-1.763-8.286-4.612-11.136-2.85-2.85-6.788-4.612-11.136-4.612Z" fill="url(#_ÂÁ_Ï_ÌÌ_È_ËÂÌÚ_401)"/>
      <polygon points="1725.844 993.523 1585.941 993.523 1446.037 993.523 1446.037 988.736 1446.037 983.948 1585.941 983.948 1725.844 983.948 1725.844 988.736 1725.844 993.523" fill="url(#_ÂÁ_Ï_ÌÌ_È_ËÂÌÚ_983)"/>
      <polygon points="1725.844 1024.242 1585.941 1024.242 1446.037 1024.242 1446.037 1019.454 1446.037 1014.667 1585.941 1014.667 1725.844 1014.667 1725.844 1019.454 1725.844 1024.242" fill="url(#_ÂÁ_Ï_ÌÌ_È_ËÂÌÚ_984)"/>
      <polygon points="1725.844 1054.961 1585.941 1054.961 1446.037 1054.961 1446.037 1050.173 1446.037 1045.386 1585.941 1045.386 1725.844 1045.386 1725.844 1050.173 1725.844 1054.961" fill="url(#_ÂÁ_Ï_ÌÌ_È_ËÂÌÚ_985)"/>
      <g>
        <g>
          <path d="M1150.582,465.237c4.407,11.883,13.212,20.854,23.888,25.754,10.674,4.899,23.219,5.727,35.101,1.32,11.883-4.407,20.856-13.213,25.754-23.888,4.899-10.676,5.727-23.219,1.32-35.102-4.407-11.883-13.213-20.854-23.888-25.754-10.676-4.899-23.219-5.726-35.102-1.319-11.882,4.407-20.854,13.212-25.753,23.888-4.9,10.674-5.727,23.219-1.32,35.101Z" fill="#c8cc2b"/>
          <path d="M1193.619,509.484c-16.602,0-31.654-6.752-42.557-17.653s-17.654-25.951-17.654-42.547,6.752-31.654,17.654-42.557,25.954-17.654,42.557-17.654,31.646,6.752,42.547,17.654c10.901,10.902,17.652,25.956,17.652,42.557s-6.751,31.646-17.652,42.547c-10.901,10.901-25.951,17.653-42.547,17.653ZM1193.619,392.85c-15.56,0-29.669,6.329-39.888,16.548-10.219,10.218-16.547,24.327-16.547,39.887s6.328,29.66,16.547,39.878c10.219,10.217,24.328,16.546,39.888,16.546s29.66-6.329,39.877-16.546c10.218-10.218,16.547-24.323,16.547-39.878s-6.329-29.669-16.547-39.887c-10.217-10.219-24.322-16.548-39.877-16.548Z" fill="url(#_ÂÁ_Ï_ÌÌ_È_ËÂÌÚ_986)"/>
        </g>
        <path d="M1191.014,473.134c-.489,0-.963-.114-1.39-.325-.428-.212-.808-.521-1.106-.911l-8.388-11.014-8.388-11.013,2.496-1.899,2.495-1.899,6.923,9.093,6.922,9.093,10.829-19.89,10.829-19.889,2.751,1.502,2.751,1.503-11.986,22.004-11.984,22.006c-.254.467-.618.852-1.051,1.131-.432.28-.934.453-1.466.497-.038,0-.079.002-.12.006-.04.002-.081.006-.119.006Z" fill="#fff"/>
      </g>
      <path d="M800.363,735.432h-311.998c-4.349,0-8.286-1.762-11.136-4.612s-4.612-6.787-4.612-11.136v-180.261c0-4.349,1.762-8.285,4.612-11.136s6.787-4.613,11.136-4.613h311.998c4.349,0,8.286,1.763,11.136,4.613s4.612,6.787,4.612,11.136v180.261c0,4.349-1.762,8.286-4.612,11.136s-6.787,4.612-11.136,4.612Z" fill="#a17ff4"/>
      <path d="M747.422,781.161h-311.998c-4.349,0-8.285-1.762-11.135-4.612s-4.612-6.787-4.612-11.136v-180.261c0-4.349,1.762-8.285,4.612-11.136s6.787-4.612,11.135-4.612h311.998c4.349,0,8.286,1.762,11.136,4.612s4.612,6.787,4.612,11.136v180.261c0,4.349-1.762,8.286-4.612,11.136s-6.787,4.612-11.136,4.612Z" fill="#fff"/>
      <g>
        <path d="M653.497,629.553c-.556-.278-1.167-.528-1.819-.708-.653-.181-1.348-.292-2.07-.292h-127.111c-.722,0-1.417.111-2.069.292-.653.18-1.264.43-1.82.708l33.722,28.833,33.723,28.833,33.721-28.833,33.722-28.833Z" fill="url(#_ÂÁ_Ï_ÌÌ_È_ËÂÌÚ_93)"/>
        <path d="M657.163,636.109v96.333c0,2.111-.861,4-2.235,5.361-1.376,1.361-3.264,2.195-5.32,2.195h-127.111c-2.056,0-3.944-.833-5.319-2.195-1.376-1.361-2.237-3.25-2.237-5.361v-96.333c0-.722.083-1.389.264-2,.18-.611.458-1.167.847-1.667l35,29.889,35.001,29.889,34.999-29.889,35-29.889c.389.5.667,1.056.848,1.667.18.611.263,1.278.263,2Z" fill="url(#_ÂÁ_Ï_ÌÌ_È_ËÂÌÚ_94)"/>
      </g>
      <g>
        <path d="M629.361,641.603c2.363,6.372,7.087,11.185,12.811,13.811,5.726,2.628,12.452,3.071,18.824.708,6.373-2.363,11.184-7.086,13.812-12.81,2.628-5.726,3.071-12.452.708-18.825-2.363-6.372-7.086-11.183-12.811-13.811-5.724-2.628-12.452-3.071-18.824-.708-6.372,2.363-11.184,7.085-13.812,12.81-2.627,5.726-3.07,12.452-.708,18.825Z" fill="#e53e53"/>
        <path d="M644.446,638.287c0-1.562.463-2.891,1.307-3.993.844-1.101,2.068-1.974,3.587-2.626l-.017-.055-.015-.053c-1.368-.647-2.347-1.501-2.984-2.46-.638-.959-.933-2.022-.933-3.086,0-1.958.828-3.599,2.194-4.751,1.368-1.151,3.274-1.813,5.433-1.813,2.399,0,4.194.749,5.39,1.882,1.197,1.135,1.793,2.653,1.793,4.195,0,1.041-.254,2.121-.89,3.122-.634,1.001-1.649,1.923-3.168,2.65v.109c1.536.608,2.778,1.453,3.637,2.522.858,1.069,1.333,2.36,1.333,3.858,0,2.149-.923,3.944-2.433,5.203-1.511,1.258-3.611,1.98-5.966,1.98-2.582,0-4.65-.771-6.071-1.991-1.421-1.221-2.197-2.892-2.197-4.693ZM657.727,638.134c0-1.502-.521-2.614-1.46-3.47-.939-.857-2.294-1.456-3.966-1.933-1.443.423-2.555,1.107-3.307,1.98-.752.874-1.142,1.938-1.142,3.12-.054,1.248.393,2.426,1.249,3.29.856.866,2.12,1.419,3.699,1.419,1.498,0,2.729-.467,3.587-1.25.857-.784,1.34-1.886,1.34-3.156ZM648.547,625.787c0,1.237.463,2.187,1.284,2.922.82.734,1.998,1.256,3.424,1.636,1.063-.359,2.002-.917,2.674-1.667.673-.751,1.08-1.692,1.08-2.815,0-.988-.293-1.994-.961-2.753-.669-.76-1.713-1.272-3.217-1.272-1.383,0-2.454.456-3.18,1.177-.725.721-1.105,1.709-1.105,2.772Z" fill="#fff"/>
      </g>
    </g>
    <g>
      <path d="M1256.699,957.022c-.201,0-.401-.038-.591-.113-.19-.077-.369-.19-.527-.342-.303-.309-.456-.713-.456-1.118s.152-.808.456-1.118l13.542-13.541,13.541-13.542c.315-.303.717-.456,1.118-.456s.803.152,1.118.456c.303.31.456.713.456,1.118s-.152.809-.456,1.118l-13.542,13.541-13.541,13.542c-.158.152-.337.265-.527.342-.19.075-.39.113-.591.113Z" fill="#fff"/>
      <path d="M1283.782,957.022c-.201,0-.401-.038-.591-.113-.19-.077-.369-.19-.527-.342l-13.541-13.542-13.542-13.541c-.303-.309-.456-.713-.456-1.118s.152-.808.456-1.118c.315-.303.717-.456,1.118-.456s.803.152,1.118.456l13.541,13.542,13.542,13.541c.303.31.456.713.456,1.118s-.152.809-.456,1.118c-.158.152-.337.265-.527.342-.19.075-.39.113-.591.113Z" fill="#fff"/>
    </g>
    <g>
      <path d="M627.386,1219.662c-.2,0-.401-.038-.591-.114-.19-.076-.369-.19-.527-.341-.303-.31-.456-.713-.456-1.118s.152-.809.456-1.118l13.542-13.542,13.541-13.541c.316-.305.717-.456,1.118-.456s.803.151,1.118.456c.304.309.455.713.455,1.118s-.151.808-.455,1.118l-13.541,13.541-13.542,13.542c-.158.151-.337.265-.527.341-.189.077-.39.114-.591.114Z" fill="#fff"/>
      <path d="M654.469,1219.662c-.2,0-.401-.038-.591-.114-.19-.076-.369-.19-.527-.341l-13.541-13.542-13.542-13.541c-.303-.31-.456-.713-.456-1.118s.152-.809.456-1.118c.315-.305.717-.456,1.118-.456s.803.151,1.118.456l13.542,13.541,13.541,13.542c.304.309.455.713.455,1.118s-.151.808-.455,1.118c-.158.151-.337.265-.527.341-.189.077-.39.114-.591.114Z" fill="#fff"/>
    </g>
    <path d="M562.553,1307.77c-7.834,0-14.937-3.186-20.08-8.327-5.143-5.142-8.328-12.241-8.328-20.07s3.184-14.935,8.328-20.079c5.143-5.143,12.246-8.328,20.08-8.328s14.928,3.184,20.069,8.328c5.142,5.143,8.327,12.244,8.327,20.079s-3.184,14.928-8.327,20.07c-5.141,5.141-12.24,8.327-20.069,8.327ZM562.553,1254.113c-6.967,0-13.282,2.831-17.855,7.406-4.573,4.573-7.406,10.888-7.406,17.854s2.832,13.273,7.406,17.846c4.573,4.572,10.889,7.404,17.855,7.404s13.272-2.832,17.844-7.404c4.572-4.572,7.404-10.885,7.404-17.846s-2.832-13.281-7.404-17.854c-4.572-4.574-10.884-7.406-17.844-7.406Z" fill="#fff"/>
    <g>
      <path d="M1072.83,985.526c.167,1.722-1.056,4.111-2.624,6.403-1.57,2.291-3.487,4.485-4.709,5.819-3.722,4.389-8.806,8.361-14.263,11.82-5.459,3.458-11.292,6.402-16.514,8.735-5.444,2.389-11.083,4.417-16.847,6.015-5.764,1.597-11.653,2.763-17.598,3.43-6.833.778-13.75.889-20.611.222s-13.667-2.111-20.278-4.444c-6.778-2.389-13.389-5.778-19.778-9.611-6.389-3.833-12.556-8.111-18.444-12.278-2.389-1.611-4.722-3.222-7-4.778-2.278-1.556-4.5-3.056-6.667-4.445,1.333-1,2.611-2.055,3.805-3.152,1.194-1.098,2.306-2.237,3.306-3.403.444-.389.833-.75,1.194-1.111s.694-.722,1.028-1.111c1.889-2.056,3.667-4.222,5.32-6.472,1.652-2.25,3.18-4.583,4.569-6.972,4.833-8.389,8.194-17.667,10.111-27.348,1.917-9.68,2.389-19.763,1.444-29.763-.222-2.833-1.472-7.528-2.333-12.111-.861-4.583-1.333-9.056,0-11.444,15.056,1.944,30.389,3.528,45.722,3.889,15.333.361,30.667-.5,45.722-3.444,3.278-.667,6.556-1.306,9.833-2s6.556-1.444,9.833-2.333c.167,3.5.056,7.056.028,10.583s.028,7.028.528,10.417c.222,1.389.472,2.75.737,4.111.263,1.361.541,2.722.819,4.111.5,2.444,1.028,4.889,1.528,7.347.5,2.459.972,4.931,1.361,7.431,1.333,7.944,3.417,15.556,5.944,23,2.528,7.444,5.5,14.722,8.612,22,.666,1.444,2.138,3.472,3.486,5.485,1.347,2.015,2.569,4.015,2.736,5.403Z" fill="url(#_ÂÁ_Ï_ÌÌ_È_ËÂÌÚ_240)"/>
      <path d="M1049.163,914.859c-2.278,3.333-5.361,6.5-8.513,9.389-3.153,2.889-6.376,5.5-8.931,7.722-7.5,6.444-15.583,12.472-24.041,17.917-8.459,5.444-17.292,10.306-26.292,14.417-4.119,1.881-8.308,3.615-12.547,5.218-4.239,1.602-8.528,3.076-12.844,4.437-2.171.685-8.04,2.597-13.367,4.338-5.327,1.74-10.11,3.31-10.11,3.31,1.827,5.914,4.59,11.621,8.238,16.622,3.649,5.001,8.181,9.296,13.544,12.386-3.606-.349-7.152-1.267-10.484-2.687-3.332-1.421-6.45-3.344-9.199-5.704-2.748-2.36-5.121-5.151-7.029-8.23-1.908-3.079-3.351-6.445-4.241-9.957-.344-1.36-1.496-1.561-2.8-1.371-1.303.189-2.76.769-3.717.972,8.5-9.278,14.472-20.5,18.014-32.611,3.541-12.111,4.652-25.111,3.43-37.944-.222-2.833-1.472-7.528-2.333-12.111-.861-4.583-1.333-9.056,0-11.444,15.056,1.944,30.389,3.528,45.722,3.889,15.333.361,30.667-.5,45.722-3.444,3.278-.667,6.556-1.306,9.833-2s6.556-1.444,9.833-2.333c.167,3.5.056,7.056.028,10.583s.028,7.028.528,10.417c.222,1.389.472,2.75.737,4.111.263,1.361.541,2.722.819,4.111Z" fill="url(#_ÂÁ_Ï_ÌÌ_È_ËÂÌÚ_235)"/>
      <g>
        <path d="M910.117,798.05c-.099-.131-.2-.262-.301-.392-.101-.13-.203-.259-.307-.388-.939-1.174-1.963-2.284-3.02-3.364-1.056-1.081-2.144-2.133-3.211-3.191-1.023-1.014-2.07-2.009-3.15-2.964-1.08-.957-2.192-1.876-3.349-2.739-2.357-1.762-4.888-3.245-7.563-4.371-2.677-1.126-5.499-1.893-8.438-2.226-6.472-.731-11.508,1.949-14.98,6.257-3.473,4.307-5.384,10.242-5.608,16.02-.412,10.623,6.232,22.679,15.691,30.562,9.458,7.883,21.73,11.594,32.574,5.528,1.424-.798,2.692-1.813,3.779-2.998,1.087-1.183,1.994-2.534,2.698-4.002,1.139-2.372,1.773-4.942,2.048-7.563.274-2.621.189-5.292-.116-7.867-.35-2.966-1.138-5.853-2.287-8.593-1.15-2.74-2.662-5.332-4.461-7.708Z" fill="url(#_ÂÁ_Ï_ÌÌ_È_ËÂÌÚ_21)"/>
        <path d="M899.164,825.118c-1.168.445-2.779.418-4.375.181-1.598-.237-3.181-.681-4.292-1.07-1.389-.444-2.75-1.028-4.028-1.75s-2.472-1.583-3.528-2.583c-1.778-1.556-3.417-3.75-4.639-6.222-1.221-2.472-2.027-5.222-2.139-7.888-.055-1.223.028-2.418.292-3.57.263-1.152.708-2.263,1.374-3.319.833-1.279,2.083-2.473,3.487-3.459,1.402-.987,2.958-1.764,4.402-2.208,2.889-.834,5.555-.779,8.014.013,2.459.791,4.709,2.319,6.763,4.43.779.778,1.473,1.556,2.098,2.348.624.791,1.18,1.597,1.68,2.43.111.111.222.25.32.403.098.152.181.319.237.486.222.333.416.667.61,1,.194.333.389.667.611,1-1.167-1.333-2.611-2.528-4.18-3.347-1.57-.82-3.264-1.264-4.931-1.097-.833.11-1.667.332-2.458.721-.792.389-1.541.944-2.208,1.722-1.946,2.167-2.529,4.972-2.279,7.778.25,2.806,1.333,5.611,2.722,7.778.889,1.445,1.805,2.556,2.848,3.528,1.041.972,2.209,1.806,3.598,2.694Z" fill="#910f2e"/>
        <path d="M872.322,789.188c0-5.071,3.352-7.779,7.519-8.646,4.167-.867,9.148.109,12.406,2.405.937.661,1.921,1.328,2.838,2.07.916.742,1.763,1.56,2.428,2.518.579.836,1.102,1.979,1.171,3.038.07,1.06-.314,2.036-1.551,2.537-.932.378-2.119.322-3.322.184-1.204-.137-2.424-.357-3.421-.307-1.253.062-2.531.223-3.797.444-1.265.222-2.52.505-3.728.812-1.239.316-2.323.515-3.395.5-1.072-.014-2.131-.242-3.321-.78-.931-.42-1.999-1.142-2.779-1.995-.78-.853-1.27-1.837-1.047-2.78Z" fill="url(#_ÂÁ_Ï_ÌÌ_È_ËÂÌÚ_243)"/>
        <path d="M906.052,805.34c-1.167-1.333-2.611-2.528-4.18-3.347-1.57-.82-3.264-1.264-4.931-1.097-1.389-.557-2.917-.057-4.278.86-1.361.917-2.554,2.251-3.278,3.362-.833,1.277-1.472,2.832-1.833,4.458-.36,1.624-.443,3.319-.165,4.874.165,1.111.527,2.889,1.165,4.514.639,1.624,1.557,3.097,2.833,3.597-2.222-.611-4.361-1.889-6.236-3.5-1.876-1.611-3.487-3.556-4.652-5.5-.946-1.611-1.529-3.389-1.764-5.222-.237-1.833-.125-3.722.32-5.556.443-2.222,1.554-4,3.11-5.291,1.556-1.292,3.556-2.098,5.778-2.376,3.223-.444,6.306.167,9.083,1.5,2.778,1.333,5.25,3.389,7.25,5.833.111.111.222.25.32.403.098.152.181.319.237.486.222.333.416.667.61,1,.194.333.389.667.611,1Z" fill="#b22842"/>
      </g>
      <g>
        <path d="M1067.276,798.05c.1-.131.2-.262.301-.392s.203-.259.307-.388c.94-1.174,1.965-2.284,3.02-3.364,1.057-1.081,2.145-2.133,3.211-3.191,1.024-1.014,2.071-2.009,3.151-2.964,1.079-.957,2.192-1.876,3.348-2.739,2.357-1.762,4.888-3.245,7.564-4.371,2.677-1.126,5.498-1.893,8.437-2.226,6.473-.731,11.508,1.949,14.981,6.257,3.472,4.307,5.383,10.242,5.608,16.02.411,10.623-6.233,22.679-15.691,30.562-9.459,7.883-21.731,11.594-32.574,5.528-1.424-.798-2.692-1.813-3.779-2.998-1.088-1.183-1.995-2.534-2.699-4.002-1.138-2.372-1.773-4.942-2.048-7.563-.274-2.621-.188-5.292.116-7.867.351-2.966,1.138-5.853,2.288-8.593,1.149-2.74,2.661-5.332,4.46-7.708Z" fill="url(#_ÂÁ_Ï_ÌÌ_È_ËÂÌÚ_83)"/>
        <path d="M1080.67,827.551c1.167.445,2.778.417,4.376.181,1.597-.237,3.18-.681,4.291-1.07,1.389-.444,2.75-1.028,4.028-1.75,1.278-.722,2.472-1.583,3.528-2.583,1.778-1.556,3.417-3.75,4.639-6.222,1.222-2.472,2.028-5.222,2.139-7.889.056-1.222-.028-2.417-.291-3.569-.263-1.153-.708-2.265-1.374-3.32-.834-1.278-2.084-2.472-3.487-3.458-1.403-.987-2.959-1.764-4.403-2.209-2.889-.833-5.556-.778-8.013.015-2.459.791-4.709,2.319-6.764,4.43-.778.778-1.472,1.555-2.097,2.348-.626.791-1.181,1.597-1.68,2.43-.112.111-.223.25-.32.403-.098.152-.181.319-.237.485-.222.333-.417.667-.611,1-.194.333-.389.667-.611,1,1.167-1.333,2.611-2.528,4.181-3.347,1.569-.82,3.263-1.265,4.93-1.098.833.111,1.667.333,2.459.722.791.389,1.541.945,2.208,1.722,1.944,2.167,2.528,4.972,2.278,7.778-.25,2.806-1.333,5.611-2.722,7.778-.889,1.444-1.806,2.555-2.847,3.528-1.042.972-2.209,1.805-3.598,2.694Z" fill="#910f2e"/>
        <path d="M1105.07,790.274c0-5.07-3.352-7.779-7.519-8.646s-9.148.109-12.406,2.406c-.937.66-1.921,1.328-2.837,2.07-.917.742-1.764,1.559-2.428,2.518-.579.836-1.102,1.978-1.172,3.038-.069,1.059.316,2.034,1.551,2.536.932.378,2.12.323,3.323.186,1.203-.138,2.423-.357,3.421-.308,1.253.063,2.53.223,3.796.444,1.267.222,2.52.504,3.728.812,1.24.316,2.324.514,3.397.5,1.071-.014,2.131-.242,3.32-.779.931-.421,2-1.143,2.779-1.997.78-.853,1.271-1.837,1.047-2.78Z" fill="url(#_ÂÁ_Ï_ÌÌ_È_ËÂÌÚ_89)"/>
        <path d="M1073.781,807.773c1.167-1.333,2.611-2.528,4.181-3.347,1.569-.82,3.263-1.265,4.93-1.098,1.389-.556,2.917-.056,4.278.861s2.556,2.25,3.278,3.361c.833,1.278,1.472,2.833,1.833,4.459.361,1.624.444,3.319.167,4.874-.167,1.111-.528,2.889-1.167,4.515-.639,1.624-1.556,3.097-2.833,3.597,2.222-.611,4.361-1.889,6.237-3.5,1.874-1.611,3.486-3.556,4.652-5.5.944-1.611,1.528-3.389,1.764-5.222.236-1.833.124-3.722-.32-5.555-.444-2.222-1.556-4-3.111-5.291-1.556-1.292-3.556-2.098-5.778-2.376-3.222-.444-6.306.167-9.083,1.5s-5.25,3.389-7.249,5.833c-.112.111-.223.25-.32.403-.098.152-.181.319-.237.485-.222.333-.417.667-.611,1-.194.333-.389.667-.611,1Z" fill="#b22842"/>
      </g>
      <path d="M1081.497,738.748c0,12.667-.056,23.417-.444,34.111-.389,10.694-1.111,21.333-2.444,33.778-.667,6.056-1.167,13.528-1.778,21.291-.611,7.764-1.333,15.82-2.444,23.042-.833,5.556-1.222,11.306-2.222,16.626-1,5.319-2.611,10.208-5.889,14.041-3.944,4.556-7.361,9.417-10.874,14.222-3.514,4.805-7.126,9.555-11.459,13.889-3,3.055-6.528,6.555-10.361,9.778-3.833,3.222-7.972,6.167-12.194,8.111-1,.444-1.972.833-2.944,1.167-.972.333-1.944.611-2.944.833-4.222.889-8.389,1.444-12.583,1.833-4.194.389-8.417.611-12.75.833-2.944.167-6.439-.163-9.922-.744-3.483-.582-6.955-1.416-9.855-2.256-1.673-.484-4.228-1.398-6.85-2.535-2.623-1.139-5.313-2.503-7.258-3.892-4.944-3.611-9.418-7.199-13.946-11.287-4.529-4.087-9.113-8.675-14.28-14.286-3.5-3.833-7.278-6.611-10.472-9.735-3.194-3.126-5.806-6.598-6.972-11.82-1-4.722-1.778-9.195-2.5-13.681-.722-4.486-1.389-8.986-2.167-13.763-.722-4.833-1.333-9.389-1.889-13.958-.555-4.57-1.055-9.153-1.555-14.042-.944-9.778-2.417-20.75-3.763-31.722-1.348-10.972-2.57-21.944-3.014-31.722-.278-4.945-.528-9.917-.763-14.874-.237-4.959-.459-9.903-.681-14.792-.222-4.611.028-9.778-.041-14.819-.07-5.042-.459-9.959-1.959-14.07-1.5-4.222-.055-6.889,2.542-8.75,2.597-1.861,6.347-2.917,9.458-3.917,12.556-3.944,26.083-6.639,39.75-8.542,13.667-1.902,27.472-3.013,40.583-3.791,10.555-.667,21.083-.889,31.611-.709,10.528.181,21.056.765,31.611,1.709,4.389.389,9.111.778,13.694,1.667,4.583.889,9.028,2.278,12.861,4.667,2.889,1.778,4.333,3.806,5.098,6.194.763,2.389.847,5.139,1.015,8.361v.111c.333,7.278.582,14.472.749,21.681.167,7.208.25,14.43.25,21.763Z" fill="url(#_ÂÁ_Ï_ÌÌ_È_ËÂÌÚ_2401)"/>
      <g opacity=".57">
        <path d="M1080.498,695.192v.111c-1.668.389-3.751.722-5.723,1.167-1.972.444-3.833,1-5.056,1.833-1.167.556-2.917.528-4.75.376-1.833-.153-3.75-.431-5.25-.376-2.833.111-5.639.278-8.444.458-2.806.181-5.611.376-8.444.542-7,.278-13.944.5-20.874.959-6.931.458-13.848,1.152-20.792,2.374-7.667,1.389-15.389,3.056-23.083,4.848-7.694,1.791-15.361,3.708-22.917,5.597-5.389,1.333-10.055,2.97-14.611,4.899-4.555,1.928-9,4.148-13.944,6.648-4.222,2.167-6.222,5.667-7.263,9.667-1.042,4-1.125,8.5-1.514,12.667-.389,4.333-.639,8.722-.791,13.126-.153,4.402-.209,8.819-.209,13.208,0,9.778.028,19.695.514,29.542.486,9.847,1.43,19.624,3.263,29.124,3.667,18.667,9.982,37.22,20.198,53.182,10.217,15.962,24.334,29.334,43.607,37.638,5.589,2.408,11.264,4.019,17.327,4.829,6.062.811,12.511.821,19.647.027-1,.444-1.972.833-2.944,1.167-.972.333-1.944.611-2.944.833-4.222.889-8.386,1.547-12.579,1.987-4.193.44-8.416.662-12.755.68-4.591.018-7.959-.218-10.968-.715-3.008-.498-5.657-1.257-8.81-2.285-2.332-.76-4.664-1.51-6.901-2.418-2.237-.907-4.377-1.971-6.321-3.36-4.944-3.611-9.639-7.361-14.389-11.611s-9.555-9-14.722-14.611c-3.5-3.833-7.278-6.611-10.472-9.735-3.194-3.126-5.806-6.598-6.972-11.82-1-4.722-1.778-9.195-2.5-13.681-.722-4.486-1.389-8.986-2.167-13.763-.722-4.833-1.333-9.389-1.889-13.958-.555-4.57-1.055-9.153-1.555-14.042-.944-9.778-2.417-20.75-3.763-31.722-1.348-10.972-2.57-21.944-3.014-31.722-.278-4.945-.528-9.917-.763-14.874-.237-4.959-.459-9.903-.681-14.792-.222-4.611.028-9.778-.041-14.819-.07-5.042-.459-9.959-1.959-14.07-1.5-4.222-.055-6.889,2.542-8.75,2.597-1.861,6.347-2.917,9.458-3.917,12.556-3.944,26.083-6.639,39.75-8.542,13.667-1.902,27.472-3.013,40.583-3.791,10.555-.667,21.083-.889,31.611-.709,10.528.181,21.056.765,31.611,1.709,4.389.389,9.111.778,13.694,1.667,4.583.889,9.028,2.278,12.861,4.667,2.889,1.778,4.333,3.806,5.098,6.194.763,2.389.847,5.139,1.015,8.361Z" fill="url(#_ÂÁ_Ï_ÌÌ_È_ËÂÌÚ_241)"/>
      </g>
      <path d="M1077.919,746.218c-.033-.359-.066-.719-.098-1.078-.033-.359-.066-.718-.098-1.077-.025-.273-.048-.547-.069-.82-.021-.273-.042-.547-.063-.82-.425-5.462-.868-10.919-1.282-16.377-.413-5.458-.799-10.918-1.11-16.387-1.847.162-3.691.356-5.532.58-1.84.224-3.677.48-5.509.768.31-2.672.62-5.345.93-8.017s.62-5.344.93-8.017c-6.56-2.075-13.418-3.212-20.341-3.83-6.923-.618-13.912-.717-20.735-.717-14.492,0-28.894.691-43.203,2.179-14.308,1.488-28.523,3.772-42.644,6.959-3.317.749-6.638,1.562-9.933,2.468-3.295.906-6.565,1.903-9.782,3.019-2.143.743-4.284,1.454-6.43,2.153-2.144.7-4.293,1.388-6.45,2.084.598,2.267,1.141,4.548,1.628,6.841.487,2.293.918,4.598,1.293,6.912-.427.261-2.412.666-4.292,1.021-1.88.356-3.654.661-3.659.726-.683,9.451-1.19,18.914-1.526,28.384-.335,9.47-.5,18.946-.499,28.42,0,2.219.051,6.073.102,9.373s.102,6.046.102,6.046c-.51-4.889-1.2-9.783-1.902-14.769-.702-4.984-1.417-10.06-1.973-15.311-.647-6.09-1.192-12.07-1.702-17.888-.511-5.819-.985-11.477-1.489-16.925-.277-2.986-.332-6.242-.544-9.462-.212-3.22-.581-6.402-1.483-9.239-4.672,3.04-9.027,7.298-12.642,12.102-3.615,4.806-6.492,10.158-8.207,15.387-.818-3.407-1.04-6.999-.913-10.592.127-3.595.602-7.191,1.178-10.609.893-5.306,2.292-10.523,4.153-15.572,1.861-5.048,4.184-9.926,6.929-14.551,1.372-2.313,2.85-4.564,4.429-6.742,1.579-2.178,3.258-4.282,5.032-6.303.887-1.01,1.798-2,2.731-2.967.934-.967,1.891-1.912,2.87-2.833.427-.401,1.586-1.658,2.788-2.78,1.203-1.123,2.45-2.111,3.056-1.977-2.769-.617-5.81-1.042-8.872-1.273-3.061-.23-6.143-.264-8.996-.097-3.071.18-6.099.343-9.122.565-3.022.221-6.039.499-9.09.908,2.042-4.437,5.301-8.582,8.973-12.404,3.672-3.821,7.757-7.318,11.451-10.454,4.061-3.449,8.324-6.66,12.757-9.616,4.433-2.957,9.035-5.658,13.775-8.09,4.904-2.517,9.849-4.838,14.931-6.756,5.083-1.918,10.304-3.432,15.763-4.337,8.572-1.421,17.297-2.313,25.987-2.325s17.344.858,25.775,2.959c5.157,1.284,10.177,3.02,15.062,5.088,4.885,2.069,9.632,4.47,14.243,7.086,2.297,1.304,4.562,2.662,6.802,4.062s4.453,2.841,6.646,4.314c1.098.737,3.891,3.525,6.411,6.128,2.52,2.604,4.766,5.023,4.766,5.023,0,0,1.352-.809,2.881-1.809,1.529-1.001,3.237-2.193,3.948-2.958,1.504-1.619,3.019-3.434,4.333-5.149,1.315-1.714,2.431-3.327,3.14-4.54,1.216-2.077,1.833-3.997,2.292-5.978.459-1.98.758-4.022,1.333-6.341,1.587,2.73,2.561,6.201,2.902,9.728.341,3.527.049,7.11-.899,10.065-.935,2.918-2.158,5.132-3.691,7.051s-3.377,3.542-5.553,5.278c5.679-3.543,12.724-2.147,19.179,1.161,6.454,3.308,12.319,8.527,15.636,12.628-4.668-1.254-8.811-1.697-12.957-1.6-4.146.097-8.294.73-12.975,1.627,2.949.408,5.759,1.998,8.302,4.022,2.543,2.024,4.821,4.483,6.706,6.631,1.884,2.147,3.631,4.997,4.969,7.964,1.339,2.968,2.269,6.055,2.521,8.677-1.565,1.921-2.47,4.328-3.101,6.857-.63,2.53-.987,5.183-1.451,7.597-.566,2.936-.898,5.933-1.132,8.941-.234,3.009-.371,6.027-.547,9.001-.372,6.313-.823,12.634-1.321,18.96-.499,6.326-1.047,12.657-1.612,18.992-.288,3.214-.695,8.17-1.032,12.322-.337,4.152-.602,7.501-.602,7.501,0-1.599-.008-3.199-.021-4.798-.014-1.599-.034-3.199-.06-4.798-.039-2.412-.252-4.848-.512-7.282-.26-2.435-.566-4.869-.788-7.28-.2-2.169-.399-4.339-.598-6.508-.198-2.17-.395-4.34-.592-6.509Z" fill="url(#_ÂÁ_Ï_ÌÌ_È_ËÂÌÚ_41)"/>
      <path d="M1004.107,882.69s1.191.023,3.041-.173c1.849-.197,4.358-.611,6.994-1.486.953-.317,1.832-.659,2.674-1.073.842-.414,1.647-.9,2.45-1.502.588-.44,1.644-1.61,2.677-2.879,1.031-1.27,2.038-2.639,2.527-3.482-.127.29-.277.925-.518,1.728-.241.802-.573,1.773-1.066,2.733-.464.906-1.092,1.854-1.814,2.712-.722.859-1.54,1.627-2.386,2.173-.86.558-2.281,1.336-4.599,1.741-2.318.407-5.533.44-9.981-.492Z" fill="url(#_ÂÁ_Ï_ÌÌ_È_ËÂÌÚ_211)"/>
      <path d="M1275.608,1392.637c-5.722,8.778-18.306,21.417-30.028,31.917s-22.583,18.861-24.861,19.083c-12.222,1.056-24.167.972-36.111.653-11.944-.32-23.889-.876-36.111-.764-13.056.111-26.111.194-39.167.264-13.056.069-26.111.124-39.167.18-27.222.111-54.444.139-81.667.097-27.222-.041-54.444-.152-81.667-.319-13.611-.111-27.222-.222-40.833-.347-13.611-.125-27.222-.264-40.833-.431-6.778-.056-13.583-.139-20.389-.222-6.805-.083-13.611-.167-20.389-.222-6.056-.111-12.056.583-17.583.125-5.528-.459-10.583-2.07-14.75-6.792-7.833-8.944-14.333-18.528-20.347-28.459-6.014-9.93-11.542-20.208-17.431-30.541-5.222-9.278-7.139-19.583-7.361-30.083-.222-10.5,1.25-21.195,2.806-31.25,1.833-12.056,3.639-24.139,5.583-36.209,1.944-12.069,4.028-24.124,6.417-36.124,4.722-23.722,10.167-47.306,16.25-70.708,6.083-23.403,12.805-46.626,20.083-69.626,2.111-6.611,4.444-13.444,7.042-20.152,2.597-6.709,5.458-13.292,8.624-19.403,2.722-5.167,5.194-10.583,8.292-15.417,3.097-4.833,6.819-9.083,12.041-11.917,21.222-11.278,42.289-21.402,63.48-31.166,21.192-9.763,42.508-19.164,64.231-28.998-2.111,6.778-.955,12.984,2.019,18.512,2.976,5.527,7.77,10.373,12.937,14.429,9.111,7.222,21.611,12.722,34.667,15.987,13.055,3.263,26.667,4.291,38,2.569,7-1.055,13.306-3.417,19.333-6.417s11.778-6.639,17.667-10.25c6-3.722,12.917-8.444,19.25-13.764,6.333-5.319,12.083-11.235,15.75-17.347,2.833,1.056,5.944,2.139,9.209,3.235,3.263,1.098,6.68,2.209,10.124,3.32,4.222,1.389,8.5,2.806,12.57,4.237,4.069,1.43,7.93,2.874,11.319,4.319,12.556,5.444,22.293,9.776,31.652,14.252,9.358,4.476,18.338,9.095,29.378,15.117,7.653,4.175,14.257,8,19.6,12.308,5.343,4.309,9.425,9.101,12.037,15.212,2.278,5.5,4.639,11.111,6.987,16.75,2.347,5.639,4.68,11.305,6.902,16.917,10.056,25.667,17.793,52.418,24.21,79.517,6.418,27.099,11.516,54.546,16.293,81.601,2.333,13.333,4.624,27.804,6.499,42.33,1.874,14.527,3.331,29.108,3.998,42.663,0,.167,0,.333.014.5.013.167.041.333.097.5.5,11,1.889,21.389,1.626,31.376-.264,9.985-2.181,19.569-8.292,28.958Z" fill="url(#_ÂÁ_Ï_ÌÌ_È_ËÂÌÚ_311)"/>
      <path d="M1275.608,1392.637c-5.722,8.778-18.306,21.417-30.028,31.917s-22.583,18.861-24.861,19.083c-12.222,1.056-24.167.972-36.111.653-11.944-.32-23.889-.876-36.111-.764-13.056.111-26.111.194-39.167.264-13.056.069-26.111.124-39.167.18-27.222.111-54.444.139-81.667.097-27.222-.041-54.444-.152-81.667-.319-13.611-.111-27.222-.222-40.833-.347-13.611-.125-27.222-.264-40.833-.431-6.778-.056-13.583-.139-20.389-.222-6.805-.083-13.611-.167-20.389-.222-6.056-.111-12.056.583-17.583.125-5.528-.459-10.583-2.07-14.75-6.792-7.833-8.944-14.333-18.528-20.347-28.459-6.014-9.93-11.542-20.208-17.431-30.541-5.222-9.278-7.139-19.583-7.361-30.083-.222-10.5,1.25-21.195,2.806-31.25,1.833-12.056,3.639-24.139,5.583-36.209,1.944-12.069,4.028-24.124,6.417-36.124,4.722-23.722,10.167-47.306,16.25-70.708,6.083-23.403,12.805-46.626,20.083-69.626,2.111-6.611,4.444-13.444,7.042-20.152,2.597-6.709,5.458-13.292,8.624-19.403,2.722-5.167,5.194-10.583,8.292-15.417,3.097-4.833,6.819-9.083,12.041-11.917,13.056-6.944,25.833-13.417,38.528-19.611,12.694-6.194,25.306-12.111,38.028-17.944,8-3.722,16.028-7.417,24.153-11.126,8.124-3.708,16.347-7.43,24.736-11.208-2.111,6.778-.389,12.917,3.153,18.374,3.541,5.459,8.902,10.237,14.069,14.292,9.111,7.222,21.611,12.722,34.667,15.987,13.055,3.263,26.667,4.291,38,2.569,7-1.055,13.306-3.417,19.333-6.417s11.778-6.639,17.667-10.25c6-3.722,12.917-8.444,19.25-13.764,6.333-5.319,12.083-11.235,15.75-17.347,1.833.667,3.778,1.361,5.806,2.069,2.028.709,4.139,1.431,6.306,2.153,1.167.389,2.361.778,3.57,1.167,1.208.389,2.43.778,3.652,1.167-3.167,8.222-6.25,15.445-10.167,22.263-3.917,6.82-8.667,13.237-15.167,19.848-7.5,7.5-15.361,14.25-23.486,20.652-8.126,6.403-16.514,12.459-25.07,18.57-14.111,10-30.417,18.167-47.319,24.944-16.903,6.778-34.403,12.167-50.903,16.611-7.944,2.111-16.139,4.444-24.374,6.459-8.237,2.013-16.514,3.708-24.625,4.541-5.167,44,2.25,91.139,18.889,134.944,16.639,43.806,42.5,84.278,74.222,114.944,3.611,3.5,9.028,10.167,14.903,15.972,5.874,5.806,12.208,10.75,17.652,10.806,1.667.056,3.278-.306,4.848-.874,1.569-.57,3.097-1.348,4.597-2.126,21.111-11.111,40.806-24.889,58.598-40.806,17.791-15.917,33.68-33.972,47.18-53.639,14.333-20.833,25.5-41.778,33-63.944,7.5-22.167,11.333-45.556,11-71.278,7.056,11.056,13.722,25.194,19.25,39.791,5.528,14.598,9.917,29.653,12.417,42.542,3.5,18,5.861,35.167,6.959,51.806,1.097,16.639.93,32.75-.626,48.639-.611,6.5-.75,10.028-1.111,13.5-.361,3.472-.944,6.889-2.444,13.167,6.5,1.111,13.444,1.861,20.292,1.57,6.847-.292,13.597-1.626,19.708-4.681,8.333-4.111,16.194-9.972,23.459-16.626,7.263-6.652,13.93-14.097,19.874-21.374.5,11,1.889,21.389,1.626,31.376-.264,9.985-2.181,19.569-8.292,28.958Z" fill="url(#_ÂÁ_Ï_ÌÌ_È_ËÂÌÚ_39)"/>
      <path d="M1093.497,983.748c-.278,3.444-1.972,7.167-4.013,10.722-2.042,3.556-4.431,6.944-6.098,9.722-2.667,4.278-5.556,8.389-8.763,12.237-3.209,3.847-6.737,7.43-10.681,10.652-10.278,8.389-22.083,14.083-34.583,18-12.5,3.917-25.694,6.056-38.75,7.333-9,.833-17.722,1.028-26.306.124-8.583-.902-17.028-2.902-25.471-6.458-10.89-4.555-21.723-9.944-31.903-16.319-10.181-6.376-19.709-13.737-27.987-22.237-1.333-1.389-2.722-2.861-4.124-4.389-1.403-1.528-2.82-3.111-4.209-4.722,8-3.722,16.028-7.417,24.153-11.126,8.124-3.708,16.347-7.43,24.736-11.208-2.111,6.778-.389,12.917,3.153,18.374,3.541,5.459,8.902,10.237,14.069,14.292,9.111,7.222,21.611,12.722,34.667,15.987,13.055,3.263,26.667,4.291,38,2.569,7-1.055,13.306-3.417,19.333-6.417s11.778-6.639,17.667-10.25c6-3.722,12.917-8.444,19.25-13.764,6.333-5.319,12.083-11.235,15.75-17.347,1.833.667,3.778,1.361,5.806,2.069,2.028.709,4.139,1.431,6.306,2.153Z" fill="url(#_ÂÁ_Ï_ÌÌ_È_ËÂÌÚ_27)"/>
      <path d="M825.427,1165.252c-9.11,16.221-15.953,33.699-20.369,51.769-4.416,18.071-6.403,36.736-5.8,55.329.603,18.594,3.797,37.09,9.374,54.837,5.577,17.748,13.539,34.744,23.681,50.34-.203-.312-.307-.816-.378-1.333-.072-.517-.112-1.049-.189-1.419-2.663-12.952-5.217-25.964-7.287-39.049-2.069-13.083-3.656-26.239-4.383-39.477-.769-13.978-1.354-27.982-1.52-41.988-.164-14.005.089-28.011.995-41.993.512-7.885,1.231-15.758,2.197-23.6.965-7.843,2.179-15.654,3.678-23.416Z" fill="#9c4fde"/>
      <path d="M1088.941,988.414c-3.722,9.833-9.167,18.222-15.93,25.513-6.764,7.292-14.848,13.487-23.848,18.931-13.5,8.167-29.139,12.417-43.944,14.083-14.806,1.667-28.778.75-38.945-1.417-6.167-1.278-12.555-3.25-18.68-5.806-6.125-2.556-11.987-5.694-17.097-9.306-3.946-2.833-7.696-6.083-10.918-9.278-3.222-3.194-5.917-6.333-7.75-8.944-1.389-1.944-3.333-4.917-5.152-7.972-1.82-3.056-3.514-6.194-4.403-8.472-.167-.5-1.194-3.056-2.139-5.515-.944-2.458-1.806-4.819-1.639-4.93,2.111-1.611,4.222-2.972,6.278-4.097,2.056-1.126,4.056-2.014,5.944-2.681,2-.778,4.194-1.639,6.472-2.389s4.639-1.389,6.972-1.722c.556,3.722,1.639,7.361,3.139,10.792,1.5,3.43,3.417,6.652,5.639,9.541,1.556,1.944,3.222,3.722,5,5.333s3.667,3.056,5.667,4.333c5.111,3.222,10.417,5.528,15.917,7.25,5.5,1.722,11.194,2.861,17.083,3.75,6.055.944,12.167,1.528,18.278,1.569,6.111.042,12.222-.458,18.278-1.68,6.611-1.389,13-3.667,19.028-6.681,6.028-3.013,11.694-6.763,16.861-11.097,2.556-2.111,4.861-4.556,6.82-7.25,1.958-2.694,3.569-5.639,4.736-8.75.778-2.278,1.75-4.972,2.348-7.694.597-2.722.819-5.472.097-7.861.833.278,2.222.722,3.611,1.194,1.389.472,2.778.972,3.611,1.361,3.722,1.833,6.278,3.306,8.542,4.876,2.263,1.569,4.236,3.236,6.791,5.458.5.389,1.472.972,2.431,1.624.958.653,1.902,1.376,2.347,2.042,0,.056.028.139.056.222.028.083.056.167.056.222.222.611-.056,1.667-.444,2.722-.389,1.056-.889,2.111-1.111,2.722Z" fill="#fc77aa"/>
      <g opacity=".37">
        <path d="M995.141,622.782c.242.327.359.71.337,1.167-.022.457-.182.987-.493,1.607-.555,1.11-1.111,2.229-1.751,3.291-.639,1.063-1.362,2.07-2.253,2.957-1.662,1.655-3.451,3.076-5.322,4.385s-3.824,2.506-5.818,3.711c-.908.549-1.841,1.111-2.816,1.565-.974.454-1.991.801-3.068.92-.922.101-1.818-.02-2.708-.207-.891-.186-1.776-.437-2.678-.592-4.029-.7-8.065-1.399-12.117-1.954-4.052-.554-8.118-.964-12.205-1.083-4.087-.119-8.21.062-12.254.671-4.043.609-8.008,1.644-11.775,3.232,6.17-1.451,12.564-1.91,18.881-1.401,6.317.508,12.556,1.984,18.413,4.403.452.187.914.389,1.33.648.416.259.784.573,1.049.985,1.334,2.072-.788,3.583-3.508,4.591-2.72,1.008-6.039,1.512-7.097,1.57-2.5.137-4.983-.009-7.461-.247-2.478-.238-4.951-.568-7.43-.799-7.07-.672-14.076-1.136-21.07-1.119-6.993.017-13.974.513-20.994,1.76.441-.079,1.042-.484,1.63-.931.588-.447,1.162-.934,1.551-1.176.683-.426,1.371-.843,2.063-1.255.691-.41,1.388-.814,2.088-1.21,1.369-.775,2.752-1.522,4.151-2.241,1.399-.72,2.812-1.41,4.238-2.073,4.818-2.019,9.643-3.984,14.524-5.794,4.882-1.81,9.82-3.463,14.864-4.858-3.43.092-6.837.475-10.212,1.058-3.376.585-6.719,1.37-10.02,2.273-1.68.459-3.351.949-5.016,1.458-1.664.51-3.323,1.04-4.979,1.58-.422.138-.844.276-1.267.414s-.843.279-1.266.419c-.278.091-.694.296-1.113.469-.418.173-.838.317-1.121.285-.629-.067-.644-.376-.434-.731s.646-.759.922-1.018c.609-.57,1.237-1.12,1.881-1.651.643-.53,1.302-1.042,1.975-1.535,1.353-.993,2.76-1.912,4.203-2.769,1.443-.858,2.923-1.654,4.424-2.403,1.726-.861,3.481-1.659,5.253-2.418,1.772-.76,3.562-1.479,5.357-2.181,5.519-2.16,11.004-4.109,16.593-5.597,5.589-1.489,11.28-2.518,17.21-2.837,5.507-.297,11.036-.184,16.521.361,5.484.546,10.925,1.523,16.254,2.959.609.164,1.131.35,1.556.569.425.219.753.472.975.772Z" fill="url(#_ÂÁ_Ï_ÌÌ_È_ËÂÌÚ_230)"/>
      </g>
      <g>
        <g opacity=".86">
          <path d="M1016.129,775.974c-.428,3.159-.878,6.34-1.202,9.544-.325,3.206-.524,6.433-.449,9.686.064,2.804.214,6.128.771,9.34.557,3.211,1.52,6.311,3.212,8.669,3.367,4.694,8.954,6.409,14.828,6.48,5.872.071,12.029-1.502,16.534-3.385,5.64-2.358,10.228-7.223,13.794-12.925,3.567-5.7,6.112-12.236,7.664-17.933.732-2.687,1.331-5.902,1.509-9.117.179-3.214-.063-6.428-1.013-9.108-1.288-3.636-3.909-5.607-7.012-6.638-3.103-1.031-6.69-1.123-9.911-1-6.267.238-13.309,1.257-19.899,3.458-6.591,2.201-12.73,5.583-17.193,10.548-.367.409-.709.86-.991,1.281-.283.421-.508.812-.642,1.1Z" fill="url(#_ÂÁ_Ï_ÌÌ_È_ËÂÌÚ_212)"/>
        </g>
        <path d="M1061.487,803.527c-.176,1.96-.553,3.975-1.222,5.88-.669,1.904-1.628,3.697-2.966,5.209-1.396,1.512-3.199,2.632-5.148,3.5-1.948.868-4.042,1.483-6.019,1.988-2.21.505-4.479.868-6.761,1.078-2.283.21-4.58.266-6.848.155-2.559-.169-4.943-.757-7.124-1.75-2.181-.995-4.159-2.395-5.903-4.187-.291-.28-.553-.588-.786-.896-.232-.308-.437-.615-.611-.896-.581-1.064-.901-2.157-1.003-3.277-.101-1.12.014-2.268.305-3.444.058-.503.175-1.008.32-1.512.146-.503.32-1.008.494-1.512.756-2.128,1.89-4.255,3.3-6.173,1.411-1.918,3.098-3.627,4.959-4.914,3.373-2.297,7.241-3.808,11.253-4.607,4.013-.798,8.172-.881,12.127-.322,1.512.224,3.053.504,4.463,1.023,1.41.518,2.69,1.273,3.679,2.449.872.952,1.57,2.017,2.108,3.151.539,1.133.917,2.338,1.149,3.57.174.896.291,1.82.334,2.743.043.925.014,1.849-.101,2.745Z" fill="#b74e39"/>
        <path d="M1014.478,764.938c-.16,1.035-.203,1.924-.186,2.774.018.851.097,1.664.183,2.55.113,1.158.243,2.319.433,3.468s.44,2.287.794,3.394c.351,1.098.74,2.229,1.369,3.035.629.805,1.496,1.287,2.802,1.081,1.102-.172,2.204-.538,3.301-.939,1.098-.401,2.189-.838,3.271-1.152,5.754-1.671,11.4-3.752,17.063-5.778,5.663-2.027,11.343-3.999,17.168-5.452,2.587-.646,5.098-1.136,7.626-1.492,2.529-.357,5.073-.58,7.73-.693-1.699-1.848-3.228-3.977-4.849-6.004-1.621-2.029-3.334-3.959-5.403-5.408-1.751-1.227-3.927-1.606-6.158-1.59-2.231.015-4.517.422-6.489.769-2.191.384-4.394,1.13-6.569,1.984-2.174.853-4.32,1.817-6.393,2.635-2.088.824-4.186,1.631-6.3,2.385-2.115.756-4.248,1.46-6.408,2.078-1.091.313-2.189.603-3.293.868-1.104.264-2.214.503-3.331.71-.563.106-1.128.202-1.693.291-.566.089-1.132.169-1.7.241-.462.059-1.204.12-1.831.167-.627.047-1.138.079-1.138.079Z" fill="url(#_ÂÁ_Ï_ÌÌ_È_ËÂÌÚ_411)"/>
        <path d="M1061.487,805.532c-.059.535-.117,1.069-.204,1.603-.087.534-.203,1.069-.378,1.603-.291,1.39-.727,2.727-1.323,3.969-.595,1.243-1.352,2.392-2.282,3.408-.523.534-1.106,1.042-1.73,1.497-.626.455-1.294.856-1.992,1.176-.291.214-.582.374-.873.508-.29.134-.581.241-.872.348-.813.374-1.657.668-2.5.922-.843.253-1.687.468-2.501.681-.466.107-.901.188-1.338.268-.437.08-.872.16-1.338.268-1.279.213-2.559.4-3.838.547-1.28.147-2.56.254-3.839.308-.64,0-1.28,0-1.919-.013-.64-.013-1.28-.04-1.92-.094-.815-.052-1.599-.16-2.37-.307-.77-.147-1.527-.333-2.282-.548-.291-.053-.582-.133-.872-.24-.291-.108-.582-.241-.873-.401-1.279-.428-2.471-1.016-3.591-1.724-1.119-.708-2.166-1.537-3.154-2.444-.291-.268-.553-.562-.786-.856-.232-.294-.437-.588-.611-.856-.175-.267-.29-.534-.392-.802-.102-.267-.189-.534-.306-.801-.232-.749-.349-1.523-.349-2.326s.117-1.63.349-2.485c.058-.481.175-.962.32-1.443.146-.481.32-.962.494-1.443.756-2.03,1.89-4.061,3.3-5.892,1.411-1.831,3.098-3.461,4.959-4.691.466-.267.93-.534,1.396-.788.466-.254.93-.494,1.396-.708,3.141-1.604,6.572-2.647,10.077-3.168,3.503-.521,7.081-.521,10.512-.04,1.279.16,2.588.374,3.823.749,1.237.373,2.4.909,3.388,1.71.174.107.349.24.509.388.16.147.306.307.422.468.872.909,1.57,1.924,2.108,3.007.539,1.082.917,2.231,1.149,3.408.174.855.291,1.737.334,2.619.043.881.014,1.763-.101,2.619Z" fill="#fff"/>
        <path d="M1061.487,805.532c-.059.535-.117,1.069-.204,1.603-.087.534-.203,1.069-.378,1.603-.291.053-.611.08-.931.094-.32.013-.639.013-.93.013-4.479.16-8.985.079-13.493.065-4.507-.013-9.014.041-13.492.468-1.978.214-3.985.509-5.961.936-1.978.428-3.927.989-5.788,1.738-.523.213-1.047.428-1.541.668-.494.241-.96.508-1.367.829-.232-.749-.349-1.523-.349-2.326s.117-1.63.349-2.485c.058-.481.175-.962.32-1.443.146-.481.32-.962.494-1.443.756-2.03,1.89-4.061,3.3-5.892,1.411-1.831,3.098-3.461,4.959-4.691.466-.267.93-.534,1.396-.788.466-.254.93-.494,1.396-.708,4.479-1.39,9.16-2.219,13.857-2.379,4.697-.161,9.408.347,13.943,1.63.174.107.349.24.509.388.16.147.306.307.422.468.872.909,1.57,1.924,2.108,3.007.539,1.082.917,2.231,1.149,3.408.174.855.291,1.737.334,2.619.043.881.014,1.763-.101,2.619Z" fill="#c4c4c4"/>
        <path d="M1061.253,800.294c-.232.053-.466.107-.698.16-.233.053-.466.107-.698.16-.872.215-1.746.348-2.632.441-.887.093-1.788.147-2.719.2-4.071.268-8.2.321-12.315.494-4.115.174-8.216.468-12.229,1.217-1.512.267-3.082.614-4.609,1.069-1.527.454-3.01,1.015-4.348,1.711-.465.213-.901.507-1.322.828-.422.321-.829.668-1.237.989-.174.16-.349.348-.523.548-.174.2-.349.414-.523.628.058-.481.175-.962.32-1.443.146-.481.32-.962.494-1.443.756-2.03,1.89-4.061,3.3-5.892,1.411-1.831,3.098-3.461,4.959-4.691,3.373-2.191,7.241-3.635,11.253-4.396,4.013-.762,8.172-.842,12.127-.308,1.512.214,3.053.481,4.463.976,1.41.494,2.69,1.216,3.679,2.339.872.909,1.57,1.924,2.108,3.007.539,1.082.917,2.231,1.149,3.408Z" fill="url(#_ÂÁ_Ï_ÌÌ_È_ËÂÌÚ_13)"/>
        <g>
          <path d="M1054.391,814.619c0,.748-.059,1.47-.189,2.164-.131.696-.334,1.363-.626,2.005-.291.214-.582.374-.873.508-.29.134-.581.241-.872.348-.813.374-1.534.501-2.255.588-.721.087-1.442.133-2.257.347-.466.107-1.01.176-1.556.244-.544.069-1.089.137-1.554.244-1.28.213-2.523.452-3.767.652-1.244.2-2.488.359-3.768.412-.64,0-1.189-.018-1.739-.048-.549-.031-1.099-.075-1.739-.129-.813-.053-1.738-.017-2.648-.02-.911-.003-1.807-.046-2.562-.26-.291-.053-.582-.133-.872-.24-.291-.108-.582-.241-.873-.401-.639-.962-1.104-1.978-1.41-3.047-.305-1.069-.45-2.192-.45-3.368,0-3.796,1.657-7.242,4.361-9.741,2.704-2.499,6.456-4.049,10.643-4.049,4.129,0,7.881,1.55,10.6,4.049,2.719,2.499,4.406,5.945,4.406,9.741Z" fill="#020102"/>
          <path d="M1052.994,814.619c0,.909-.087,1.791-.275,2.632-.189.842-.48,1.644-.888,2.392-.813.374-1.657.668-2.5.922-.843.253-1.687.468-2.501.681-.466.107-.901.188-1.338.268-.437.08-.872.16-1.338.268-1.279.213-2.559.4-3.838.547-1.28.147-2.56.254-3.839.308-.64,0-1.28,0-1.919-.013-.64-.013-1.28-.04-1.92-.094-.815-.052-1.599-.16-2.37-.307-.77-.147-1.527-.333-2.282-.548-.757-1.015-1.338-2.138-1.73-3.328-.393-1.189-.597-2.446-.597-3.728,0-.748.088-1.497.232-2.231.146-.736.35-1.457.582-2.152.989-2.404,2.733-4.463,4.972-5.92,2.239-1.457,4.972-2.311,7.939-2.311,2.617,0,5.089.695,7.183,1.911,2.093,1.216,3.809,2.953,4.914,5.038.465.855.842,1.763,1.104,2.712.261.949.407,1.938.407,2.953Z" fill="#ccc"/>
          <path d="M1051.483,808.953c-3.258,0-6.514-.053-9.757-.027-3.243.027-6.471.133-9.669.453-.931.108-1.861.214-2.792.348-.93.134-1.861.294-2.791.508.989-2.404,2.733-4.463,4.972-5.92,2.239-1.457,4.972-2.311,7.939-2.311,2.617,0,5.089.695,7.183,1.911,2.093,1.216,3.809,2.953,4.914,5.038Z" fill="#606060"/>
          <path d="M1048.459,814.252c0,1.566-.437,3.047-1.192,4.332-.757,1.286-1.832,2.376-3.112,3.158-1.279.223-2.559.419-3.838.573-1.28.153-2.56.264-3.839.321-1.861-.614-3.431-1.761-4.537-3.228-1.104-1.468-1.744-3.256-1.744-5.157,0-2.403,1.018-4.583,2.675-6.162,1.657-1.579,3.954-2.557,6.513-2.557,1.396,0,2.704.308,3.868.852,1.163.546,2.181,1.328,2.996,2.278.464.503.842,1.034,1.148,1.593.306.559.539,1.146.712,1.761.117.334.204.698.262,1.076.059.377.088.768.088,1.159Z" fill="#020102"/>
          <path d="M1045.907,809.532c-.392.39-.59.902-.592,1.415-.001.513.192,1.027.582,1.419.39.393.902.59,1.416.592.512.002,1.026-.192,1.419-.582.392-.39.59-.902.591-1.414.002-.513-.192-1.027-.582-1.419-.39-.393-.901-.59-1.414-.592-.513-.002-1.027.192-1.419.582Z" fill="#fff"/>
        </g>
        <path d="M1017.312,808.809c.967-.927,2.17-1.567,3.472-2.033,1.301-.468,2.7-.762,4.056-1.001,1.924-.34,3.863-.597,5.808-.792,1.945-.196,3.897-.33,5.848-.424,2.362-.115,4.729-.272,7.095-.427,2.368-.153,4.737-.302,7.104-.397,1.793-.071,3.619-.155,5.437-.29,1.819-.136,3.63-.322,5.393-.6,1.296-.203,3.007-1.166,4.342-2.448,1.337-1.282,2.299-2.883,2.095-4.366-1.654.687-4.879,1.422-8.724,2.073-3.846.651-8.311,1.218-12.446,1.567-3.337.281-7.544.377-11.485.655-3.942.277-7.617.735-9.887,1.742-1.894.84-3.364,1.734-4.64,2.814-1.275,1.08-2.355,2.346-3.469,3.927Z" fill="#020102"/>
      </g>
      <g>
        <path d="M979.037,849.213c.393.01.781.073,1.164.16.383.088.763.2,1.141.307,4.239,1.191,8.64,1.737,13.053,1.731,4.414-.006,8.84-.563,13.128-1.577.386-.092.772-.187,1.162-.26.39-.073.783-.126,1.18-.13.398-.004.803.044,1.182.159.379.115.732.297,1.022.559.082.073.159.156.218.248.059.091.098.192.102.3.006.119-.032.232-.091.337-.06.106-.141.203-.223.292-.422.46-.917.844-1.452,1.177-.534.332-1.109.612-1.689.862-1.117.479-2.272.859-3.448,1.182-1.174.322-2.369.587-3.563.836-1.637.34-3.282.652-4.939.891-1.655.239-3.32.404-4.993.452-1.672.047-3.358-.028-5.014-.262-1.656-.235-3.283-.63-4.841-1.222-.607-.231-1.206-.494-1.773-.807-.568-.312-1.103-.673-1.585-1.099-.389-.345-.784-.767-1.106-1.233-.321-.466-.567-.976-.657-1.493-.097-.56.174-.918.586-1.132.412-.216.967-.288,1.437-.277Z" fill="#ffe5d7"/>
        <path d="M1016.044,860.246c-.788,1.481-2.131,2.334-3.66,2.873-1.529.539-3.243.763-4.772.988-.694.09-1.389.157-2.084.213-.694.057-1.39.101-2.084.147-.742,0-1.437.134-2.12.348-.683.213-1.354.505-2.05.819-.741.359-1.529.696-2.34.954-.81.258-1.644.438-2.478.482-.834-.044-1.668-.224-2.479-.482-.811-.259-1.599-.596-2.34-.954-.694-.314-1.367-.606-2.05-.819-.683-.213-1.378-.348-2.119-.348-.696-.046-1.39-.09-2.086-.147-.694-.057-1.39-.123-2.084-.213-.721-.106-1.532-.188-2.351-.325-.819-.135-1.644-.325-2.394-.648-.841-.36-1.594-.862-2.221-1.383-.628-.522-1.129-1.064-1.465-1.506-.974-1.277-.857-2.583-.299-3.863.558-1.28,1.555-2.532,2.343-3.7.324-.539.693-1.229,1.156-1.83.461-.601,1.015-1.112,1.711-1.292.602-.134,1.298.068,1.992.359.694.292,1.39.673,1.992.898,1.807.719,3.637,1.28,5.501,1.684,1.866.403,3.764.651,5.711.741h2.964c1.945-.09,3.845-.338,5.71-.741,1.864-.404,3.694-.966,5.501-1.684.603-.225,1.298-.606,1.992-.898.696-.291,1.39-.493,1.992-.359.696.18,1.321.651,1.853,1.212.533.561.973,1.212,1.298,1.751.788,1.168,1.621,2.402,2.061,3.692.44,1.291.487,2.638-.301,4.03Z" fill="url(#_ÂÁ_Ï_ÌÌ_È_ËÂÌÚ_3)"/>
        <path d="M974.372,852.634c-.253.305-.513.609-.765.919-.253.309-.498.623-.718.947-.193.283-.397.563-.588.85-.191.287-.37.581-.514.892-.346.746-.323,1.462-.091,2.137.232.676.675,1.31,1.171,1.893.517.608,1.068,1.157,1.674,1.637.607.479,1.27.891,2.011,1.225,0,0-.491-.475-1.102-1.101-.612-.626-1.344-1.4-1.831-1.999-.243-.299-.552-.767-.797-1.26-.243-.493-.423-1.011-.407-1.412.012-.315.128-.624.283-.919.155-.294.351-.572.525-.825.436-.633.867-1.267,1.308-1.895.441-.628.891-1.249,1.364-1.857.228-.293.43-.6.627-.911.196-.311.386-.626.589-.935.157-.24.373-.782.509-1.203.134-.421.189-.721.022-.474-.487.72-.994,1.414-1.537,2.118-.541.704-1.116,1.417-1.734,2.173Z" fill="#cc5e48"/>
        <path d="M1014.649,852.634c.253.305.513.609.765.919.253.309.498.623.719.947.192.283.396.563.587.85s.37.581.514.892c.346.746.323,1.462.091,2.137-.232.676-.676,1.31-1.171,1.893-.517.608-1.068,1.157-1.674,1.637-.607.479-1.27.891-2.011,1.225,0,0,.491-.475,1.102-1.101.612-.626,1.346-1.4,1.831-1.999.243-.299.552-.767.797-1.26.243-.493.423-1.011.407-1.412-.012-.315-.128-.624-.283-.919-.156-.294-.351-.572-.525-.825-.436-.633-.867-1.267-1.308-1.895-.441-.628-.891-1.249-1.364-1.857-.228-.293-.43-.6-.627-.911-.196-.311-.386-.626-.588-.935-.158-.24-.374-.782-.509-1.203-.135-.421-.19-.721-.023-.474.487.72.995,1.414,1.537,2.118.541.704,1.116,1.417,1.735,2.173Z" fill="#cc5e48"/>
        <path d="M1000.303,865.186s.241-.206.537-.461c.297-.256.647-.56.862-.757.319-.288.657-.562.999-.833.342-.271.689-.54,1.023-.818.655-.542,1.492-1.002,2.41-1.342.917-.34,1.913-.561,2.886-.626.286-.019.792-.038,1.277-.006.484.031.948.114,1.149.299.229.211.156.551-.02.883-.177.333-.456.66-.639.844-.525.529-1.413.894-2.371,1.171-.958.278-1.983.466-2.782.64-.461.101-.922.188-1.382.273-.46.084-.92.168-1.38.262-.202.041-.4.077-.599.111-.199.033-.398.065-.602.101-.183.032-.452.059-.712.097-.259.038-.509.086-.655.16Z" fill="#b22842"/>
        <path d="M988.607,865.186s-.241-.206-.537-.461c-.296-.256-.646-.56-.862-.757-.318-.288-.657-.562-.999-.833-.342-.271-.688-.54-1.023-.818-.654-.542-1.492-1.002-2.409-1.342-.918-.34-1.914-.561-2.887-.626-.286-.019-.791-.038-1.277-.006-.484.031-.948.114-1.149.299-.228.211-.155.551.021.883.175.333.454.66.638.844.526.529,1.414.894,2.372,1.171.957.278,1.982.466,2.781.64.461.101.922.188,1.382.273.46.084.92.168,1.38.262.202.041.401.077.599.111.199.033.399.065.602.101.184.032.453.059.712.097.259.038.509.086.654.16Z" fill="#b22842"/>
      </g>
      <g>
        <g opacity=".86">
          <path d="M971.274,795.859c-.055,2.778-.194,6.083-.75,9.292-.555,3.208-1.528,6.319-3.25,8.708-3.333,4.667-8.917,6.389-14.791,6.472-5.875.083-12.042-1.472-16.542-3.361-4.444-1.889-8.25-5.333-11.402-9.514-3.153-4.18-5.653-9.097-7.487-13.93-.111-3.389-.167-6.778-.194-10.153-.028-3.374-.028-6.735-.028-10.069,0-1.611,0-3.25.014-4.889.013-1.639.041-3.278.097-4.889,1.778-1.611,4.083-2.472,6.542-2.917,2.458-.445,5.069-.472,7.458-.417,6.278.278,13.306,1.306,19.889,3.5,6.583,2.194,12.722,5.556,17.222,10.5.333.444.667.917.944,1.347.278.431.5.82.611,1.098.444,3.167.917,6.333,1.25,9.528.333,3.195.528,6.417.417,9.695Z" fill="url(#_ÂÁ_Ï_ÌÌ_È_ËÂÌÚ_35)"/>
        </g>
        <path d="M924.297,803.824c.174,1.997.552,4.05,1.221,5.99.669,1.939,1.628,3.765,2.965,5.305,1.397,1.54,3.199,2.681,5.148,3.565,1.948.885,4.042,1.511,6.019,2.024,2.21.513,4.479.884,6.761,1.099,2.283.213,4.58.27,6.848.155,2.559-.17,4.944-.769,7.124-1.782,2.181-1.012,4.159-2.438,5.903-4.263.291-.286.553-.599.785-.912.233-.315.437-.628.611-.913.581-1.083.901-2.195,1.003-3.337.101-1.141-.014-2.31-.306-3.509-.058-.512-.174-1.026-.32-1.54-.145-.513-.32-1.027-.494-1.54-.756-2.168-1.89-4.334-3.3-6.289-1.411-1.953-3.098-3.693-4.959-5.006-3.373-2.339-7.241-3.879-11.253-4.691-4.013-.813-8.172-.899-12.127-.329-1.512.229-3.053.515-4.463,1.042-1.41.527-2.69,1.297-3.679,2.494-.872.97-1.57,2.054-2.108,3.209-.538,1.156-.917,2.382-1.149,3.637-.174.913-.291,1.853-.334,2.796-.043.941-.014,1.882.102,2.794Z" fill="#b74e39"/>
        <path d="M971.306,765.568c.159,1.035.203,1.923.184,2.774-.018.851-.097,1.664-.183,2.55-.113,1.157-.242,2.319-.432,3.468s-.441,2.287-.795,3.394c-.35,1.098-.74,2.229-1.369,3.034-.629.806-1.496,1.287-2.802,1.081-1.102-.172-2.204-.538-3.301-.939-1.097-.401-2.189-.838-3.27-1.152-5.756-1.671-11.401-3.752-17.064-5.779-5.663-2.026-11.343-3.998-17.168-5.451-2.587-.646-5.098-1.136-7.625-1.492-2.528-.357-5.073-.58-7.729-.693,1.699-1.848,3.227-3.977,4.848-6.006,1.621-2.028,3.335-3.958,5.404-5.407,1.751-1.227,3.927-1.606,6.157-1.591,2.231.016,4.518.423,6.489.77,2.191.384,4.394,1.13,6.569,1.984,2.174.853,4.32,1.816,6.393,2.635,2.089.824,4.186,1.631,6.3,2.385,2.116.756,4.248,1.459,6.408,2.078,1.091.312,2.19.603,3.293.868,1.104.264,2.214.503,3.331.71.563.106,1.128.202,1.693.291.565.089,1.132.169,1.701.241.462.059,1.204.12,1.831.167.627.047,1.138.079,1.138.079Z" fill="url(#_ÂÁ_Ï_ÌÌ_È_ËÂÌÚ_412)"/>
        <path d="M924.297,806.162c.058.535.115,1.069.203,1.603.087.534.203,1.069.378,1.603.291,1.39.728,2.727,1.323,3.969.596,1.243,1.352,2.392,2.282,3.408.523.534,1.106,1.042,1.731,1.497.624.455,1.293.856,1.991,1.176.291.214.582.374.873.508.29.133.581.241.872.348.814.374,1.658.668,2.5.922.843.253,1.687.468,2.501.681.466.107.902.187,1.338.268.437.08.872.16,1.338.267,1.28.215,2.559.401,3.839.548,1.279.147,2.559.254,3.838.308.64,0,1.28,0,1.92-.013.639-.013,1.279-.04,1.919-.094.814-.052,1.599-.16,2.37-.307.77-.147,1.527-.334,2.282-.548.291-.053.582-.133.873-.24.29-.108.581-.241.872-.401,1.279-.428,2.471-1.016,3.591-1.724,1.119-.708,2.167-1.537,3.154-2.446.291-.267.553-.561.785-.854.233-.294.437-.588.611-.856.174-.267.291-.534.392-.802.102-.267.189-.534.305-.801.232-.749.349-1.523.349-2.326s-.117-1.63-.349-2.485c-.058-.481-.174-.962-.32-1.443-.145-.481-.32-.962-.494-1.443-.756-2.031-1.89-4.061-3.3-5.892-1.411-1.831-3.098-3.461-4.959-4.691-.466-.267-.93-.534-1.396-.788-.465-.254-.93-.494-1.395-.708-3.14-1.604-6.572-2.647-10.076-3.168-3.504-.521-7.081-.521-10.513-.04-1.279.16-2.588.374-3.823.749-1.237.373-2.4.908-3.388,1.71-.174.107-.349.24-.509.388-.16.147-.306.307-.422.467-.872.909-1.57,1.924-2.108,3.008-.538,1.082-.917,2.231-1.149,3.408-.174.855-.291,1.737-.334,2.619-.043.881-.014,1.763.102,2.619Z" fill="#fff"/>
        <path d="M924.297,806.162c.058.535.115,1.069.203,1.603.087.534.203,1.069.378,1.603.291.053.611.08.931.093.32.013.64.013.93.013,4.479.161,8.985.08,13.493.067,4.507-.013,9.014.04,13.493.468,1.977.214,3.983.509,5.961.936,1.977.428,3.925.989,5.787,1.738.523.213,1.047.428,1.541.668.494.241.96.508,1.367.829.232-.749.349-1.523.349-2.326s-.117-1.63-.349-2.485c-.058-.481-.174-.962-.32-1.443-.145-.481-.32-.962-.494-1.443-.756-2.031-1.89-4.061-3.3-5.892-1.411-1.831-3.098-3.461-4.959-4.691-.466-.267-.93-.534-1.396-.788-.465-.254-.93-.494-1.395-.708-4.479-1.39-9.16-2.219-13.857-2.379-4.697-.161-9.407.347-13.943,1.63-.174.107-.349.24-.509.388-.16.147-.306.307-.422.467-.872.909-1.57,1.924-2.108,3.008-.538,1.082-.917,2.231-1.149,3.408-.174.855-.291,1.737-.334,2.619-.043.881-.014,1.763.102,2.619Z" fill="#c4c4c4"/>
        <path d="M924.529,800.924c.232.053.465.107.698.16.233.053.465.107.698.16.873.215,1.746.348,2.632.441.887.093,1.789.147,2.719.2,4.071.268,8.2.321,12.315.494,4.114.174,8.214.468,12.228,1.217,1.512.267,3.082.614,4.609,1.069,1.527.454,3.01,1.015,4.348,1.711.464.213.901.507,1.322.828.422.321.829.668,1.237.989.174.16.349.348.523.548.174.2.349.414.523.628-.058-.481-.174-.962-.32-1.443-.145-.481-.32-.962-.494-1.443-.756-2.031-1.89-4.061-3.3-5.892-1.411-1.831-3.098-3.461-4.959-4.691-3.373-2.191-7.241-3.635-11.253-4.396-4.013-.762-8.171-.842-12.127-.308-1.512.213-3.053.481-4.463.975-1.41.495-2.69,1.216-3.679,2.338-.872.909-1.57,1.924-2.108,3.008-.538,1.082-.917,2.231-1.149,3.408Z" fill="url(#_ÂÁ_Ï_ÌÌ_È_ËÂÌÚ_131)"/>
        <g>
          <path d="M931.391,815.249c0,.748.059,1.47.19,2.164.13.696.334,1.363.624,2.005.291.214.582.374.873.508.29.133.581.241.872.348.814.374,1.536.501,2.257.588s1.442.133,2.255.347c.466.107,1.011.176,1.556.244.544.068,1.09.137,1.554.243,1.28.214,2.523.453,3.768.653,1.243.2,2.487.359,3.767.412.64,0,1.189-.018,1.739-.049.549-.03,1.099-.074,1.739-.129.813-.052,1.739-.016,2.649-.019.91-.003,1.806-.047,2.561-.26.291-.053.582-.133.873-.24.29-.108.581-.241.872-.401.64-.962,1.104-1.978,1.41-3.047.306-1.069.451-2.192.451-3.368,0-3.796-1.658-7.242-4.362-9.741-2.704-2.499-6.456-4.049-10.643-4.049-4.129,0-7.88,1.55-10.6,4.049-2.719,2.499-4.406,5.945-4.406,9.741Z" fill="#020102"/>
          <path d="M932.788,815.249c0,.909.088,1.791.277,2.632.189.842.479,1.644.887,2.392.814.374,1.658.668,2.5.922.843.253,1.687.468,2.501.681.466.107.902.187,1.338.268.437.08.872.16,1.338.267,1.28.215,2.559.401,3.839.548,1.279.147,2.559.254,3.838.308.64,0,1.28,0,1.92-.013.639-.013,1.279-.04,1.919-.094.814-.052,1.599-.16,2.37-.307.77-.147,1.527-.334,2.282-.548.757-1.016,1.338-2.138,1.731-3.328.392-1.189.595-2.446.595-3.728,0-.749-.087-1.497-.232-2.231-.146-.736-.349-1.457-.582-2.152-.988-2.406-2.733-4.463-4.972-5.92-2.239-1.457-4.972-2.311-7.939-2.311-2.617,0-5.089.695-7.182,1.911-2.094,1.215-3.81,2.953-4.915,5.038-.464.854-.842,1.763-1.104,2.712-.261.949-.407,1.938-.407,2.953Z" fill="#ccc"/>
          <path d="M934.299,809.583c3.258,0,6.514-.053,9.758-.027,3.242.027,6.47.133,9.669.453.93.108,1.86.214,2.791.348.93.134,1.861.294,2.791.508-.988-2.406-2.733-4.463-4.972-5.92-2.239-1.457-4.972-2.311-7.939-2.311-2.617,0-5.089.695-7.182,1.911-2.094,1.215-3.81,2.953-4.915,5.038Z" fill="#606060"/>
          <path d="M937.323,814.906c0,1.56.437,3.038,1.192,4.32.757,1.282,1.832,2.369,3.112,3.149,1.279.223,2.559.418,3.839.571,1.279.153,2.559.264,3.838.321,1.861-.613,3.432-1.756,4.537-3.219,1.104-1.463,1.744-3.248,1.744-5.142,0-2.397-1.018-4.571-2.674-6.146-1.658-1.574-3.955-2.55-6.514-2.55-1.396,0-2.704.307-3.868.85s-2.181,1.323-2.996,2.271c-.464.502-.842,1.031-1.148,1.589-.306.558-.538,1.142-.712,1.756-.117.334-.204.697-.262,1.073-.058.375-.088.765-.088,1.157Z" fill="#020102"/>
          <path d="M955.726,809.444c.392.39.59.902.592,1.414.001.513-.192,1.027-.582,1.419-.39.393-.902.59-1.416.592-.512.001-1.026-.192-1.419-.582-.392-.39-.59-.902-.591-1.416-.002-.512.192-1.025.581-1.419.39-.392.902-.59,1.416-.591.512-.002,1.027.192,1.419.582Z" fill="#fff"/>
        </g>
        <path d="M968.47,809.439c-.967-.928-2.17-1.567-3.471-2.033-1.302-.468-2.7-.762-4.056-1.001-1.925-.34-3.864-.597-5.809-.792-1.944-.195-3.897-.33-5.847-.424-2.363-.114-4.729-.273-7.097-.427s-4.735-.302-7.103-.397c-1.794-.071-3.62-.156-5.438-.29-1.819-.136-3.629-.322-5.393-.6-1.296-.203-3.007-1.166-4.342-2.448-1.337-1.282-2.299-2.883-2.095-4.366,1.654.687,4.879,1.422,8.724,2.073,3.846.651,8.311,1.218,12.447,1.567,3.336.281,7.543.377,11.484.655,3.942.277,7.617.735,9.887,1.742,1.894.84,3.366,1.734,4.64,2.814,1.276,1.08,2.356,2.346,3.469,3.927Z" fill="#020102"/>
      </g>
      <path d="M1088.941,988.414c-3.722,9.833-9.167,18.48-15.93,26.03-6.764,7.55-14.848,14.002-23.848,19.448-13.5,8.166-29.139,12.416-43.944,14.082-14.806,1.667-28.778.75-38.945-1.417-6.167-1.278-12.555-3.25-18.68-5.806-6.125-2.555-11.987-5.694-17.097-9.305-3.946-2.833-7.696-6.083-10.918-9.278-3.222-3.195-5.917-6.333-7.75-8.945-1.389-1.944-3.333-4.917-5.152-7.972-1.82-3.056-3.514-6.194-4.403-8.472-.167-.5-1.194-3.313-2.139-6.03-.944-2.717-1.806-5.336-1.639-5.447,2.111-1.611,4.222-2.972,6.278-4.097,2.056-1.126,4.056-2.014,5.944-2.681,2-.778,4.194-1.639,6.472-2.389s4.639-1.389,6.972-1.722c.556,3.722,1.639,7.361,3.139,10.792,1.5,3.43,3.417,6.652,5.639,9.541,1.278,3.222,2.75,6.333,4.444,9.25,1.694,2.917,3.611,5.639,5.778,8.083,5.667,6.445,12.889,11.167,20.778,14.513,7.889,3.348,16.444,5.32,24.778,6.264,7.278.778,14.75.556,22.167-.361,7.417-.917,14.778-2.528,21.833-4.528,3.5-1.056,7.028-2.25,10.472-3.583,3.444-1.333,6.806-2.806,9.972-4.417,2.778-1.389,5.778-2.917,8.667-4.611,2.889-1.694,5.667-3.556,8-5.611,2.778-2.556,5.417-5.306,7.861-8.208,2.444-2.903,4.694-5.959,6.694-9.126,1.056-1.611,2.056-3.278,3.042-4.944.986-1.667,1.958-3.333,2.958-4.944,0,.056.028.139.056.222.028.083.056.167.056.222.222.611-.056,1.667-.444,2.722-.389,1.056-.889,2.111-1.111,2.722Z" fill="url(#_ÂÁ_Ï_ÌÌ_È_ËÂÌÚ_33)"/>
      <path d="M1024.833,1017.028c7.297-4.068,14.698-8.498,21.479-13.656s12.94-11.042,17.752-18.018c.639-.939,1.365-1.824,2.093-2.709.729-.886,1.461-1.769,2.115-2.704.304-.434.599-.877.911-1.308.312-.431.641-.852,1.013-1.247.372-.393.797-.76,1.263-1.062.468-.302.979-.539,1.526-.671.626-.152,1.259-.161,1.883-.089.623.073,1.239.228,1.827.404.629.188,1.257.407,1.834.687.579.281,1.108.623,1.541,1.06.591.596.963,1.328,1.178,2.116.214.789.272,1.636.237,2.462-.131,3.068-1.17,5.969-2.677,8.729-1.507,2.759-3.48,5.376-5.48,7.871-4.323,5.396-9.553,9.889-15.312,13.609-5.759,3.721-12.048,6.668-18.488,8.971-3.241,1.16-6.534,2.167-9.864,3.04-3.33.872-6.694,1.612-10.078,2.239-2.164.401-6.851.651-10.996.8-4.145.149-7.75.199-7.75.199,0,0,1.957-.652,4.084-1.38,2.128-.728,4.427-1.531,5.111-1.834,2.431-1.075,4.831-2.23,7.206-3.44,2.373-1.21,4.721-2.473,7.042-3.763.092-.051.183-.102.274-.152l.273-.153Z" fill="url(#_ÂÁ_Ï_ÌÌ_È_ËÂÌÚ_267)"/>
      <path d="M1063.674,992.302c2.531-1.009,4.072-3.809,5.631-6.466,1.558-2.657,3.134-5.171,5.736-5.609,1.837-.31,2.334.876,2.282,2.339-.051,1.463-.651,3.203-1.01,4.006-.615,1.373-1.564,2.939-2.727,4.353-1.161,1.415-2.534,2.68-3.998,3.454-2.113,1.117-3.848,1.083-4.926.528-1.079-.556-1.5-1.633-.989-2.606Z" fill="#ffd2ef"/>
      <path d="M1065.316,1071.1c-9.075,8.352-18.557,16.311-28.368,23.79-9.81,7.48-19.949,14.481-30.334,20.92-4.639,2.876-9.402,5.731-14.234,8.477-4.832,2.745-9.733,5.383-14.646,7.823-3.564,1.771-9.251,4.057-14.545,6.761-5.296,2.704-10.201,5.828-12.204,9.276-6.041,10.399-1.383,19.698,6.577,26.928,7.961,7.23,19.224,12.391,26.396,14.511,19.304,5.707,41.031,8.511,62.2,7.012,21.169-1.5,41.779-7.301,58.848-18.806,9.368-6.313,18.431-13.45,26.898-21.29,8.468-7.839,16.338-16.38,23.32-25.502,6.048-7.902,12.893-16.678,18.76-25.921,5.867-9.245,10.753-18.956,12.885-28.728,2.625-12.04-.808-21.142-7.293-28.443-6.484-7.301-16.021-12.8-25.6-17.632-3.537-1.785-6.982-3.73-10.453-5.63-3.47-1.9-6.964-3.754-10.596-5.356-3.113-1.373-6.916-2.993-10.769-3.826-3.852-.832-7.755-.878-11.073.899-2.775,1.486-4.468,3.95-5.838,6.67s-2.417,5.695-3.899,8.202c-1.728,2.922-3.665,5.71-5.743,8.391-2.078,2.68-4.297,5.254-6.588,7.751-3.76,4.097-7.62,8.127-11.572,12.083-3.952,3.956-7.997,7.838-12.126,11.639Z" fill="url(#_ÂÁ_Ï_ÌÌ_È_ËÂÌÚ_80)"/>
      <path d="M1153.167,1083.476c-1.003-8.946-11.156-16.334-20.66-23.652-9.504-7.318-18.362-14.566-16.778-23.23,1.119-6.115,6.962-6.646,13.281-5.182,6.318,1.462,13.11,4.917,16.126,6.77,5.171,3.178,10.728,7.587,15.344,12.538,4.617,4.95,8.293,10.442,9.704,15.788,2.037,7.713-.442,13.201-4.318,16.138-3.876,2.937-9.148,3.322-12.7.831Z" fill="url(#_ÂÁ_Ï_ÌÌ_È_ËÂÌÚ_350)"/>
    </g>
    <g>
      <polygon points="783.431 1225.394 788.987 1220.493 794.542 1215.591 994.542 1212.528 1194.542 1209.466 1200.098 1214.816 1205.653 1220.167 994.542 1222.781 783.431 1225.394" fill="#fff"/>
      <polygon points="1205.608 1220.192 1190.386 1312.081 1175.163 1403.97 1172.219 1421.859 1169.274 1439.748 995.774 1439.748 822.274 1439.748 802.83 1332.581 783.386 1225.414 787.497 1225.359 791.609 1225.303 998.608 1222.748 1205.608 1220.192" fill="url(#_ÂÁ_Ï_ÌÌ_È_ËÂÌÚ_95)"/>
      <path d="M1037.353,1338.379c0-9.403-4.17-17.917-10.912-24.079-6.741-6.162-16.056-9.974-26.343-9.974s-19.601,3.812-26.342,9.974c-6.742,6.162-10.912,14.676-10.912,24.079s4.17,17.918,10.912,24.08c6.741,6.162,16.055,9.973,26.342,9.973s19.602-3.811,26.343-9.973c6.742-6.162,10.912-14.676,10.912-24.08Z" fill="url(#_ÂÁ_Ï_ÌÌ_È_ËÂÌÚ_42)"/>
      <g>
        <polygon points="1174.163 1247.884 1156.981 1247.884 1139.799 1247.884 1139.799 1246.311 1139.799 1244.738 1156.981 1244.738 1174.163 1244.738 1174.163 1246.311 1174.163 1247.884" fill="#fff"/>
        <polygon points="1174.163 1259.159 1156.981 1259.159 1139.799 1259.159 1139.799 1257.586 1139.799 1256.012 1156.981 1256.012 1174.163 1256.012 1174.163 1257.586 1174.163 1259.159" fill="#fff"/>
        <polygon points="1174.163 1270.432 1156.981 1270.432 1139.799 1270.432 1139.799 1268.859 1139.799 1267.286 1156.981 1267.286 1174.163 1267.286 1174.163 1268.859 1174.163 1270.432" fill="#fff"/>
      </g>
      <path d="M1033.268,1340.399c0-9.405-4.17-17.918-10.911-24.08-6.742-6.162-16.056-9.973-26.343-9.973s-19.601,3.811-26.343,9.973c-6.742,6.162-10.911,14.675-10.911,24.08s4.169,17.917,10.911,24.079c6.742,6.162,16.056,9.974,26.343,9.974s19.601-3.812,26.343-9.974c6.741-6.162,10.911-14.676,10.911-24.079Z" fill="#fff"/>
      <path d="M1175.163,1403.97l-2.944,17.889-2.944,17.889h-347l-19.444-107.167-19.444-107.167,4.111-.056,4.112-.056c.61,1.333,1.277,2.667,1.902,3.959.624,1.291,1.208,2.541,1.652,3.708,2.222,5.611,4.944,11.028,7.931,16.319,2.986,5.292,6.236,10.459,9.513,15.57,8.667,13.556,18.25,26.306,28.75,38.25,10.5,11.944,21.917,23.083,34.25,33.417,32.833,27.5,72.361,45.139,114.098,55.847,41.736,10.709,85.68,14.487,127.347,14.264,9.778-.056,19.5-.306,29.181-.75,9.68-.444,19.319-1.083,28.93-1.917Z" fill="url(#_ÂÁ_Ï_ÌÌ_È_ËÂÌÚ_19)"/>
    </g>
    <g>
      <path d="M773.088,1437.128c0,1.056-.028,2.083-.097,3.097-.07,1.015-.181,2.015-.348,3.015h-85.889c-.167-1-.278-2-.347-3.015-.07-1.013-.098-2.041-.098-3.097,0-11.944,4.861-22.778,12.722-30.624,7.861-7.848,18.722-12.709,30.722-12.709s22.778,4.861,30.626,12.709c7.847,7.847,12.708,18.68,12.708,30.624Z" fill="url(#_ÂÁ_Ï_ÌÌ_È_ËÂÌÚ_76)"/>
      <path d="M732.056,1393.906c0,3.167.028,6.361.055,9.556.028,3.194.056,6.389.056,9.556,0,.722-.583,1.083-1.167,1.083s-1.168-.361-1.168-1.083v-9c-.054-1.722-.082-3.417-.097-5.111-.013-1.694-.013-3.389-.013-5.111.389,0,.778,0,1.167.014.389.013.778.041,1.167.097Z" fill="#fff"/>
    </g>
    <g>
      <g>
        <path d="M734.976,1442.79c-.702,4.878-1.533,9.739-2.524,14.568-.991,4.828-2.143,9.622-3.489,14.364-1.247,4.395-2.658,8.746-4.273,13.019-1.616,4.272-3.437,8.466-5.502,12.542-1.929,3.806-4.06,7.503-6.42,11.037s-4.95,6.902-7.794,10.049c-2.828,3.128-5.859,5.999-9.104,8.597-3.246,2.597-6.707,4.921-10.396,6.956-4.173,2.301-8.581,4.237-13.141,5.686s-9.272,2.412-14.055,2.769c-5.667.422-11.381.164-17.006-.702-5.624-.867-11.158-2.342-16.461-4.357-4.19-1.59-8.263-3.541-12.173-5.78-3.91-2.238-7.659-4.763-11.2-7.502-3.608-2.79-7.036-5.834-10.252-9.09-3.215-3.254-6.219-6.72-8.977-10.351-2.903-3.822-5.568-7.833-7.972-11.994-2.403-4.161-4.548-8.473-6.408-12.898-1.957-4.652-3.611-9.433-4.962-14.298-1.352-4.865-2.402-9.814-3.152-14.804-.183-1.221-.344-2.447-.488-3.673-.142-1.227-.267-2.457-.374-3.687-.044-.509-.246-.981-.571-1.327-.326-.344-.776-.563-1.319-.563-.477,0-.971.217-1.336.561-.364.344-.599.818-.553,1.329.461,5.251,1.228,10.473,2.317,15.627,1.089,5.153,2.5,10.238,4.247,15.213,1.656,4.719,3.596,9.341,5.814,13.823,2.22,4.482,4.72,8.826,7.497,12.987,2.66,3.986,5.564,7.814,8.703,11.44,3.138,3.626,6.51,7.048,10.102,10.222,3.471,3.068,7.141,5.916,10.99,8.498,3.848,2.582,7.873,4.898,12.054,6.9,5.12,2.451,10.463,4.401,15.944,5.802,5.482,1.402,11.102,2.257,16.78,2.518,2.921.134,5.857.102,8.778-.113,2.92-.217,5.827-.616,8.692-1.215,2.407-.502,4.779-1.167,7.111-1.95,2.333-.782,4.628-1.684,6.88-2.662,4.018-1.747,7.873-3.846,11.526-6.256,3.652-2.41,7.1-5.13,10.303-8.117,3.2-2.985,6.148-6.235,8.851-9.68,2.703-3.444,5.161-7.085,7.38-10.85,2.368-4.017,4.473-8.186,6.354-12.456,1.881-4.27,3.538-8.641,5.005-13.062,1.549-4.667,2.887-9.401,4.048-14.179,1.161-4.779,2.144-9.6,2.985-14.443.216-1.246.422-2.492.62-3.741.197-1.249.386-2.5.566-3.751.072-.504.01-1.012-.203-1.43-.214-.419-.581-.748-1.117-.894-.443-.122-.988-.046-1.44.188-.452.233-.811.623-.884,1.132h0Z" fill="url(#_ÂÁ_Ï_ÌÌ_È_ËÂÌÚ_158)" opacity=".71"/>
        <path d="M909.06,1443.523c-2.049,8.08-4.36,16.093-6.953,24.014-2.592,7.921-5.467,15.75-8.64,23.46-3.11,7.551-6.517,14.987-10.23,22.267-3.712,7.28-7.729,14.403-12.057,21.331-4.227,6.764-8.754,13.357-13.603,19.701-4.849,6.344-10.018,12.441-15.529,18.215-5.516,5.781-11.444,11.3-17.844,16.167-6.399,4.868-13.269,9.083-20.665,12.26-6.387,2.743-13.147,4.533-20.031,5.463-6.886.93-13.896.999-20.783.299-6.712-.681-13.323-2.134-19.744-4.201-6.421-2.067-12.651-4.746-18.602-7.879-6.358-3.348-12.427-7.202-18.208-11.457-5.78-4.253-11.272-8.905-16.474-13.845-5.512-5.232-10.711-10.788-15.598-16.608-4.888-5.819-9.461-11.903-13.721-18.192-4.26-6.291-8.228-12.794-11.864-19.478-3.635-6.682-6.941-13.546-9.874-20.556-1.663-3.973-3.214-7.998-4.668-12.057-1.453-4.06-2.809-8.155-4.08-12.269-1.149-3.716-2.129-7.436-2.989-11.183-.86-3.749-1.598-7.524-2.261-11.351-.087-.506-.174-1.01-.261-1.516-.087-.506-.171-1.011-.256-1.517-.032-.197-.063-.393-.094-.589-.031-.197-.062-.393-.093-.589-.034-.225-.051-.157-.051-.087s.014.14.041-.081c-.399.303-.798.607-1.197.911-.399.303-.797.608-1.196.911.001,0,.002,0,.003.001.001,0,.002,0,.003.001-.188-.146-.377-.29-.564-.434-.188-.146-.377-.29-.564-.435-.186-.412-.197-.389-.154-.232.041.156.135.442.161.557.268,1.185,1.313,1.528,2.224,1.277.911-.251,1.688-1.096,1.42-2.281-.102-.45-.225-.909-.453-1.288-.227-.379-.558-.678-1.071-.81-.651-.168-1.212-.016-1.63.331-.417.345-.69.884-.762,1.491-.037.308.008.659.074,1.009.067.349.154.699.204,1.007.084.52.171,1.039.26,1.559.089.519.178,1.038.268,1.557.261,1.508.511,3.019.773,4.527.262,1.509.536,3.014.841,4.514.955,4.672,2.218,9.296,3.647,13.871,1.43,4.575,3.027,9.1,4.652,13.576,2.678,7.373,5.711,14.609,9.097,21.674,3.386,7.067,7.124,13.962,11.214,20.659,4.048,6.624,8.42,13.063,13.113,19.258,4.693,6.195,9.705,12.147,15.031,17.799,5.128,5.441,10.567,10.619,16.31,15.427,5.744,4.808,11.794,9.244,18.147,13.206,5.937,3.701,12.17,6.991,18.637,9.711,6.467,2.721,13.166,4.873,20.032,6.3,6.771,1.408,13.688,2.101,20.592,2.02,6.903-.081,13.795-.936,20.515-2.624,7.803-1.961,15.166-5.209,22.063-9.29,6.899-4.082,13.333-8.999,19.282-14.299,6.143-5.473,11.877-11.419,17.248-17.681,5.37-6.262,10.38-12.841,15.077-19.581,4.73-6.787,9.127-13.8,13.206-20.996,4.079-7.194,7.841-14.571,11.3-22.082,3.554-7.716,6.799-15.572,9.744-23.539,2.947-7.967,5.594-16.044,7.954-24.203.58-2.007,1.143-4.019,1.689-6.034.545-2.017,1.074-4.038,1.588-6.062.299-1.179-.462-2.02-1.373-2.271-.911-.252-1.972.087-2.271,1.267h0Z" fill="url(#_ÂÁ_Ï_ÌÌ_È_ËÂÌÚ_1581)" opacity=".71"/>
        <polygon points="1703.84 1448.709 1009.727 1448.709 315.613 1448.709 315.613 1443.642 315.613 1438.574 1009.727 1438.574 1703.84 1438.574 1703.84 1443.642 1703.84 1448.709" fill="url(#_ÂÁ_Ï_ÌÌ_È_ËÂÌÚ_115)"/>
      </g>
      <g>
        <path d="M1287.279,1488.57h297.941c2.621,0,4.994,1.062,6.712,2.78s2.78,4.091,2.78,6.712v56.179c0,2.621-1.062,4.995-2.78,6.712-1.718,1.718-4.091,2.78-6.712,2.78h-297.941c-2.622,0-4.994-1.062-6.712-2.78-1.718-1.718-2.78-4.091-2.78-6.712v-56.179c0-2.621,1.062-4.994,2.78-6.712,1.718-1.718,4.09-2.78,6.712-2.78Z" fill="#2b096d"/>
        <g>
          <path d="M1524.843,1528.606c0,5.35,2.169,10.192,5.674,13.698,3.506,3.506,8.349,5.675,13.698,5.675s10.192-2.169,13.699-5.675c3.506-3.505,5.673-8.348,5.673-13.698s-2.168-10.192-5.673-13.698c-3.507-3.506-8.349-5.675-13.699-5.675s-10.192,2.169-13.698,5.675c-3.506,3.505-5.674,8.349-5.674,13.698Z" fill="#ad68d9"/>
          <path d="M1452.522,1528.606c0,5.35,2.168,10.192,5.673,13.698,3.506,3.506,8.349,5.675,13.698,5.675s10.193-2.169,13.699-5.675c3.506-3.505,5.673-8.348,5.673-13.698s-2.168-10.192-5.673-13.698c-3.505-3.506-8.349-5.675-13.699-5.675s-10.192,2.169-13.698,5.675c-3.506,3.505-5.673,8.349-5.673,13.698Z" fill="#ad68d9"/>
          <path d="M1381.749,1528.606c0,5.35,2.169,10.192,5.674,13.698s8.349,5.675,13.698,5.675,10.192-2.169,13.698-5.675c3.507-3.505,5.674-8.348,5.674-13.698s-2.168-10.192-5.674-13.698c-3.506-3.506-8.348-5.675-13.698-5.675s-10.192,2.169-13.698,5.675-5.674,8.349-5.674,13.698Z" fill="#ad68d9"/>
          <path d="M1311.493,1528.606c0,5.35,2.169,10.192,5.674,13.698,3.506,3.506,8.348,5.675,13.698,5.675s10.192-2.169,13.698-5.675c3.506-3.505,5.675-8.348,5.675-13.698s-2.169-10.192-5.675-13.698c-3.505-3.506-8.349-5.675-13.698-5.675s-10.192,2.169-13.698,5.675c-3.506,3.505-5.674,8.349-5.674,13.698Z" fill="#ad68d9"/>
        </g>
      </g>
    </g>
  </g>
</svg>