<?xml version="1.0" encoding="UTF-8"?>
<svg xmlns="http://www.w3.org/2000/svg" xmlns:xlink="http://www.w3.org/1999/xlink" version="1.1" viewBox="0 0 5056.172 4273.043">
  <!-- Generator: Adobe Illustrator 29.7.1, SVG Export Plug-In . SVG Version: 2.1.1 Build 8)  -->
  <defs>
    <linearGradient id="linear-gradient" x1="3338.307" y1="894.395" x2="3810.236" y2="1166.864" gradientTransform="translate(1775.645 -2225.527) rotate(45)" gradientUnits="userSpaceOnUse">
      <stop offset="0" stop-color="#ed306b"/>
      <stop offset="1" stop-color="#e13160"/>
    </linearGradient>
    <linearGradient id="linear-gradient1" x1="3754.513" y1="2289.338" x2="3955.223" y2="2289.338" gradientTransform="matrix(1,0,0,1,0,0)" xlink:href="#linear-gradient"/>
    <linearGradient id="linear-gradient2" x1="909.336" y1="1808.307" x2="1186.381" y2="1808.307" gradientTransform="matrix(1,0,0,1,0,0)" xlink:href="#linear-gradient"/>
    <linearGradient id="linear-gradient3" x1="715.124" y1="2061.793" x2="905.714" y2="2061.793" gradientTransform="matrix(1,0,0,1,0,0)" xlink:href="#linear-gradient"/>
    <linearGradient id="linear-gradient4" x1="1212.105" y1="1221.742" x2="1325" y2="1221.742" gradientTransform="matrix(1,0,0,1,0,0)" xlink:href="#linear-gradient"/>
    <linearGradient id="linear-gradient5" x1="1306.417" y1="1317.583" x2="1361.889" y2="1317.583" gradientTransform="translate(944.552 -516.593) rotate(33.366)" xlink:href="#linear-gradient"/>
    <linearGradient id="Degradado_sin_nombre_48" data-name="Degradado sin nombre 48" x1="3247.482" y1="2106.552" x2="3247.482" y2="1754.421" gradientUnits="userSpaceOnUse">
      <stop offset="0" stop-color="#6d6f71"/>
      <stop offset=".013" stop-color="#7b7d7f"/>
      <stop offset=".045" stop-color="#9b9c9e"/>
      <stop offset=".082" stop-color="#b6b7b8"/>
      <stop offset=".124" stop-color="#cccdce"/>
      <stop offset=".172" stop-color="#ddddde"/>
      <stop offset=".232" stop-color="#e9e9ea"/>
      <stop offset=".317" stop-color="#f0f0f1"/>
      <stop offset=".55" stop-color="#f2f2f3"/>
      <stop offset=".741" stop-color="#f0f0f1"/>
      <stop offset=".81" stop-color="#e9e9ea"/>
      <stop offset=".859" stop-color="#ddddde"/>
      <stop offset=".899" stop-color="#cccdce"/>
      <stop offset=".933" stop-color="#b6b7b8"/>
      <stop offset=".963" stop-color="#9b9c9e"/>
      <stop offset=".989" stop-color="#7b7d7f"/>
      <stop offset="1" stop-color="#6d6f71"/>
    </linearGradient>
    <clipPath id="clippath-1">
      <path d="M2102.829,3729.294c-79.994,0-145.074-65.08-145.074-145.074l-831.777-1011.767c-47.372-881.164,896.857-1483.139,976.851-1483.139h941.915c79.983,0,145.074,65.08,145.074,145.064v2349.843c0,79.994-65.091,145.074-145.074,145.074h-941.915Z" fill="none"/>
    </clipPath>
    <linearGradient id="linear-gradient6" x1="2531.372" y1="2707.396" x2="2334.208" y2="2782.446" gradientUnits="userSpaceOnUse">
      <stop offset="0" stop-color="#f69363"/>
      <stop offset=".188" stop-color="#f79d6f"/>
      <stop offset=".511" stop-color="#f8a97f"/>
      <stop offset=".764" stop-color="#f9ae85"/>
    </linearGradient>
    <linearGradient id="linear-gradient7" x1="2503.425" y1="2808.761" x2="2306.519" y2="2883.713" xlink:href="#linear-gradient6"/>
    <linearGradient id="linear-gradient8" x1="2377.426" y1="3278.411" x2="3193.976" y2="3278.411" gradientUnits="userSpaceOnUse">
      <stop offset="0" stop-color="#f7a073"/>
      <stop offset="1" stop-color="#f9ae85"/>
    </linearGradient>
    <linearGradient id="linear-gradient9" x1="2784.822" y1="2742.883" x2="2891.451" y2="2640.89" gradientUnits="userSpaceOnUse">
      <stop offset=".07" stop-color="#f58f5d"/>
      <stop offset=".074" stop-color="#f5905e"/>
      <stop offset=".118" stop-color="#f6996a"/>
      <stop offset=".181" stop-color="#f69e71"/>
      <stop offset=".354" stop-color="#f7a073"/>
    </linearGradient>
    <linearGradient id="linear-gradient10" x1="2803.082" y1="2697.302" x2="2862.204" y2="2697.302" gradientUnits="userSpaceOnUse">
      <stop offset=".16" stop-color="#fac19e"/>
      <stop offset="1" stop-color="#fddec9"/>
    </linearGradient>
    <linearGradient id="_ÂÁ_Ï_ÌÌ_È_ËÂÌÚ_52" data-name="¡ÂÁ˚ÏˇÌÌ˚È „‡‰ËÂÌÚ 52" x1="1500.88" y1="2056.602" x2="3000.05" y2="2056.602" gradientUnits="userSpaceOnUse">
      <stop offset=".053" stop-color="#49bbeb"/>
      <stop offset=".256" stop-color="#41afea"/>
      <stop offset=".616" stop-color="#2d90e9"/>
      <stop offset=".894" stop-color="#1b75e9"/>
    </linearGradient>
    <linearGradient id="linear-gradient11" x1="2377.042" y1="2815.634" x2="2558.094" y2="2950.159" gradientUnits="userSpaceOnUse">
      <stop offset="0" stop-color="#f9ae85"/>
      <stop offset="1" stop-color="#f7a073"/>
    </linearGradient>
    <linearGradient id="linear-gradient12" x1="2574.898" y1="2934.539" x2="2433.214" y2="2874.716" gradientUnits="userSpaceOnUse">
      <stop offset="0" stop-color="#f58f5d"/>
      <stop offset="1" stop-color="#f7a073"/>
    </linearGradient>
    <linearGradient id="linear-gradient13" x1="2452.544" y1="2901.97" x2="2535.088" y2="2901.97" gradientUnits="userSpaceOnUse">
      <stop offset="0" stop-color="#fac19e"/>
      <stop offset="1" stop-color="#fddec9"/>
    </linearGradient>
    <linearGradient id="linear-gradient14" x1="2404.567" y1="2714.639" x2="2586.547" y2="2849.853" xlink:href="#linear-gradient11"/>
    <linearGradient id="linear-gradient15" x1="2602.882" y1="2834.368" x2="2460.938" y2="2774.436" xlink:href="#linear-gradient12"/>
    <linearGradient id="linear-gradient16" x1="2480.382" y1="2801.764" x2="2562.911" y2="2801.764" xlink:href="#linear-gradient13"/>
    <linearGradient id="linear-gradient17" x1="2301.902" y1="2882.099" x2="2484.766" y2="3017.97" xlink:href="#linear-gradient11"/>
    <linearGradient id="linear-gradient18" x1="2549.802" y1="3008.479" x2="2359.937" y2="2992.555" xlink:href="#linear-gradient12"/>
    <linearGradient id="linear-gradient19" x1="2424.259" y1="3004.793" x2="2505.192" y2="3004.793" xlink:href="#linear-gradient13"/>
    <linearGradient id="linear-gradient20" x1="2233.075" y1="2939.882" x2="2415.635" y2="3075.527" xlink:href="#linear-gradient11"/>
    <linearGradient id="linear-gradient21" x1="2417.147" y1="3105.196" x2="2490.991" y2="3105.196" xlink:href="#linear-gradient12"/>
    <linearGradient id="linear-gradient22" x1="2422.111" y1="3108.423" x2="2490.475" y2="3108.423" xlink:href="#linear-gradient13"/>
    <linearGradient id="linear-gradient23" x1="1139.743" y1="3171.08" x2="1632.076" y2="3171.08" gradientTransform="matrix(1,0,0,1,0,0)" xlink:href="#linear-gradient"/>
    <linearGradient id="linear-gradient24" x1="3074.176" y1="745.336" x2="3181.992" y2="723.152" gradientTransform="matrix(1,0,0,1,0,0)" xlink:href="#linear-gradient"/>
    <linearGradient id="linear-gradient25" x1="3533.202" y1="2809.6" x2="3640.83" y2="2787.455" gradientTransform="matrix(1,0,0,1,0,0)" xlink:href="#linear-gradient"/>
    <linearGradient id="linear-gradient26" x1="3209.706" y1="928.139" x2="3263.614" y2="917.047" gradientTransform="matrix(1,0,0,1,0,0)" xlink:href="#linear-gradient"/>
    <linearGradient id="linear-gradient27" x1="3953.654" y1="901.433" x2="3980.608" y2="895.887" gradientTransform="matrix(1,0,0,1,0,0)" xlink:href="#linear-gradient"/>
    <linearGradient id="linear-gradient28" x1="3426.091" y1="2939.184" x2="3477.129" y2="2928.682" gradientTransform="matrix(1,0,0,1,0,0)" xlink:href="#linear-gradient"/>
    <linearGradient id="linear-gradient29" x1="1075.977" y1="2131.674" x2="1137.829" y2="2118.947" gradientTransform="matrix(1,0,0,1,0,0)" xlink:href="#linear-gradient"/>
  </defs>
  <g isolation="isolate">
    <g id="Layer_1">
      <rect x="0" y="0" width="5056.172" height="4273.043" display="none" fill="#fff"/>
      <g>
        <g>
          <circle cx="3945.529" cy="3139.046" r="194.031" transform="translate(-1064.022 3709.316) rotate(-45)" fill="#1b75d8"/>
          <path d="M4053.644,3140.432c0-58.849-47.844-106.717-106.665-106.717s-106.664,47.868-106.664,106.717,47.844,106.717,106.664,106.717,106.665-47.868,106.665-106.717ZM3980.189,3227.439c13.509-18.021,22.234-46.742,23.36-80.249h36.305c-2.533,36.886-26.736,67.578-59.665,80.249ZM4039.854,3133.674h-36.305c-1.126-33.508-9.85-62.228-23.36-80.249,32.928,12.671,57.132,43.363,59.665,80.249ZM3953.734,3048.357c8.162,3.097,16.042,11.544,22.515,24.497,8.162,16.331,12.946,37.731,13.79,60.82h-36.305v-85.317ZM3953.734,3147.19h36.305c-.844,23.089-5.629,44.489-13.79,60.82-6.473,12.952-14.353,21.4-22.515,24.497v-85.317ZM3913.77,3053.425c-13.509,18.021-22.234,46.742-23.36,80.249h-36.305c2.533-36.886,26.736-67.578,59.665-80.249ZM3854.106,3147.19h36.305c1.126,33.507,9.85,62.228,23.36,80.249-32.928-12.671-57.132-43.363-59.665-80.249ZM3940.225,3232.507c-8.162-3.097-16.042-11.545-22.515-24.497-8.162-16.331-12.946-37.731-13.79-60.82h36.305v85.317ZM3940.225,3133.674h-36.305c.844-23.089,5.629-44.489,13.79-60.82,6.473-12.953,14.353-21.4,22.515-24.497v85.317Z" fill="#fff" fill-rule="evenodd"/>
        </g>
        <g>
          <circle cx="3574.271" cy="1030.63" r="272.423" transform="translate(318.115 2829.256) rotate(-45)" fill="url(#linear-gradient)"/>
          <path d="M3584.745,1170.225c33.753-14.278,140.212-85.897,140.212-157.933,0-103.341-125.786-112.826-148.996-48.39-.508,1.41-2.465,1.371-2.92-.057-20.49-64.309-148.783-57.284-148.783,48.446,0,69.765,106.619,142.997,140.288,157.791,6.436,2.828,13.723,2.881,20.198.142Z" fill="#fff"/>
        </g>
        <g>
          <g>
            <path d="M2730.419,583.188l-103.379,18.81-63.264-36.071c-23.092-13.166-51.124-7.91-62.293,11.679l-72.391,126.966c-11.169,19.59-1.414,46.39,21.678,59.556l213.177,121.545c23.092,13.166,51.124,7.91,62.294-11.679l72.391-126.966c11.169-19.59,1.414-46.39-21.677-59.557l-67.339-38.394,31.066-53.97c3.277-5.693-3.191-13.206-10.261-11.92Z" fill="#fff"/>
            <path d="M2748.79,581.052c-4.642-6.553-12.634-9.767-20.289-8.443l-99.536,18.105-59.86-34.131c-13.39-7.624-28.628-10.334-42.931-7.666-14.955,2.793-27.042,11.09-34.036,23.356l-72.389,126.967c-6.994,12.266-7.971,26.906-2.773,41.209,4.978,13.673,15.091,25.393,28.471,33.018l213.176,121.548c10.019,5.713,21.088,8.674,32.031,8.674,3.655,0,7.309-.336,10.89-1.008,14.955-2.794,27.053-11.09,34.047-23.356l72.389-126.967c6.984-12.266,7.971-26.885,2.772-41.188-4.978-13.673-15.091-25.414-28.47-33.039l-57.959-33.039,25.677-44.633c3.466-6.007,3.003-13.442-1.208-19.407ZM2694.916,653.073l76.716,43.75c8.958,5.104,15.669,12.812,18.903,21.697,3.003,8.275,2.562,16.488-1.25,23.167l-72.389,126.967c-3.812,6.7-10.67,11.279-19.313,12.896-9.263,1.722-19.344-.105-28.313-5.23l-213.176-121.548c-8.958-5.104-15.669-12.791-18.903-21.697-3.014-8.254-2.573-16.488,1.25-23.167l72.389-126.988c3.802-6.679,10.659-11.258,19.313-12.875,2.279-.42,4.6-.63,6.942-.63,7.215,0,14.608,1.995,21.371,5.86l66.665,37.995,103.853-19.386-34.058,59.188Z" fill="#1b75d8"/>
          </g>
          <path d="M2570.288,705.605c6.37-11.172,2.477-25.393-8.695-31.763-11.172-6.37-25.393-2.477-31.764,8.695-6.37,11.172-2.477,25.393,8.695,31.763,11.173,6.37,25.393,2.477,31.764-8.695Z" fill="#1b75d8"/>
          <path d="M2634.09,741.982c6.37-11.172,2.477-25.393-8.695-31.763-11.173-6.37-25.393-2.477-31.764,8.695-6.37,11.172-2.477,25.393,8.695,31.763,11.172,6.37,25.393,2.477,31.763-8.695Z" fill="#1b75d8"/>
          <path d="M2697.891,778.359c6.37-11.172,2.477-25.393-8.695-31.763-11.172-6.37-25.393-2.477-31.764,8.695-6.37,11.172-2.477,25.393,8.695,31.763,11.172,6.37,25.393,2.477,31.764-8.695Z" fill="#1b75d8"/>
        </g>
        <g>
          <path d="M4122.156,2218.575c-.574-10.467-7.058-19.678-16.58-23.458l-141.324-56.247-49.309-91.596c-10.455-19.415-26.867-34.296-46.223-41.88-20.073-7.883-40.744-6.986-58.281,2.452l-191.734,103.212c-35.6,19.152-46.653,68.03-24.642,108.953l173.311,321.908v.012c16.006,29.691,45.099,47.144,73.473,47.144,10.694,0,21.293-2.476,31.054-7.728l191.733-103.212c17.513-9.438,29.643-26.245,34.117-47.311,4.331-20.336.957-42.227-9.498-61.642l-48.902-90.854,70.985-37.861c7.8-4.151,12.346-12.537,11.819-21.891ZM4006.097,2268.279l60.578,112.518c7.704,14.307,10.24,30.265,7.13,44.919-2.967,13.924-10.694,24.882-21.795,30.839l-191.734,103.212c-23.686,12.812-55.697-.443-71.32-29.463v.012l-173.311-321.908c-15.623-29.021-9.02-63.018,14.69-75.77l191.733-103.224c11.077-5.957,24.475-6.4,37.729-1.208,13.948,5.467,25.863,16.365,33.567,30.672l53.567,99.467,149.578,59.525c.718.287,1.172,1.316,1.89,1.208l-92.302,49.201Z" fill="#1b75d8"/>
          <path d="M3882.575,2200.831c-25.684-47.455-90.997-41.215-113.603,5.242-19.407,39.883-13.665,135.647-13.665,135.647,0,0,48.383,38.58,65.851,48.707,27.963,16.212,60.457,27.381,92.05,14.591,33.666-13.629,51.957-44.09,36.408-79.191-11.786-26.606-32.291-48.243-75.339-42.967,0,0,35.178-32.363,8.298-82.029Z" fill="url(#linear-gradient1)"/>
        </g>
        <path d="M1070.583,1912.521s55.396-38.448,71.428-53.517c25.664-24.123,47.48-54.552,44.004-91.529-3.704-39.404-29.784-68.019-71.287-62.759-31.458,3.988-60.454,18.629-68.402,65.216,0,0-22.788-46.838-83.035-34.302-57.566,11.978-71.468,82.109-30.037,120.228,35.568,32.725,137.329,56.663,137.329,56.663Z" fill="url(#linear-gradient2)"/>
        <path d="M777.338,2870.973c-19.193,22.833-2.737,55.153,25.738,57.355,24.445,1.89,72.525-20.487,72.525-20.487,0,0,10.025-32.705,11.69-43.742,2.665-17.667,1.818-36.642-11.167-50.294-13.837-14.548-33.211-17.775-48.107-2.659-11.291,11.458-18.258,26.39-6.814,47.457,0,0-23.777-11.526-43.864,12.371Z" fill="#e7e7e8"/>
        <path d="M827.947,2134.039s37.606-27.336,48.43-37.964c17.327-17.014,31.907-38.317,28.954-63.754-3.146-27.105-21.554-46.437-50.083-42.187-21.624,3.222-41.39,13.751-46.168,45.982,0,0-16.412-31.943-57.752-22.395-39.5,9.123-48.027,57.673-18.895,83.325,25.009,22.022,95.514,36.992,95.514,36.992Z" fill="url(#linear-gradient3)"/>
        <g>
          <path d="M1175.552,1501.92c20.133,2.392,41.21-2.727,59.214-14.582l83.713-55.123,42.694,65.399c4.139,6.34,11.185,9.989,18.949,9.989,1.208,0,2.428-.096,3.66-.275,10.216-1.483,18.685-8.685,21.556-18.338l42.383-141.898,84.586-55.685c37.945-25.001,51.115-72.217,29.356-105.269l-116.705-177.211c-10.718-16.281-28.148-26.64-49.082-29.188-20.109-2.5-41.21,2.704-59.214,14.582l-297.529,195.932c-18.015,11.855-31.078,29.128-36.784,48.639-5.933,20.24-3.29,40.349,7.429,56.618l116.693,177.211c10.718,16.281,28.148,26.652,49.082,29.2ZM1025.855,1245.781c4.091-13.948,13.589-26.401,26.748-35.074l297.529-195.932c13.171-8.673,28.303-12.453,42.789-10.73,13.661,1.675,24.882,8.182,31.581,18.35l116.705,177.211c14.331,21.772,4.294,53.771-22.37,71.344l-92.027,60.59-45.11,152.688-56.14-86.01-104.264,68.664c-13.17,8.673-28.315,12.441-42.79,10.718-13.661-1.663-24.882-8.182-31.581-18.35l-116.693-177.211c-6.699-10.168-8.254-23.04-4.378-36.258Z" fill="#1b75d8"/>
          <g>
            <polygon points="1248.289 1147.938 1212.105 1171.766 1239.069 1212.711 1306.075 1295.545 1325 1283.082 1275.253 1188.883 1248.289 1147.938" fill="url(#linear-gradient4)"/>
            <rect x="1314.129" y="1297.559" width="40.047" height="40.047" transform="translate(-504.748 950.934) rotate(-33.366)" fill="url(#linear-gradient5)"/>
          </g>
        </g>
        <g>
          <g>
            <path d="M2102.828,1039.356h941.926c107.634,0,195.02,87.385,195.02,195.02v2349.853c0,107.634-87.385,195.02-195.02,195.02h-941.926c-107.636,0-195.022-87.387-195.022-195.022V1234.378c0-107.636,87.387-195.022,195.022-195.022Z" fill="#cdcccc"/>
            <rect x="1934.203" y="1065.758" width="1279.173" height="2687.089" rx="168.622" ry="168.622" fill="#0c0b0d"/>
            <path d="M2102.829,3729.294h941.916c79.983,0,145.074-65.08,145.074-145.074V1234.378c0-79.983-65.091-145.064-145.074-145.064h-941.916c-79.993,0-145.074,65.08-145.074,145.064v2349.843c0,79.994,65.081,145.074,145.074,145.074Z" fill="#fff"/>
            <g>
              <g>
                <path d="M1909.472,1899.247v-235.944h-1.475c-8.62,0-15.608,6.988-15.608,15.608v204.729c0,8.62,6.988,15.608,15.608,15.608h1.475Z" fill="#cdcccc"/>
                <path d="M1909.472,1899.247v-235.944h-1.475c-8.62,0-15.608,6.988-15.608,15.608v204.729c0,8.62,6.988,15.608,15.608,15.608h1.475Z" fill="#cdcccc" mix-blend-mode="multiply" opacity=".5"/>
              </g>
              <g>
                <path d="M1909.472,2197.671v-235.944h-1.475c-8.62,0-15.608,6.988-15.608,15.608v204.729c0,8.62,6.988,15.608,15.608,15.608h1.475Z" fill="#cdcccc"/>
                <path d="M1909.472,2197.671v-235.944h-1.475c-8.62,0-15.608,6.988-15.608,15.608v204.729c0,8.62,6.988,15.608,15.608,15.608h1.475Z" fill="#cdcccc" mix-blend-mode="multiply" opacity=".5"/>
              </g>
            </g>
            <g>
              <path d="M3255.191,1769.837c0-8.514-6.902-15.417-15.417-15.417v352.132c8.514,0,15.417-6.902,15.417-15.417v-321.298Z" fill="url(#Degradado_sin_nombre_48)"/>
              <path d="M3255.191,1769.837c0-8.514-6.902-15.417-15.417-15.417v352.132c8.514,0,15.417-6.902,15.417-15.417v-321.298Z" fill="#cdcccc"/>
            </g>
          </g>
          <g>
            <circle cx="2243.451" cy="1507.281" r="146.668" transform="translate(-408.717 2027.832) rotate(-45)" fill="#e7e7e8"/>
            <path d="M2180.279,1593.879h126.29c7.977,0,14.635-6.414,14.586-14.391-.091-14.667-4.887-30.485-19.175-47.644-14.413-17.31-34.966-29.331-57.489-29.626-43.392-.568-78.745,34.436-78.745,77.697,0,.048,0,.095,0,.143.016,7.752,6.78,13.82,14.532,13.82Z" fill="#fff"/>
            <circle cx="2243.451" cy="1453.591" r="41.693" fill="#fff"/>
          </g>
          <rect x="2442.521" y="1471.596" width="458.086" height="35.686" rx=".464" ry=".464" fill="#e7e7e8"/>
          <rect x="2442.521" y="1534.505" width="608.276" height="36.151" rx=".464" ry=".464" fill="#e7e7e8"/>
          <rect x="2091.645" y="3426.457" width="951.467" height="38.813" rx=".464" ry=".464" fill="#e7e7e8"/>
          <rect x="2091.645" y="3337.547" width="951.467" height="38.813" rx=".464" ry=".464" fill="#e7e7e8"/>
          <rect x="2091.645" y="3248.638" width="951.467" height="38.813" rx=".464" ry=".464" fill="#e7e7e8"/>
          <g>
            <path d="M3059.85,1212.254l9.558-9.559c-10.891-10.89-25.939-17.628-42.559-17.628s-31.666,6.738-42.556,17.628l9.555,9.559c8.445-8.445,20.115-13.67,33.001-13.67s24.556,5.225,33.001,13.67Z" fill="#b3b3b3"/>
            <path d="M3045.137,1226.966l10.047-10.048c-7.251-7.252-17.27-11.737-28.335-11.737s-21.084,4.484-28.335,11.737l10.048,10.048c4.68-4.68,11.146-7.575,18.288-7.575s13.608,2.896,18.288,7.575Z" fill="#b3b3b3"/>
            <path d="M3026.849,1225.321c-5.505,0-10.487,2.232-14.095,5.84l14.095,14.093,14.096-14.093c-3.608-3.608-8.59-5.84-14.096-5.84Z" fill="#b3b3b3"/>
          </g>
          <g>
            <path d="M2163.833,1249.899c9.769,0,17.705-7.942,17.705-17.711v-34.063c0-9.761-7.936-17.704-17.705-17.704h-88.713c-9.767,0-17.704,7.944-17.704,17.704v34.063c0,9.768,7.937,17.711,17.704,17.711h88.713ZM2063.948,1232.189v-34.063c0-6.155,5.009-11.172,11.171-11.172h88.713c6.163,0,11.172,5.017,11.172,11.172v34.063c0,6.163-5.01,11.18-11.172,11.18h-88.713c-6.162,0-11.171-5.017-11.171-11.18Z" fill="#b3b3b3"/>
            <rect x="2068.56" y="1191.762" width="35.213" height="46.795" rx=".159" ry=".159" fill="#b3b3b3"/>
          </g>
          <rect x="2025.595" y="1781.275" width="1083.567" height="1083.567" fill="#e7e7e8"/>
          <g>
            <path d="M2648.393,2310.021c0-44.669-36.342-81.012-81.012-81.012s-81.018,36.343-81.018,81.012,36.342,81.011,81.018,81.011,81.012-36.343,81.012-81.011Z" fill="#fff"/>
            <path d="M2647.708,2097.9h-161.274c-14.189,0-23.591,11.967-24.585,26.12-.489,6.966-6.295,12.464-13.384,12.464h-99.528c-29.638,0-53.664,24.027-53.664,53.666v247.479c0,29.638,24.026,53.665,53.664,53.665h436.882c29.637,0,53.663-24.026,53.663-53.665v-247.479c0-29.638-24.026-53.666-53.664-53.666h-99.528c-7.41,0-13.417-6.007-13.417-13.417h0c0-13.9-11.267-25.167-25.166-25.167ZM2705.065,2170.428c13.915,0,25.195,11.28,25.195,25.195s-11.28,25.196-25.195,25.196-25.195-11.28-25.195-25.196,11.28-25.195,25.195-25.195ZM2681.187,2310.021c0,62.753-51.051,113.805-113.805,113.805s-113.811-51.051-113.811-113.805,51.058-113.805,113.811-113.805,113.805,51.051,113.805,113.805Z" fill="#fff"/>
            <path d="M2384.119,2102.879h-17.447c-10.527,0-19.061,8.534-19.061,19.061v7.564h55.57v-7.564c0-10.527-8.535-19.061-19.062-19.061Z" fill="#fff"/>
          </g>
          <g>
            <path d="M2532.832,2919.485c0-7.361-5.967-13.328-13.328-13.328s-13.329,5.967-13.329,13.328,5.968,13.327,13.329,13.327,13.328-5.967,13.328-13.327Z" fill="#b3b3b3"/>
            <path d="M2567.379,2932.813c7.361,0,13.328-5.967,13.328-13.327s-5.967-13.328-13.328-13.328-13.328,5.967-13.328,13.328,5.967,13.327,13.328,13.327Z" fill="#e7e7e8"/>
            <path d="M2628.582,2919.485c0-7.361-5.967-13.328-13.327-13.328s-13.329,5.967-13.329,13.328,5.967,13.327,13.329,13.327,13.327-5.967,13.327-13.327Z" fill="#e7e7e8"/>
          </g>
          <g>
            <path d="M2117.933,3103.472c.986.725,2.157,1.088,3.322,1.088s2.329-.363,3.322-1.088c9.164-6.765,34.542-26.091,40.55-37.215,7.369-13.651,3.003-31.1-9.769-38.978-4.193-2.59-8.763-3.824-13.28-3.824-7.929,0-15.655,3.786-20.823,10.653-5.167-6.867-12.893-10.653-20.809-10.653-4.518,0-9.1,1.234-13.294,3.824-12.765,7.879-17.137,25.328-9.768,38.978,6.014,11.124,31.379,30.45,40.55,37.215ZM2089.245,3030.601c3.417-2.119,7.293-3.233,11.201-3.233,6.873.006,13.3,3.303,17.634,9.068l3.176,4.219,3.169-4.212c4.34-5.772,10.767-9.075,17.653-9.075,3.894,0,7.764,1.114,11.193,3.233,11.01,6.796,14.77,21.961,8.368,33.81-5.702,10.564-31.615,30.165-39.43,35.917-.35.261-.713.325-.955.325s-.604-.064-.954-.325c-7.809-5.753-33.728-25.354-39.43-35.917-6.396-11.849-2.648-27.014,8.374-33.81Z" fill="#b3b3b3"/>
            <path d="M2325.423,3054.426c-3.519-14.248-14.611-25.665-28.758-29.432-3.856-1.031-7.675-1.521-11.372-1.521-26.473,0-47.149,24.882-40.003,52.584,3.303,12.822,16.965,26.091,29.802,29.222,3.462.84,6.885,1.242,10.201,1.242,7.121,0,13.803-1.833,19.658-5.009.649-.35,1.374-.547,2.094-.547.356,0,.718.045,1.063.14l17.475,4.696c.102.019.184.032.287.032.668,0,1.202-.642,1.018-1.336l-4.811-17.997c-.274-1.018-.134-2.094.338-3.035,4.193-8.445,5.606-18.525,3.01-29.038ZM2318.264,3087.531l3.519,13.154-12.658-3.405c-.675-.178-1.374-.267-2.081-.267-1.369,0-2.75.35-3.978,1.018-5.543,3.01-11.518,4.537-17.774,4.537-3.067,0-6.185-.382-9.259-1.132-11.442-2.787-24.023-15.114-26.925-26.359-3.023-11.728-.643-23.781,6.529-33.066,7.159-9.265,17.971-14.58,29.655-14.58,3.436,0,6.917.471,10.354,1.382,12.797,3.411,22.744,13.593,25.951,26.562,2.246,9.107,1.305,18.213-2.724,26.327-.91,1.826-1.12,3.901-.611,5.829Z" fill="#b3b3b3"/>
            <path d="M2417.806,3090.287v14.178c0,1.076.903,1.941,2.005,1.941,1.107,0,2.005-.865,2.005-1.941v-14.178c0-25.278,14.363-39.201,40.448-39.201h22.922l-22.171,21.484c-.777.757-.777,1.986,0,2.743.394.382.903.573,1.412.573s1.031-.191,1.419-.573l27.002-26.161-27.002-26.162c-.783-.764-2.055-.764-2.831,0-.777.757-.777,1.979,0,2.736l22.171,21.484h-22.922c-28.248,0-44.457,15.699-44.457,43.077Z" fill="#b3b3b3"/>
          </g>
          <path d="M3115.28,3178.271h-1095.804v357.365h1095.804v-357.365ZM3103.031,3523.387h-1071.305v-332.866h1071.305v332.866Z" fill="#e7e7e8" opacity=".9"/>
        </g>
        <g clip-path="url(#clippath-1)">
          <g>
            <path d="M3005.378,2555.635l49.788-142.487c8.414-24.079-4.458-50.393-28.631-58.532l-81.591-27.47-93.183,222.32,94.842,34.16c23.967,8.632,50.372-3.943,58.775-27.991Z" fill="#0b8deb"/>
            <g>
              <path d="M2593.788,2723.24c-5.832-37.248-45.778-43.368-76.198-46.842-9.397-1.073-19.494-1.917-29.732-2.006-24.048-.21-62.764-4.826-81.161,10.097-27.664,22.451,1.318,96.22,41.423,97.114,33.104.738,155.143,2.149,145.668-58.363Z" fill="url(#linear-gradient6)"/>
              <path d="M2565.87,2824.71c-5.871-36.692-45.82-42.762-76.242-46.215-9.398-1.067-19.494-1.908-29.732-2.007-24.046-.232-62.765-4.82-81.144,9.858-27.638,22.083,1.419,94.768,41.523,95.691,33.102.762,155.133,2.281,145.595-57.326Z" fill="url(#linear-gradient7)"/>
              <path d="M2543.541,2933.233c-5.872-36.692-45.82-42.762-76.242-46.215-9.398-1.067-19.494-1.909-29.732-2.007-24.046-.232-73.714.351-92.094,15.03-27.638,22.083,12.369,89.596,52.473,90.519,33.103.761,155.134,2.28,145.595-57.327Z" fill="#f69363"/>
              <path d="M2542.1,3040.94c-5.871-36.692-45.82-42.762-76.242-46.215-9.398-1.067-19.494-1.909-29.732-2.007-24.046-.232-70.783,1.086-89.163,15.764-27.638,22.083,9.437,88.862,49.541,89.784,33.103.761,155.134,2.28,145.595-57.327Z" fill="#f69363"/>
              <g>
                <path d="M2506.89,3043.018c-8.16,5.444-24.583,12.628-29.496,21.117-26.106,45.113-132.546-20.504-90.077,10.116,172.825,124.605,272.079,323.424,427.87,569.375,16.129,25.462,107.456,191.693,117.096,245.832,1.068,5.998,39.491-31.086,44.321-27.372,8.667,6.663,21.104,1.413,30.493-4.187,39.168-23.358,85.702-32.457,119.202-63.402,13.514-12.484,66.729-52.995,67.676-71.37,0,0-17.997-20.571-30.606-42.436-19.765-34.273-334.624-520.981-350.768-567.759-11.197-32.443-22.305-58.58-23.81-199.244,3.768-51.376,29.499-154.515,41.78-204.215,2.086-8.438,3.961-17.271,2.045-25.749-1.914-8.478-8.701-16.477-17.379-16.964-17.401-.976-39.546,11.157-49.29,23.461-12.262,15.486-57.396,96.988-66.474,114.424-12.359,23.737-44.504-.587-48.979,23.314-5.877,31.397-57.32,61.876-49.868,95.266,10.542,47.226-36.244,79.312-84.244,91.897-41.936,10.995,28.87,2.3-9.493,27.895Z" fill="url(#linear-gradient8)"/>
                <path d="M2822.991,2737.365s12.211-48.699,12.921-68.241c0,0-8.625-3.664-23.876,11.386-6.395,6.31-13.514,23.455-16.212,32.867-3.79,13.223,11.659,28.564,25.141,31.293l2.027-7.304Z" fill="url(#linear-gradient9)" opacity=".7"/>
                <path d="M2823.658,2734.657l1.888-6.701s17.719-48.074,18.429-67.616c0,0-8.625-3.664-23.876,11.386-6.395,6.31-13.514,23.455-16.212,32.867-3.79,13.223,6.289,27.336,19.771,30.065Z" fill="url(#linear-gradient10)"/>
              </g>
              <g>
                <path d="M2505.161,3258.737c36.942,12.232,76.014-10.015,85.157-48.487l116.538-490.35-215.168-71.244-149.196,484.32c-11.1,36.034,8.494,74.712,43.764,86.391l118.905,39.37Z" fill="#4d4d4d"/>
                <path d="M2650.301,2753.122c37.551,11.996,77.492-9.905,87.567-48.017l18.307-69.248-268.239-70.215-18.346,57.43c-11.578,36.243,8.417,75.01,44.66,86.588l136.051,43.462Z" fill="#333"/>
                <path d="M2699.802,2633.258c18.125,5.846,36.198,9.171,54.447,9.991,95.945,5.575,187.342-54.614,218.091-150.626l17.309-54.392c36.595-114.137-26.48-236.17-140.407-272.522l-211.955-67.7-.032.454s-2.23-.842-6.445-2.739c-7.778-3.29-22.879-9.839-43.662-20.219-113.646-56.698-400.181-225.955-648.787-590.49q-.212-.244-.423-.488c-11.229-16.117-21.984-32.43-32.466-49.411.016-.228-.212-.244-.424-.486-1.255-1.69-2.493-3.608-3.52-5.281l-.584,1.79-2.364,7.614-.016.228-164.077,513.205-66.567,208.832-163.849,513.221-3.191,9.616c27.324-11.13,54.354-21.364,81.111-30.932.212.244.228.016.228.016,399.698-142.945,719.68-118.021,846.69-98.602,23.782,3.496,40.7,6.969,50.168,9.004,6.085,1.342,9.013,2.005,9.013,2.005l-.244.211,211.957,67.7Z" fill="url(#_ÂÁ_Ï_ÌÌ_È_ËÂÌÚ_52)"/>
                <path d="M2699.802,2633.258c18.125,5.846,36.198,9.172,54.447,9.991,95.945,5.575,187.342-54.614,218.091-150.626l17.309-54.392c36.595-114.137-26.48-236.17-140.407-272.522l-211.955-67.7-.032.454s-2.23-.842-6.445-2.739c-4.208-1.781-10.722-4.607-18.956-8.385-8.981,93.113-25.751,237.833-49.904,293.669-22.569,52.177-71.71,127.703-105.947,177.786,9.881,1.795,17.768,3.406,23.074,4.547,6.085,1.342,9.013,2.005,9.013,2.005l-.244.211,211.957,67.7Z" fill="#1b75d8"/>
                <path d="M1827.268,2241.217c2.616-6.488,4.983-13.055,7.677-19.788,13.448-35.303,26.471-71.826,38.579-109.726,12.108-37.902,22.671-75.211,32.18-111.77,1.709-7.049,3.586-13.771,5.217-20.574,70.468-290.21,54.306-529.98-46.106-562.057-115.424-36.873-298.976,214.227-409.673,560.747-110.697,346.518-106.715,657.529,8.709,694.402,100.412,32.077,252.588-153.918,363.418-431.233Z" fill="#1b75d8"/>
                <g>
                  <path d="M1846.569,1414.068c-115.783-7.55-286.384,235.162-391.428,563.98-104.664,327.633-106.747,623.375-9.107,685.822-84.722-80.194-78.683-366.363,20.816-681.651,101.334-321.092,264.327-560.581,379.718-568.151Z" fill="#49bbeb"/>
                  <path d="M1905.703,1999.932c-9.508,36.56-20.072,73.869-32.18,111.771-12.106,37.9-25.13,74.424-38.578,109.726-2.694,6.733-5.061,13.301-7.677,19.788-110.829,277.315-263.005,463.31-363.418,431.233-6.291-2.009-12.189-4.98-17.816-8.58,9.133,8.645,19.288,14.971,30.528,18.605,100.484,32.491,252.428-154.85,362.886-434.338,2.607-6.539,4.966-13.158,7.651-19.943,13.4-35.581,26.375-72.393,38.431-110.594,12.056-38.203,22.568-75.811,32.027-112.664,1.699-7.106,3.567-13.883,5.188-20.74,70.069-292.55,53.557-534.36-46.927-566.851-9.32-3.013-19.122-3.942-29.249-3.277,6.233.406,12.349,1.349,18.245,3.233,100.413,32.077,116.575,271.847,46.106,562.056-1.63,6.803-3.507,13.525-5.217,20.574Z" fill="#005ab3"/>
                </g>
                <path d="M1702.786,2179.21l124.483,62.007c2.616-6.488,4.983-13.055,7.677-19.788,13.448-35.303,26.471-71.826,38.579-109.726,12.108-37.902,22.671-75.211,32.18-111.77,1.709-7.049,3.586-13.771,5.217-20.574l-137.376-21.645c-61.28-19.576-126.551,14.089-146.128,75.369-9.749,30.517-6.328,62.258,7.485,88.64,13.488,26.549,37.367,47.739,67.884,57.488Z" fill="#fff"/>
              </g>
              <g>
                <path d="M2519.652,2929.941c35.304-48.967-45-105.016-45-105.016,0,0-31.133-27.059-56.642-38.415-48.579-21.627-77.78,32.029-41.973,81.309,19.464,26.787,108.311,111.089,143.615,62.122Z" fill="url(#linear-gradient11)"/>
                <path d="M2495.938,2940.161c10.589,4.561,22.926,1.129,29.453-8.376l4.683-6.819c6.739-9.814,6.839-22.769.073-32.564-6.729-9.742-15.182-18.455-25.337-24.636-6.024-3.667-13.279-8.196-20.161-9.756-6.336-1.436-13.206-2.106-19.68.828-3.555,1.612-6.508,4.414-9.473,7.05-6.857,6.093-14.369,22.069-10.885,32.577,3.751,11.314,27.641,31.493,51.328,41.697Z" fill="url(#linear-gradient12)" opacity=".7"/>
                <path d="M2498.082,2940.347c9.987,4.302,21.623,1.065,27.779-7.9l4.417-6.431c6.356-9.256,6.45-21.475.068-30.714-6.347-9.188-14.32-17.406-23.896-23.236-5.682-3.459-12.524-7.73-19.016-9.201-5.975-1.355-12.455-1.987-18.562.781-3.353,1.52-6.138,4.163-8.935,6.649-6.467,5.747-9.304,19.245-6.019,29.156,3.538,10.671,21.822,31.273,44.163,40.897Z" fill="url(#linear-gradient13)"/>
              </g>
              <g>
                <path d="M2547.453,2830.135c35.359-49.756-44.89-106.579-44.89-106.579,0,0-31.106-27.44-56.605-38.943-48.559-21.906-77.82,32.604-42.063,82.601,19.436,27.177,108.2,112.677,143.559,62.921Z" fill="url(#linear-gradient14)"/>
                <path d="M2523.726,2840.537c10.584,4.62,22.927,1.122,29.464-8.536l4.69-6.928c6.75-9.972,6.864-23.126.108-33.064-6.719-9.884-15.164-18.722-25.312-24.987-6.021-3.717-13.271-8.307-20.152-9.884-6.334-1.451-13.205-2.124-19.683.861-3.557,1.64-6.513,4.489-9.482,7.168-6.864,6.194-14.394,22.423-10.921,33.088,3.739,11.484,27.609,31.947,51.287,42.282Z" fill="url(#linear-gradient15)" opacity=".7"/>
                <path d="M2525.87,2840.723c9.983,4.358,21.624,1.058,27.79-8.051l4.424-6.535c6.367-9.405,6.474-21.812.101-31.185-6.338-9.322-14.302-17.658-23.873-23.567-5.679-3.506-12.517-7.835-19.007-9.322-5.974-1.369-12.454-2.004-18.564.813-3.355,1.547-6.143,4.234-8.943,6.761-6.474,5.842-9.326,19.551-6.05,29.609,3.527,10.831,21.79,31.729,44.123,41.477Z" fill="url(#linear-gradient16)"/>
              </g>
              <g>
                <path d="M2493.244,3033.984c35.304-48.967-45-105.016-45-105.016,0,0-31.093-27.149-56.643-38.415-58.134-25.634-78.619,44.784-41.972,81.309,23.452,23.374,108.311,111.089,143.615,62.122Z" fill="url(#linear-gradient17)"/>
                <path d="M2463.255,3041.653c23.437,15.39,50.761-14.847,40.101-38.078-5.163-11.25-12.286-21.753-21.62-29.958-5.538-4.868-12.186-10.845-18.989-13.699-6.262-2.627-13.215-4.563-20.412-2.716-3.953,1.014-7.5,3.365-11.032,5.541-8.165,5.03-14.245,18.037-12.563,29.487,1.811,12.329,21.977,34.624,44.515,49.424Z" fill="url(#linear-gradient18)" opacity=".7"/>
                <path d="M2465.801,3042.346c21.734,14.272,47.074-13.768,37.188-35.312-4.787-10.433-11.394-20.173-20.05-27.782-5.136-4.514-11.301-10.058-17.61-12.704-5.807-2.436-12.255-4.231-18.93-2.518-3.666.941-6.956,3.121-10.23,5.138-7.571,4.665-13.21,16.727-11.65,27.345,1.679,11.434,20.381,32.109,41.282,45.834Z" fill="url(#linear-gradient19)"/>
              </g>
              <g>
                <path d="M2476.749,3129.195c31.024-43.03-39.544-92.283-39.544-92.283,0,0-26.912-24.848-49.775-33.757-42.889-16.713-75.08,27.526-36.883,71.45,19.093,21.956,95.178,97.62,126.202,54.59Z" fill="url(#linear-gradient20)"/>
                <path d="M2454.13,3139.944c19.863,13.567,43.773-11.943,34.991-32.037-4.252-9.73-10.199-18.851-18.077-26.034-4.674-4.262-10.284-9.493-16.074-12.047-5.331-2.351-11.264-4.12-17.467-2.648-3.406.809-6.486,2.77-9.549,4.581-7.082,4.188-11.868,17.43-10.604,27.278,1.361,10.603,17.679,27.861,36.78,40.908Z" fill="url(#linear-gradient21)" opacity=".7"/>
                <path d="M2456.349,3140.592c18.389,12.56,40.524-11.057,32.394-29.659-3.937-9.008-9.442-17.452-16.736-24.102-4.327-3.946-9.52-8.789-14.882-11.153-4.935-2.177-10.428-3.814-16.17-2.451-3.153.748-6.005,2.564-8.84,4.241-6.556,3.877-10.987,16.137-9.817,25.253,1.26,9.816,16.367,25.793,34.051,37.872Z" fill="url(#linear-gradient22)"/>
              </g>
            </g>
            <path d="M2629.951,2121.064q.016-.228.032-.456c.378-8.667.74-17.11.826-24.883-7.778-3.29-22.879-9.839-43.662-20.219-1.37,55.508-8.821,181.527-46.637,283.68-31.303,84.304-79.684,154.368-111.601,195.153,23.782,3.496,40.7,6.969,50.168,9.004,28.549-41.706,76.192-117.543,107.356-196.594,30.58-77.26,40.445-175.651,43.519-245.685Z" fill="#fff"/>
            <path d="M1924.896,2138.814c23.502-83.562,44.413-167.69,58.496-253.303,14.082-85.377,25.065-172.038,20.852-258.617-1.044,43.216-5.768,86.148-12.014,128.798-6.12,42.663-13.188,85.182-22.087,127.351-17.658,84.271-37.56,168.338-62.502,250.644-24.652,82.236-54.741,163.035-93.364,239.833-18.511,38.79-39.555,76.366-62.372,112.837-22.483,36.704-47.079,72.197-74.959,105.249,61.331-61.342,109.208-135.082,150.383-211.404,40.823-76.761,72.691-158.151,97.569-241.387Z" fill="#fff"/>
            <path d="M2902.991,2286.807c-27.682-17.456-57.233-29.617-87.246-40.46-30.202-10.32-60.85-19.355-93.352-23.14,27.704,17.415,57.249,29.581,87.252,40.46,30.186,10.356,60.835,19.396,93.346,23.14Z" fill="#fff"/>
            <path d="M2722.841,2526.54c-30.202-10.32-60.85-19.355-93.352-23.14,27.704,17.415,57.249,29.581,87.252,40.46,30.18,10.356,60.834,19.396,93.346,23.14-27.688-17.456-57.233-29.617-87.246-40.46Z" fill="#fff"/>
            <path d="M2798.018,2330.082c-42.877-12.668-86.156-24.03-131.046-30.066,40.706,19.866,83.017,34.406,125.731,47.641,42.867,12.705,86.14,24.072,131.04,30.067-40.684-19.908-83.001-34.443-125.725-47.641Z" fill="#fff"/>
            <path d="M2772.131,2437.179c-42.883-12.667-86.156-24.029-131.046-30.066,40.707,19.867,83.017,34.407,125.725,47.643,42.873,12.703,86.146,24.072,131.046,30.066-40.691-19.909-83.001-34.444-125.725-47.643Z" fill="#fff"/>
          </g>
        </g>
        <g>
          <circle cx="1969.402" cy="779.835" r="213.277" fill="#1b75d8"/>
          <path d="M2088.241,781.358c0-64.686-52.59-117.302-117.244-117.302s-117.245,52.616-117.245,117.302,52.59,117.302,117.245,117.302,117.244-52.616,117.244-117.302ZM2007.5,876.995c14.849-19.808,24.439-51.378,25.676-88.209h39.907c-2.784,40.545-29.388,74.281-65.583,88.209ZM2073.083,773.93h-39.907c-1.237-36.831-10.827-68.4-25.676-88.209,36.194,13.928,62.799,47.664,65.583,88.209ZM1978.421,680.15c8.971,3.405,17.633,12.69,24.748,26.927,8.971,17.951,14.23,41.474,15.158,66.853h-39.907v-93.78ZM1978.421,788.786h39.907c-.928,25.379-6.187,48.902-15.158,66.853-7.115,14.237-15.777,23.522-24.748,26.927v-93.78ZM1934.493,685.721c-14.849,19.808-24.439,51.378-25.676,88.209h-39.906c2.784-40.545,29.388-74.281,65.583-88.209ZM1868.91,788.786h39.906c1.238,36.831,10.827,68.401,25.676,88.209-36.194-13.928-62.799-47.664-65.583-88.209ZM1963.572,882.566c-8.971-3.404-17.633-12.69-24.748-26.927-8.971-17.951-14.23-41.474-15.158-66.853h39.906v93.78ZM1963.572,773.93h-39.906c.928-25.379,6.187-48.902,15.158-66.853,7.115-14.237,15.777-23.522,24.748-26.927v93.78Z" fill="#fff" fill-rule="evenodd"/>
        </g>
        <path d="M4197.752,2679.931c-3.568,2.242-7.064,4.422-13.429,8.439-2.616,1.651-3.387,5.108-1.729,7.721l46.333,73.05c1.653,2.606,5.1,3.384,7.709,1.734,3.908-2.47,1.773-1.107,4.276-2.698,4.409-2.802,8.892-.491,13.501-.002,8.531.906,17.555-7.856,24.294-12.148,21.902-13.891,43.762-27.847,65.692-41.694,5.569-3.516,12.104-6.92,17.317-10.986,5.937-4.631,8.425-13.882,4.975-20.574-2.684-5.208-7.68-8.254-12.971-8.733l-.1-.303c5.189-4.457,4.656-12.902.974-19.16-4.311-7.328-12.597-9.387-17.67-7.767l.715-.191c6.429-5.707,7.605-15.243,2.402-22.999-3.217-4.795-8.16-7.723-13.499-8.199l-.157-.476c7.866-6.307,8.132-16.769,2.606-25.482-5.931-9.351-18.244-11.931-27.595-6-.314.199-20.373,12.922-33.225,21.074-18.041,11.442-28.2,15.336-33.909,1.877-8.654-20.404,1.359-34.839-20.225-47.177-19.058-10.894-28.943-4.462-22.866,13.699,0,0,10.95,27.97,5.349,50.902-2.977,12.189-.184,22.27,2.07,34.362.719,3.86,3.35,19.101-.837,21.731Z" fill="#e7e7e8"/>
        <g>
          <circle cx="1385.91" cy="3171.08" r="246.167" fill="url(#linear-gradient23)"/>
          <g>
            <path d="M1285.177,3312.091h201.379c12.72,0,23.337-10.228,23.258-22.948-.145-23.387-7.793-48.61-30.575-75.972-22.982-27.602-55.756-46.771-91.67-47.241-69.191-.905-125.564,54.911-125.564,123.894,0,.076,0,.152,0,.228.026,12.36,10.811,22.038,23.171,22.038Z" fill="#fff"/>
            <circle cx="1385.909" cy="3088.393" r="66.482" fill="#fff"/>
          </g>
        </g>
        <g>
          <circle cx="4073.396" cy="1572.851" r="221.14" transform="translate(80.897 3341.003) rotate(-45)" fill="#1b75d8"/>
          <g>
            <path d="M4111.428,1580.091c0-20.97-17.061-38.031-38.031-38.031s-38.034,17.061-38.034,38.031,17.061,38.031,38.034,38.031,38.031-17.061,38.031-38.031Z" fill="#fff"/>
            <path d="M4111.106,1480.512h-75.71c-6.661,0-11.075,5.618-11.541,12.262-.229,3.27-2.955,5.851-6.283,5.851h-46.723c-13.913,0-25.193,11.28-25.193,25.193v116.179c0,13.914,11.279,25.193,25.193,25.193h205.094c13.913,0,25.192-11.279,25.192-25.193v-116.179c0-13.913-11.279-25.193-25.193-25.193h-46.723c-3.478,0-6.299-2.82-6.299-6.298h0c0-6.525-5.289-11.815-11.814-11.815ZM4138.033,1514.56c6.532,0,11.827,5.296,11.827,11.828s-5.295,11.828-11.827,11.828-11.828-5.295-11.828-11.828,5.296-11.828,11.828-11.828ZM4126.823,1580.091c0,29.459-23.966,53.425-53.425,53.425s-53.428-23.966-53.428-53.425,23.969-53.426,53.428-53.426,53.425,23.966,53.425,53.426Z" fill="#fff"/>
            <path d="M3987.365,1482.849h-8.191c-4.942,0-8.948,4.006-8.948,8.948v3.551h26.087v-3.551c0-4.942-4.007-8.948-8.949-8.948Z" fill="#fff"/>
          </g>
        </g>
        <g>
          <circle cx="1001.867" cy="2578.61" r="139.387" transform="translate(-1529.913 1463.684) rotate(-45)" fill="#1b75d8"/>
          <path d="M956.764,2596.412c-2.581,1.622-5.11,3.199-9.714,6.105-1.893,1.195-2.45,3.695-1.251,5.585l33.517,52.843c1.196,1.885,3.689,2.448,5.577,1.255,2.827-1.787,1.283-.801,3.093-1.952,3.189-2.027,6.432-.355,9.767-.001,6.171.655,12.699-5.682,17.574-8.788,15.843-10.049,31.657-20.144,47.52-30.16,4.029-2.544,8.756-5.005,12.527-7.947,4.294-3.35,6.094-10.042,3.599-14.883-1.942-3.767-5.556-5.971-9.383-6.317l-.073-.219c3.754-3.224,3.368-9.333.705-13.86-3.119-5.301-9.113-6.79-12.782-5.618l.517-.139c4.651-4.128,5.502-11.027,1.738-16.637-2.327-3.469-5.903-5.587-9.765-5.931l-.114-.345c5.69-4.562,5.883-12.13,1.885-18.433-4.291-6.765-13.197-8.631-19.962-4.34-.227.144-14.738,9.348-24.034,15.244-13.05,8.277-20.399,11.094-24.529,1.358-6.26-14.76.983-25.202-14.63-34.127-13.786-7.88-20.937-3.228-16.541,9.91,0,0,7.921,20.233,3.87,36.822-2.153,8.817-.133,16.11,1.497,24.857.52,2.792,2.423,13.817-.605,15.72Z" fill="#fff"/>
        </g>
        <circle cx="3676.321" cy="1495.284" r="38.374" transform="translate(-96.75 264.372) rotate(-4.065)" fill="#e7e7e8"/>
        <circle cx="3128.084" cy="734.244" r="55.031" fill="url(#linear-gradient24)"/>
        <path d="M3625.929,2835.738c21.491-20.551,21.491-53.87,0-74.421-21.491-20.551-56.335-20.551-77.826,0-21.491,20.551-21.491,53.87,0,74.421,21.491,20.551,56.335,20.551,77.826,0Z" fill="url(#linear-gradient25)"/>
        <circle cx="1569.288" cy="865.169" r="60.49" fill="#1b75d8"/>
        <circle cx="1681.2" cy="664.056" r="30.245" fill="#1b75d8"/>
        <path d="M3256.116,942.049c10.745-10.745,10.745-28.167,0-38.913-10.746-10.745-28.167-10.745-38.913,0-10.745,10.746-10.745,28.167,0,38.913,10.746,10.745,28.167,10.745,38.913,0Z" fill="url(#linear-gradient26)"/>
        <path d="M3976.859,908.388c5.373-5.373,5.373-14.084,0-19.456-5.373-5.373-14.084-5.373-19.457,0-5.373,5.373-5.373,14.084,0,19.456,5.373,5.373,14.084,5.373,19.457,0Z" fill="url(#linear-gradient27)"/>
        <path d="M3480.388,3491.45s47.507-9.025,62.406-14.219c23.851-8.315,47.02-21.884,55.531-47.122,9.069-26.894.333-53.248-28.389-61.911-21.772-6.566-45.038-5.434-63.837,22.765,0,0-1.263-37.332-44.388-46.697-41.205-8.948-70.774,32.938-54.754,69.997,13.752,31.815,73.431,77.186,73.431,77.186Z" fill="#e7e7e8"/>
        <circle cx="3451.61" cy="2933.933" r="26.051" fill="url(#linear-gradient28)"/>
        <circle cx="1106.903" cy="2125.31" r="31.57" fill="url(#linear-gradient29)"/>
        <path d="M742.882,2699.377c10.746-10.746,10.746-28.167,0-38.913-10.746-10.745-28.167-10.745-38.913,0-10.745,10.746-10.745,28.167,0,38.913,10.746,10.746,28.167,10.746,38.913,0Z" fill="#1b75d8"/>
        <path d="M3874.944,2706.803c-28.149-9.864-52.549,16.971-44.524,44.38,6.889,23.531,44.841,60.571,44.841,60.571,0,0,34.136-2.206,45.047-4.557,17.467-3.764,34.912-11.276,43.081-28.254,8.705-18.092,4.863-37.353-14.548-45.932-14.713-6.502-31.146-7.73-46.794,10.433,0,0,2.359-26.318-27.102-36.642Z" fill="#e7e7e8"/>
        <circle cx="4260.446" cy="1866.607" r="42.605" fill="#1b75d8"/>
        <path d="M3731.381,3357.867c22.314-22.315,22.314-58.494,0-80.809-22.315-22.314-58.494-22.314-80.808,0-22.315,22.315-22.315,58.494,0,80.809,22.314,22.315,58.494,22.315,80.808,0Z" fill="#1b75d8"/>
      </g>
    </g>
  </g>
</svg>