<svg width="723" height="393" viewBox="0 0 723 393" fill="none" xmlns="http://www.w3.org/2000/svg">
<path opacity="0.18" d="M348.414 182.906H31.3869C21.3139 182.906 13.1484 174.74 13.1484 164.667V69.8947C13.1484 59.8217 21.3139 51.6562 31.3869 51.6562H348.414C358.487 51.6562 366.652 59.822 366.652 69.8947V164.667C366.652 174.74 358.487 182.906 348.414 182.906Z" fill="url(#paint0_linear_1163_6312)"/>
<path d="M336.508 89.334H293.305V93.6693H336.508V89.334Z" fill="#B8D6FF"/>
<path d="M342.961 102.752H293.305V107.087H342.961V102.752Z" fill="#B8D6FF"/>
<path d="M318.924 116.096H293.234V120.43H318.924V116.096Z" fill="#B8D6FF"/>
<path d="M332.816 129.439H293.234V133.775H332.816V129.439Z" fill="#B8D6FF"/>
<path d="M97.7723 170.849H59.2656V175.592H97.7723V170.849Z" fill="#D6D6D6"/>
<path d="M107.129 162.399H49.9375V167.144H107.129V162.399Z" fill="#D6D6D6"/>
<path d="M233.363 82.5762H140.75V88.5459H233.363V82.5762Z" fill="white"/>
<path d="M279.303 82.5762H243.312V88.5459H279.303V82.5762Z" fill="white"/>
<path d="M184.239 68.9785H140.75V74.9482H184.239V68.9785Z" fill="white"/>
<path d="M78.5405 153.67C72.081 153.67 65.8524 152.326 60.0283 149.677C44.0651 142.422 33.75 126.408 33.75 108.879C33.75 84.182 53.8428 64.0889 78.5405 64.0889C103.238 64.0889 123.33 84.182 123.33 108.879C123.33 126.408 113.016 142.422 97.0515 149.677C91.228 152.326 84.9997 153.67 78.5405 153.67ZM78.5405 66.4533C55.1468 66.4533 36.1145 85.4856 36.1145 108.879C36.1145 125.483 45.8852 140.652 61.0069 147.525C66.5218 150.033 72.4206 151.305 78.5402 151.305C84.6592 151.305 90.558 150.033 96.0725 147.525C111.195 140.652 120.966 125.483 120.966 108.879C120.966 85.4856 101.934 66.4533 78.5405 66.4533Z" fill="url(#paint1_linear_1163_6312)"/>
<path d="M149.685 99.8584H147.32V157.2H149.685V99.8584Z" fill="#C9E0FF"/>
<path d="M160.552 99.8584H158.188V157.2H160.552V99.8584Z" fill="#C9E0FF"/>
<path d="M171.427 99.8584H169.062V157.2H171.427V99.8584Z" fill="#C9E0FF"/>
<path d="M182.287 99.8584H179.922V157.2H182.287V99.8584Z" fill="#C9E0FF"/>
<path d="M193.146 99.8584H190.781V157.2H193.146V99.8584Z" fill="#C9E0FF"/>
<path d="M204.021 99.8584H201.656V157.2H204.021V99.8584Z" fill="#C9E0FF"/>
<path d="M214.88 99.8584H212.516V157.2H214.88V99.8584Z" fill="#C9E0FF"/>
<path d="M225.763 99.8584H223.398V157.2H225.763V99.8584Z" fill="#C9E0FF"/>
<path d="M236.622 99.8584H234.258V157.2H236.622V99.8584Z" fill="#C9E0FF"/>
<path d="M247.482 99.8584H245.117V157.2H247.482V99.8584Z" fill="#C9E0FF"/>
<path d="M258.349 99.8584H255.984V157.2H258.349V99.8584Z" fill="#C9E0FF"/>
<path d="M269.208 99.8584H266.844V157.2H269.208V99.8584Z" fill="#C9E0FF"/>
<path d="M149.685 117.001H147.32V157.199H149.685V117.001Z" fill="#FF6559"/>
<path d="M160.552 130.893H158.188V157.199H160.552V130.893Z" fill="#FF6559"/>
<path d="M171.427 108.134H169.062V157.199H171.427V108.134Z" fill="#FF6559"/>
<path d="M182.287 142.913H179.922V157.199H182.287V142.913Z" fill="#FF6559"/>
<path d="M193.146 128.527H190.781V157.198H193.146V128.527Z" fill="#FF6559"/>
<path d="M204.021 117.788H201.656V157.198H204.021V117.788Z" fill="#FF6559"/>
<path d="M214.88 131.778H212.516V157.198H214.88V131.778Z" fill="#FF6559"/>
<path d="M225.763 114.144H223.398V157.199H225.763V114.144Z" fill="#FF6559"/>
<path d="M236.622 133.553H234.258V157.199H236.622V133.553Z" fill="#FF6559"/>
<path d="M247.482 119.366H245.117V157.2H247.482V119.366Z" fill="#FF6559"/>
<path d="M258.349 138.281H255.984V157.198H258.349V138.281Z" fill="#FF6559"/>
<path d="M269.208 119.366H266.844V157.2H269.208V119.366Z" fill="#FF6559"/>
<path d="M70.9647 91.3176V89.6162H60.1016V91.3176H60.7546V128.944C60.7546 128.944 60.5655 133.723 65.533 133.723C70.5004 133.723 70.3114 128.944 70.3114 128.944V91.3176H70.9647Z" fill="url(#paint2_linear_1163_6312)"/>
<path d="M83.9572 91.3176V89.6162H73.0938V91.3176H73.7468V128.944C73.7468 128.944 73.5577 133.723 78.5252 133.723C83.4926 133.723 83.3036 128.944 83.3036 128.944V91.3176H83.9572Z" fill="url(#paint3_linear_1163_6312)"/>
<path d="M96.9572 91.3176V89.6162H86.0938V91.3176H86.7468V128.944C86.7468 128.944 86.5577 133.723 91.5252 133.723C96.4929 133.723 96.3039 128.944 96.3039 128.944V91.3176H96.9572Z" fill="url(#paint4_linear_1163_6312)"/>
<path d="M62.2272 102.534V128.638C62.2272 128.638 62.0958 131.953 65.5424 131.953C68.989 131.953 68.8576 128.638 68.8576 128.638V102.534H62.2272Z" fill="#F58C37"/>
<path d="M75.2194 106.981V129.139C75.2194 129.139 75.0883 131.953 78.5346 131.953C81.9809 131.953 81.8498 129.139 81.8498 129.139V106.981H75.2194Z" fill="#F58C37"/>
<path d="M88.196 99.3623V128.28C88.196 128.28 88.0646 131.952 91.5108 131.952C94.9571 131.952 94.8263 128.28 94.8263 128.28V99.3623H88.196Z" fill="#F58C37"/>
<path d="M621.025 28.3978L629.39 15.4081L606.181 0.461914L597.816 13.4521L593.14 10.4405L587.313 19.4895L582.463 16.3663L463.105 201.714L467.955 204.837L457.945 220.381L490.507 241.349L500.517 225.805L505.366 228.929L624.724 43.5812L619.875 40.4583L625.701 31.4094L621.025 28.3978Z" fill="url(#paint5_linear_1163_6312)"/>
<path d="M563.857 301.189L563.122 301.307C578.978 286.651 588.735 270.086 592.242 251.726C602.066 200.291 556.681 154.003 554.82 152.129L542.833 170.743C543.207 171.121 578.682 207.316 570.975 247.665C566.163 272.862 544.596 294.464 506.864 311.931L493.473 304.918L496.048 300.001L445.064 273.3L442.344 278.493L468.737 292.316L456.326 316.013L506.709 342.4L498.906 366.087H459.665V382.126H623.396V366.087H563.857V301.189H563.857Z" fill="url(#paint6_linear_1163_6312)"/>
<path d="M682.996 20.2633C666.888 17.7716 651.61 26.1708 644.649 39.981C642.964 43.3247 641.766 46.9849 641.162 50.887C639.335 62.7048 643.369 74.0783 651.102 82.0457C656.461 87.5672 663.597 91.4535 671.788 92.7201C672.602 92.8466 673.417 92.9452 674.227 93.0162C677.898 93.3373 681.504 93.1015 684.958 92.3714C699.445 89.3154 711.224 77.5947 713.622 62.0961C716.716 42.087 703.005 23.3584 682.996 20.2633ZM704.554 60.6935C702.756 72.3138 693.926 81.1004 683.064 83.3927C680.476 83.9392 677.771 84.1167 675.019 83.8745C674.411 83.8211 673.8 83.7477 673.189 83.6533C667.048 82.7035 661.699 79.7895 657.682 75.6502C651.883 69.6765 648.858 61.1499 650.229 52.2898C650.681 49.3652 651.58 46.6205 652.842 44.1134C658.059 33.7597 669.515 27.4613 681.592 29.3291C696.595 31.6498 706.874 45.6919 704.554 60.6935Z" fill="#F58C37"/>
<path d="M657.682 75.6535L651.102 82.049C643.37 74.0817 639.335 62.7081 641.162 50.8903C641.766 46.9883 642.964 43.3281 644.649 39.9844L652.842 44.1164C651.58 46.6235 650.681 49.3682 650.229 52.2929C648.858 61.1532 651.884 69.6798 657.682 75.6535Z" fill="#1A598C"/>
<path d="M675.018 83.8777L674.226 93.0194C673.416 92.9484 672.601 92.8494 671.787 92.7232C663.596 91.4566 656.461 87.5703 651.102 82.0488L657.681 75.6533C661.699 79.7927 667.048 82.7067 673.189 83.6565C673.8 83.7508 674.41 83.8243 675.018 83.8777Z" fill="#2273B5"/>
<path d="M684.966 92.3733C681.512 93.1034 677.906 93.3392 674.234 93.0181L675.027 83.8764C677.779 84.1183 680.484 83.9407 683.072 83.3945L684.966 92.3733Z" fill="#3788CC"/>
<path d="M692.344 110.581H647.398V116.236H692.344V110.581Z" fill="#3788CC"/>
<path d="M699.459 122.603H647.398V128.258H699.459V122.603Z" fill="#3788CC"/>
<path d="M207.74 164.287C214.138 161.227 220.505 181.593 220.505 181.593C231.378 195.962 246.575 176.847 245.089 198.326C242.489 235.911 288.35 210.145 267.193 249.385C246.034 288.625 285.874 271.572 272.726 303.212C259.577 334.853 276.62 372.59 256.836 357.082C256.836 357.082 239.416 318.881 221.451 307.062C203.485 295.243 232.214 281.219 226.592 265.167C218.428 241.85 198.758 242.766 212.941 217.709C227.124 192.653 185.993 174.688 207.74 164.287Z" fill="url(#paint7_linear_1163_6312)"/>
<path d="M263.091 342.705C254.515 336.674 244.478 294.645 243.88 269.612C243.573 256.789 239.782 251.446 236.438 246.733C233.242 242.228 230.481 238.336 232.089 229.402C235.162 212.328 227.082 204.958 227 204.886L227.935 203.819C228.295 204.134 236.71 211.736 233.485 229.654C231.982 238.002 234.459 241.493 237.595 245.912C240.885 250.55 244.981 256.322 245.298 269.578C245.94 296.443 256.201 336.126 263.906 341.545L263.091 342.705Z" fill="white"/>
<path d="M266.32 345.822C265.213 345.822 264.011 345.695 262.694 345.428C259.389 344.76 257.221 343.017 256.252 340.245C253.941 333.634 259.296 322.894 263.644 317.717C263.716 317.631 270.992 308.738 270.216 296.412C270.086 294.346 269.872 292.433 269.682 290.746C269.136 285.868 268.741 282.344 270.836 279.99C272.682 277.915 276.247 277.017 282.754 276.986C294.167 276.933 298.68 272.207 302.306 268.41C303.846 266.798 305.3 265.275 307.068 264.31C312.755 261.205 318.78 260.749 321.393 263.225C322.633 264.401 323.681 266.705 321.626 271.002C319.747 274.929 317.311 277.416 315.353 279.413C312.718 282.101 310.978 283.877 311.884 287.416C312.096 288.247 312.342 289.085 312.588 289.927C314.348 295.945 316.342 302.766 306.043 307.395C303.857 308.377 301.866 309.159 300.109 309.848C292.919 312.669 288.58 314.372 283.681 324.714C282.732 326.715 281.895 328.612 281.085 330.447C277.224 339.201 274.302 345.821 266.32 345.822ZM307.748 265.555C306.174 266.414 304.857 267.793 303.332 269.39C299.52 273.381 294.777 278.348 282.761 278.405C276.778 278.433 273.426 279.213 271.896 280.933C270.221 282.814 270.586 286.075 271.092 290.588C271.283 292.291 271.5 294.222 271.632 296.322C272.445 309.231 265.047 318.25 264.731 318.628C260.428 323.752 255.554 333.951 257.591 339.777C258.383 342.042 260.195 343.476 262.975 344.038C272.674 345.998 275.352 339.93 279.788 329.875C280.602 328.031 281.443 326.125 282.399 324.106C287.539 313.257 292.333 311.375 299.591 308.527C301.332 307.844 303.307 307.069 305.461 306.101C314.634 301.978 312.979 296.318 311.227 290.325C310.976 289.468 310.727 288.613 310.51 287.767C309.406 283.454 311.583 281.233 314.34 278.42C316.322 276.397 318.569 274.104 320.346 270.39C321.277 268.443 322.046 265.798 320.417 264.254C318.274 262.223 312.827 262.782 307.748 265.555Z" fill="url(#paint8_linear_1163_6312)"/>
<path d="M262.838 354.008L261.422 353.934C261.492 352.603 263.278 321.238 275.872 312.058C289.688 301.987 294.044 291.165 296.119 283.901C298.564 275.34 311.006 273.052 311.535 272.959L311.781 274.356C311.661 274.378 299.683 276.585 297.483 284.29C295.351 291.756 290.877 302.876 276.708 313.204C264.654 321.99 262.855 353.689 262.838 354.008Z" fill="url(#paint9_linear_1163_6312)"/>
<path d="M291.63 195.939C282.679 192.87 284.538 210.122 280.756 222.887C276.974 235.651 238.68 228.456 254.754 260.42C270.828 292.384 234.425 271.109 245.299 299.002C256.173 326.895 246.244 356.727 258.063 349.139C269.882 341.551 264.703 306.426 276.996 302.253C289.287 298.079 291.293 293.211 279.123 281.865C266.953 270.518 311.014 259.254 300.14 236.343C289.266 213.431 301.971 199.485 291.63 195.939Z" fill="url(#paint10_linear_1163_6312)"/>
<path d="M263.552 347.803C262.427 343.028 252.814 301.006 261.783 295.927C269.689 291.45 269.494 274.036 268.261 257.593C267.169 243.037 285.863 236.235 286.66 235.952L287.134 237.289C286.949 237.355 268.665 244.014 269.676 257.487C270.942 274.374 271.077 292.293 262.482 297.16C255.671 301.018 261.942 334.79 264.933 347.477L263.552 347.803Z" fill="white"/>
<path d="M283.9 332.839L271.121 381.324H242.561L229.781 332.839H283.9Z" fill="url(#paint11_linear_1163_6312)"/>
<path d="M283.9 332.839C283.9 332.839 255.766 338.122 255.766 381.324H242.561L229.781 332.839H283.9Z" fill="url(#paint12_linear_1163_6312)"/>
<path d="M526.111 78.1066L525.008 77.3925L570.094 7.71289L571.197 8.42691L526.111 78.1066Z" fill="url(#paint13_linear_1163_6312)"/>
<path d="M439.438 178.292H435.047V377.918H439.438V178.292Z" fill="#706865"/>
<path d="M339.665 178.292H335.273V377.918H339.665V178.292Z" fill="#706865"/>
<path d="M451.055 344.97H323.657C318.932 344.97 315.102 341.14 315.102 336.415V103.45C315.102 98.725 318.932 94.8945 323.657 94.8945H451.055C455.78 94.8945 459.61 98.725 459.61 103.45V336.415C459.61 341.14 455.78 344.97 451.055 344.97Z" fill="#BDAFAA"/>
<path d="M447.187 335.198H327.516C322.847 335.198 319.062 331.413 319.062 326.744V107.373C319.062 102.705 322.847 98.9199 327.516 98.9199H447.187C451.856 98.9199 455.64 102.705 455.64 107.373V326.744C455.64 331.413 451.855 335.198 447.187 335.198Z" fill="white"/>
<path d="M408.89 92.9971H365.828V102.721H408.89V92.9971Z" fill="#706865"/>
<path d="M376.369 182.436C359.635 179.043 346.844 164.24 346.844 146.272C346.844 125.923 363.4 109.367 383.749 109.367V111.023C364.312 111.023 348.499 126.836 348.499 146.272C348.499 163.432 360.715 177.574 376.699 180.815C389.19 183.369 402.303 178.972 410.737 168.948C416.064 162.614 418.997 154.561 418.997 146.272C418.997 144.54 418.87 142.8 418.621 141.1L420.258 140.859C420.52 142.639 420.652 144.46 420.652 146.272C420.652 154.95 417.581 163.381 412.004 170.013C403.168 180.513 389.437 185.107 376.369 182.436Z" fill="#F58C37"/>
<path d="M314.906 150.103C314.906 150.103 317.642 145.315 313.303 132.485C309.107 120.076 294.583 121.202 289.967 129.151C285.351 137.101 286.91 142.039 293.706 151.014C300.502 159.99 312.085 154.205 314.906 150.103Z" fill="#EEA886"/>
<path d="M281.17 370.842C281.17 370.842 280.452 376.111 280.362 376.903C280.272 377.694 272.367 376.437 272.367 376.437L271.727 370.164C271.727 370.164 280.182 370.099 281.17 370.842Z" fill="#81807E"/>
<path d="M280.44 376.233C280.44 376.233 282.944 379.408 285.367 380.792C287.789 382.176 291.596 382.724 293.029 384.156C294.063 385.191 296.795 389.642 286.733 389.552C276.672 389.463 271.821 390.181 270.743 388.474C269.665 386.768 272.303 375.876 272.303 375.876C272.303 375.876 274.766 376.57 280.44 376.233Z" fill="#353A3D"/>
<path d="M335.913 370.842C335.913 370.842 335.194 376.111 335.104 376.903C335.014 377.694 327.109 376.437 327.109 376.437L326.469 370.164C326.469 370.164 334.925 370.099 335.913 370.842Z" fill="#81807E"/>
<path d="M335.158 376.233C335.158 376.233 337.663 379.408 340.085 380.792C342.508 382.176 351.423 383.313 352.855 384.745C353.889 385.779 355.609 389.941 341.452 389.552C331.394 389.276 326.54 390.181 325.462 388.474C324.384 386.768 327.022 375.876 327.022 375.876C327.022 375.876 330.147 376.433 335.158 376.233Z" fill="#353A3D"/>
<path d="M283.812 239.642C283.812 239.642 279.759 252.237 280.292 263.092C280.826 273.947 278.196 285.825 277.122 297.164C275.923 309.805 271.019 339.732 270.841 346.494C270.663 353.256 268.961 374.243 268.961 374.243L281.42 375.085C281.42 375.085 289.665 322.766 291.801 317.428C293.936 312.089 304.526 274.03 304.882 269.76C305.238 265.49 283.812 239.642 283.812 239.642Z" fill="#3B3B40"/>
<path d="M324.548 238.332C324.548 238.332 330.508 271.636 331.22 278.28C331.931 284.923 332.406 310.43 332.762 314.583C333.118 318.735 335.134 368.919 337.033 375.088H323.644C323.644 375.088 314.848 338.606 314.848 321.345C314.848 304.085 307.404 283.82 302.6 272.432C297.795 261.043 286.798 260.774 283.844 239.644C283.844 239.644 320.549 231.63 324.548 238.332Z" fill="#3B3B40"/>
<path d="M310.938 153.491C310.938 153.491 309.703 157.085 310.938 159.649C312.173 162.214 295.161 160.675 295.161 160.675C295.161 160.675 295.931 155.375 293.708 151.015C291.485 146.656 310.938 153.491 310.938 153.491Z" fill="#EEA886"/>
<path d="M283.047 242.387C283.047 242.387 289.164 248.671 325.088 241.408L324.54 238.331L283.703 239.868L283.047 242.387Z" fill="#EDDAD3"/>
<path d="M367.635 133.05C366.542 137.224 363.306 146.557 362.327 149.483C361.112 153.115 358.351 160.179 357.326 161.09C356.499 161.818 350.214 166.623 342.95 170.085C341.159 170.935 339.306 171.709 337.462 172.316C328.148 175.398 321.127 179.93 321.127 179.93H277.906C279.022 170.775 282.157 164.21 283.341 161.985C286.635 161.773 291.622 161.181 294.12 161.075C297.24 160.953 300.534 159.579 300.534 159.579L301.634 159.655L304.959 159.89L313.483 160.482C313.483 160.482 319.768 161.12 321.56 161.461C323.359 161.803 335.443 159.298 337.917 159.048C338.214 159.018 338.631 158.889 339.132 158.676C342.791 157.142 351.011 151.442 351.314 150.691C351.656 149.841 355.778 133.961 356.59 131.221C356.78 130.614 367.749 132.624 367.635 133.05Z" fill="#DBDFF0"/>
<path d="M277.536 187.291C277.536 187.298 277.536 187.298 277.536 187.306C278.872 192.68 280.99 204.324 281.506 209.736C282.151 216.401 270.484 311.366 270.484 311.366C275.98 315.632 336.158 316.816 335.9 315.017C335.641 313.226 322.54 211.148 323.565 207.687C324.59 204.225 326.647 194.092 327.155 187.678C327.672 181.272 333.288 177.53 333.288 177.53L342.967 170.084C343.938 165.339 339.149 158.675 339.149 158.675C339.149 158.675 324.468 160.291 322.48 160.041C320.833 159.829 310.707 158.69 310.707 158.69C308.27 159.426 306.403 159.768 304.976 159.889C303.359 160.018 302.312 159.859 301.651 159.654C300.847 159.404 300.604 159.07 300.604 159.07C300.604 159.092 289.576 159.536 283.821 161.157C283.821 161.157 276.106 172.011 277.536 187.291Z" fill="#DBDFF0"/>
<path d="M293.712 151.012C293.712 151.012 295.963 151.211 300.75 149.558C305.537 147.905 305.895 139.535 306.93 140.526C309.042 142.549 311.037 141.153 311.835 139.956C311.835 139.956 309.498 136.878 310.581 135.397C311.664 133.915 313.427 132.834 313.427 132.834C313.427 132.834 310.06 116.605 294.738 123.999C276.786 132.661 293.712 151.012 293.712 151.012Z" fill="#FCCCA2"/>
<path d="M310.92 159.647L310.381 157.301C310.381 157.301 300.601 157.103 295.265 157.876L294.703 160.68C294.703 160.68 301.536 163.779 310.92 159.647Z" fill="#DBDFF0"/>
<path d="M308.5 138.476C307.611 136.999 304.326 136.004 303.94 140.186C303.641 143.427 309.81 146.967 309.867 143.947C309.925 140.926 309.091 139.458 308.5 138.476Z" fill="#EEA886"/>
<path d="M283.817 161.158C283.817 161.158 279.151 161.158 268.967 193.274C265.468 204.308 284.97 212.815 284.97 212.815L283.817 161.158Z" fill="#DBDFF0"/>
<path d="M363.395 115.413L348.789 136.306L350.341 137.39L364.947 116.498L363.395 115.413Z" fill="#4DA8F2"/>
<path d="M369.445 121.649C369.445 121.649 369.704 122.844 369.563 123.422C369.563 123.422 369.225 124.455 369.029 125.203C368.968 125.441 368.919 125.649 368.902 125.787C368.831 126.363 368.846 127.649 368.285 128.984C367.726 130.318 365.272 134.831 365.272 134.831L361.055 133.421L357.201 133.265C357.201 133.265 355.845 124.581 356.223 123.278C356.261 123.15 356.303 123.027 356.35 122.913C356.777 121.84 357.546 121.221 357.834 120.684C357.941 120.487 359.136 118.603 359.798 118.519C360.716 118.402 361.4 118.693 361.813 119.174C361.813 119.174 363.621 119.024 364.626 119.717C364.626 119.717 366.29 119.525 367.295 120.743C367.294 120.743 369.003 120.737 369.445 121.649Z" fill="#EFAA88"/>
<path d="M364.934 116.514L365.379 114.31L363.383 115.429L364.934 116.514Z" fill="#DFE1E8"/>
<path d="M593.624 246.853C593.624 246.853 593.727 245.921 593.573 245.492C593.573 245.492 593.233 244.733 593.024 244.178C592.958 244.002 592.905 243.847 592.881 243.744C592.78 243.31 592.689 242.33 592.155 241.357C591.623 240.386 588.246 236.785 588.246 236.785L585.782 238.058L583.305 238.92C583.305 238.92 583.03 245.703 583.421 246.666C583.46 246.76 583.502 246.851 583.548 246.934C583.959 247.717 584.593 248.127 584.856 248.514C584.953 248.655 586.013 249.995 586.524 250.006C587.233 250.022 587.731 249.746 588.007 249.346C588.007 249.346 589.397 249.317 590.107 248.708C590.107 248.708 591.389 248.723 592.058 247.714C592.058 247.714 593.361 247.582 593.624 246.853Z" fill="#EEA886"/>
<path d="M531.024 133.642C531.024 133.642 527.738 112.382 545.345 112.774C562.954 113.166 561.974 129.52 559.859 136.589C558.299 141.805 555.344 143.762 562.954 158.275C570.563 172.789 556.364 172.789 556.364 172.789L545.345 157.648L531.024 133.642Z" fill="#3A3F47"/>
<path d="M522.689 209.923C522.601 210.033 522.474 210.189 522.312 210.388V210.39C521.897 210.897 521.252 211.678 520.438 212.649C515.737 218.267 505.408 230.248 501.475 232.41C498.687 233.942 498.26 229.127 501.033 226.166C503.561 223.467 513.323 206.053 517.103 202.305C518.939 200.485 521.407 183.282 521.407 183.282C521.407 183.282 523.691 197.627 523.436 199.277C523.183 200.928 524.299 207.918 522.689 209.923Z" fill="#DBDFF0"/>
<path d="M501.036 226.168C501.036 226.168 499.414 228.305 498.572 228.572C497.73 228.839 496.759 230.321 496.054 230.703C495.349 231.086 493.038 231.454 492.48 232.1C492.252 232.364 491.51 234.535 490.986 235.022C490.462 235.509 489.277 236.366 489.724 236.804C490.171 237.242 491.451 236.762 491.451 236.762C491.451 236.762 491.002 237.234 491.275 237.737C491.807 238.714 492.509 238.701 492.509 238.701C492.509 238.701 492.374 239.48 492.699 239.833C493.415 240.612 494.093 240.58 494.093 240.58C494.093 240.58 494.219 241.163 494.814 241.576C495.574 242.104 496.391 241.698 496.391 241.698C496.391 241.698 497.19 242.573 497.809 242.338C498.427 242.104 498.746 241.607 499.171 241.297C499.596 240.986 502.377 237.143 503.17 233.697C503.964 230.252 505.935 227.911 505.935 227.911L501.036 226.168Z" fill="#EEA886"/>
<path d="M491.574 236.329C491.574 236.329 494.011 233.084 495.403 233.025C496.796 232.967 495.982 234.186 495.982 234.186C495.982 234.186 496.766 232.967 497.822 233.49C498.878 234.014 497.849 235.391 497.849 235.391C497.849 235.391 498.695 234.626 499.535 235.517C500.374 236.408 499.255 237.356 499.255 237.356C499.255 237.356 501.06 236.939 500.835 238.432C500.454 240.953 497.922 242.407 497.922 242.407C497.922 242.407 497.11 242.699 496.362 241.788C496.362 241.788 494.71 242.568 494.014 240.67C494.014 240.67 491.94 240.387 492.399 238.772C492.399 238.772 490.131 238.226 491.574 236.329Z" fill="#DB9C7C"/>
<path d="M509.411 373.314C509.411 373.314 502.495 385.037 499.575 386.952C495.611 389.551 498.094 392.179 499.977 392.182C501.859 392.184 511.473 392.872 513.591 390.468C515.709 388.064 516.76 380.86 518.73 378.976C520.7 377.092 522.504 370.139 517.771 367.781C512.58 365.196 509.411 373.314 509.411 373.314Z" fill="#2F4563"/>
<path d="M520.438 375.545L518.609 389.62L517.641 389.663L517.942 379.537L520.438 375.545Z" fill="#2F4563"/>
<path d="M568.697 361.885C568.697 361.885 567.04 375.395 565.128 378.317C562.532 382.283 565.859 383.7 567.586 382.951C569.312 382.201 578.4 378.991 579.382 375.941C580.364 372.891 578.449 365.867 579.502 363.353C580.556 360.839 579.432 353.744 574.151 353.473C568.36 353.176 568.697 361.885 568.697 361.885Z" fill="#2F4563"/>
<path d="M568.649 355.214C568.649 355.214 567.634 371.711 567.193 374.116C566.752 376.52 570.359 374.946 572.21 373.088C574.061 371.231 575.961 359.751 575.842 357.757C575.723 355.763 574.18 353.473 574.18 353.473L568.649 355.214Z" fill="#EEA886"/>
<path d="M579.701 359.526L583.648 373.16L582.777 373.586L579.008 364.183L579.701 359.526Z" fill="#2F4563"/>
<path d="M539.836 259.314C539.492 260.977 537.287 267.94 534.819 275.677V275.678C532.568 282.731 530.097 290.426 528.617 295.337C528.064 297.169 527.648 298.614 527.434 299.493C526.012 305.306 527.611 314.427 528.127 322.048C528.644 329.671 517.579 372.377 517.579 372.377C515.641 373.281 512.001 367.172 512.001 367.172C513.422 364.459 513.222 316.287 512.447 313.316C511.671 310.345 511.155 302.077 511.931 298.846C512.089 298.182 512.167 297.308 512.185 296.254C512.25 292.177 511.41 285.437 510.897 278.046C510.251 268.744 513.869 245.618 514.385 243.551C514.432 243.361 514.507 243.094 514.604 242.765C515.556 239.522 518.62 230.314 518.62 230.314C524.834 228.465 529.514 228.131 533.007 228.843C537.631 229.785 540.175 232.559 541.446 236.083C544.485 244.491 540.283 257.154 539.836 259.314Z" fill="#EEA886"/>
<path d="M574.814 354.615L568.521 356.828C567.454 351.662 541.9 315.507 540.341 311.502C538.782 307.498 537.119 299.746 537.119 296.904C537.119 296.397 537.083 295.54 537.011 294.429C536.735 290.121 535.946 281.996 534.815 275.672C534.605 274.492 534.382 273.376 534.148 272.357C532.897 266.904 532.68 248.269 532.665 237.311C532.658 232.435 532.691 229.078 532.691 229.078C532.691 229.078 532.8 228.991 533.003 228.839C535.359 227.056 550.47 216.186 555.739 226.347C557.131 229.031 558.039 231.913 558.591 234.917C560.281 244.125 558.623 254.496 557.259 263.945C556.092 272.029 553.857 283.453 553.214 291.93C552.86 296.594 552.988 300.367 554.043 302.2C557.015 307.369 559.92 311.743 565.929 329.978C567.884 335.908 574.814 354.615 574.814 354.615Z" fill="#EEA886"/>
<path d="M557.263 263.944C556.097 272.029 553.861 283.452 553.218 291.929C553.218 291.929 546.625 293.245 537.015 294.428C534.413 294.748 531.59 295.059 528.617 295.331C523.466 295.802 517.866 296.158 512.185 296.248C512.25 292.172 511.41 285.432 510.897 278.041C510.251 268.739 513.869 245.613 514.385 243.546C514.432 243.355 514.507 243.088 514.604 242.759C519.252 240.201 525.92 238.474 532.669 237.31C535.634 236.798 538.615 236.395 541.446 236.078C550.294 235.085 557.684 234.931 558.595 234.916C560.285 244.124 558.627 254.495 557.263 263.944Z" fill="#2F4563"/>
<path d="M568.523 356.827C568.523 356.827 571.478 360.647 574.816 354.614C574.816 354.614 571.107 350.649 568.523 356.827Z" fill="#EEA886"/>
<path d="M511.993 367.166C511.993 367.166 504.473 381.884 503.108 383.913C501.743 385.941 505.679 385.938 508.118 384.975C510.557 384.011 516.885 374.247 517.572 372.371C518.259 370.495 518.609 368.301 518.609 368.301L511.993 367.166Z" fill="#EEA886"/>
<path d="M511.995 367.169C511.995 367.169 508 374.682 518.611 368.304C518.611 368.304 516.61 364.941 511.995 367.169Z" fill="#EEA886"/>
<path d="M541.372 116.187C541.372 116.187 529.448 118.07 528.977 135.016C528.506 151.961 532.194 155.569 542.627 152.039C553.061 148.509 556.356 130.779 556.592 128.034C556.827 125.288 557.455 114.148 541.372 116.187Z" fill="#EEA886"/>
<path d="M562.315 175.126C562.361 180.961 555.655 194.908 554.621 199.215C553.587 203.521 551.951 204.899 553.329 210.411C554.707 215.924 560.267 235.45 558.807 236.209C536.995 247.546 517.679 246.81 514.602 242.76C514.602 242.76 521.655 216.436 522.172 213.422C522.688 210.407 521.544 199.105 521.286 195.918C521.027 192.732 517.801 185.873 517.91 182.678C518.021 179.424 519.619 176.614 521.855 173.138C522.547 172.061 523.275 170.963 524.003 169.896C526.372 166.42 528.738 163.264 529.901 162.177C530.765 161.369 531.574 160.75 532.274 160.282C532.279 160.279 532.281 160.279 532.281 160.279C533.742 159.304 534.724 158.99 534.724 158.99L544.974 157.354C544.974 157.354 551.362 159.664 555.036 160.524C555.036 160.524 562.209 161.571 562.315 175.126Z" fill="#4E9BDE"/>
<path d="M532.267 160.28L526.327 169.643L520.844 178.284C520.856 178.238 521.222 176.929 521.841 173.14C521.959 172.421 522.086 171.612 522.221 170.706C522.261 170.438 522.319 170.172 522.393 169.909C522.393 169.909 522.393 169.909 522.393 169.909C524.739 164.499 531.995 160.42 532.261 160.284C532.265 160.281 532.267 160.28 532.267 160.28Z" fill="#6EA2E8"/>
<path d="M549.348 144.407C548.314 146.359 547.223 158.475 547.223 158.475C547.223 158.475 532.638 163.988 534.131 160.87C534.807 159.454 535.007 157.618 535.02 156.035C535.033 154.787 534.931 153.697 534.859 153.092C534.821 152.773 534.791 152.59 534.791 152.59C534.791 152.59 550.382 142.454 549.348 144.407Z" fill="#EEA886"/>
<path d="M536.5 128.35C536.5 128.35 540.767 133.563 546.337 137.486C551.907 141.408 550.935 149.296 550.935 149.296C550.935 149.296 565.468 118.7 551.651 116.582C537.834 114.464 529.361 114.307 528.969 135.018C528.969 135.018 535.245 128.193 536.5 128.35Z" fill="#3A3F47"/>
<path d="M544.821 150.995C542.583 154.298 535.014 156.036 535.014 156.036C535.014 156.036 535.014 156.036 535.013 156.036C535.026 154.788 534.924 153.698 534.852 153.093C539.542 154.14 544.821 150.995 544.821 150.995Z" fill="#A77860"/>
<path d="M522.429 169.845C522.428 169.844 522.429 169.844 522.429 169.845C522.428 169.844 522.111 170.5 521.852 173.14L524 169.898C524 169.898 527.836 164.397 529.151 162.966C530.466 161.536 532.271 160.283 532.271 160.283C532.271 160.283 524.723 163.911 522.429 169.845Z" fill="#DBDFF0"/>
<path d="M552.063 181.078C552.063 181.078 563.038 176.425 565.655 175.702C565.655 175.702 561.132 159.301 551.856 160.32C541.83 161.421 552.063 181.078 552.063 181.078Z" fill="#6EA2E8"/>
<path d="M534.714 158.992C534.714 158.992 527.842 169.559 530.168 170.482C532.495 171.406 545.088 169.25 550.442 159.213C550.442 159.213 542.436 155.108 534.714 158.992Z" fill="#EEA886"/>
<path d="M499.414 227.966C499.414 227.966 504.093 230.277 505.17 232.277C505.17 232.277 513.429 220.462 514.16 219.928L501.654 225.377L499.414 227.966Z" fill="#DBDFF0"/>
<path d="M583.063 239.333C583.063 239.333 587.93 238.134 589.596 238.005L582.21 220.394L579.484 230.318C579.484 230.318 583.034 238.877 583.063 239.333Z" fill="#DBDFF0"/>
<path d="M521.298 196.095C521.283 195.951 521.273 195.868 521.273 195.854C521.276 195.861 521.28 195.883 521.285 195.921C521.291 195.96 521.296 196.017 521.298 196.095Z" fill="#2F4563"/>
<path d="M522.301 210.389V210.39C521.886 210.898 519.322 213.954 518.508 214.925C518.508 214.925 521.378 198.12 521.301 196.097C521.484 197.714 522.583 206.919 522.301 210.389Z" fill="#9EA1AD"/>
<path d="M547.245 158.047C547.245 158.047 539.465 168.474 538.999 187.49C538.533 206.506 545.414 287.372 544.467 299.331C544.467 299.331 561.276 292.976 565.654 289.445C570.032 285.915 558.035 228.3 556.553 223.044C555.071 217.788 551.997 201.077 565.654 175.701C565.654 175.701 562.709 163.014 557.028 160.804C551.347 158.595 547.245 158.047 547.245 158.047Z" fill="#DBDFF0"/>
<path d="M587.024 235.35C584.792 227.923 579.956 213.772 579.027 210.817C576.603 203.102 575.305 201.291 571.841 190.919C570.492 186.877 567.714 180.375 565.656 175.705C565.656 175.704 565.656 175.704 565.656 175.703C564.085 169.702 560.95 165.059 558.781 162.577C556.612 160.096 550.446 159.213 550.446 159.213C550.446 159.213 551.297 160.352 552.564 162.007C552.131 162.056 551.743 162.011 551.28 162.128C543.062 164.208 552.467 177.814 553.123 179.621C553.779 181.427 565.502 201.539 566.35 203.376C569.279 209.724 571.008 211.174 573.234 217.144C576.24 225.21 581.138 233.163 583.554 237.609C584.569 239.477 587.879 238.199 587.024 235.35Z" fill="#DBDFF0"/>
<path d="M534.721 158.991C534.721 158.991 527.513 166.802 526.567 182.52C525.62 198.237 524.831 216.872 522.342 233.025C519.854 249.178 515.877 301.633 515.877 301.633C515.877 301.633 510.385 297.467 509.249 294.816C508.113 292.165 512.137 243.419 516.823 229.864C521.511 216.308 522.68 214.375 521.296 202.53C519.912 190.685 517.157 185.791 517.89 181.337C518.623 176.883 525.728 162.101 534.721 158.991Z" fill="#DBDFF0"/>
<path d="M684.82 163.95H716.322V161.742H684.82V163.95Z" fill="url(#paint14_linear_1163_6312)"/>
<path d="M684.82 175.187H716.322V165.903H684.82V175.187Z" fill="url(#paint15_linear_1163_6312)"/>
<path d="M670.023 179.697H688.608V178.31H670.023V179.697Z" fill="url(#paint16_linear_1163_6312)"/>
<path d="M670.023 184.06H688.608V180.303H670.023V184.06Z" fill="url(#paint17_linear_1163_6312)"/>
<path d="M721.492 149.84H722.88V175.852H721.492V149.84Z" fill="url(#paint18_linear_1163_6312)"/>
<path d="M120.395 250.885H74.5234V253.608H120.395V250.885Z" fill="#E2D2CA"/>
<path d="M80.6602 384.533H84.6797L84.6797 260.696H80.6602L80.6602 384.533Z" fill="#706865"/>
<path d="M145.096 250.109H113.211V253.998H145.096V250.109Z" fill="#CCBDB7"/>
<path d="M135.184 216.933H123.109V253.606H135.184V216.933Z" fill="#998E89"/>
<path d="M234.743 253.651H58.0781V260.692H234.743V253.651Z" fill="#B59074"/>
<path d="M24.1613 211.033C24.1613 211.033 22.2289 238.13 27.5235 241.373C30.8402 243.404 44.0641 250.256 43.6718 251.541C43.2797 252.826 36.2048 262.974 36.2048 262.974C36.2048 262.974 10.8041 246.247 9.98507 240.976C9.18487 235.825 11.2356 201.301 14.7264 199.711C17.3413 198.519 18.722 199.505 22.0174 201.952C26.6423 205.385 24.1613 211.033 24.1613 211.033Z" fill="#DBDFF0"/>
<path d="M55.3788 367.625C55.3788 367.625 54.5893 373.107 54.4903 373.931C54.3917 374.754 45.7034 373.446 45.7034 373.446L45 366.918C45 366.918 54.2928 366.851 55.3788 367.625Z" fill="#424773"/>
<path d="M54.6128 373.234C54.6128 373.234 57.3654 376.537 60.0279 377.978C62.6903 379.417 66.8743 379.988 68.4486 381.478C69.585 382.554 72.5879 387.187 61.5302 387.093C50.4726 386.999 45.141 387.747 43.9563 385.971C42.7717 384.195 45.6705 372.862 45.6705 372.862C45.6705 372.862 48.2893 373.805 54.6128 373.234Z" fill="#292C47"/>
<path d="M111.059 367.671C111.059 367.671 110.269 373.153 110.17 373.977C110.071 374.801 101.383 373.492 101.383 373.492L100.68 366.964C100.68 366.964 109.972 366.897 111.059 367.671Z" fill="#424773"/>
<path d="M110.246 373.284C110.246 373.284 112.998 376.588 115.661 378.028C118.323 379.468 128.121 380.651 129.695 382.141C130.831 383.217 132.721 387.549 117.163 387.144C106.109 386.856 100.774 387.798 99.5891 386.022C98.4045 384.246 101.303 372.913 101.303 372.913C101.303 372.913 103.771 373.919 110.246 373.284Z" fill="#292C47"/>
<path d="M27.3614 272.916C27.3614 272.916 58.9479 278.261 66.0823 279.381C73.2167 280.501 111.899 290.127 116.737 293.06C120.587 295.395 114.717 351.467 113.346 372.86H98.1095L97.0046 308.688C78.7212 309.145 65.6742 304.411 52.3603 306.433C39.0462 308.455 27.9464 311.329 19.486 299.981C19.486 299.981 19.1722 275.395 27.3614 272.916Z" fill="#292C47"/>
<path d="M58.5267 372.907L43.6784 371.989L42.2315 308.683C34.3604 308.879 31.6624 308.38 25.293 307.608L13.3047 279.742C23.811 281.843 57.4731 290.333 61.9617 293.055C65.8125 295.391 59.8977 351.513 58.5267 372.907Z" fill="#292C47"/>
<path d="M41.914 154.516C41.914 154.516 53.493 151.316 57.9109 160.305C62.3285 169.294 60.3257 186.334 54.4901 187.938C48.6545 189.541 40.2623 187.695 37.8399 182.1C35.4171 176.506 33.4848 168.556 34.0647 163.408C34.6443 158.26 38.8391 155.746 41.914 154.516Z" fill="#EEA886"/>
<path d="M51.4578 186.149C51.4578 186.149 51.3306 192.984 52.0844 194.442C52.8381 195.899 35.9609 195.533 35.9609 195.533C35.9609 195.533 38.621 187.325 37.1119 180.331C35.6183 173.409 51.4578 186.149 51.4578 186.149Z" fill="#EEA886"/>
<path d="M36.2083 177.737C36.2083 177.737 37.1108 179.572 41.4792 179.275C45.848 178.979 51.6095 173.709 53.4639 173.238C55.3186 172.767 55.429 171.712 55.429 171.712L56.4104 173.456L58.3109 173.746C58.3109 173.746 57.0194 168.464 59.833 166.604C62.6468 164.744 58.5658 149.765 44.3213 153.377C44.3213 153.377 33.4497 155.369 33.3037 161.439C33.158 167.51 34.0981 174.522 36.2083 177.737Z" fill="#3A3F47"/>
<path d="M53.0085 194.261C53.0085 194.261 52.9612 191.477 51.6992 191.21C50.4371 190.943 38.4324 189.291 36.8836 189.9L36.2188 193.577C36.2188 193.577 39.2035 195.414 53.0085 194.261Z" fill="#E2D2CA"/>
<path d="M56.4379 170.471C56.1141 168.189 53.519 165.567 52.033 169.122C50.547 172.677 53.0362 177.853 54.7033 177.576C56.3705 177.298 56.8776 173.568 56.4379 170.471Z" fill="#EEA886"/>
<path d="M103.247 227.164C103.241 227.161 103.235 227.16 103.227 227.162C103.313 227.2 103.325 227.203 103.247 227.164Z" fill="#323657"/>
<path d="M38.5736 156.148C38.5736 156.148 24.456 155.483 36.1096 177.523L38.5736 156.148Z" fill="#3A3F47"/>
<path d="M7.08594 380.421L8.13617 383.375L52.5112 369.626L50.3847 363.644L7.08594 380.421Z" fill="#918783"/>
<path d="M54.028 319.277H48.9844V367.522H54.028V319.277Z" fill="#918783"/>
<path d="M66.3889 316.711H36.6406V319.554H66.3889V316.711Z" fill="#5E5854"/>
<path d="M96.3238 380.419L95.2735 383.373L50.8984 369.624L52.8487 363.266L96.3238 380.419Z" fill="#918783"/>
<path d="M65.0586 383.057V386.494L50.8984 369.624L52.8487 363.266L65.0586 383.057Z" fill="#918783"/>
<path d="M100.458 384.531C100.458 386.821 98.6014 388.678 96.311 388.678C94.0206 388.678 92.1641 386.821 92.1641 384.531C92.1641 382.24 94.0206 380.384 96.311 380.384C98.6014 380.384 100.458 382.24 100.458 384.531Z" fill="#BFB2AC"/>
<path d="M65.4192 384.531C65.4192 386.821 63.5627 388.678 61.2719 388.678C58.9818 388.678 57.125 386.821 57.125 384.531C57.125 382.24 58.9818 380.384 61.2719 380.384C63.5627 380.384 65.4192 382.24 65.4192 384.531Z" fill="#BFB2AC"/>
<path d="M11.2395 384.531C11.2395 386.821 9.38298 388.678 7.09255 388.678C4.80212 388.678 2.94531 386.821 2.94531 384.531C2.94531 382.24 4.80212 380.384 7.09255 380.384C9.38298 380.384 11.2395 382.24 11.2395 384.531Z" fill="#BFB2AC"/>
<path d="M82.5763 316.712H20.8206C18.4127 316.712 16.4609 314.761 16.4609 312.353V310.304C16.4609 307.896 18.413 305.944 20.8206 305.944H82.5763C84.9845 305.944 86.9359 307.897 86.9359 310.304V312.353C86.9359 314.761 84.9845 316.712 82.5763 316.712Z" fill="#E2D2CA"/>
<path d="M212.105 260.693H208.086V384.531H212.105V260.693Z" fill="#706865"/>
<path d="M176.92 234.599H81.3568C78.955 234.599 77.0078 232.652 77.0078 230.25V165.397C77.0078 162.995 78.955 161.048 81.3568 161.048H176.92C179.322 161.048 181.269 162.995 181.269 165.397V230.25C181.269 232.652 179.322 234.599 176.92 234.599Z" fill="#B8ABA5"/>
<path d="M177.204 165.023H81.1094V223.073H177.204V165.023Z" fill="#F5F7FF"/>
<path d="M172.926 228.548C172.926 230.198 171.192 231.537 169.053 231.537C166.914 231.537 165.18 230.198 165.18 228.548C165.18 226.897 166.914 225.56 169.053 225.56C171.192 225.56 172.926 226.898 172.926 228.548Z" fill="#918681"/>
<path d="M150.733 253.747V252.438C150.733 252.438 148.893 244.297 135.877 244.297C122.862 244.297 123.125 253.747 123.125 253.747L150.733 253.747Z" fill="#998E89"/>
<path d="M122.947 245.504C122.947 245.504 125.774 245.284 126.81 244.659C127.846 244.034 134.043 239.866 135.5 240.533C136.956 241.2 146.644 244.168 146.307 245.585C145.971 247.002 145.074 246.865 144.391 246.614C143.708 246.364 136.672 244.888 136.052 245.136C136.052 245.136 142.961 247.657 142.989 249.496C143.017 251.335 141.543 251.784 140.888 252.479C140.232 253.175 139.446 254.902 137.665 255.035C135.884 255.167 127.195 252.144 125.407 252.006C123.617 251.868 120.307 252.117 120.082 251.825C119.857 251.534 122.947 245.504 122.947 245.504Z" fill="#EEA886"/>
<path d="M71.4468 198.122C62.4317 196.537 52.9419 194.262 52.9419 194.262L36.1518 193.578C36.1518 193.578 20.7424 196.97 14.6738 199.711C14.0978 199.971 14.0954 213.459 12.5156 216.995L17.5471 227.61C17.5471 227.61 20.4538 248.637 21.0565 257.988C21.3335 262.281 20.2739 299.478 20.2739 299.478C20.2739 299.478 21.782 300.222 33.2411 301.485C44.7003 302.748 73.3319 301.028 73.5121 299.675C73.6933 298.321 67.9672 249.278 67.7141 246.738C67.3251 242.84 68.8399 224.828 68.8399 224.828C70.9989 227.729 76.5032 240.826 82.2402 247.057C85.6154 250.723 102.325 252.97 105.475 253.075C112.332 253.303 124.84 254.669 125.205 254.002C125.497 253.602 126.295 242.899 125.511 242.638C124.825 242.409 101.598 241.072 95.6481 237.915C93.4711 236.76 86.9634 222.57 86.9634 222.57C86.9634 222.57 76.42 200.357 71.4468 198.122Z" fill="#DBDFF0"/>
<path d="M40.2303 298.402H8.37123C3.7482 298.402 0 294.654 0 290.031V239.461C0 234.838 3.7482 231.09 8.37123 231.09H40.23C44.853 231.09 48.6009 234.838 48.6009 239.461V290.031C48.6009 294.654 44.8533 298.402 40.2303 298.402Z" fill="#E2D2CA"/>
<path d="M39.9844 314.032C32.8206 314.032 27.0084 311.626 22.7094 306.879C12.9939 296.153 14.7397 277.298 14.8189 276.5C14.9663 275.014 16.2927 273.927 17.7763 274.076C19.2616 274.223 20.3471 275.547 20.2005 277.032C20.1799 277.247 18.6317 294.338 26.7283 303.261C30.0031 306.87 34.3394 308.624 39.9841 308.624C41.4774 308.624 42.6882 309.835 42.6882 311.329C42.6888 312.821 41.4777 314.032 39.9844 314.032Z" fill="#E2D2CA"/>
<path d="M115.447 172.715H88.5451C88.201 172.715 87.9219 172.436 87.9219 172.092V170.272C87.9219 169.927 88.201 169.648 88.5451 169.648H115.447C115.791 169.648 116.07 169.927 116.07 170.272V172.092C116.07 172.436 115.791 172.715 115.447 172.715Z" fill="#DFE1E8"/>
<path d="M115.447 179.292H88.5451C88.201 179.292 87.9219 179.013 87.9219 178.668V176.848C87.9219 176.504 88.201 176.225 88.5451 176.225H115.447C115.791 176.225 116.07 176.504 116.07 176.848V178.668C116.07 179.013 115.791 179.292 115.447 179.292Z" fill="#DFE1E8"/>
<path d="M113.974 218.45H90.0181C88.8604 218.45 87.9219 217.511 87.9219 216.353V185.867C87.9219 184.709 88.8604 183.771 90.0181 183.771H113.974C115.131 183.771 116.07 184.709 116.07 185.867V216.353C116.07 217.512 115.132 218.45 113.974 218.45Z" fill="#DFE1E8"/>
<path d="M168.543 218.451H125.053C123.221 218.451 121.734 216.965 121.734 215.132V172.967C121.734 171.134 123.221 169.648 125.053 169.648H168.543C170.376 169.648 171.862 171.134 171.862 172.967V215.132C171.862 216.965 170.376 218.451 168.543 218.451Z" fill="#DFE1E8"/>
<path d="M377.707 193.038C377.707 193.038 375.717 188.734 375.392 188.087C375.068 187.439 373.166 186.41 370.906 185.84C368.711 185.288 365.724 184.179 365.383 184.392C365.042 184.605 364.643 184.635 364.237 185.583C363.831 186.531 364.009 187.556 364.009 187.556C364.009 187.556 362.958 188.49 363.273 189.736C363.273 189.736 362.326 190.659 362.914 192.017C362.914 192.017 362.013 192.944 362.524 193.893C362.524 193.893 364.287 194.894 364.832 195.452C365.378 196.011 369.187 197.841 373.11 199.033C373.11 199.033 377.197 198.905 377.707 193.038Z" fill="#8E4F3A"/>
<path d="M373.094 199.033C373.094 199.033 377.96 199.883 379.61 198.933C381.26 197.982 379.339 193.025 379.339 193.025L376.258 191.163L373.094 199.033Z" fill="#8E4F3A"/>
<path d="M371.274 190.951C371.274 190.951 371.348 193.332 371.708 193.99C372.067 194.648 367.219 195.673 367.219 195.673C367.219 195.673 368.382 191.119 371.274 190.951Z" fill="#5E3527"/>
<path d="M365.964 184.598C365.964 184.598 371.279 187.18 370.969 188.087C370.659 188.995 369.995 189.14 369.995 189.14L371.7 191.195C371.7 191.195 372.062 193.194 369.779 193.003C369.779 193.003 370.31 194.834 368.128 194.388C368.128 194.388 367.94 195.752 366.893 195.724C365.846 195.695 362.495 193.893 362.495 193.893C362.495 193.893 361.845 193.178 362.772 192C362.772 192 362.156 190.687 363.156 189.673C363.156 189.673 362.851 188.058 363.941 186.973C363.941 186.973 363.83 185.143 365.398 184.366C365.398 184.366 365.741 184.488 365.964 184.598Z" fill="#7A4432"/>
<path d="M375.226 187.987C375.226 187.987 371.172 188.073 368.979 189.093C368.483 189.324 368.044 189.637 368.071 190.185C368.099 190.733 368.926 191.388 370.684 191.441C372.442 191.493 374.69 192.365 374.69 192.365C374.69 192.365 376.514 191.889 375.226 187.987Z" fill="#8E4F3A"/>
<path d="M363.957 186.973C363.957 186.973 370.025 189.049 370.438 189.55C370.851 190.052 371.63 187.837 371.247 187.433C370.864 187.029 366.142 184.51 365.621 184.371C365.101 184.232 363.318 185.45 363.957 186.973Z" fill="#8E4F3A"/>
<path d="M366.749 184.625C366.749 184.625 357.301 182.689 357.108 183.84C356.916 184.991 357.83 185.185 365.573 187.444C373.102 189.641 366.749 184.625 366.749 184.625Z" fill="#8E4F3A"/>
<path d="M431.69 378.413C431.69 378.413 428.679 382.918 424.455 383.891C420.231 384.864 416.071 386.413 416.039 389.078C416.008 391.744 428.251 393.333 433.085 390.646C440.299 386.636 441.032 387.845 441.832 385.84C442.631 383.835 440.871 378.474 440.923 377.837C440.987 377.049 431.69 378.413 431.69 378.413Z" fill="#353A3D"/>
<path d="M432.148 376.19C432.148 376.19 431.599 378.366 431.68 378.412C431.762 378.458 441.198 379.582 440.913 377.836C440.682 376.42 440.351 374.881 440.351 374.881L432.148 376.19Z" fill="#81807E"/>
<path d="M463.425 378.114C463.425 378.114 461.278 382.423 457.608 383.891C453.685 385.46 450.539 387.263 450.611 389.861C450.682 392.458 460.2 395.09 467.125 390.106C471.5 386.956 472.886 386.941 473.588 384.958C474.29 382.975 472.369 377.821 472.395 377.198C472.428 376.429 463.425 378.114 463.425 378.114Z" fill="#353A3D"/>
<path d="M463.328 375.876C463.328 375.876 463.354 378.072 463.435 378.114C463.517 378.156 472.637 378.907 472.405 377.198C472.221 375.841 471.521 374.201 471.521 374.201L463.328 375.876Z" fill="#81807E"/>
<path d="M429.893 244.233C429.893 244.233 421.42 281.608 419.485 292.994C417.837 302.683 416.524 312.773 417.314 319.768C418.291 328.428 430.55 373.312 430.038 375.851C429.526 378.39 444.654 376.846 444.654 376.846C444.654 376.846 433.543 326.191 435.405 316.873C436.784 309.972 448.871 264.126 450.723 266.478C452.575 268.829 454.872 309.745 456.244 316.537C457.616 323.329 461.827 376.997 461.827 376.997C461.827 376.997 471.243 378.386 473.758 376.257C473.758 376.257 474.902 330.432 474.029 317.698C473.695 312.845 479.714 259.511 471.996 238.04C467.918 226.693 429.893 244.233 429.893 244.233Z" fill="#2D3133"/>
<path d="M374.539 200.876C374.539 200.876 403.893 207.384 409.734 205.947C412.434 205.283 415.991 201.555 419.371 197.173C420.485 195.73 421.577 194.215 422.617 192.716C422.62 192.713 422.62 192.71 422.62 192.71C426.767 186.723 430.016 180.984 430.016 180.984C430.016 180.984 442.273 166.621 432.438 160.218C432.438 160.218 428.868 158.88 425.591 162.393C422.31 165.906 418.462 173.256 417.602 175.131C416.743 177.002 404.704 194.367 404.08 194.758C403.456 195.149 398.195 193.765 393.977 193.414C387.1 192.84 376.794 190.162 376.794 190.162L374.539 200.876Z" fill="#DBDFF0"/>
<path d="M441.648 157.013C441.648 157.013 429.031 159.622 427.534 160.948C425.909 162.359 423.042 176.178 422.871 180.027C422.7 183.877 424.393 199.957 426.018 205.945C427.643 211.932 427.344 241.425 426.318 249.723C426.318 249.723 451.722 256.938 476.7 253.688C476.7 253.688 472.512 222.659 473.512 214.454C474.793 203.943 477.875 179.724 477.875 179.724C477.875 179.724 475.664 162.854 473.44 160.972C471.216 159.09 455.891 157.013 455.891 157.013H441.648Z" fill="#BCC0CF"/>
<path d="M446.857 117.999C446.857 117.999 431.68 112.383 432.629 132.552C433.578 152.721 437.134 154.771 447.118 151.954C457.102 149.137 457.938 136.408 459.239 130.284C460.539 124.161 451.82 118.879 446.857 117.999Z" fill="#8E4F3A"/>
<path d="M439.666 159.743C439.666 159.743 442.789 161.809 454.632 156.592C454.632 156.592 454.297 148.473 456.621 140.889C458.944 133.306 440.728 151 440.728 151C440.92 151.135 440.956 151.893 440.847 152.95C440.755 153.847 440.558 154.957 440.263 156.084C439.597 158.62 439.666 157.531 439.666 159.743Z" fill="#8E4F3A"/>
<path d="M457.134 140.288C457.134 140.288 457.178 134.9 454.937 134.405C452.696 133.909 452.401 132.117 452.401 132.117L451.116 132.415C451.116 132.415 451.351 131.466 449.215 130.215C447.079 128.963 434.301 130.063 432.697 128.224C431.093 126.386 433.419 115.469 436.905 114.397C440.391 113.326 448.49 113.424 455.889 115.502C455.889 115.502 461.507 116.919 461.932 123.531C462.207 127.812 458.958 137.367 457.134 140.288Z" fill="#2D3133"/>
<path d="M440.258 156.087C452.022 154.109 453.78 147.419 453.806 147.314C449.233 153.212 440.842 152.953 440.842 152.953C440.75 153.849 440.554 154.959 440.258 156.087Z" fill="#633029"/>
<path d="M440.789 162.393C440.789 162.393 438.646 165.553 437.354 173.665C436.06 181.777 436.28 195.752 436.28 195.752L439.259 196.115C439.259 196.115 443.767 167.613 442.992 162.647L440.789 162.393Z" fill="#434343"/>
<path d="M452.411 132.117C453.081 130.34 456.867 130.564 456.479 133.381C456.091 136.199 452.962 140.539 451.706 139.725C450.45 138.911 451.486 134.568 452.411 132.117Z" fill="#8E4F3A"/>
<path d="M427.383 160.933C427.383 160.933 420.215 170.418 422.871 195.234C427.67 240.077 415.102 312.062 415.102 312.062L428.068 316.12C428.068 316.12 440.458 224.097 437.303 190.701C435.865 175.481 431.597 170.417 438.33 157.738C438.33 157.738 431.774 158.07 427.383 160.933Z" fill="#DBDFF0"/>
<path d="M459.378 157.531C459.378 157.531 438.856 178.261 437.249 193.977C435.642 209.692 433.023 316.122 433.023 316.122L481.882 313.276C481.882 313.276 477.391 257.094 476.295 250.066C475.199 243.038 472.932 202.684 477.877 183.959C480.534 173.9 477.373 161.137 471.303 159.744C465.234 158.351 459.378 157.531 459.378 157.531Z" fill="#DBDFF0"/>
<path d="M466.322 160.217C466.322 160.217 458.418 162.393 462.767 176.9C466.173 188.262 466.633 190.702 466.633 190.702L484.871 186.147C484.871 186.147 479.523 161.188 470.796 159.846C470.797 159.846 468.018 159.451 466.322 160.217Z" fill="#DBDFF0"/>
<path d="M406.531 236.996L442.28 273.99L466.024 251.046L431.203 213.154L406.531 236.996Z" fill="#616161"/>
<path d="M409.906 237.731L441.655 270.587L462.744 250.209L431.818 216.558L409.906 237.731Z" fill="#E0CEC7"/>
<path d="M417.228 232.241L415 229.935L423.525 221.696L426.087 223.681L417.228 232.241Z" fill="#616161"/>
<path d="M454.629 154.349C454.629 154.349 448.439 158.083 442.312 158.924L445.571 164.122L455.895 157.014L454.629 154.349Z" fill="#A7AAB8"/>
<path d="M440.269 156.085C440.269 156.085 440.922 158.225 442.318 158.923L439.258 163.191L439.37 157.531L440.269 156.085Z" fill="#A7AAB8"/>
<path d="M442.314 158.924L439.891 162.303C439.891 162.303 441.424 164.243 444.727 162.773L442.314 158.924Z" fill="#434343"/>
<path d="M419.379 197.17V197.173C420.493 195.73 421.585 194.216 422.625 192.716C422.628 192.713 422.628 192.71 422.628 192.71C422.628 192.71 422.237 181.776 422.579 178.635C422.579 178.635 419.006 190.413 419.379 197.17Z" fill="#A7AAB8"/>
<path d="M469.758 189.923C469.758 189.923 472.141 205.429 471.974 206.423C471.807 207.418 482.761 203.309 469.758 189.923Z" fill="#A7AAB8"/>
<path d="M426.701 193.167H432.461V184.373H426.701V193.167Z" fill="#C6CAD9"/>
<path d="M452.308 226.531C452.308 226.531 451.78 227.574 450.904 227.926C449.392 228.534 446.972 227.57 446.036 229.735C445.099 231.9 451.134 236.985 452.647 237.249C454.16 237.514 456.303 235.038 457.7 230.263C459.098 225.488 452.308 226.531 452.308 226.531Z" fill="#8E4F3A"/>
<path d="M446.457 229.057C446.457 229.057 443.859 231.379 441.29 234.332C439.037 236.923 436.868 240.403 437.256 241.06C438.119 242.52 440.214 239.259 442.623 236.848C444.842 234.628 444.475 235.017 444.475 235.017C444.475 235.017 444.478 234.78 442.542 237.691C440.459 240.82 438.645 244.252 439.138 245.015C439.378 245.386 440.347 246.293 440.812 244.797C440.396 245.497 440.322 245.325 440.601 245.537C442.04 246.635 445.825 242.542 447.327 240.916C446.181 242.173 445.477 243.223 446.775 243.33C448.261 243.452 453.345 237.411 455.378 235.431C457.594 233.271 446.457 229.057 446.457 229.057Z" fill="#8E4F3A"/>
<path d="M465.371 161.188C463.716 161.829 463.09 164.766 463.77 173.277C464.45 181.788 467.446 185.703 468.564 187.672C469.682 189.64 475.83 201.776 474.725 203.373C473.62 204.969 463.182 215.267 462.578 216.105C461.974 216.944 450.32 227.493 450.32 227.493L456.254 235.783C456.254 235.783 481.418 216.127 483.381 214.165C485.344 212.203 491.212 208.08 489.042 201.225C486.836 194.257 482.871 177.945 482.167 176.67C481.463 175.396 476.31 156.953 465.371 161.188Z" fill="#DBDFF0"/>
<path d="M457.63 48.9962H476.125L470.464 37.2549H451.969L457.63 48.9962Z" fill="url(#paint19_linear_1163_6312)"/>
<path d="M448.966 48.9962H453.373L447.712 37.2549H443.305L448.966 48.9962Z" fill="url(#paint20_linear_1163_6312)"/>
<defs>
<linearGradient id="paint0_linear_1163_6312" x1="13.1482" y1="117.281" x2="366.652" y2="117.281" gradientUnits="userSpaceOnUse">
<stop stop-color="#D5E4FF"/>
<stop offset="1" stop-color="#EDFFFE"/>
</linearGradient>
<linearGradient id="paint1_linear_1163_6312" x1="78.5404" y1="77.9855" x2="78.5404" y2="171.183" gradientUnits="userSpaceOnUse">
<stop stop-color="#D3DAE0"/>
<stop offset="1" stop-color="white"/>
</linearGradient>
<linearGradient id="paint2_linear_1163_6312" x1="60.1017" y1="111.669" x2="70.9648" y2="111.669" gradientUnits="userSpaceOnUse">
<stop stop-color="#D3DAE0"/>
<stop offset="1" stop-color="white"/>
</linearGradient>
<linearGradient id="paint3_linear_1163_6312" x1="73.094" y1="111.669" x2="83.9574" y2="111.669" gradientUnits="userSpaceOnUse">
<stop stop-color="#D3DAE0"/>
<stop offset="1" stop-color="white"/>
</linearGradient>
<linearGradient id="paint4_linear_1163_6312" x1="86.0937" y1="111.669" x2="96.9571" y2="111.669" gradientUnits="userSpaceOnUse">
<stop stop-color="#D3DAE0"/>
<stop offset="1" stop-color="white"/>
</linearGradient>
<linearGradient id="paint5_linear_1163_6312" x1="507.135" y1="46.4525" x2="657.675" y2="340.842" gradientUnits="userSpaceOnUse">
<stop stop-color="#DBA16B"/>
<stop offset="1" stop-color="#5577FF"/>
</linearGradient>
<linearGradient id="paint6_linear_1163_6312" x1="423.36" y1="95.9625" x2="566.177" y2="375.249" gradientUnits="userSpaceOnUse">
<stop stop-color="#40D5E6"/>
<stop offset="1" stop-color="#5577FF"/>
</linearGradient>
<linearGradient id="paint7_linear_1163_6312" x1="201.258" y1="262.326" x2="275.452" y2="262.326" gradientUnits="userSpaceOnUse">
<stop stop-color="#F58C37"/>
<stop offset="1" stop-color="#DBA16B"/>
</linearGradient>
<linearGradient id="paint8_linear_1163_6312" x1="255.695" y1="303.728" x2="322.79" y2="303.728" gradientUnits="userSpaceOnUse">
<stop stop-color="#40D5E6"/>
<stop offset="1" stop-color="#5577FF"/>
</linearGradient>
<linearGradient id="paint9_linear_1163_6312" x1="261.422" y1="313.483" x2="311.781" y2="313.483" gradientUnits="userSpaceOnUse">
<stop stop-color="#40D5E6"/>
<stop offset="1" stop-color="#5577FF"/>
</linearGradient>
<linearGradient id="paint10_linear_1163_6312" x1="243.234" y1="272.959" x2="301.882" y2="272.959" gradientUnits="userSpaceOnUse">
<stop stop-color="#F58C37"/>
<stop offset="1" stop-color="#DBA16B"/>
</linearGradient>
<linearGradient id="paint11_linear_1163_6312" x1="229.781" y1="357.081" x2="283.9" y2="357.081" gradientUnits="userSpaceOnUse">
<stop stop-color="#FF9340"/>
<stop offset="1" stop-color="#FFCE45"/>
</linearGradient>
<linearGradient id="paint12_linear_1163_6312" x1="229.781" y1="357.081" x2="283.9" y2="357.081" gradientUnits="userSpaceOnUse">
<stop stop-color="#C97332"/>
<stop offset="1" stop-color="#FFCE45"/>
</linearGradient>
<linearGradient id="paint13_linear_1163_6312" x1="565.02" y1="-30.0545" x2="535.774" y2="96.0814" gradientUnits="userSpaceOnUse">
<stop stop-color="#40D5E6"/>
<stop offset="1" stop-color="#5577FF"/>
</linearGradient>
<linearGradient id="paint14_linear_1163_6312" x1="714.509" y1="128.372" x2="685.857" y2="199.239" gradientUnits="userSpaceOnUse">
<stop stop-color="#40D5E6"/>
<stop offset="1" stop-color="#5577FF"/>
</linearGradient>
<linearGradient id="paint15_linear_1163_6312" x1="717.185" y1="129.453" x2="688.533" y2="200.32" gradientUnits="userSpaceOnUse">
<stop stop-color="#40D5E6"/>
<stop offset="1" stop-color="#5577FF"/>
</linearGradient>
<linearGradient id="paint16_linear_1163_6312" x1="701.855" y1="123.255" x2="673.203" y2="194.122" gradientUnits="userSpaceOnUse">
<stop stop-color="#40D5E6"/>
<stop offset="1" stop-color="#5577FF"/>
</linearGradient>
<linearGradient id="paint17_linear_1163_6312" x1="702.959" y1="123.701" x2="674.307" y2="194.568" gradientUnits="userSpaceOnUse">
<stop stop-color="#40D5E6"/>
<stop offset="1" stop-color="#5577FF"/>
</linearGradient>
<linearGradient id="paint18_linear_1163_6312" x1="733.087" y1="135.884" x2="704.435" y2="206.751" gradientUnits="userSpaceOnUse">
<stop stop-color="#40D5E6"/>
<stop offset="1" stop-color="#5577FF"/>
</linearGradient>
<linearGradient id="paint19_linear_1163_6312" x1="462.858" y1="-14.3201" x2="464.893" y2="84.0105" gradientUnits="userSpaceOnUse">
<stop stop-color="#40D5E6"/>
<stop offset="1" stop-color="#5577FF"/>
</linearGradient>
<linearGradient id="paint20_linear_1163_6312" x1="447.157" y1="-13.9955" x2="449.191" y2="84.335" gradientUnits="userSpaceOnUse">
<stop stop-color="#40D5E6"/>
<stop offset="1" stop-color="#5577FF"/>
</linearGradient>
</defs>
</svg>
