<svg width="2894" height="1628" viewBox="0 0 2894 1628" fill="none" xmlns="http://www.w3.org/2000/svg">
<path d="M2366.83 1521.22C2492.46 1523.41 2613.58 1427.22 2647.72 1306.28C2681.87 1185.34 2625.52 1044.81 2517.28 980.964C2462.23 948.494 2393.53 931.972 2357.18 879.402C2318.12 822.918 2331.55 746.239 2352.48 680.833C2373.42 615.427 2400.65 546.885 2384.21 480.206C2357.24 370.772 2225.25 321.371 2112.75 328.129C2000.25 334.887 1891.92 379.121 1779.22 380.312C1657.51 381.6 1541.6 332.861 1428.91 286.864C1316.21 240.868 1197.83 196.008 1076.48 205.577C955.143 215.146 830.567 295.659 810.971 415.802C802.358 468.622 813.938 525.446 792.124 574.315C770.907 621.849 721.261 651.735 670.377 662.708C619.493 673.681 566.703 668.634 514.868 663.891C432.729 656.381 338.424 654.062 281.423 713.679C221.655 776.187 232.16 876.092 251.543 960.379C296.99 1158.01 369.51 1349.39 466.437 1527.52L2366.83 1521.22Z" fill="#E3EDFE"/>
<path d="M1447 1527.52C2017.23 1527.52 2479.49 1523 2479.49 1517.43C2479.49 1511.86 2017.23 1507.34 1447 1507.34C876.77 1507.34 414.508 1511.86 414.508 1517.43C414.508 1523 876.77 1527.52 1447 1527.52Z" fill="#C9DBFA"/>
<path d="M1518.65 1054.93L1601.64 1018.59L1742.09 1511.07L1659.11 1514.35L1518.65 1054.93Z" fill="#343FB6"/>
<path d="M1518.65 1054.93L1435.67 1018.59L1295.21 1511.07L1378.2 1514.35L1518.65 1054.93Z" fill="#343FB6"/>
<path d="M1542.01 1374.12C1830.42 1374.12 2064.22 1095.55 2064.22 751.912C2064.22 408.276 1830.42 129.705 1542.01 129.705C1253.6 129.705 1019.79 408.276 1019.79 751.912C1019.79 1095.55 1253.6 1374.12 1542.01 1374.12Z" fill="#8DAEF3"/>
<path d="M1593.13 1374.12C1881.54 1374.12 2115.35 1095.55 2115.35 751.912C2115.35 408.276 1881.54 129.705 1593.13 129.705C1304.72 129.705 1070.92 408.276 1070.92 751.912C1070.92 1095.55 1304.72 1374.12 1593.13 1374.12Z" fill="#C9DBFA"/>
<path d="M1593.13 1229.57C1814.54 1229.57 1994.03 1015.72 1994.03 751.912C1994.03 488.106 1814.54 274.249 1593.13 274.249C1371.72 274.249 1192.23 488.106 1192.23 751.912C1192.23 1015.72 1371.72 1229.57 1593.13 1229.57Z" fill="url(#paint0_linear_32_142)"/>
<path d="M1593.13 1069.88C1740.52 1069.88 1860 927.52 1860 751.912C1860 576.304 1740.52 433.945 1593.13 433.945C1445.75 433.945 1326.27 576.304 1326.27 751.912C1326.27 927.52 1445.75 1069.88 1593.13 1069.88Z" fill="#F7BA3C"/>
<path d="M1593.13 909.176C1666.03 909.176 1725.12 838.767 1725.12 751.912C1725.12 665.057 1666.03 594.647 1593.13 594.647C1520.24 594.647 1461.14 665.057 1461.14 751.912C1461.14 838.767 1520.24 909.176 1593.13 909.176Z" fill="white"/>
<path d="M1593.13 832.161C1630.33 832.161 1660.49 796.232 1660.49 751.912C1660.49 707.591 1630.33 671.662 1593.13 671.662C1555.93 671.662 1525.78 707.591 1525.78 751.912C1525.78 796.232 1555.93 832.161 1593.13 832.161Z" fill="#F7BA3C"/>
<path d="M1708.32 699.714L2145.4 501.142" stroke="#8DAEF3" stroke-width="9.213" stroke-miterlimit="10"/>
<path d="M1588.35 754.224L1788.79 746.503L1717.29 695.641L1726.04 608.344L1588.35 754.224Z" fill="#8DAEF3"/>
<path d="M2126.3 501.218L2200.88 392.507L2325.89 335.715L2288.16 436.282L2388.71 474.03L2263.72 530.819L2132.79 515.494L2126.3 501.218Z" fill="#8DAEF3"/>
<path d="M1956.21 1515.15H2180.19V1050.96H1956.21V1515.15Z" fill="#5A6CF0"/>
<path d="M1956.21 1515.15H1982.77V1050.96H1956.21V1515.15Z" fill="#525ECC"/>
<path d="M1661.18 1515.16H1885.16V996.857H1661.18V1515.16Z" fill="#5A6CF0"/>
<path d="M1661.18 1515.16H1687.74V996.857H1661.18V1515.16Z" fill="#525ECC"/>
<path d="M1366.15 1515.16H1590.13V937.829H1366.15V1515.16Z" fill="#5A6CF0"/>
<path d="M1366.14 1515.16H1392.7V937.829H1366.14V1515.16Z" fill="#525ECC"/>
<path d="M1071.11 1515.15H1295.09V881.479H1071.11V1515.15Z" fill="#5A6CF0"/>
<path d="M1071.11 1515.15H1097.67V881.479H1071.11V1515.15Z" fill="#525ECC"/>
<path d="M776.077 1515.15H1000.06V1092.33H776.077V1515.15Z" fill="#5A6CF0"/>
<path d="M776.08 1515.15H802.636V1092.33H776.08V1515.15Z" fill="#525ECC"/>
<path d="M837.487 787.301C1039.09 787.301 1202.52 950.745 1202.52 1152.36C1202.52 1353.97 1039.09 1517.42 837.487 1517.42C635.884 1517.42 472.456 1353.97 472.456 1152.36C472.456 950.745 635.888 787.301 837.487 787.301ZM837.487 1422.22C986.514 1422.22 1107.33 1301.4 1107.33 1152.36C1107.33 1003.32 986.518 882.499 837.487 882.499C688.457 882.499 567.647 1003.32 567.647 1152.36C567.647 1301.4 688.457 1422.22 837.487 1422.22Z" fill="#343FB6"/>
<path d="M868.337 787.297V882.503C1017.37 882.503 1138.18 1003.32 1138.18 1152.36C1138.18 1182.6 1133.22 1211.68 1124.03 1238.84L1214.25 1269.34C1226.66 1232.62 1233.38 1193.26 1233.38 1152.36C1233.38 950.745 1069.94 787.297 868.337 787.297Z" fill="#C9DBFA"/>
<path d="M503.321 1152.36C503.321 1205.3 514.597 1255.62 534.865 1301.03L621.805 1262.26C606.828 1228.7 598.497 1191.51 598.497 1152.36C598.497 1003.32 719.307 882.503 868.337 882.503V787.297C666.734 787.297 503.321 950.748 503.321 1152.36Z" fill="#5A6CF0"/>
<path d="M534.865 1301.03C591.78 1428.56 719.662 1517.43 868.337 1517.43C1029.04 1517.43 1165.47 1413.58 1214.25 1269.34L1124.03 1238.84C1088 1345.46 987.129 1422.22 868.337 1422.22C758.445 1422.22 663.887 1356.52 621.805 1262.26L534.865 1301.03Z" fill="#8DAEF3"/>
<path d="M842.628 444.542L842.31 500.132L804.97 498.906L805.549 446.231L842.628 444.542Z" fill="#FCE0CA"/>
<path opacity="0.1" d="M804.746 440.537C804.746 440.537 806.666 485.871 841.861 481.924L842.852 465.68L804.742 440.533L804.746 440.537Z" fill="#21202B"/>
<path d="M948.95 997.168L942.941 1031.73L925.769 1030.26L932.465 995.757L948.95 997.168Z" fill="#FCE0CA"/>
<path d="M861.793 677.715L996.285 761.05C1010.57 769.722 1017.73 786.552 1014.06 802.857L970.857 1006.39H922.278L951.352 811.185L800.752 804.246L782.14 678.236L861.793 677.715Z" fill="#223387"/>
<path d="M998.401 1032.58L954.083 1019.14H924.405V1038.71H996.933C1000.34 1038.71 1001.44 1034.12 998.401 1032.58Z" fill="#262F40"/>
<path d="M790.648 964.746L765.908 989.618L752.682 978.565L777.954 954.138L790.648 964.746Z" fill="#FCE0CA"/>
<path d="M733.56 677.715L724.477 760.507C722.031 782.786 736.791 803.32 758.688 808.103L860.412 830.32L761.509 951.143L802.011 980.436C802.011 980.436 908.336 878.259 937.363 833.398C944.833 821.851 938.032 797.445 925.773 791.215L833.722 725.925L820.764 679.61L733.568 677.715H733.56Z" fill="#2636A5"/>
<path d="M810.856 1022.12L782.256 985.689L757.942 968.671L746.717 984.712L806.135 1026.3C808.931 1028.26 812.462 1025.13 810.856 1022.12Z" fill="#262F40"/>
<path d="M740.108 679.61V665.584L865.454 666.59L863.772 679.61L810.316 681.061L740.108 679.61Z" fill="#1E2633"/>
<path d="M901.738 525.558L916.563 640.802C918.071 652.52 911.035 663.66 899.806 667.335C889.359 670.754 877.913 666.829 871.763 657.719L847.291 602.649L901.738 525.558Z" fill="#FFE36C"/>
<path d="M740.108 665.584L720.179 503.197L797.59 485.842L846.311 492.796L901.691 525.652L865.454 666.59L740.108 665.584Z" fill="#FFE36C"/>
<path d="M804.97 482.17L824.721 503.421L840.103 484.619L804.97 482.17Z" fill="#FCE0CA"/>
<path d="M797.59 485.842L805.194 478.455L824.721 503.421L814.415 514.535L797.59 485.842Z" fill="white"/>
<path d="M846.311 492.796L840.103 484.619L824.721 503.421L831.928 516.691L846.311 492.796Z" fill="white"/>
<path d="M740.108 679.61L809.332 676.608" stroke="#37495E" stroke-width="0.557" stroke-miterlimit="10" stroke-linecap="round"/>
<path d="M816.488 559.847L805.06 654.192" stroke="#CE8A1D" stroke-width="0.557" stroke-miterlimit="10" stroke-linecap="round"/>
<path d="M829.504 642.38C829.504 642.38 820.851 654.539 813.811 664.434C806.771 674.328 823.31 674.249 828.986 668.457C831.822 665.563 842.534 658.305 844.031 651.395C844.979 647.029 833.801 636.342 829.504 642.38Z" fill="#FCE0CA"/>
<path d="M832.882 646.826C832.882 646.826 844.918 646.16 850.662 647.477C853.763 648.186 862.137 658.262 863.599 660.168C865.064 662.075 862.115 667.071 856.805 661.594C854.276 658.989 848.995 653.023 848.995 653.023L830.303 654.832C830.303 654.832 824.555 649.68 832.882 646.826Z" fill="#FCE0CA"/>
<path d="M831.96 640.77C831.96 640.77 845.551 636.143 850.196 636.776C852.703 637.116 860.288 646.656 861.511 648.067C862.734 649.478 860.495 653.653 856.088 649.688C853.994 647.799 849.599 643.44 849.599 643.44L833.074 648.866C833.074 648.866 825.343 643.632 831.96 640.77Z" fill="#FCE0CA"/>
<path d="M829.388 651.062C829.388 651.062 842.675 652.126 847.53 654.51C850.152 655.798 854.352 666.731 855.351 668.764C856.349 670.797 852.996 674.723 849.154 668.652C847.327 665.762 843.583 659.253 843.583 659.253L825.995 658.45C825.995 658.45 821.625 651.931 829.388 651.062Z" fill="#FCE0CA"/>
<path d="M825.589 651.667C825.589 651.667 838.023 656.279 842.346 658.797C844.679 660.154 847.906 670.533 848.705 672.48C849.505 674.426 846.198 677.838 843.019 671.977C841.506 669.188 838.442 662.929 838.442 662.929L825.814 659.047C825.814 659.047 818.409 651.971 825.589 651.667Z" fill="#FCE0CA"/>
<path d="M839.723 661.847C840.41 661.731 841.416 660.697 841.637 660.385" stroke="#F3C8AE" stroke-width="0.188" stroke-linecap="round" stroke-linejoin="round"/>
<path d="M849.375 640.719C849.686 640.097 849.443 638.675 849.324 638.313" stroke="#F3C8AE" stroke-width="0.188" stroke-linecap="round" stroke-linejoin="round"/>
<path d="M844.871 657.882C845.511 657.607 846.238 656.362 846.379 656.008" stroke="#F3C8AE" stroke-width="0.188" stroke-linecap="round" stroke-linejoin="round"/>
<path d="M849.881 651.435C850.369 650.936 850.572 649.51 850.565 649.127" stroke="#F3C8AE" stroke-width="0.188" stroke-linecap="round" stroke-linejoin="round"/>
<path d="M847.544 674.502C846.828 673.967 846.285 672.74 846.553 672.122C846.821 671.503 847.729 671.054 847.729 671.054" stroke="#F3C8AE" stroke-width="0.188" stroke-linecap="round" stroke-linejoin="round"/>
<path d="M854.53 670.964C853.755 670.519 853.068 669.368 853.256 668.721C853.448 668.073 854.294 667.516 854.294 667.516" stroke="#F3C8AE" stroke-width="0.188" stroke-linecap="round" stroke-linejoin="round"/>
<path d="M863.23 662.498C862.383 662.212 861.482 661.218 861.544 660.548C861.605 659.879 862.329 659.166 862.329 659.166" stroke="#F3C8AE" stroke-width="0.188" stroke-linecap="round" stroke-linejoin="round"/>
<path d="M861.258 649.275C860.412 648.989 859.511 647.995 859.572 647.325C859.594 647.072 859.71 646.815 859.847 646.594" stroke="#F3C8AE" stroke-width="0.188" stroke-linecap="round" stroke-linejoin="round"/>
<path d="M720.179 503.197L672.023 609.386C664.734 625.459 666.459 644.181 676.567 658.653C685.748 671.796 700.804 679.574 716.837 679.44C753.797 679.133 817.555 678.348 816.484 676.608C814.976 674.162 820.757 646.696 820.757 646.696L725.041 633.173L734.128 608.188L720.179 503.2V503.197Z" fill="#FFE36C"/>
<path d="M753.695 553.176H793.68" stroke="#CE8A1D" stroke-width="0.557" stroke-miterlimit="10" stroke-linecap="round"/>
<path d="M857.796 431.116C857.796 431.116 863.096 427.762 865.436 430.794C867.914 434.003 866.12 443.612 856.581 443.543C856.581 443.543 855.318 438.279 857.796 431.116Z" fill="#FCE0CA"/>
<path d="M856.989 408.805C856.989 408.805 859.974 423.052 860.618 430.613C860.618 430.613 863.675 409.992 860.871 404.301C858.067 398.61 856.986 408.809 856.986 408.809L856.989 408.805Z" fill="#282422"/>
<g opacity="0.25">
<path d="M852.475 399.409H852.485C852.525 399.316 852.514 399.345 852.475 399.409Z" fill="white"/>
</g>
<path d="M819.505 376.082C824.341 378.174 828.165 382.699 833.392 383.369C839.568 384.157 844.867 379.324 849.349 375.001C853.831 370.677 859.648 366.191 865.657 367.823C869.394 368.84 872.183 372.135 873.525 375.771C874.867 379.404 874.972 383.369 874.907 387.24C874.806 393.176 874.296 399.265 871.77 404.638C869.245 410.014 864.333 414.594 858.433 415.256C853.404 415.82 848.55 413.57 843.615 412.456C838.681 411.341 832.557 411.851 829.912 416.164C829.041 417.586 828.574 419.376 827.17 420.274C825.394 421.41 823.068 420.556 821.151 419.684C814.354 416.598 812.57 420.342 805.769 417.253C807.187 420.7 803.613 427.151 803.052 430.837C802.492 434.524 799.902 439.871 796.252 439.115C792.131 438.261 789.91 421.742 789.31 417.578C788.459 411.696 787.606 405.705 788.55 399.837C789.841 391.827 795.094 387.62 800.133 381.925C804.999 376.426 812.201 372.924 819.505 376.082Z" fill="#282422"/>
<path d="M805.14 435.613C805.14 435.613 805.476 425.494 795.058 429.184C790.919 430.649 790.731 442.114 802.264 443.847C802.264 443.847 806.294 442.921 805.14 435.613Z" fill="#FCE0CA"/>
<path d="M830.451 432.48C829.145 439.021 822.782 443.261 816.245 441.955C809.705 440.649 805.465 434.285 806.771 427.748C808.077 421.207 814.44 416.967 820.977 418.273C827.518 419.579 831.757 425.943 830.451 432.48Z" stroke="white" stroke-width="0.618" stroke-miterlimit="10" stroke-linecap="round"/>
<path d="M861.956 433.319C860.708 439.567 854.631 443.619 848.383 442.371C842.136 441.123 838.084 435.045 839.332 428.797C840.581 422.549 846.658 418.497 852.905 419.745C859.153 420.993 863.204 427.071 861.956 433.319Z" stroke="white" stroke-width="0.59" stroke-miterlimit="10" stroke-linecap="round"/>
<path d="M830.737 431.04C830.737 431.04 833.671 427.925 839.108 431.485" stroke="white" stroke-width="0.618" stroke-miterlimit="10" stroke-linecap="round"/>
<path d="M806.42 429.503L800.43 428.305" stroke="white" stroke-width="0.59" stroke-miterlimit="10" stroke-linecap="round"/>
<path d="M826.233 456.484C826.233 456.484 834.355 461.592 841.597 458.362" stroke="black" stroke-width="0.321" stroke-linecap="round" stroke-linejoin="round"/>
<path d="M729.006 511.916C729.006 511.916 737.872 576.381 730.869 603.749" stroke="#CE8A1D" stroke-width="0.557" stroke-miterlimit="10" stroke-linecap="round"/>
<path d="M897.527 531.546C897.527 531.546 881.017 586.283 876.209 620.89" stroke="#CE8A1D" stroke-width="0.557" stroke-miterlimit="10" stroke-linecap="round"/>
<path d="M716.768 623.318C716.768 623.318 715.111 631.769 725.041 633.169L734.975 634.573L814.263 645.777C817.834 646.283 820.304 649.612 819.751 653.179L816.488 674.148" stroke="#CE8A1D" stroke-width="0.557" stroke-miterlimit="10" stroke-linecap="round"/>
<path d="M906.162 633.404L957.06 694.982L952.918 707.684C951.102 713.252 945.014 716.179 939.534 714.124L876.209 690.348L906.162 633.404Z" fill="#FFE36C"/>
<path d="M972.359 678.464H766.606C764.001 678.464 761.889 680.576 761.889 683.181C761.889 685.787 764.001 687.899 766.606 687.899H972.359C974.964 687.899 977.076 685.787 977.076 683.181C977.076 680.576 974.964 678.464 972.359 678.464Z" fill="#3E4654"/>
<path d="M969.291 687.895L843.898 687.034C834.818 686.973 829.583 679.306 832.206 669.918L852.898 595.805C855.521 586.413 865.006 578.852 874.086 578.913L999.479 579.774C1008.56 579.836 1013.79 587.502 1011.17 596.89L990.479 671C987.856 680.392 978.371 687.953 969.291 687.891V687.895Z" fill="#3E4654"/>
<path d="M976.016 705.322C976.016 705.322 959.632 706.849 946.298 708.089C932.964 709.33 942.192 693.597 950.856 691.386C955.187 690.279 968.032 684.078 975.452 686.473C980.14 687.985 984.152 704.562 976.016 705.322Z" fill="#FCE0CA"/>
<path d="M973.646 699.635C973.646 699.635 980.939 688.521 982.864 682.313C983.902 678.963 978.924 665.403 977.915 662.951C976.906 660.498 970.51 660.548 972.796 668.641C973.885 672.494 976.653 680.833 976.653 680.833L964.585 697.663C964.585 697.663 966.317 705.998 973.65 699.635H973.646Z" fill="#FCE0CA"/>
<path d="M978.91 703.868C978.91 703.868 990.841 693.463 992.809 688.68C993.869 686.097 988.967 673.587 988.301 671.64C987.636 669.694 982.408 669.52 983.758 675.917C984.398 678.959 986.127 685.562 986.127 685.562L971.805 698.325C971.805 698.325 972.518 708.596 978.91 703.871V703.868Z" fill="#FCE0CA"/>
<path d="M967.674 700.626C967.674 700.626 974.012 687.363 974.424 681.412C974.649 678.199 966.542 668.146 965.156 666.065C963.771 663.985 958.171 665.016 961.835 672.038C963.579 675.381 967.718 682.552 967.718 682.552L958.753 699.776C958.753 699.776 962.555 707.55 967.678 700.626H967.674Z" fill="#FCE0CA"/>
<path d="M964.997 703.915C964.997 703.915 967.475 689.501 967.468 683.988C967.464 681.01 959.35 672.19 957.936 670.353C956.525 668.515 951.439 669.781 955.27 676.054C957.093 679.039 961.369 685.424 961.369 685.424L958.088 699.62C958.088 699.62 960.739 710.604 965.001 703.918L964.997 703.915Z" fill="#FCE0CA"/>
<path d="M963.102 684.802C963.594 684.209 965.131 683.825 965.554 683.785" stroke="#F3C8AE" stroke-width="0.207" stroke-linecap="round" stroke-linejoin="round"/>
<path d="M988.598 687.28C989.365 687.327 990.584 688.344 990.866 688.662" stroke="#F3C8AE" stroke-width="0.207" stroke-linecap="round" stroke-linejoin="round"/>
<path d="M969.732 682.085C970.351 681.629 971.939 681.622 972.355 681.683" stroke="#F3C8AE" stroke-width="0.207" stroke-linecap="round" stroke-linejoin="round"/>
<path d="M978.653 680.873C979.399 680.685 980.871 681.282 981.233 681.495" stroke="#F3C8AE" stroke-width="0.207" stroke-linecap="round" stroke-linejoin="round"/>
<path d="M955.36 670.338C955.476 671.318 956.344 672.512 957.082 672.599C957.82 672.686 958.753 672.067 958.753 672.067" stroke="#F3C8AE" stroke-width="0.207" stroke-linecap="round" stroke-linejoin="round"/>
<path d="M962.599 665.631C962.599 666.615 963.312 667.91 964.035 668.084C964.759 668.261 965.757 667.758 965.757 667.758" stroke="#F3C8AE" stroke-width="0.207" stroke-linecap="round" stroke-linejoin="round"/>
<path d="M975.488 662.017C975.293 662.983 975.741 664.39 976.414 664.705C977.087 665.02 978.168 664.723 978.168 664.723" stroke="#F3C8AE" stroke-width="0.207" stroke-linecap="round" stroke-linejoin="round"/>
<path d="M987.006 671.214C986.811 672.179 987.259 673.587 987.932 673.901C988.185 674.021 988.493 674.05 988.782 674.046" stroke="#F3C8AE" stroke-width="0.207" stroke-linecap="round" stroke-linejoin="round"/>
<path d="M2388.11 1350.99L2406.66 1502.63H2388.11L2370.3 1350.99H2388.11Z" fill="#FCE0CA"/>
<path d="M2237.22 1351.24L2231.68 1503.9L2250.16 1502.32L2254.97 1349.72L2237.22 1351.24Z" fill="#FCE0CA"/>
<path d="M2171.99 1504.82L2219.69 1490.35H2251.63V1511.42H2173.57C2169.9 1511.42 2168.71 1506.48 2171.99 1504.82Z" fill="#262F40"/>
<path d="M2464.44 1504.82L2416.74 1490.35H2384.79V1511.42H2462.86C2466.53 1511.42 2467.71 1506.48 2464.44 1504.82Z" fill="#262F40"/>
<path d="M2117.85 764.245C2114.36 760.974 2096.86 735.614 2095.16 730.903C2093.28 725.73 2098.08 725.274 2101.08 728.378C2104.08 731.482 2122.9 756.423 2124.57 758.843C2126.23 761.264 2120.81 767.027 2117.85 764.245Z" fill="#FCE0CA"/>
<path d="M2100.1 777.804C2107.18 789.399 2118.67 796.291 2128.49 792.764C2138.32 789.236 2132.48 777.685 2128.74 767.113C2125 756.546 2119.37 751.438 2109.55 754.965C2099.72 758.492 2094.25 768.231 2100.09 777.804H2100.1Z" fill="#FCE0CA"/>
<path d="M2104.12 759.046C2103.83 758.746 2103.54 758.442 2103.26 758.141C2102.18 757.009 2101.08 755.83 2100.57 754.393C2100.05 752.954 2100.28 751.17 2101.54 750.219C2102.73 749.314 2104.52 749.415 2105.88 750.077C2107.25 750.739 2108.29 751.861 2109.28 752.954C2110.85 754.665 2112.41 756.376 2113.98 758.084C2118.69 762.66 2121.64 765.753 2120.97 770.768C2120.91 771.252 2120.79 771.78 2120.38 772.088C2119.84 772.5 2119.04 772.356 2118.39 772.117C2115.6 771.108 2113.51 768.941 2111.52 766.846C2109.05 764.245 2106.58 761.643 2104.12 759.046Z" fill="#FCE0CA"/>
<path d="M2099.01 764.617C2098.73 764.317 2098.44 764.013 2098.16 763.713C2097.08 762.58 2095.98 761.405 2095.47 759.965C2094.95 758.525 2095.18 756.741 2096.44 755.79C2097.63 754.885 2099.42 754.987 2100.78 755.649C2102.15 756.311 2103.19 757.432 2104.18 758.525C2105.75 760.236 2107.31 761.947 2108.88 763.655C2113.59 768.231 2116.54 771.328 2115.87 776.339C2115.81 776.824 2115.69 777.352 2115.28 777.659C2114.74 778.072 2113.94 777.927 2113.29 777.688C2110.5 776.679 2108.41 774.512 2106.42 772.417C2103.95 769.816 2101.48 767.215 2099.01 764.614V764.617Z" fill="#FCE0CA"/>
<path d="M2095.02 770.098C2094.78 769.845 2094.54 769.588 2094.3 769.331C2093.39 768.373 2092.45 767.374 2092.02 766.155C2091.58 764.936 2091.78 763.423 2092.84 762.617C2093.85 761.853 2095.36 761.937 2096.52 762.497C2097.68 763.058 2098.56 764.006 2099.4 764.936C2100.73 766.383 2102.05 767.833 2103.38 769.281C2107.36 773.159 2109.87 775.778 2109.3 780.022C2109.24 780.434 2109.14 780.879 2108.8 781.14C2108.34 781.491 2107.66 781.364 2107.11 781.165C2104.75 780.311 2102.98 778.473 2101.29 776.701L2095.02 770.095L2095.02 770.098Z" fill="#FCE0CA"/>
<path d="M2098.39 773.604L2093.29 768.239L2099.58 776.903L2098.39 773.604Z" fill="#FCE0CA"/>
<path d="M2126.09 770.583C2124.43 769.375 2122.26 769.082 2120.8 769.722C2119.21 770.511 2115.49 773.014 2113.79 773.571C2112.18 774.197 2110.13 774.165 2108.15 773.647C2107.6 773.506 2107.06 773.329 2106.54 773.119C2105.7 772.786 2104.89 772.367 2104.3 771.817C2103.72 771.263 2103.42 770.572 2103.7 770.048C2103.7 770.048 2108.16 767.848 2109.06 767.504" stroke="#F3C8AE" stroke-width="0.22" stroke-linecap="round" stroke-linejoin="round"/>
<path d="M2103.7 770.044C2103.7 770.044 2105.49 770.952 2106.62 770.59C2107.75 770.229 2109.4 769.331 2109.4 769.331" stroke="#F3C8AE" stroke-width="0.22" stroke-linecap="round" stroke-linejoin="round"/>
<path d="M2101.43 756.014L2107.5 762.606C2107.5 762.606 2110.13 765.93 2111.86 763.738" stroke="#F3C8AE" stroke-width="0.22" stroke-linecap="round" stroke-linejoin="round"/>
<path d="M2098.16 763.713L2102.04 767.667" stroke="#F3C8AE" stroke-width="0.22" stroke-linecap="round" stroke-linejoin="round"/>
<path d="M2212.26 805.126L2163.7 862.308L2140.43 784.595C2139.16 782.022 2136.04 780.988 2133.48 782.294L2109.93 791.316C2107.74 792.434 2106.65 794.945 2107.33 797.308L2126.62 932.178C2129.8 943.249 2145.13 951.736 2166.85 940.854L2241.02 908.645L2212.26 805.126Z" fill="#F7BA3C"/>
<path d="M2156.78 855.8C2156.78 855.8 2165.74 870.763 2170.63 892.766" stroke="black" stroke-width="0.658" stroke-miterlimit="10" stroke-linecap="round"/>
<path d="M2276.85 734.839L2275.18 779.208L2315.38 777.887L2314.76 721.179L2276.85 734.839Z" fill="#FCE0CA"/>
<path opacity="0.1" d="M2311.52 722.347C2311.52 722.347 2309.12 762.971 2275.91 759.896L2275.18 745.363L2311.52 722.347Z" fill="#21202B"/>
<path d="M2264.01 1476.75L2222.21 1480.11L2252.07 972.43L2333.87 966.547L2264.01 1476.75Z" fill="#262F40"/>
<path d="M2385.21 972.43L2293.99 970.943L2368.96 1472.32L2414.95 1476.04L2385.21 972.43Z" fill="#262F40"/>
<path d="M2385.21 972.43V957.333L2250.26 958.411L2252.07 972.43L2309.63 973.993L2385.21 972.43Z" fill="#1E2633"/>
<path d="M2386.16 985.472L2373.73 1006.79L2377.45 1059.8L2391.65 1068.47" stroke="#37495E" stroke-width="0.599" stroke-miterlimit="10" stroke-linecap="round"/>
<path d="M2248.24 1070.16L2263.48 1061.28V1009.03L2250.26 1000.34" stroke="#37495E" stroke-width="0.599" stroke-miterlimit="10" stroke-linecap="round"/>
<path d="M2316.3 1114.61L2293.99 1086.42" stroke="#37495E" stroke-width="0.599" stroke-miterlimit="10" stroke-linecap="round"/>
<path d="M2315.28 972.43L2322.71 1083.45" stroke="#37495E" stroke-width="0.599" stroke-miterlimit="10" stroke-linecap="round"/>
<path d="M2385.21 957.333L2406.66 782.511L2323.32 763.825L2270.87 771.31L2211.25 806.681L2250.26 958.411L2385.21 957.333Z" fill="#F7BA3C"/>
<path d="M2337.36 766.973L2302.33 834.618L2259.4 778.115L2270.87 771.31L2323.32 763.825L2337.36 766.973Z" fill="#6A70E8"/>
<path d="M2315.38 759.871L2294.12 782.75L2277.56 762.508L2315.38 759.871Z" fill="#FCE0CA"/>
<path d="M2323.32 763.825L2315.14 755.87L2294.12 782.75L2305.21 794.714L2323.32 763.825Z" fill="white"/>
<path d="M2241.01 922.436C2240.35 904.615 2217.93 809.651 2217.93 809.651" stroke="black" stroke-width="0.599" stroke-miterlimit="10" stroke-linecap="round"/>
<path d="M2270.87 771.31L2277.56 762.508L2294.12 782.75L2286.36 797.033L2270.87 771.31Z" fill="white"/>
<path d="M2385.21 972.43L2310.68 969.195" stroke="#37495E" stroke-width="0.599" stroke-miterlimit="10" stroke-linecap="round"/>
<path d="M2302.98 843.499L2315.28 945.065" stroke="black" stroke-width="0.599" stroke-miterlimit="10" stroke-linecap="round"/>
<path d="M2198.38 981.29L2273.56 971.596C2277.96 971.028 2281.07 966.998 2280.5 962.595L2266.68 855.39C2266.12 850.987 2262.09 847.878 2257.68 848.446L2182.5 858.14C2178.1 858.707 2174.99 862.737 2175.56 867.14L2189.38 974.345C2189.95 978.748 2193.98 981.857 2198.38 981.29Z" fill="#595959"/>
<path d="M2195.78 981.271L2270.96 971.577C2275.36 971.009 2278.47 966.979 2277.91 962.576L2264.08 855.372C2263.52 850.968 2259.49 847.859 2255.08 848.427L2179.91 858.121C2175.5 858.689 2172.39 862.718 2172.96 867.122L2186.78 974.326C2187.35 978.729 2191.38 981.839 2195.78 981.271Z" fill="#444444"/>
<path d="M2214.38 914.849C2214.38 920.952 2219.33 925.901 2225.44 925.901C2231.54 925.901 2236.49 920.952 2236.49 914.849C2236.49 908.746 2231.54 903.797 2225.44 903.797C2219.33 903.797 2214.38 908.746 2214.38 914.849Z" fill="#595959"/>
<path d="M2288.97 932.348C2288.97 932.348 2298.28 945.437 2305.86 956.092C2313.45 966.746 2295.64 966.659 2289.52 960.426C2286.47 957.311 2274.94 949.5 2273.33 942.058C2272.31 937.355 2284.34 925.847 2288.97 932.348Z" fill="#FCE0CA"/>
<path d="M2285.33 937.135C2285.33 937.135 2272.37 936.418 2266.19 937.836C2262.85 938.6 2253.84 949.446 2252.26 951.501C2250.69 953.556 2253.86 958.935 2259.58 953.038C2262.3 950.231 2267.98 943.809 2267.98 943.809L2288.11 945.759C2288.11 945.759 2294.3 940.213 2285.33 937.138L2285.33 937.135Z" fill="#FCE0CA"/>
<path d="M2286.32 930.619C2286.32 930.619 2271.69 925.637 2266.69 926.321C2263.99 926.69 2255.83 936.957 2254.51 938.477C2253.19 939.996 2255.6 944.493 2260.34 940.221C2262.6 938.187 2267.33 933.495 2267.33 933.495L2285.12 939.338C2285.12 939.338 2293.44 933.705 2286.32 930.619H2286.32Z" fill="#FCE0CA"/>
<path d="M2289.09 941.697C2289.09 941.697 2274.78 942.843 2269.56 945.408C2266.74 946.794 2262.21 958.566 2261.14 960.755C2260.07 962.944 2263.68 967.169 2267.81 960.636C2269.78 957.524 2273.81 950.517 2273.81 950.517L2292.75 949.649C2292.75 949.649 2297.45 942.63 2289.09 941.693L2289.09 941.697Z" fill="#FCE0CA"/>
<path d="M2293.18 942.344C2293.18 942.344 2279.8 947.311 2275.14 950.021C2272.63 951.483 2269.15 962.658 2268.29 964.753C2267.43 966.847 2270.99 970.519 2274.41 964.21C2276.04 961.207 2279.34 954.471 2279.34 954.471L2292.93 950.292C2292.93 950.292 2300.91 942.673 2293.17 942.348L2293.18 942.344Z" fill="#FCE0CA"/>
<path d="M2277.96 953.306C2277.23 953.183 2276.15 952.069 2275.91 951.732" stroke="#F3C8AE" stroke-width="0.202" stroke-linecap="round" stroke-linejoin="round"/>
<path d="M2267.57 930.561C2267.24 929.892 2267.5 928.361 2267.63 927.971" stroke="#F3C8AE" stroke-width="0.202" stroke-linecap="round" stroke-linejoin="round"/>
<path d="M2272.42 949.037C2271.73 948.74 2270.95 947.402 2270.8 947.018" stroke="#F3C8AE" stroke-width="0.202" stroke-linecap="round" stroke-linejoin="round"/>
<path d="M2267.03 942.098C2266.5 941.563 2266.29 940.025 2266.29 939.613" stroke="#F3C8AE" stroke-width="0.202" stroke-linecap="round" stroke-linejoin="round"/>
<path d="M2269.54 966.931C2270.31 966.352 2270.9 965.035 2270.61 964.369C2270.32 963.704 2269.34 963.219 2269.34 963.219" stroke="#F3C8AE" stroke-width="0.202" stroke-linecap="round" stroke-linejoin="round"/>
<path d="M2262.02 963.125C2262.85 962.644 2263.6 961.406 2263.39 960.712C2263.19 960.017 2262.28 959.417 2262.28 959.417" stroke="#F3C8AE" stroke-width="0.202" stroke-linecap="round" stroke-linejoin="round"/>
<path d="M2252.66 954.008C2253.57 953.701 2254.54 952.63 2254.47 951.91C2254.41 951.19 2253.63 950.419 2253.63 950.419" stroke="#F3C8AE" stroke-width="0.202" stroke-linecap="round" stroke-linejoin="round"/>
<path d="M2254.78 939.772C2255.7 939.465 2256.67 938.394 2256.6 937.674C2256.57 937.402 2256.45 937.127 2256.3 936.885" stroke="#F3C8AE" stroke-width="0.202" stroke-linecap="round" stroke-linejoin="round"/>
<path d="M2406.66 782.511L2458.51 896.829C2466.35 914.133 2464.49 934.291 2453.62 949.866C2443.73 964.015 2427.52 972.39 2410.26 972.245C2370.48 971.912 2301.83 971.066 2302.98 969.195C2304.6 966.565 2298.39 936.994 2298.39 936.994L2401.43 922.436L2391.65 895.537L2406.66 782.507L2406.66 782.511Z" fill="#F7BA3C"/>
<path d="M2370.58 836.314H2327.53" stroke="black" stroke-width="0.599" stroke-miterlimit="10" stroke-linecap="round"/>
<path d="M2252.37 706.107C2252.37 706.107 2246.83 702.258 2244.17 705.412C2241.35 708.752 2242.84 719.171 2253.11 719.529C2253.11 719.529 2254.71 713.925 2252.37 706.107Z" fill="#FCE0CA"/>
<path d="M2254.26 682.146C2254.26 682.146 2250.4 697.334 2249.35 705.434C2249.35 705.434 2247.01 683.112 2250.29 677.118C2253.56 671.123 2254.26 682.143 2254.26 682.143V682.146Z" fill="#282422"/>
<g opacity="0.25">
<path d="M2259.55 672.248H2259.54C2259.5 672.144 2259.51 672.176 2259.55 672.248Z" fill="white"/>
</g>
<path d="M2255.53 691.046C2252.91 689.7 2250.37 688.047 2248.56 685.717C2246.76 683.387 2245.77 680.283 2246.51 677.429C2247.25 674.574 2249.99 672.198 2252.93 672.411C2250.26 670.371 2249.65 666.351 2250.97 663.262C2252.29 660.176 2255.19 657.98 2258.31 656.761C2261.44 655.541 2264.83 655.169 2268.17 654.807C2271.77 652.394 2276.37 652.224 2280.71 652.137C2283.21 652.086 2285.71 652.036 2288.22 651.985C2292.74 651.895 2297.41 651.826 2301.62 653.486C2303.86 654.373 2305.9 655.722 2307.91 657.057C2311.32 659.329 2314.74 661.601 2318.16 663.873C2320.78 665.617 2323.48 667.444 2325.11 670.139C2327.45 673.996 2327.15 678.833 2326.77 683.326C2325.84 694.244 2324.78 705.608 2319.1 714.978C2310.86 718.415 2307.4 703.35 2308.46 694.82C2305.4 698.803 2297.83 696.94 2296.79 688.738C2295.05 691.791 2291.65 691.198 2288.2 691.864C2284.74 692.529 2281.02 691.621 2278.26 689.436C2275.13 693.922 2267.68 691.336 2262.91 688.655C2259.13 687.682 2259 692.822 2255.53 691.039V691.046Z" fill="#282422"/>
<path d="M2308.8 713.361C2308.8 713.361 2308.91 702.46 2319.94 706.907C2324.33 708.672 2324.01 721.012 2311.52 722.347C2311.52 722.347 2307.22 721.168 2308.8 713.361Z" fill="#FCE0CA"/>
<path d="M2285.16 734.839C2285.16 734.839 2276.19 739.962 2268.55 736.156" stroke="black" stroke-width="0.345" stroke-linecap="round" stroke-linejoin="round"/>
<path d="M2310.49 703.394L2280.33 703.517L2283.16 713.52L2307.36 713.842L2310.49 703.394Z" stroke="white" stroke-width="0.375" stroke-linecap="round" stroke-linejoin="round"/>
<path d="M2273.49 703.097L2247.29 703.206L2249.94 712.539L2272.53 712.843L2273.49 703.097Z" stroke="white" stroke-width="0.35" stroke-linecap="round" stroke-linejoin="round"/>
<path d="M2272.98 708.093C2272.98 708.093 2277.58 703.907 2281.6 708.017" stroke="white" stroke-width="0.375" stroke-linecap="round" stroke-linejoin="round"/>
<path d="M2397.16 791.892C2397.16 791.892 2387.62 861.295 2395.15 890.755" stroke="black" stroke-width="0.599" stroke-miterlimit="10" stroke-linecap="round"/>
<path d="M2410.33 911.828C2410.33 911.828 2412.12 920.923 2401.43 922.436L2390.73 923.948L2298.38 936.997L2302.98 966.547" stroke="black" stroke-width="0.599" stroke-miterlimit="10" stroke-linecap="round"/>
<path d="M659.59 312.03L635.027 287.465L659.59 262.9L638.181 241.49L613.618 266.055L589.059 241.49L567.651 262.9L592.21 287.465L567.651 312.03L589.059 333.44L613.618 308.875L638.181 333.44L659.59 312.03Z" fill="#8DAEF3"/>
<path d="M539.561 538.3L526.82 525.558L539.561 512.816L528.455 501.71L515.715 514.452L502.974 501.71L491.868 512.816L504.609 525.558L491.868 538.3L502.974 549.407L515.715 536.665L528.455 549.407L539.561 538.3Z" fill="#8DAEF3"/>
<path d="M267.424 586.246L250.816 569.634L267.424 553.024L252.95 538.546L236.339 555.155L219.731 538.546L205.253 553.024L221.861 569.634L205.253 586.246L219.731 600.725L236.339 584.112L252.95 600.721L267.424 586.246Z" fill="#8DAEF3"/>
<path d="M205.253 909.546L188.645 892.933L205.253 876.324L190.776 861.845L174.168 878.458L157.56 861.845L143.083 876.324L159.691 892.933L143.083 909.546L157.56 924.024L174.168 907.411L190.776 924.024L205.253 909.546Z" fill="#8DAEF3"/>
<path d="M372.125 1085.53L361.298 1074.7L372.125 1063.88L362.691 1054.44L351.863 1065.27L341.04 1054.44L331.602 1063.88L342.429 1074.7L331.602 1085.53L341.04 1094.97L351.863 1084.14L362.691 1094.97L372.125 1085.53Z" fill="#8DAEF3"/>
<path d="M2499.38 696.813L2523.94 672.248L2499.38 647.683L2520.79 626.273L2545.35 650.838L2569.92 626.273L2591.32 647.683L2566.76 672.248L2591.32 696.813L2569.92 718.223L2545.35 693.658L2520.79 718.223L2499.38 696.813Z" fill="#8DAEF3"/>
<path d="M2040.37 240.872L2053.11 228.13L2040.37 215.388L2051.48 204.281L2064.22 217.023L2076.96 204.281L2088.06 215.388L2075.32 228.13L2088.06 240.872L2076.96 251.978L2064.22 239.236L2051.48 251.978L2040.37 240.872Z" fill="#8DAEF3"/>
<path d="M2414.95 317.145L2431.56 300.532L2414.95 283.923L2429.43 269.445L2446.03 286.054L2462.64 269.445L2477.12 283.923L2460.51 300.532L2477.12 317.145L2462.64 331.62L2446.03 315.011L2429.43 331.62L2414.95 317.145Z" fill="#8DAEF3"/>
<path d="M2667.9 968.823L2684.51 952.214L2667.9 935.604L2682.38 921.126L2698.99 937.735L2715.6 921.126L2730.07 935.604L2713.46 952.214L2730.07 968.823L2715.6 983.301L2698.99 966.692L2682.38 983.301L2667.9 968.823Z" fill="#8DAEF3"/>
<path d="M2534.04 1237.32L2544.87 1226.49L2534.04 1215.67L2543.48 1206.23L2554.31 1217.06L2565.13 1206.23L2574.57 1215.66L2563.74 1226.49L2574.57 1237.32L2565.13 1246.75L2554.31 1235.93L2543.48 1246.75L2534.04 1237.32Z" fill="#8DAEF3"/>
<defs>
<linearGradient id="paint0_linear_32_142" x1="1593.13" y1="274.249" x2="2205" y2="986.5" gradientUnits="userSpaceOnUse">
<stop stop-color="#FF8C5A"/>
<stop offset="0.509615" stop-color="#FFA25B"/>
<stop offset="1" stop-color="#FF5858"/>
</linearGradient>
</defs>
</svg>
