<svg width="64" height="64" viewBox="0 0 64 64" fill="none" xmlns="http://www.w3.org/2000/svg">
<circle cx="32" cy="32" r="32" fill="url(#paint0_linear_35_346)"/>
<path d="M47.7155 41.622C47.6012 41.5408 43.1342 31.8312 42.8812 31.3992C42.9543 31.1687 42.9669 30.9233 42.9178 30.6866C42.8687 30.4498 42.7596 30.2297 42.6009 30.0472C40.8471 28.4947 36.5727 32.5054 34.8815 34.0392C34.1369 34.8298 28.9784 39.5836 30.5654 41.5789C30.7385 41.7417 30.9503 41.8575 31.1808 41.9154C31.4112 41.9732 31.6527 41.9712 31.8821 41.9095L38.5291 45.4055L35.3063 48.499C35.1323 48.6614 34.993 48.8574 34.8967 49.075C34.8003 49.2926 34.749 49.5275 34.7456 49.7654C34.7673 50.1192 34.8668 50.4638 35.037 50.7746C35.2072 51.0855 35.444 51.3549 35.7303 51.5637C35.8951 51.7362 36.0923 51.8746 36.3106 51.9708C36.5289 52.0671 36.764 52.1194 37.0025 52.1247C37.241 52.13 37.4782 52.0883 37.7005 52.0019C37.9229 51.9156 38.1261 51.7862 38.2984 51.6212L42.6152 47.4848C46.0192 48.6449 49.3355 44.8564 47.7155 41.622ZM31.7449 40.4849C31.737 39.8474 33.1716 37.6962 35.8741 35.0756C38.6161 32.4687 40.7774 31.2066 41.4638 31.162C41.0785 32.2675 39.9285 33.9882 37.2915 36.557C34.6299 39.0482 32.851 40.1658 31.7449 40.4849ZM35.836 26.1761C35.7416 26.1798 35.6489 26.202 35.5632 26.2416C35.4775 26.2811 35.4003 26.3371 35.3363 26.4065C35.2722 26.4758 35.2224 26.5571 35.1898 26.6457C35.1571 26.7343 35.1422 26.8285 35.146 26.9228L35.2552 29.7116C35.2628 29.9022 35.3457 30.082 35.4858 30.2115C35.6259 30.341 35.8118 30.4095 36.0024 30.402C36.193 30.3944 36.3728 30.3115 36.5023 30.1714C36.6318 30.0312 36.7003 29.8454 36.6927 29.6548L36.5828 26.8661C36.5803 26.7712 36.5589 26.6779 36.5197 26.5915C36.4805 26.5051 36.4245 26.4275 36.3548 26.3632C36.2851 26.2988 36.2032 26.2491 36.114 26.217C36.0247 26.1849 35.93 26.1709 35.8353 26.1761H35.836ZM27.7601 33.9975C27.5715 33.9845 27.3853 34.0463 27.2418 34.1695C27.0984 34.2928 27.0092 34.4675 26.9936 34.656C26.978 34.8444 27.0373 35.0314 27.1585 35.1766C27.2798 35.3217 27.4533 35.4132 27.6415 35.4314L30.4231 35.6614C30.6133 35.6771 30.802 35.6166 30.9477 35.4932C31.0933 35.3698 31.184 35.1936 31.1997 35.0034C31.2154 34.8131 31.1549 34.6244 31.0315 34.4788C30.9081 34.3332 30.7319 34.2425 30.5417 34.2268L27.7601 33.9975ZM32.2487 32.3314C32.3141 32.3997 32.3922 32.4544 32.4787 32.4924C32.5652 32.5304 32.6584 32.5511 32.7529 32.5531C32.8473 32.5551 32.9413 32.5385 33.0293 32.5043C33.1174 32.47 33.1979 32.4187 33.2661 32.3534C33.3343 32.288 33.389 32.2098 33.4271 32.1233C33.4651 32.0368 33.4857 31.9437 33.4878 31.8492C33.4898 31.7547 33.4732 31.6608 33.4389 31.5727C33.4047 31.4847 33.3534 31.4042 33.288 31.336L31.6184 29.593C31.4853 29.4599 31.3054 29.3842 31.1172 29.3822C30.929 29.3801 30.7475 29.452 30.6116 29.5822C30.4758 29.7124 30.3963 29.8907 30.3904 30.0788C30.3844 30.2669 30.4524 30.4499 30.5798 30.5885L32.2487 32.3314ZM22.7095 36.6935C20.8925 36.6958 19.1508 37.4191 17.8667 38.7047C16.5827 39.9902 15.8614 41.7327 15.8612 43.5497C16.2364 52.639 29.1933 52.6289 29.5656 43.5497C29.5647 41.7317 28.842 39.9884 27.5564 38.703C26.2708 37.4175 24.5275 36.6943 22.7095 36.6935ZM24.0837 42.2186V44.9814C24.1016 45.5541 23.8924 46.1105 23.5016 46.5295C23.1109 46.9485 22.5704 47.1961 21.9979 47.2182H21.379C20.8994 47.1858 20.45 46.9724 20.1217 46.6212C19.7934 46.27 19.6108 45.8072 19.6108 45.3264C19.6108 44.8457 19.7934 44.3829 20.1217 44.0317C20.45 43.6805 20.8994 43.4671 21.379 43.4347C21.5732 43.4341 21.7601 43.5086 21.9008 43.6425C22.0414 43.7764 22.1248 43.9595 22.1337 44.1534C22.1374 44.2465 22.1223 44.3393 22.0893 44.4263C22.0563 44.5134 22.0061 44.5929 21.9417 44.6601C21.8773 44.7273 21.8 44.7809 21.7145 44.8176C21.6289 44.8542 21.5368 44.8733 21.4437 44.8736C21.2173 44.8442 21.0434 45.049 21.0412 45.3264C21.0412 45.5708 21.1922 45.7792 21.379 45.7792H21.9972C22.188 45.7573 22.3626 45.6615 22.4837 45.5124C22.6047 45.3633 22.6626 45.1727 22.6448 44.9814V40.5927C22.6482 40.4534 22.6916 40.318 22.7699 40.2027C22.8482 40.0874 22.958 39.9971 23.0862 39.9425C23.2145 39.8879 23.3557 39.8714 23.4931 39.895C23.6304 39.9185 23.7581 39.9811 23.8609 40.0752C24.5383 40.7298 25.2592 41.3378 26.0186 41.8951C26.125 41.9029 26.2282 41.9348 26.3204 41.9884C26.4127 42.0419 26.4916 42.1157 26.5512 42.2042C26.6047 42.2821 26.6424 42.3698 26.662 42.4623C26.6815 42.5548 26.6827 42.6503 26.6653 42.7432C26.648 42.8361 26.6124 42.9247 26.5608 43.0039C26.5091 43.0831 26.4424 43.1513 26.3643 43.2047C26.0121 43.4491 25.739 43.6359 24.0837 42.2186ZM22.7095 33.7445C24.5264 33.7443 26.269 33.023 27.5545 31.739C28.84 30.4549 29.5633 28.7132 29.5656 26.8962C29.2012 17.8069 16.2256 17.8019 15.8612 26.8962C15.8631 28.7119 16.5852 30.4527 17.8691 31.7366C19.153 33.0205 20.8938 33.7426 22.7095 33.7445ZM20.3218 26.4643H21.4358V25.2561C21.4364 24.5521 21.7163 23.8771 22.2141 23.3793C22.7119 22.8815 23.3869 22.6016 24.0909 22.601C24.8341 22.5845 26.2184 23.0179 25.7167 23.9824C25.6166 24.1435 25.4571 24.2588 25.2727 24.3031C25.0882 24.3475 24.8938 24.3175 24.7313 24.2196C24.5393 24.1006 24.3175 24.0383 24.0916 24.0399C23.9319 24.0397 23.7736 24.0711 23.626 24.1321C23.4784 24.1932 23.3442 24.2827 23.2313 24.3957C23.1183 24.5087 23.0287 24.6428 22.9677 24.7904C22.9066 24.9381 22.8753 25.0963 22.8755 25.2561V26.4643H24.2346C24.4255 26.4643 24.6085 26.5401 24.7434 26.675C24.8783 26.8099 24.9541 26.9929 24.9541 27.1837C24.9541 27.3746 24.8783 27.5576 24.7434 27.6925C24.6085 27.8274 24.4255 27.9032 24.2346 27.9032H22.8755V30.4713C22.8755 30.6621 22.7997 30.8451 22.6648 30.9801C22.5298 31.115 22.3468 31.1908 22.156 31.1908C21.9652 31.1908 21.7822 31.115 21.6473 30.9801C21.5124 30.8451 21.4365 30.6621 21.4365 30.4713V27.9032H20.3218C20.131 27.9032 19.948 27.8274 19.813 27.6925C19.6781 27.5576 19.6023 27.3746 19.6023 27.1837C19.6023 26.9929 19.6781 26.8099 19.813 26.675C19.948 26.5401 20.131 26.4643 20.3218 26.4643ZM37.7594 25.7448C39.6026 25.7418 41.3694 25.0077 42.6721 23.7036C43.9748 22.3996 44.7071 20.632 44.7082 18.7887C44.3302 9.56575 31.1821 9.57509 30.8026 18.7887C30.8052 20.6329 31.5391 22.4008 32.8432 23.7047C34.1473 25.0087 35.9152 25.7423 37.7594 25.7448ZM33.8961 16.782C33.8955 16.2908 34.0898 15.8195 34.4364 15.4714C34.783 15.1233 35.2535 14.927 35.7447 14.9255H39.7661C40.2579 14.9268 40.7292 15.1227 41.0769 15.4705C41.4246 15.8182 41.6206 16.2895 41.6219 16.7813V20.8027C41.6206 21.2939 41.4244 21.7645 41.0765 22.1112C40.7286 22.4579 40.2573 22.6524 39.7661 22.652H35.7447C35.5019 22.6521 35.2614 22.6043 35.037 22.5114C34.8126 22.4185 34.6088 22.2823 34.4371 22.1105C34.2654 21.9388 34.1292 21.7349 34.0364 21.5105C33.9436 21.286 33.8959 21.0455 33.8961 20.8027V16.782Z" fill="url(#paint1_linear_35_346)"/>
<path d="M35.7447 21.2132H39.7661C39.8204 21.214 39.8744 21.2039 39.9249 21.1837C39.9753 21.1635 40.0212 21.1334 40.06 21.0953C40.0988 21.0572 40.1296 21.0118 40.1507 20.9617C40.1718 20.9116 40.1828 20.8579 40.183 20.8035V16.7814C40.1828 16.6709 40.1388 16.5649 40.0607 16.4868C39.9825 16.4087 39.8766 16.3647 39.7661 16.3645H35.7447C35.6903 16.3647 35.6366 16.3756 35.5865 16.3968C35.5364 16.4179 35.491 16.4487 35.4529 16.4875C35.4148 16.5262 35.3847 16.5722 35.3645 16.6226C35.3443 16.6731 35.3342 16.727 35.335 16.7814V20.8028C35.3344 20.8567 35.3446 20.9103 35.365 20.9602C35.3854 21.0102 35.4156 21.0556 35.4537 21.0938C35.4919 21.1319 35.5373 21.1621 35.5872 21.1825C35.6372 21.2028 35.6907 21.213 35.7447 21.2125V21.2132ZM37.7593 16.8173C38.2766 16.8272 38.7693 17.0396 39.1316 17.4088C39.4938 17.7781 39.6968 18.2748 39.6968 18.7921C39.6968 19.3094 39.4938 19.8061 39.1316 20.1753C38.7693 20.5446 38.2766 20.757 37.7593 20.7668C37.2421 20.757 36.7494 20.5446 36.3871 20.1753C36.0249 19.8061 35.8219 19.3094 35.8219 18.7921C35.8219 18.2748 36.0249 17.7781 36.3871 17.4088C36.7494 17.0396 37.2421 16.8272 37.7593 16.8173Z" fill="#265DFF"/>
<path d="M37.7594 19.3285C37.9016 19.3285 38.0379 19.272 38.1385 19.1714C38.2391 19.0709 38.2955 18.9345 38.2955 18.7923C38.2955 18.6501 38.2391 18.5137 38.1385 18.4131C38.0379 18.3126 37.9016 18.2561 37.7594 18.2561C37.6206 18.2612 37.4893 18.3199 37.393 18.4198C37.2966 18.5197 37.2428 18.6531 37.2428 18.7919C37.2428 18.9307 37.2966 19.0641 37.393 19.1641C37.4893 19.264 37.6206 19.3234 37.7594 19.3285Z" fill="black"/>
<defs>
<linearGradient id="paint0_linear_35_346" x1="32" y1="-1.49012e-08" x2="32.5" y2="97" gradientUnits="userSpaceOnUse">
<stop stop-color="#EAF6FF"/>
<stop offset="1" stop-color="#B6E0FF"/>
</linearGradient>
<linearGradient id="paint1_linear_35_346" x1="32" y1="11.875" x2="32" y2="52.1252" gradientUnits="userSpaceOnUse">
<stop stop-color="#2956FF"/>
<stop offset="1" stop-color="#00B6FF"/>
</linearGradient>
</defs>
</svg>
