<svg width="64" height="64" viewBox="0 0 64 64" fill="none" xmlns="http://www.w3.org/2000/svg">
<circle cx="32" cy="32" r="32" fill="url(#paint0_linear_34_344)"/>
<path fill-rule="evenodd" clip-rule="evenodd" d="M19.7286 24.9708C19.8347 24.8667 19.9777 24.8086 20.1264 24.8093C20.2752 24.81 20.4176 24.8694 20.5227 24.9746C20.6279 25.0797 20.6873 25.2222 20.688 25.3709C20.6887 25.5196 20.6307 25.6626 20.5265 25.7687L17.8598 28.4354C17.8457 28.4495 17.8378 28.4686 17.8378 28.4886C17.8378 28.5085 17.8457 28.5276 17.8598 28.5418L20.5264 31.2084C20.6306 31.3146 20.6886 31.4575 20.6879 31.6063C20.6872 31.755 20.6278 31.8974 20.5227 32.0026C20.4175 32.1077 20.2751 32.1671 20.1264 32.1678C19.9776 32.1685 19.8347 32.1105 19.7285 32.0063L16.6097 28.8875C16.5039 28.7817 16.4445 28.6382 16.4445 28.4886C16.4445 28.3389 16.5039 28.1954 16.6097 28.0896L19.7286 24.9708ZM43.4383 25.7687C43.3341 25.6626 43.2761 25.5196 43.2768 25.3709C43.2775 25.2222 43.3369 25.0797 43.442 24.9746C43.5472 24.8694 43.6896 24.81 43.8383 24.8093C43.9871 24.8086 44.13 24.8667 44.2362 24.9708L47.355 28.0896C47.4608 28.1954 47.5202 28.3389 47.5202 28.4886C47.5202 28.6382 47.4608 28.7817 47.355 28.8875L44.2362 32.0063C44.13 32.1105 43.9871 32.1685 43.8383 32.1678C43.6896 32.1671 43.5472 32.1077 43.442 32.0026C43.3369 31.8974 43.2775 31.755 43.2768 31.6063C43.2761 31.4575 43.3341 31.3146 43.4383 31.2084L46.1049 28.5418C46.119 28.5276 46.1269 28.5085 46.1269 28.4886C46.1269 28.4686 46.119 28.4495 46.1049 28.4354L43.4383 25.7687ZM39.0054 30.8298C38.7949 31.0403 38.6542 31.3869 38.6535 31.6847L38.6398 37.5203L38.6364 43.0706C38.6366 43.0928 38.6295 43.1145 38.6163 43.1324C38.603 43.1503 38.5843 43.1634 38.563 43.1697C38.5417 43.1761 38.5189 43.1753 38.498 43.1675C38.4772 43.1598 38.4594 43.1455 38.4474 43.1267L38.1946 42.7411L38.1938 42.7417L36.5822 40.2762C36.5422 40.2152 36.4961 40.1584 36.4447 40.1067L36.1731 39.8338C36.1584 39.8191 36.1406 39.8116 36.1199 39.8116C36.0991 39.8116 36.0813 39.819 36.0666 39.8336L36.0649 39.8353C35.9303 39.7663 35.7873 39.7151 35.6395 39.683C35.3689 39.6245 35.0647 39.6259 34.8252 39.7824C34.786 39.8077 34.7495 39.8369 34.7162 39.8696C34.7111 39.8747 34.7056 39.8792 34.6996 39.8831L34.3783 40.0939C34.3617 40.1049 34.3501 40.122 34.346 40.1416C34.342 40.1611 34.3458 40.1814 34.3567 40.1981L34.3595 40.2022C34.239 40.3618 34.1553 40.546 34.1143 40.7418C34.0773 40.9163 34.0751 41.0965 34.1078 41.2719C34.1406 41.4473 34.2076 41.6146 34.305 41.7641L38.2077 47.7347C38.2115 47.7404 38.2147 47.7464 38.2172 47.7527L38.2199 47.7591L38.2208 47.7614L38.2236 47.7676C38.7971 49.0289 39.8192 49.8907 41.1222 50.3197C41.9609 50.5959 42.865 50.6788 43.7435 50.6124C44.5945 50.548 45.4565 50.3415 46.2356 49.9911C47.1482 49.5806 48.1279 48.8833 48.4543 47.8916C48.668 47.2426 48.752 46.5378 48.7926 45.8579C48.8395 45.0709 48.8314 44.2763 48.827 43.488C48.8244 43.032 48.8221 42.576 48.8259 42.12L48.8299 41.6568H48.8238V39.7866C48.8238 39.4699 48.6971 39.1683 48.4735 38.9446C48.2498 38.7209 47.9481 38.5943 47.6315 38.5943C47.3147 38.5943 47.0131 38.7209 46.7894 38.9445C46.6908 39.043 46.6101 39.1579 46.551 39.284C46.5451 39.2971 46.5355 39.3081 46.5234 39.3158C46.5113 39.3235 46.4972 39.3275 46.4829 39.3273H46.3043C46.2844 39.3273 46.2653 39.3193 46.2512 39.3052C46.2371 39.2911 46.2292 39.272 46.2291 39.2521V38.6451C46.229 38.4886 46.198 38.3336 46.1379 38.1892C46.0778 38.0447 45.9898 37.9135 45.8789 37.8031C45.6552 37.5794 45.3536 37.4527 45.0369 37.4527C44.7202 37.4527 44.4185 37.5793 44.1948 37.803C44.0963 37.9015 44.0156 38.0164 43.9564 38.1425C43.9505 38.1555 43.9409 38.1666 43.9288 38.1743C43.9167 38.182 43.9027 38.186 43.8883 38.1858H43.7098C43.6898 38.1858 43.6707 38.1778 43.6566 38.1637C43.6425 38.1496 43.6346 38.1305 43.6346 38.1106V37.5036C43.6345 37.3471 43.6035 37.1922 43.5434 37.0477C43.4833 36.9032 43.3952 36.772 43.2843 36.6616C43.0607 36.4379 42.759 36.3114 42.4423 36.3114C42.1255 36.3114 41.8239 36.4379 41.6002 36.6616C41.5017 36.7601 41.421 36.875 41.3618 37.0011C41.3559 37.0141 41.3463 37.0252 41.3342 37.0328C41.3221 37.0405 41.308 37.0445 41.2937 37.0443H41.1151C41.0952 37.0443 41.0761 37.0364 41.062 37.0223C41.0479 37.0082 41.04 36.9891 41.0399 36.9691V31.6719C41.0398 31.5154 41.0088 31.3604 40.9487 31.2159C40.8886 31.0715 40.8005 30.9403 40.6896 30.8299C40.5792 30.719 40.448 30.631 40.3035 30.5709C40.159 30.5108 40.0041 30.4798 39.8476 30.4796C39.6911 30.4797 39.5361 30.5106 39.3916 30.5707C39.2471 30.6308 39.1158 30.7188 39.0054 30.8298ZM29.5429 29.0521C29.4481 28.9394 29.4013 28.794 29.4126 28.6472C29.4238 28.5004 29.4922 28.3638 29.603 28.2669C29.7138 28.1699 29.8582 28.1203 30.0052 28.1286C30.1522 28.137 30.2901 28.2026 30.3892 28.3115L31.2479 29.2922C31.2627 29.3092 31.2823 29.318 31.3048 29.3179C31.3156 29.318 31.3263 29.3157 31.3361 29.3112C31.346 29.3067 31.3546 29.3 31.3615 29.2917L33.3969 26.917C33.445 26.8609 33.5036 26.8147 33.5695 26.7813C33.6354 26.7478 33.7072 26.7276 33.7809 26.7218C33.8546 26.7161 33.9287 26.7249 33.999 26.7478C34.0692 26.7708 34.1343 26.8073 34.1905 26.8553C34.2466 26.9034 34.2928 26.962 34.3263 27.0279C34.3598 27.0938 34.3799 27.1656 34.3857 27.2393C34.3914 27.313 34.3826 27.3871 34.3597 27.4574C34.3368 27.5277 34.3002 27.5927 34.2522 27.6489L31.7375 30.5827L31.7371 30.5824C31.6847 30.6437 31.6197 30.693 31.5465 30.7269C31.4733 30.7609 31.3937 30.7787 31.313 30.7791C31.2323 30.7796 31.1525 30.7627 31.0789 30.7295C31.0054 30.6964 30.9398 30.6478 30.8867 30.5871L29.5429 29.0521ZM31.9823 23.9253C34.5026 23.9253 36.5456 25.9683 36.5456 28.4886C36.5456 31.0088 34.5026 33.0519 31.9823 33.0519C29.4621 33.0519 27.4191 31.0088 27.4191 28.4886C27.4191 25.9683 29.462 23.9253 31.9823 23.9253ZM37.5463 35.7348L37.5249 35.7562L35.7709 34.8625C35.7597 34.8566 35.7472 34.8537 35.7346 34.8541C35.722 34.8544 35.7096 34.858 35.6988 34.8646C35.1241 35.2005 34.5063 35.4566 33.8625 35.6259C33.8502 35.629 33.839 35.6351 33.8298 35.6438C33.8206 35.6525 33.8138 35.6634 33.8101 35.6755L33.219 37.4948C33.2142 37.51 33.2047 37.5233 33.1918 37.5326C33.1789 37.542 33.1634 37.547 33.1475 37.5468H30.8172C30.8013 37.547 30.7858 37.542 30.7729 37.5326C30.76 37.5233 30.7505 37.51 30.7457 37.4948L30.1546 35.6757C30.1509 35.6636 30.1441 35.6527 30.1349 35.644C30.1257 35.6354 30.1144 35.6292 30.1022 35.6262C29.4583 35.4569 28.8405 35.2007 28.2659 34.8646C28.255 34.858 28.2427 34.8544 28.2301 34.8541C28.2175 34.8537 28.205 34.8566 28.1938 34.8625L26.4885 35.7314C26.4744 35.7387 26.4583 35.7414 26.4425 35.7389C26.4268 35.7364 26.4123 35.7289 26.4011 35.7175L24.7535 34.0698C24.7421 34.0586 24.7346 34.0441 24.7321 34.0284C24.7296 34.0126 24.7323 33.9965 24.7396 33.9824L25.6085 32.2771C25.6144 32.266 25.6173 32.2534 25.6169 32.2408C25.6166 32.2282 25.613 32.2159 25.6064 32.2051C25.2705 31.6303 25.0144 31.0125 24.8451 30.3687C24.842 30.3565 24.8359 30.3452 24.8272 30.336C24.8185 30.3268 24.8076 30.32 24.7955 30.3163L22.9763 29.7252C22.9611 29.7204 22.9478 29.7109 22.9385 29.698C22.9291 29.6852 22.9241 29.6696 22.9243 29.6537V27.3234C22.9243 27.2903 22.9447 27.2622 22.9763 27.2519L24.7955 26.6608C24.8076 26.6571 24.8185 26.6503 24.8272 26.6411C24.8359 26.6319 24.842 26.6207 24.8451 26.6084C25.0143 25.9646 25.2705 25.3468 25.6064 24.7721C25.613 24.7613 25.6166 24.749 25.6169 24.7363C25.6173 24.7237 25.6144 24.7112 25.6085 24.7L24.7396 22.9947C24.7323 22.9806 24.7296 22.9645 24.7321 22.9488C24.7346 22.933 24.7421 22.9185 24.7535 22.9074L26.4011 21.2597C26.4123 21.2483 26.4268 21.2408 26.4425 21.2383C26.4583 21.2358 26.4744 21.2385 26.4885 21.2458L28.1936 22.1146C28.2171 22.1266 28.2429 22.1258 28.2657 22.1126C28.8405 21.7766 29.4583 21.5204 30.1022 21.351C30.1144 21.348 30.1257 21.3419 30.1349 21.3332C30.1441 21.3245 30.1509 21.3136 30.1546 21.3015L30.7457 19.4824C30.7505 19.4672 30.76 19.454 30.7729 19.4446C30.7858 19.4352 30.8013 19.4303 30.8172 19.4304H33.1475C33.1806 19.4304 33.2087 19.4509 33.219 19.4824L33.81 21.3015C33.8137 21.3136 33.8205 21.3245 33.8297 21.3332C33.8389 21.3419 33.8502 21.348 33.8624 21.351C34.5063 21.5203 35.1241 21.7766 35.6988 22.1126C35.7096 22.1192 35.722 22.1228 35.7346 22.1231C35.7472 22.1235 35.7597 22.1206 35.7709 22.1147L37.4762 21.2458C37.4903 21.2385 37.5064 21.2358 37.5222 21.2383C37.5379 21.2408 37.5524 21.2483 37.5635 21.2597L39.2113 22.9074C39.2227 22.9185 39.2302 22.933 39.2327 22.9488C39.2351 22.9645 39.2325 22.9806 39.2251 22.9947L38.3563 24.7C38.3504 24.7112 38.3475 24.7237 38.3478 24.7363C38.3482 24.749 38.3518 24.7613 38.3583 24.7721C38.6943 25.3468 38.9504 25.9646 39.1197 26.6084C39.1227 26.6207 39.1289 26.6319 39.1376 26.6411C39.1462 26.6503 39.1572 26.6571 39.1692 26.6608L40.9885 27.2519C41.02 27.2622 41.0405 27.2903 41.0405 27.3234V29.3907C41.0405 29.4178 41.0275 29.441 41.0043 29.455C40.9812 29.469 40.9547 29.4699 40.9307 29.4575C40.6547 29.3142 40.6203 29.2331 39.7093 29.2108C39.2224 29.199 38.5638 29.3189 38.0997 29.783C37.7625 30.1201 37.5533 30.5856 37.5533 31.0981H37.5555L37.5463 35.7348ZM19.4252 45.2729C19.2756 45.2729 19.1321 45.2134 19.0262 45.1076C18.9204 45.0018 18.861 44.8583 18.861 44.7087C18.861 44.559 18.9204 44.4155 19.0262 44.3097C19.1321 44.2039 19.2756 44.1444 19.4252 44.1444H23.6657C23.8153 44.1444 23.9589 44.2039 24.0647 44.3097C24.1705 44.4155 24.2299 44.559 24.2299 44.7087C24.2299 44.8583 24.1705 45.0018 24.0647 45.1076C23.9589 45.2134 23.8153 45.2729 23.6657 45.2729H19.4252ZM19.4252 50.5136C19.2756 50.5136 19.1321 50.4542 19.0262 50.3484C18.9204 50.2425 18.861 50.099 18.861 49.9494C18.861 49.7997 18.9204 49.6562 19.0262 49.5504C19.1321 49.4446 19.2756 49.3851 19.4252 49.3851H25.9763C26.1259 49.3851 26.2694 49.4446 26.3752 49.5504C26.4811 49.6562 26.5405 49.7997 26.5405 49.9494C26.5405 50.099 26.4811 50.2425 26.3752 50.3484C26.2694 50.4542 26.1259 50.5136 25.9763 50.5136H19.4252ZM28.5967 50.5136C28.447 50.5136 28.3035 50.4542 28.1977 50.3484C28.0919 50.2425 28.0324 50.099 28.0324 49.9494C28.0324 49.7997 28.0919 49.6562 28.1977 49.5504C28.3035 49.4446 28.447 49.3851 28.5967 49.3851H29.9069C30.0565 49.3851 30.2001 49.4446 30.3059 49.5504C30.4117 49.6562 30.4711 49.7997 30.4711 49.9494C30.4711 50.099 30.4117 50.2425 30.3059 50.3484C30.2001 50.4542 30.0565 50.5136 29.9069 50.5136H28.5967ZM19.4252 47.8932C19.2756 47.8932 19.1321 47.8338 19.0262 47.728C18.9204 47.6221 18.861 47.4786 18.861 47.329C18.861 47.1793 18.9204 47.0358 19.0262 46.93C19.1321 46.8242 19.2756 46.7647 19.4252 46.7647H29.9069C30.0565 46.7647 30.2001 46.8242 30.3059 46.93C30.4117 47.0358 30.4711 47.1793 30.4711 47.329C30.4711 47.4786 30.4117 47.6221 30.3059 47.728C30.2001 47.8338 30.0565 47.8932 29.9069 47.8932H19.4252ZM26.2861 45.2729C26.1365 45.2729 25.9929 45.2134 25.8871 45.1076C25.7813 45.0018 25.7219 44.8583 25.7219 44.7087C25.7219 44.559 25.7813 44.4155 25.8871 44.3097C25.9929 44.2039 26.1365 44.1444 26.2861 44.1444H29.9069C30.0565 44.1444 30.2001 44.2039 30.3059 44.3097C30.4117 44.4155 30.4711 44.559 30.4711 44.7087C30.4711 44.8583 30.4117 45.0018 30.3059 45.1076C30.2001 45.2134 30.0565 45.2729 29.9069 45.2729H26.2861ZM20.8053 21.5778C21.9876 19.6705 23.6364 18.096 25.5961 17.0028C27.4843 15.9504 29.6619 15.3507 31.9823 15.3507C34.3027 15.3507 36.4803 15.9504 38.3686 17.0028C39.8563 17.8327 41.1694 18.9427 42.2355 20.2714C42.2558 20.2967 42.2579 20.3304 42.2408 20.358C42.2238 20.3856 42.1928 20.3989 42.1611 20.3921L40.4788 20.0338C40.3333 20.0044 40.1822 20.0337 40.0581 20.1152C39.9341 20.1967 39.8473 20.3239 39.8165 20.4691C39.7857 20.6143 39.8134 20.7657 39.8937 20.8906C39.974 21.0154 40.1003 21.1035 40.2451 21.1358L43.5064 21.8304L43.508 21.8308C43.5938 21.8511 43.6832 21.8509 43.7689 21.8304C43.8547 21.8098 43.9344 21.7694 44.0017 21.7124C44.069 21.6554 44.1219 21.5835 44.1563 21.5023C44.1907 21.4211 44.2055 21.3329 44.1996 21.245L43.9732 17.9034C43.9683 17.8296 43.9489 17.7575 43.9161 17.6912C43.8833 17.6249 43.8378 17.5657 43.7821 17.517C43.7264 17.4683 43.6617 17.431 43.5916 17.4073C43.5216 17.3836 43.4475 17.374 43.3737 17.3789C43.2999 17.3838 43.2278 17.4032 43.1615 17.436C43.0952 17.4688 43.036 17.5143 42.9873 17.57C42.9386 17.6257 42.9013 17.6904 42.8776 17.7605C42.8539 17.8305 42.8442 17.9046 42.8491 17.9784L42.9274 19.1325C42.9296 19.1654 42.9114 19.1946 42.8809 19.2071C42.8504 19.2196 42.8168 19.2116 42.7954 19.1866C41.698 17.9114 40.3845 16.8394 38.9152 16.0198C36.8607 14.8747 34.4964 14.2222 31.9823 14.2222C29.4683 14.2222 27.104 14.8746 25.0495 16.0198C22.9219 17.2055 21.129 18.9206 19.8487 20.987C19.81 21.0499 19.7839 21.1197 19.7721 21.1926C19.7603 21.2654 19.763 21.3399 19.78 21.4117C19.797 21.4836 19.828 21.5514 19.8711 21.6112C19.9143 21.6711 19.9689 21.7219 20.0317 21.7606C20.0945 21.7994 20.1643 21.8255 20.2372 21.8373C20.3101 21.8491 20.3845 21.8464 20.4564 21.8295C20.5282 21.8125 20.596 21.7815 20.6559 21.7383C20.7158 21.6951 20.7665 21.6406 20.8053 21.5778ZM21.1155 38.9987L21.0373 37.8445C21.0361 37.8287 21.0399 37.8129 21.0483 37.7995C21.0566 37.7861 21.0691 37.7756 21.0838 37.7698C21.0984 37.7636 21.1145 37.7623 21.1299 37.766C21.1453 37.7697 21.1591 37.7782 21.1693 37.7903C22.0347 38.7954 23.0354 39.6757 24.1427 40.406C25.8367 41.5229 27.7808 42.2885 29.8715 42.5989C29.9447 42.6096 30.0193 42.6058 30.0911 42.5877C30.1628 42.5695 30.2303 42.5374 30.2897 42.4932C30.349 42.449 30.3991 42.3936 30.437 42.33C30.4749 42.2664 30.5 42.196 30.5107 42.1228C30.5214 42.0496 30.5176 41.975 30.4994 41.9032C30.4813 41.8315 30.4492 41.764 30.405 41.7046C30.3608 41.6453 30.3053 41.5952 30.2418 41.5573C30.1782 41.5194 30.1078 41.4943 30.0346 41.4836C28.1503 41.2043 26.3499 40.516 24.7598 39.4671C23.612 38.71 22.5894 37.7783 21.7291 36.7057C21.7192 36.6937 21.7134 36.6788 21.7124 36.6633C21.7114 36.6478 21.7154 36.6324 21.7237 36.6192C21.7317 36.6059 21.7437 36.5954 21.758 36.5893C21.7723 36.5831 21.7882 36.5817 21.8034 36.5851L23.4859 36.9434C23.6314 36.9727 23.7825 36.9434 23.9066 36.8619C24.0306 36.7804 24.1174 36.6532 24.1482 36.508C24.179 36.3629 24.1512 36.2114 24.071 36.0866C23.9907 35.9617 23.8644 35.8736 23.7195 35.8414L20.4583 35.1467L20.4567 35.1463C20.3709 35.126 20.2815 35.1262 20.1957 35.1468C20.11 35.1673 20.0303 35.2077 19.963 35.2647C19.8957 35.3217 19.8428 35.3937 19.8084 35.4749C19.774 35.5561 19.7592 35.6442 19.7651 35.7322L19.9915 39.0736C20.003 39.2215 20.0723 39.3589 20.1845 39.4559C20.2966 39.553 20.4425 39.6019 20.5905 39.592C20.7385 39.5821 20.8766 39.5143 20.9749 39.4032C21.0732 39.2922 21.1237 39.1468 21.1155 38.9987Z" fill="url(#paint1_linear_34_344)"/>
<defs>
<linearGradient id="paint0_linear_34_344" x1="32" y1="0" x2="32" y2="64" gradientUnits="userSpaceOnUse">
<stop stop-color="#FFFDD1"/>
<stop offset="1" stop-color="#FFE79F"/>
</linearGradient>
<linearGradient id="paint1_linear_34_344" x1="32.6375" y1="14.2222" x2="32.6375" y2="50.6341" gradientUnits="userSpaceOnUse">
<stop stop-color="#FD6300"/>
<stop offset="1" stop-color="#FFCF00"/>
</linearGradient>
</defs>
</svg>
