<svg width="64" height="64" viewBox="0 0 64 64" fill="none" xmlns="http://www.w3.org/2000/svg">
<circle cx="32" cy="32" r="32" fill="url(#paint0_linear_34_333)"/>
<path fill-rule="evenodd" clip-rule="evenodd" d="M34.1347 25.1653C34.911 25.3497 35.6528 25.657 36.332 26.0758L37.7602 25.4408L39.4423 27.1229L38.8096 28.551C39.2288 29.2308 39.5362 29.9735 39.7202 30.7507L41.1771 31.3114V33.6908L39.7202 34.2515C39.5357 35.0279 39.2266 35.7683 38.8096 36.4488L39.4423 37.8769L37.7602 39.559L36.332 38.9264C35.653 39.3456 34.9112 39.653 34.1347 39.837L33.5741 41.2939H31.1947L30.634 39.837C29.8552 39.6524 29.1148 39.3434 28.4343 38.9264L27.0061 39.559L25.324 37.8769L25.959 36.4488C25.5397 35.7707 25.233 35.0279 25.0461 34.2515L23.5892 33.6908V31.3114L25.0461 30.7507C25.2319 29.9737 25.5401 29.2312 25.959 28.551L25.324 27.1229L27.0061 25.4408L28.4343 26.0758C29.1135 25.657 29.8553 25.3497 30.6316 25.1653L31.1947 23.7059H33.5741L34.1347 25.1653ZM32.3828 27.222C29.4668 27.222 27.1053 29.5835 27.1053 32.4996C27.1053 35.4156 29.4668 37.7802 32.3828 37.7802C35.2989 37.7802 37.6634 35.4156 37.6634 32.4996C37.6634 29.5835 35.2989 27.222 32.3828 27.222ZM31.6055 33.0241L34.4902 30.1093C34.8319 29.7657 35.3898 29.764 35.7333 30.1058C36.0768 30.4476 36.0786 31.0036 35.7368 31.3488C34.5663 32.53 33.4047 33.7182 32.2289 34.894C31.8853 35.2375 31.3275 35.2375 30.984 34.894L29.0343 32.9426C28.6908 32.5991 28.6908 32.043 29.0343 31.6977C29.3778 31.3542 29.9357 31.3542 30.2792 31.6977L31.6055 33.0241ZM42.5642 36.347L42.4262 36.401C42.2829 36.4571 42.1231 36.4539 41.9821 36.3922C41.8411 36.3306 41.7303 36.2154 41.6742 36.0721C41.6181 35.9288 41.6213 35.7691 41.6829 35.6281C41.7446 35.4871 41.8597 35.3763 42.003 35.3201L43.2723 34.8231C43.4042 34.7714 43.5504 34.7698 43.6834 34.8185C43.8164 34.8672 43.9271 34.9628 43.9944 35.0874L44.6428 36.2864C44.7952 36.5682 44.6901 36.9207 44.4083 37.0731C44.1265 37.2255 43.7741 37.1204 43.6218 36.8386L43.6201 36.8356C41.878 41.3422 37.5014 44.5422 32.3832 44.5422C26.7754 44.5422 22.0579 40.7008 20.7204 35.5083C20.6821 35.3592 20.7045 35.201 20.7827 35.0685C20.861 34.936 20.9886 34.8399 21.1376 34.8014C21.2867 34.7631 21.4449 34.7856 21.5774 34.8638C21.71 34.9421 21.806 35.0697 21.8445 35.2187C23.0531 39.9107 27.3161 43.3815 32.3832 43.3815C37.0348 43.3815 41.0087 40.4565 42.5642 36.347ZM21.1463 28.1642C22.8883 23.6575 27.2649 20.4576 32.3832 20.4576C37.9909 20.4576 42.7084 24.299 44.0459 29.4915C44.0842 29.6406 44.0618 29.7987 43.9836 29.9313C43.9053 30.0638 43.7777 30.1599 43.6286 30.1984C43.4796 30.2367 43.3214 30.2142 43.1889 30.136C43.0563 30.0577 42.9603 29.9301 42.9218 29.781C41.7132 25.0891 37.4503 21.6183 32.3832 21.6183C27.7315 21.6183 23.7576 24.5433 22.2022 28.6528L22.3401 28.5988C22.4834 28.5427 22.6432 28.5459 22.7842 28.6075C22.9252 28.6692 23.036 28.7844 23.0921 28.9277C23.1482 29.071 23.145 29.2307 23.0834 29.3717C23.0217 29.5127 22.9066 29.6235 22.7633 29.6797L21.4941 30.1767C21.3622 30.2284 21.216 30.23 21.0829 30.1813C20.9499 30.1326 20.8393 30.037 20.7719 29.9124L20.1236 28.7133C20.0504 28.5779 20.034 28.419 20.0779 28.2715C20.1219 28.124 20.2226 28 20.358 27.9267C20.4934 27.8536 20.6523 27.8372 20.7998 27.8811C20.9473 27.9251 21.0713 28.0258 21.1446 28.1612L21.1463 28.1642ZM45.8802 20.2837V23.7059C45.8802 23.8599 45.8191 24.0075 45.7102 24.1163C45.6014 24.2252 45.4537 24.2863 45.2998 24.2863H42.28C41.9596 24.2863 41.6996 24.0263 41.6996 23.7059C41.6996 23.3856 41.9596 23.1255 42.28 23.1255H44.7194V20.2837C43.5739 20.02 42.7187 18.9932 42.7187 17.7682C42.7187 16.3436 43.8752 15.187 45.2998 15.187C46.7244 15.187 47.881 16.3436 47.881 17.7682C47.881 18.9932 47.0257 20.02 45.8802 20.2837ZM45.2998 19.1885C46.0838 19.1885 46.7202 18.5521 46.7202 17.7682C46.7202 16.9842 46.0838 16.3478 45.2998 16.3478C44.5159 16.3478 43.8794 16.9842 43.8794 17.7682C43.8794 18.5521 44.5159 19.1885 45.2998 19.1885ZM44.7194 44.7161V41.8742H42.28C41.9596 41.8742 41.6996 41.6142 41.6996 41.2939C41.6996 40.9735 41.9596 40.7135 42.28 40.7135H45.2998C45.4537 40.7135 45.6014 40.7746 45.7102 40.8835C45.8191 40.9923 45.8802 41.1399 45.8802 41.2939V44.7161C47.0257 44.9798 47.881 46.0066 47.881 47.2316C47.881 48.6562 46.7244 49.8128 45.2998 49.8128C43.8752 49.8128 42.7187 48.6562 42.7187 47.2316C42.7187 46.0066 43.5739 44.9798 44.7194 44.7161ZM45.2998 45.8113C44.5159 45.8113 43.8794 46.4477 43.8794 47.2316C43.8794 48.0156 44.5159 48.652 45.2998 48.652C46.0838 48.652 46.7202 48.0156 46.7202 47.2316C46.7202 46.4477 46.0838 45.8113 45.2998 45.8113ZM18.8885 20.2837C17.743 20.02 16.8877 18.9932 16.8877 17.7682C16.8877 16.3436 18.0443 15.187 19.4689 15.187C20.8934 15.187 22.05 16.3436 22.05 17.7682C22.05 18.9932 21.1947 20.02 20.0493 20.2837V23.1255H22.4888C22.8091 23.1255 23.0692 23.3856 23.0692 23.7059C23.0692 24.0263 22.8091 24.2863 22.4888 24.2863H19.4689C19.3149 24.2863 19.1673 24.2252 19.0585 24.1163C18.9496 24.0075 18.8885 23.8599 18.8885 23.7059V20.2837ZM19.4689 19.1885C20.2528 19.1885 20.8892 18.5521 20.8892 17.7682C20.8892 16.9842 20.2528 16.3478 19.4689 16.3478C18.685 16.3478 18.0485 16.9842 18.0485 17.7682C18.0485 18.5521 18.685 19.1885 19.4689 19.1885ZM20.0493 44.7161C21.1947 44.9798 22.05 46.0066 22.05 47.2316C22.05 48.6562 20.8934 49.8128 19.4689 49.8128C18.0443 49.8128 16.8877 48.6562 16.8877 47.2316C16.8877 46.0066 17.743 44.9798 18.8885 44.7161V41.2939C18.8885 41.1399 18.9496 40.9923 19.0585 40.8835C19.1673 40.7746 19.3149 40.7135 19.4689 40.7135H22.4888C22.8091 40.7135 23.0692 40.9735 23.0692 41.2939C23.0692 41.6142 22.8091 41.8742 22.4888 41.8742H20.0493V44.7161ZM19.4689 45.8113C18.685 45.8113 18.0485 46.4477 18.0485 47.2316C18.0485 48.0156 18.685 48.652 19.4689 48.652C20.2528 48.652 20.8892 48.0156 20.8892 47.2316C20.8892 46.4477 20.2528 45.8113 19.4689 45.8113ZM19.9478 33.0803C19.6903 34.0802 18.7818 34.82 17.7019 34.82C16.4221 34.82 15.3831 33.7809 15.3831 32.5011C15.3831 31.2213 16.4221 30.1822 17.7019 30.1822C18.781 30.1822 19.6888 30.9208 19.9472 31.9195H21.4128C21.7331 31.9195 21.9931 32.1796 21.9931 32.4999C21.9931 32.8202 21.7331 33.0803 21.4128 33.0803H19.9478ZM18.86 32.4999C18.8594 31.8612 18.3407 31.343 17.7019 31.343C17.0628 31.343 16.5438 31.8619 16.5438 32.5011C16.5438 33.1403 17.0628 33.6592 17.7019 33.6592C18.3411 33.6592 18.86 33.1403 18.86 32.5011V32.4999ZM45.0523 33.0803H43.3535C43.0332 33.0803 42.7731 32.8202 42.7731 32.4999C42.7731 32.1796 43.0332 31.9195 43.3535 31.9195H45.0529C45.3113 30.9208 46.2192 30.1822 47.2982 30.1822C48.578 30.1822 49.6171 31.2213 49.6171 32.5011C49.6171 33.7809 48.578 34.82 47.2982 34.82C46.2183 34.82 45.3098 34.0802 45.0523 33.0803ZM46.1401 32.5011C46.1401 33.1403 46.659 33.6592 47.2982 33.6592C47.9373 33.6592 48.4563 33.1403 48.4563 32.5011C48.4563 31.8619 47.9373 31.343 47.2982 31.343C46.6594 31.343 46.1407 31.8612 46.1401 32.4999V32.5011Z" fill="url(#paint1_linear_34_333)"/>
<defs>
<linearGradient id="paint0_linear_34_333" x1="32" y1="0" x2="32" y2="64" gradientUnits="userSpaceOnUse">
<stop stop-color="#FFEDFE"/>
<stop offset="1" stop-color="#FFC2F9"/>
</linearGradient>
<linearGradient id="paint1_linear_34_333" x1="32.5001" y1="15.187" x2="32.5001" y2="49.8128" gradientUnits="userSpaceOnUse">
<stop stop-color="#9812FF"/>
<stop offset="1" stop-color="#F97CFF"/>
</linearGradient>
</defs>
</svg>
