<svg width="64" height="64" viewBox="0 0 64 64" fill="none" xmlns="http://www.w3.org/2000/svg">
<circle cx="32" cy="32" r="32" fill="url(#paint0_linear_35_364)"/>
<path d="M36.0263 45.3079H32.1749C32.0322 45.3079 31.8953 45.3646 31.7943 45.4655C31.6934 45.5664 31.6367 45.7033 31.6367 45.846C31.6367 45.9888 31.6934 46.1257 31.7943 46.2266C31.8953 46.3275 32.0322 46.3842 32.1749 46.3842H36.0263C36.169 46.3842 36.3059 46.3275 36.4068 46.2266C36.5077 46.1257 36.5644 45.9888 36.5644 45.846C36.5644 45.7033 36.5077 45.5664 36.4068 45.4655C36.3059 45.3646 36.169 45.3079 36.0263 45.3079ZM32.1805 17.7373H36.0319C36.1746 17.7373 36.3115 17.6806 36.4124 17.5796C36.5134 17.4787 36.5701 17.3418 36.5701 17.1991C36.5701 17.0563 36.5134 16.9194 36.4124 16.8185C36.3115 16.7176 36.1746 16.6609 36.0319 16.6609H32.1805C32.0378 16.6609 31.9009 16.7176 31.8 16.8185C31.699 16.9194 31.6423 17.0563 31.6423 17.1991C31.6423 17.3418 31.699 17.4787 31.8 17.5796C31.9009 17.6806 32.0378 17.7373 32.1805 17.7373Z" fill="url(#paint1_linear_35_364)"/>
<path d="M48.7464 23.0237H45.9434V17.2159C45.9434 15.8312 44.8222 14.71 43.4431 14.71H24.7749C23.3902 14.71 22.2634 15.8368 22.2634 17.2215V32.3466H21.4898C21.2319 32.3466 21.0132 32.526 20.9628 32.7783L20.7442 33.8603C20.4078 33.9612 20.0882 34.0845 19.7743 34.2359L18.8942 33.5912C18.7925 33.5159 18.6674 33.4791 18.5412 33.4873C18.4149 33.4955 18.2957 33.5482 18.2046 33.636L16.2088 35.5365C16.0182 35.7159 15.9902 36.0074 16.1304 36.226L16.7358 37.1398C16.6798 37.2407 16.6237 37.3528 16.5676 37.4706C16.4779 37.6668 16.3882 37.8742 16.3154 38.0872L15.2278 38.2554C14.9699 38.2947 14.7793 38.5133 14.7737 38.7768L14.7064 41.5294C14.7008 41.7928 14.8858 42.0227 15.1437 42.0731L16.2201 42.2862C16.3154 42.6113 16.4387 42.9365 16.5901 43.2504L15.9342 44.1362C15.7772 44.3492 15.7996 44.6407 15.979 44.8313L17.8795 46.8159C18.0588 47.0065 18.3504 47.0345 18.569 46.8887L19.4884 46.2721C19.7911 46.4403 20.1107 46.5748 20.4302 46.6925L20.5928 47.8306C20.632 48.0941 20.8563 48.2903 21.1254 48.2903H43.4375C44.8222 48.2903 45.9434 47.1634 45.9434 45.7788V38.5581H48.7464C48.9504 38.5581 49.1523 38.518 49.3407 38.4399C49.5291 38.3619 49.7003 38.2475 49.8445 38.1033C49.9887 37.9591 50.1031 37.7879 50.1811 37.5995C50.2591 37.4111 50.2993 37.2092 50.2993 37.0053V24.5822C50.2993 23.7245 49.6042 23.0237 48.7464 23.0237ZM24.7749 15.7863H43.4375C44.2223 15.7863 44.8614 16.4254 44.8614 17.2159V18.6006H23.3454V17.2215C23.3454 16.431 23.9845 15.7863 24.7749 15.7863ZM21.4393 46.1992C21.4243 46.096 21.3798 45.9993 21.3112 45.9208C21.2425 45.8422 21.1527 45.7851 21.0525 45.7563C20.5984 45.6274 20.1555 45.4312 19.7351 45.1733C19.6472 45.1187 19.5453 45.0907 19.4419 45.0927C19.3384 45.0947 19.2378 45.1266 19.152 45.1845L18.3335 45.7395L17.061 44.4109L17.644 43.6204C17.7673 43.4522 17.7842 43.228 17.6832 43.043C17.4534 42.6057 17.2796 42.1516 17.1675 41.6919C17.1439 41.5912 17.0916 41.4995 17.017 41.4279C16.9424 41.3563 16.8486 41.3078 16.747 41.2883L15.7884 41.0977L15.8332 39.2533L16.8087 39.1019C17.0161 39.0683 17.1843 38.9225 17.246 38.7207C17.3245 38.4404 17.431 38.1769 17.5487 37.9247C17.644 37.7172 17.7393 37.5491 17.829 37.3977C17.9411 37.2183 17.9355 36.9884 17.8234 36.8147L17.2852 36.0018L18.6251 34.7236L19.4099 35.301C19.5781 35.4244 19.8023 35.4412 19.9873 35.3403C20.3798 35.1272 20.8002 34.9591 21.2879 34.8245L21.3496 34.8077C21.5458 34.7516 21.6972 34.5947 21.7364 34.3928L21.9326 33.423H23.777L23.9228 34.4265C23.9508 34.6339 24.1022 34.8077 24.304 34.8637C24.7693 34.9983 25.2122 35.1945 25.627 35.4468C25.8064 35.5533 26.0307 35.5533 26.2101 35.4356L27.0285 34.8862L28.2955 36.2148L27.7125 36.9997C27.5892 37.1678 27.5723 37.3977 27.6732 37.5827C27.8975 37.9975 28.0769 38.4516 28.1946 38.9337C28.2451 39.1356 28.4076 39.2925 28.6095 39.3318L29.5625 39.5224L29.5176 41.3724L28.5422 41.5237C28.3348 41.5574 28.1666 41.7031 28.1105 41.905C27.9704 42.3759 27.7742 42.8187 27.5275 43.2224C27.4154 43.4018 27.421 43.626 27.5387 43.8054L28.0825 44.6239L26.7426 45.9021L25.9578 45.3247C25.8753 45.2638 25.7771 45.2278 25.6748 45.2208C25.5725 45.2139 25.4704 45.2363 25.3804 45.2854C24.9487 45.5209 24.4946 45.6947 24.0293 45.8124C23.8275 45.8628 23.6705 46.0254 23.6257 46.2272L23.4295 47.2027H21.5907L21.4393 46.1992ZM43.4319 47.2139H24.5282L24.6179 46.7766C24.9487 46.6757 25.2738 46.5524 25.5878 46.401L26.2885 46.9168C26.2998 46.928 26.3222 46.9392 26.3446 46.9504L26.4679 47.0457C26.681 47.2027 26.9725 47.1859 27.1631 47.0009L29.1532 45.1004C29.3438 44.921 29.3719 44.6295 29.2317 44.4109L29.2261 44.3997H44.867V45.7788C44.8654 46.1589 44.7137 46.523 44.4449 46.7918C44.1761 47.0606 43.812 47.2123 43.4319 47.2139ZM44.8614 43.3177H28.7104C28.8337 43.0654 28.9514 42.8131 29.0467 42.5441L30.1343 42.3759C30.3922 42.3366 30.5828 42.118 30.5884 41.8545L30.6557 39.1019C30.6595 38.9749 30.6183 38.8506 30.5392 38.7511C30.4602 38.6516 30.3486 38.5832 30.224 38.5581L29.1476 38.3395C29.0467 38.0031 28.9234 37.678 28.772 37.3753L29.4223 36.4951C29.5793 36.2821 29.5625 35.9906 29.3775 35.8L27.4826 33.8154C27.3949 33.7236 27.2775 33.666 27.1512 33.6526C27.025 33.6393 26.8981 33.6711 26.7931 33.7425L25.8793 34.3592C25.5766 34.1966 25.2626 34.0565 24.9375 33.9444L24.7693 32.8119C24.7506 32.6841 24.6864 32.5673 24.5886 32.4829C24.4908 32.3985 24.3659 32.3521 24.2367 32.3522H23.3398V19.6825H44.8614V23.0294H32.0572C31.6453 23.0294 31.2504 23.193 30.9591 23.4842C30.6679 23.7754 30.5043 24.1704 30.5043 24.5822V37.0053C30.5043 37.4171 30.6679 37.8121 30.9591 38.1033C31.2504 38.3945 31.6453 38.5581 32.0572 38.5581H33.9969V40.1727C33.9969 40.5875 34.2323 40.9575 34.6135 41.1257C34.7537 41.1874 34.8995 41.221 35.0452 41.221C35.2919 41.221 35.5385 41.1313 35.7348 40.9575L38.4481 38.5581H44.8614V43.3177ZM49.2229 37.0053C49.2229 37.2687 49.0099 37.4818 48.7464 37.4818H38.2407C38.1117 37.4818 37.9828 37.5322 37.8819 37.6163L35.0676 40.1054V38.0256C35.0676 37.9549 35.0537 37.8849 35.0267 37.8196C34.9996 37.7543 34.96 37.695 34.91 37.645C34.86 37.595 34.8007 37.5554 34.7354 37.5284C34.6701 37.5013 34.6001 37.4874 34.5295 37.4874H32.0516C31.9252 37.4874 31.804 37.4372 31.7146 37.3478C31.6253 37.2585 31.5751 37.1373 31.5751 37.0109V24.5822C31.5751 24.3187 31.7881 24.1057 32.0516 24.1057H48.7408C49.0043 24.1057 49.2173 24.3187 49.2173 24.5822V37.0053H49.2229Z" fill="url(#paint2_linear_35_364)"/>
<path d="M38.3864 32.5035L36.7887 30.9058L38.3864 29.3081C38.5994 29.095 38.5994 28.7587 38.3864 28.5456C38.1733 28.3326 37.837 28.3326 37.624 28.5456L35.645 30.5246C35.545 30.6263 35.489 30.7632 35.489 30.9058C35.489 31.0484 35.545 31.1853 35.645 31.287L37.624 33.2659C37.7305 33.3725 37.865 33.4229 38.0052 33.4229C38.1453 33.4229 38.2799 33.3725 38.3864 33.2659C38.5994 33.0585 38.5994 32.7165 38.3864 32.5035ZM43.174 28.5456C42.9609 28.3326 42.6246 28.3326 42.4115 28.5456C42.1985 28.7587 42.1985 29.1006 42.4115 29.3081L44.0093 30.9058L42.4115 32.5035C42.3365 32.579 42.2856 32.675 42.265 32.7794C42.2444 32.8837 42.2552 32.9919 42.2959 33.0902C42.3367 33.1884 42.4056 33.2725 42.494 33.3317C42.5824 33.3909 42.6863 33.4226 42.7927 33.4229C42.9329 33.4229 43.0674 33.3725 43.174 33.2659L45.1529 31.287C45.2529 31.1853 45.3089 31.0484 45.3089 30.9058C45.3089 30.7632 45.2529 30.6263 45.1529 30.5246L43.174 28.5456ZM41.8902 25.552C41.7526 25.5142 41.6057 25.5325 41.4817 25.6029C41.3576 25.6733 41.2666 25.7901 41.2286 25.9276L38.5433 35.5925C38.5055 35.73 38.5238 35.8769 38.5942 36.0009C38.6647 36.125 38.7815 36.216 38.919 36.254C38.9694 36.2652 39.0143 36.2764 39.0647 36.2764C39.3002 36.2764 39.5188 36.1194 39.5861 35.884L42.2714 26.2191C42.3062 26.0802 42.2859 25.9332 42.2149 25.8089C42.1438 25.6846 42.0275 25.5925 41.8902 25.552ZM26.3558 40.3184C26.3558 38.289 24.7076 36.6408 22.6782 36.6408C20.6544 36.6408 19.0062 38.289 19.0062 40.3184C19.0062 42.3478 20.6544 43.9959 22.6782 43.9959C24.7076 43.9959 26.3558 42.3478 26.3558 40.3184ZM22.6782 42.9196C21.9977 42.9054 21.3498 42.6252 20.8735 42.1389C20.3972 41.6526 20.1304 40.999 20.1304 40.3184C20.1304 39.6377 20.3972 38.9841 20.8735 38.4978C21.3498 38.0115 21.9977 37.7313 22.6782 37.7172C24.1133 37.7172 25.2794 38.8832 25.2794 40.3184C25.2794 41.7535 24.1133 42.9196 22.6782 42.9196Z" fill="url(#paint3_linear_35_364)"/>
<defs>
<linearGradient id="paint0_linear_35_364" x1="32" y1="-1.49012e-08" x2="32.5" y2="97" gradientUnits="userSpaceOnUse">
<stop offset="0.216346" stop-color="#FEC3C1"/>
<stop offset="1" stop-color="#AB2D2A"/>
</linearGradient>
<linearGradient id="paint1_linear_35_364" x1="34.1034" y1="16.6609" x2="34.1034" y2="46.3842" gradientUnits="userSpaceOnUse">
<stop stop-color="#CB4643"/>
<stop offset="1" stop-color="#AB2D2A"/>
</linearGradient>
<linearGradient id="paint2_linear_35_364" x1="32.5028" y1="14.71" x2="32.5028" y2="48.2903" gradientUnits="userSpaceOnUse">
<stop stop-color="#CB4643"/>
<stop offset="1" stop-color="#AB2D2A"/>
</linearGradient>
<linearGradient id="paint3_linear_35_364" x1="32.1576" y1="25.5327" x2="32.1576" y2="43.9959" gradientUnits="userSpaceOnUse">
<stop stop-color="#CB4643"/>
<stop offset="1" stop-color="#AB2D2A"/>
</linearGradient>
</defs>
</svg>
