<?xml version="1.0" encoding="utf-8"?>
<!-- Generator: Adobe Illustrator 27.5.0, SVG Export Plug-In . SVG Version: 6.00 Build 0)  -->
<svg version="1.1" xmlns="http://www.w3.org/2000/svg" xmlns:xlink="http://www.w3.org/1999/xlink" x="0px" y="0px"
	 viewBox="0 0 3710 3710" style="enable-background:new 0 0 3710 3710;" xml:space="preserve">
<g id="Background">
	<g>
		<g>
			<rect style="fill:#FFFFFF;" width="3710" height="3710"/>
		</g>
	</g>
</g>
<g id="Illustration">
	<g>
		<path style="fill:#F4F7FA;" d="M1834.687,597.817C1099.193,576.57,462.101,1098.646,365.847,1783.674
			c-105.239,748.985,473.986,1422.892,1186.698,1530.828c886.494,134.255,1746.343-642.424,1669.137-1485.004
			C3163.515,1194.687,2582.331,619.414,1834.687,597.817z"/>
		<g>
			<g>
				<defs>
					<path id="SVGID_1_" d="M1313.956,2359.354l292.733-10.848c0,0,49.085-140.851-26.901-236.154
						c-155.035-194.447,40.022-306.392,114.131-364.576c111.763-87.747,168.854-210.128-3.066-256.115
						c-171.919-45.987-11.975-295.346,190.617-413.01c198.25-115.143,91.222-507.344-362.62-294.551
						c-271.033,127.08-216.053,396.072-223.224,538.012s-234.245,162.077-148.863,331.984
						c72.932,145.132,204.007,248.07,111.939,353.118C1166.634,2112.263,1161.588,2226.405,1313.956,2359.354z"/>
				</defs>
				
					<linearGradient id="SVGID_00000113327745657855033640000003381490251603935366_" gradientUnits="userSpaceOnUse" x1="-3397.1006" y1="-563.369" x2="-1816.7987" y2="-563.369" gradientTransform="matrix(0.6685 -0.7437 0.7437 0.6685 3734.8223 -32.2249)">
					<stop  offset="0" style="stop-color:#FFC444"/>
					<stop  offset="0.9964" style="stop-color:#F36F56"/>
				</linearGradient>
				
					<use xlink:href="#SVGID_1_"  style="overflow:visible;fill:url(#SVGID_00000113327745657855033640000003381490251603935366_);"/>
				<clipPath id="SVGID_00000072252885027849448540000005486078448414614440_">
					<use xlink:href="#SVGID_1_"  style="overflow:visible;"/>
				</clipPath>
				
					<linearGradient id="SVGID_00000082355068405112621560000007980525448459366054_" gradientUnits="userSpaceOnUse" x1="2565.6191" y1="1627.2737" x2="2022.7982" y2="3170.0293" gradientTransform="matrix(0.9992 -0.0401 0.0401 0.9992 -891.9973 -767.4562)">
					<stop  offset="0" style="stop-color:#FFC444"/>
					<stop  offset="0.9964" style="stop-color:#F36F56"/>
				</linearGradient>
				
					<path style="clip-path:url(#SVGID_00000072252885027849448540000005486078448414614440_);fill:url(#SVGID_00000082355068405112621560000007980525448459366054_);" d="
					M1313.956,2359.354l292.733-10.848c0,0,49.085-140.851-26.901-236.154c-155.035-194.447,40.022-306.392,114.131-364.576
					c111.763-87.747,157.931-197.48,16.142-262.299c-160.427-73.339-31.183-289.162,171.409-406.827
					c198.25-115.143,91.222-507.344-362.62-294.551c-271.033,127.08-216.053,396.072-223.224,538.012
					s-234.245,162.077-148.863,331.984c72.932,145.132,204.007,248.07,111.939,353.118
					C1166.634,2112.263,1161.588,2226.405,1313.956,2359.354z"/>
				<g style="opacity:0.5;clip-path:url(#SVGID_00000072252885027849448540000005486078448414614440_);">
					<path style="fill:#BEB8F2;" d="M1441.741,2379.773l6.034-1.255c-0.841-3.455-83.698-349.607-53.9-715.655
						c27.448-337.228,158.914-760.839,629.325-863.848l-1.425-5.563c-209.405,45.853-370.207,157.944-477.942,333.157
						c-86.062,139.965-138.594,320.281-156.136,535.94C1357.857,2029.433,1440.9,2376.311,1441.741,2379.773z"/>
					<path style="fill:#BEB8F2;" d="M1502.234,1201.623l6.103-0.935c-33.594-187.732,32.544-458.625,33.214-461.339l-6.028-1.278
						C1534.85,740.799,1468.444,1012.79,1502.234,1201.623z"/>
					<path style="fill:#BEB8F2;" d="M1577.48,1086.698c202.838-127.52,399.697-77.235,401.66-76.712l1.713-5.492
						c-1.993-0.534-201.525-51.607-406.85,77.475L1577.48,1086.698z"/>
					<path style="fill:#BEB8F2;" d="M1388.5,1903.153c57.417-271.889,450.829-352.628,454.733-353.119l-0.429-5.698
						c-3.881,0.146-402.448,83.417-460.373,357.721L1388.5,1903.153z"/>
					<path style="fill:#BEB8F2;" d="M1381.642,1789.1l6.002-1.389c-46.409-171.487-254.498-282.955-256.596-284.062l-3.066,4.964
						C1130.059,1509.709,1335.886,1620.006,1381.642,1789.1z"/>
					<path style="fill:#BEB8F2;" d="M1436.034,2323.782c4.365-105.159,162.676-194.164,164.273-195.052l-3.181-4.901
						c-6.644,3.682-162.78,91.472-167.271,199.734L1436.034,2323.782z"/>
					<path style="fill:#BEB8F2;" d="M1415.221,2242.054l6.05-1.188c-18.692-81.394-156.666-167.725-202.006-196.093
						c-6.407-4.01-11.938-7.471-12.792-8.266l-4.452,3.968c1.188,1.139,4.857,3.449,13.778,9.032
						C1260.627,2077.556,1397.047,2162.915,1415.221,2242.054z"/>
				</g>
			</g>
			<g>
				
					<linearGradient id="SVGID_00000159440887593145897990000004514263357643469235_" gradientUnits="userSpaceOnUse" x1="2102.5833" y1="-963.973" x2="2792.2715" y2="848.2422" gradientTransform="matrix(-0.6516 0.7586 0.7586 0.6516 2655.1465 -263.4716)">
					<stop  offset="0.0036" style="stop-color:#E38DDD"/>
					<stop  offset="1" style="stop-color:#9571F6"/>
				</linearGradient>
				<path style="fill:url(#SVGID_00000159440887593145897990000004514263357643469235_);" d="M1444.575,1799.592
					c78.028,12.678,114.403,75.233,133.053,124.312c-4.619,5.593-5.734,9.9-9.028,16.476
					c-29.738,59.352-56.107,78.815-95.41,133.039c-8.46,11.672-44.562,38.948-60.088,49.217l-29.275,18.719
					c0,0-174.372-49.294-155.146-143.557c19.226-94.263-139.958-160.5-219.61-205.197c-48.912-27.448-61.769-54.484-77.99-67.236
					c-171.708-134.991-265.768-122.008-292.433-197.611c-29.436-83.46,76.766-123.172,49.933-215.527
					c-30.3-104.286-186.061-123.665-190.877-228.277c-0.826-17.935-1.147-36.384,8.001-58.787
					c22.58-55.298,81.14-72.199,67.19-132.603c-28.04-121.414,31.169-247.863,169.43-253.837
					c136.456-5.896,240.38,183.069,216.97,462.918c7.899,200.772,39.908,225.403,130.061,270.782
					c63.144,31.787,257.128,79.3,253.513,195.298C1339.256,1683.718,1355.373,1785.1,1444.575,1799.592z"/>
				<g>
					<defs>
						<path id="SVGID_00000172430102032930154560000003889451155568903042_" d="M1596.494,1988.151l-204.193,152.439
							c0,0-182.845-48.529-163.619-142.793c19.226-94.264-139.958-160.5-219.61-205.198
							c-216.117-121.275-19.288-322.293-281.7-499.535c-69.794-47.141-221.899-114.34-229.668-209.115
							c-8.852-107.975,93.131-113.708,75.191-191.39c-28.04-121.414,31.171-247.863,169.43-253.837
							c136.456-5.896,240.38,183.069,216.972,462.917c7.898,200.774,39.909,225.403,130.059,270.783
							c63.146,31.786,257.128,79.301,253.513,195.298c-3.615,115.997,12.503,217.379,101.704,231.872
							C1580.304,1821.645,1596.494,1988.151,1596.494,1988.151z"/>
					</defs>
					<clipPath id="SVGID_00000093873348350344794540000016784863161675605425_">
						<use xlink:href="#SVGID_00000172430102032930154560000003889451155568903042_"  style="overflow:visible;"/>
					</clipPath>
					<g style="opacity:0.5;clip-path:url(#SVGID_00000093873348350344794540000016784863161675605425_);">
						<path style="fill:#FCFDFE;" d="M1497.792,2047.973l-3.633,3.443c-20.752-18.364-41.413-37.137-61.41-55.799
							c-148.045-138.182-275.585-285.078-379.078-436.616c-87.691-128.403-159.385-261.924-213.09-396.855
							c-43.189-108.511-75.031-218.52-94.64-326.971c-13.783-76.24-21.428-150.927-22.714-221.989
							c-0.227-12.384,0.299-25.113,0.808-37.424c0.678-16.402,1.38-33.362,0.303-49.635l5.024-0.628
							c1.092,16.496,0.387,33.571-0.295,50.084c-0.507,12.25-1.03,24.915-0.806,37.174c1.282,70.838,8.902,145.303,22.649,221.327
							c19.56,108.182,51.328,217.929,94.417,326.19c53.594,134.653,125.146,267.908,212.668,396.063
							c103.318,151.282,230.656,297.943,378.473,435.91C1456.434,2010.886,1477.066,2029.634,1497.792,2047.973z"/>
						<path style="fill:#FCFDFE;" d="M918.273,1321.408l-4.532,2.323c-93.885-171.544-425.077-299.704-428.411-300.977l2.228-4.289
							C490.908,1019.745,823.636,1148.491,918.273,1321.408z"/>
						<path style="fill:#FCFDFE;" d="M1228.617,1776.854l-4.247,2.77c-79.274-108.66,2.29-363.374,3.123-365.934l4.816,1.006
							C1231.483,1417.235,1150.581,1669.893,1228.617,1776.854z"/>
						<path style="fill:#FCFDFE;" d="M1279.716,1834.517l-3.705,3.379c-65.334-60.422-192.366-108.197-357.692-134.522
							c-8.314-1.324-8.314-1.324-8.97-1.914l3.662-3.419l-1.831,1.71l1.047-2.159c0.537,0.147,3.676,0.648,7.315,1.225
							C1085.812,1725.294,1213.723,1773.484,1279.716,1834.517z"/>
						<path style="fill:#FCFDFE;" d="M1460.479,2013.931l-4.522,2.336c-46.573-84.193,20.384-219.546,21.065-220.902l4.544,1.662
							C1480.894,1798.365,1414.974,1931.665,1460.479,2013.931z"/>
						<path style="fill:#FCFDFE;" d="M1493.296,2053.921c-76.813-29.395-167.046-38.791-275.855-28.726l-0.123-4.6
							c109.645-10.14,200.648-0.641,278.209,29.04L1493.296,2053.921z"/>
						<path style="fill:#FCFDFE;" d="M763.616,897.702l-4.647,2.093c-46.17-98.463-120.423-190.298-144.824-220.475
							c-5.907-7.305-7.976-9.883-8.517-10.909l4.563-2.264c0.425,0.777,3.801,4.953,8.077,10.24
							C642.746,706.661,717.235,798.789,763.616,897.702z"/>
						<path style="fill:#FCFDFE;" d="M811.972,1069.836l-5.01,0.788c-10.702-102.066,133.54-271.008,139.685-278.15l3.856,2.692
							C949.013,796.898,801.47,969.676,811.972,1069.836z"/>
					</g>
				</g>
			</g>
			<g>
				
					<linearGradient id="SVGID_00000166646078965650182860000008165719844932645292_" gradientUnits="userSpaceOnUse" x1="7745.0859" y1="-791.9868" x2="8588.1563" y2="595.9235" gradientTransform="matrix(-0.7276 0.686 0.686 0.7276 7218.9697 -4044.8137)">
					<stop  offset="0" style="stop-color:#FF9085"/>
					<stop  offset="1" style="stop-color:#FB6FBB"/>
				</linearGradient>
				<path style="fill:url(#SVGID_00000166646078965650182860000008165719844932645292_);" d="M1611.422,2095.921
					c-14.529,9.813,42.908,163.143-75.833,116.88c-29.665-11.558-110.396-70.655-209.741,10.157
					c-19.284,15.687-38.571,31.373-57.856,47.06c-55.665-24.72-103.173-57.552-61.729-121.848
					c64.362-99.849-74.23-235.563-148.222-261.781c-91.579-32.45-302.865-112.082-205.953-267.735
					c80.678-129.582,161.002-199.662,36.953-332.086c-124.05-132.425-126.898-280.125,13.016-387.961
					c147.239-113.481,93.552-372.426,263.489-418.501c296.106-80.279,407.189,353.234,250.159,644.015
					c-157.029,290.78,60.168,244.88,174.674,341.91c10.077,9.564,24.903,25.11,38.634,46.529
					c84.53,131.871-19.051,257.794-15.862,423.443C1617.499,2161.914,1635.9,2079.39,1611.422,2095.921z"/>
				<g>
					<defs>
						<path id="SVGID_00000166648137596377642010000009020882473541608354_" d="M1614.958,2028.806l-304.98,262.332
							c-56.277-21.959-150.007-71.147-103.713-142.966c64.362-99.85-74.23-235.564-148.222-261.782
							c-91.579-32.45-302.866-112.082-205.953-267.736c80.678-129.581,161.002-199.66,36.953-332.084
							c-124.049-132.425-126.897-280.125,13.017-387.961c147.238-113.481,93.551-372.426,263.488-418.5
							c296.106-80.28,407.188,353.232,250.159,644.013c-157.029,290.781,60.166,244.88,174.673,341.91
							c156.327,132.467-95.125,294.535-95.3,400.346C1494.941,1949.328,1566.05,2001.543,1614.958,2028.806z"/>
					</defs>
					<clipPath id="SVGID_00000007405590259351667400000018214454679754545061_">
						<use xlink:href="#SVGID_00000166648137596377642010000009020882473541608354_"  style="overflow:visible;"/>
					</clipPath>
					<g style="opacity:0.5;clip-path:url(#SVGID_00000007405590259351667400000018214454679754545061_);">
						<path style="fill:#FCFDFE;" d="M1428.563,2110.946l-7.623,4.478c-329.551-489.203-387.009-1134.841-149.949-1684.958
							l8.222,2.57C1043.153,980.835,1100.381,1623.774,1428.563,2110.946z"/>
						<path style="fill:#FCFDFE;" d="M1274.919,1828.946l-6.582,5.711c-170.213-163.072-464.808-149.745-467.765-149.591
							l-0.014-8.038C803.551,1676.87,1102.021,1663.304,1274.919,1828.946z"/>
						<path style="fill:#FCFDFE;" d="M1370.735,2019.311l-8.606,2.33c-60.827-224.471,266.079-547.254,269.39-550.488l6.327,5.305
							C1634.572,1479.658,1311.064,1799.108,1370.735,2019.311z"/>
						<path style="fill:#FCFDFE;" d="M1140,1272.924l-8.398,2.984c-65.054-172.826-349.389-278.97-352.253-280.022l3.698-7.489
							C785.947,989.46,1073.745,1096.905,1140,1272.924z"/>
						<path style="fill:#FCFDFE;" d="M1150.093,899.303l-8.497-1.844c65.986-206.331,339.819-361.475,342.584-363.017l4.332,6.793
							C1485.781,542.755,1215.048,696.187,1150.093,899.303z"/>
					</g>
				</g>
			</g>
		</g>
		<g>
			<g>
				<path style="fill:#97A6B7;" d="M2249.797,3047.193c-41.209-13.668-72.009-48.642-80.695-91.628l-59.978-296.851l-513.072,18.219
					l-63.144,309.252c-8.844,43.311,26.557,86.762,67.327,102.714l214.658,83.988c39.925,15.622,82.841,21.843,125.496,18.194
					l453.65-38.809c13.262-1.135,23.899-11.559,25.442-24.932c1.544-13.374,10.835-28.39-1.811-32.585L2249.797,3047.193z"/>
				
					<linearGradient id="SVGID_00000079466945746514800990000014217219271958836358_" gradientUnits="userSpaceOnUse" x1="1986.709" y1="2774.5425" x2="1986.709" y2="3060.6274">
					<stop  offset="0" style="stop-color:#444B8C"/>
					<stop  offset="0.9964" style="stop-color:#26264F"/>
				</linearGradient>
				<path style="fill:url(#SVGID_00000079466945746514800990000014217219271958836358_);" d="M2254.875,3029.139
					c-41.167-13.497-71.937-48.031-80.614-90.477l-59.918-293.119l-500.565,18.01l-63.081,305.365
					c-8.834,42.766,14.54,85.652,55.27,101.403l214.442,82.932c39.885,15.425,82.758,21.569,125.37,17.966l453.193-38.321
					c13.248-1.12,23.875-11.414,25.417-24.619s-6.428-25.67-19.062-29.812L2254.875,3029.139z"/>
			</g>
			<g>
				<g>
					
						<linearGradient id="SVGID_00000103236069643870102610000012819831630965899921_" gradientUnits="userSpaceOnUse" x1="1969.3481" y1="1993.9781" x2="1094.5542" y2="1945.6759">
						<stop  offset="0" style="stop-color:#444B8C"/>
						<stop  offset="0.3946" style="stop-color:#383C74"/>
						<stop  offset="0.9964" style="stop-color:#26264F"/>
					</linearGradient>
					<path style="fill:url(#SVGID_00000103236069643870102610000012819831630965899921_);" d="M547.661,2856.015
						c-55.639,3.317-101.157-32.778-101.157-80.479V1056.289c0-47.7,45.518-84.536,101.157-82.126l2584.243,178.905
						c40.849,1.77,62.767-31.206,62.767,9.363v1462.207c0,40.569-33.076,75.548-73.925,77.983L547.661,2856.015z"/>
					
						<linearGradient id="SVGID_00000093169169776288133280000001026227873394826149_" gradientUnits="userSpaceOnUse" x1="469.6284" y1="1915.1389" x2="3217.7954" y2="1915.1389">
						<stop  offset="0" style="stop-color:#444B8C"/>
						<stop  offset="0.9964" style="stop-color:#26264F"/>
					</linearGradient>
					<path style="fill:url(#SVGID_00000093169169776288133280000001026227873394826149_);" d="M570.786,2856.015
						c-55.639,3.317-101.157-32.778-101.157-80.479V1056.289c0-47.7,45.518-84.536,101.157-82.126l2573.084,111.489
						c40.849,1.77,73.925,36.21,73.925,76.778v1462.207c0,40.569-33.076,75.548-73.925,77.983L570.786,2856.015z"/>
					<path style="opacity:0.3;fill:#D8DEE8;" d="M3143.871,1120.064L570.787,1014.211c-29.745-1.223-53.929,18.43-53.929,43.902
						v1337.122v377.708c0,25.472,24.184,44.731,53.929,43.023l2573.084-147.758c21.895-1.257,39.599-19.919,39.599-41.686v-334.255
						V1161.105C3183.47,1139.339,3165.765,1120.965,3143.871,1120.064z"/>
				</g>
				<g>
					
						<linearGradient id="SVGID_00000160163982514920787620000018425258888433493429_" gradientUnits="userSpaceOnUse" x1="2628.9373" y1="891.3364" x2="831.0505" y2="2989.7673">
						<stop  offset="0" style="stop-color:#AA80F9"/>
						<stop  offset="0.9964" style="stop-color:#6165D7"/>
					</linearGradient>
					<path style="fill:url(#SVGID_00000160163982514920787620000018425258888433493429_);" d="M3124.751,2544.482L598.674,2669.176
						c-26.514,1.309-48.063-16.218-48.063-39.15V1080.635c0-22.932,21.549-40.723,48.063-39.739l2526.077,93.765
						c19.824,0.736,35.86,17.351,35.86,37.113v1335.157C3160.611,2526.692,3144.575,2543.504,3124.751,2544.482z"/>
					<polygon style="opacity:0.6;fill:#FFFFFF;" points="1228.839,1204.525 651.941,1187.557 651.941,1132.553 1228.839,1151.211 
											"/>
					<polygon style="opacity:0.36;fill:#FFFFFF;" points="1500.52,1197.3 1367.251,1193.266 1367.251,1155.688 1500.52,1159.998 
											"/>
					<polygon style="opacity:0.36;fill:#FFFFFF;" points="1500.52,1249.126 1367.251,1245.478 1367.251,1207.9 1500.52,1211.825 
											"/>
					<polygon style="fill:#FFFFFF;" points="2164.654,1267.303 1647.63,1253.152 1647.63,1216.157 2164.654,1231.384 					"/>
					<polygon style="fill:#FFFFFF;" points="2249.435,1319.285 1737.553,1306.755 1737.553,1269.947 2249.435,1283.542 					"/>
					<polygon style="fill:#FFFFFF;" points="2249.435,1368.946 1737.553,1357.896 1737.553,1321.088 2249.435,1333.204 					"/>
					<polygon style="fill:#FFFFFF;" points="2249.435,1418.608 1737.553,1409.037 1737.553,1372.229 2249.435,1382.865 					"/>
					<polygon style="opacity:0.36;fill:#FFFFFF;" points="1500.52,1300.952 1367.251,1297.69 1367.251,1260.111 1500.52,1263.651 
											"/>
					<polygon style="opacity:0.36;fill:#FFFFFF;" points="1500.52,1352.779 1367.251,1349.902 1367.251,1312.323 1500.52,1315.477 
											"/>
					<polygon style="opacity:0.36;fill:#FFFFFF;" points="1500.52,1404.605 1367.251,1402.114 1367.251,1364.535 1500.52,1367.304 
											"/>
					<polygon style="opacity:0.36;fill:#FFFFFF;" points="1500.52,1456.432 1367.251,1454.325 1367.251,1416.747 1500.52,1419.13 
											"/>
					<polygon style="fill:#FFFFFF;" points="1857.635,1462.076 1529.601,1456.891 1529.601,1419.651 1857.635,1425.518 					"/>
					<polygon style="opacity:0.36;fill:#FFFFFF;" points="1500.52,1508.258 1367.251,1506.537 1367.251,1468.958 1500.52,1470.957 
											"/>
					<polygon style="opacity:0.36;fill:#FFFFFF;" points="1500.52,1560.084 1367.251,1558.749 1367.251,1521.17 1500.52,1522.783 
											"/>
					<polygon style="opacity:0.36;fill:#FFFFFF;" points="1500.52,1611.911 1367.251,1610.961 1367.251,1573.382 1500.52,1574.61 
											"/>
					<polygon style="fill:#FFFFFF;" points="2011.325,1514.855 1647.63,1510.158 1647.63,1473.163 2011.325,1478.617 					"/>
					<polygon style="fill:#FFFFFF;" points="2200.272,1567.099 1737.553,1562.461 1737.553,1525.652 2200.272,1531.254 					"/>
					<polygon style="fill:#FFFFFF;" points="2200.272,1616.902 1737.553,1613.602 1737.553,1576.793 2200.272,1581.057 					"/>
					<polygon style="opacity:0.36;fill:#FFFFFF;" points="1500.52,1663.737 1367.251,1663.172 1367.251,1625.594 1500.52,1626.436 
											"/>
					<polygon style="opacity:0.36;fill:#FFFFFF;" points="1500.52,1715.564 1367.251,1715.384 1367.251,1677.805 1500.52,1678.262 
											"/>
					<polygon style="opacity:0.36;fill:#FFFFFF;" points="1500.52,1767.391 1367.251,1767.596 1367.251,1730.017 1500.52,1730.089 
											"/>
					<polygon style="opacity:0.36;fill:#FFFFFF;" points="1500.52,1819.217 1367.251,1819.807 1367.251,1782.229 1500.52,1781.916 
											"/>
					<polygon style="opacity:0.36;fill:#FFFFFF;" points="1500.52,1871.043 1367.251,1872.019 1367.251,1834.441 1500.52,1833.742 
											"/>
					<polygon style="opacity:0.36;fill:#FFFFFF;" points="1500.52,1922.87 1367.251,1924.231 1367.251,1886.652 1500.52,1885.568 
											"/>
					<polygon style="opacity:0.36;fill:#FFFFFF;" points="1500.52,1974.696 1367.251,1976.443 1367.251,1938.864 1500.52,1937.395 
											"/>
					<polygon style="opacity:0.36;fill:#FFFFFF;" points="1500.52,2026.523 1367.251,2028.654 1367.251,1991.076 1500.52,1989.221 
											"/>
					<polygon style="opacity:0.36;fill:#FFFFFF;" points="1500.52,2078.349 1367.251,2080.866 1367.251,2043.287 1500.52,2041.048 
											"/>
					<polygon style="opacity:0.36;fill:#FFFFFF;" points="1500.52,2130.176 1367.251,2133.078 1367.251,2095.499 1500.52,2092.875 
											"/>
					<polygon style="opacity:0.36;fill:#FFFFFF;" points="1500.52,2182.002 1367.251,2185.29 1367.251,2147.711 1500.52,2144.701 
											"/>
					<polygon style="opacity:0.36;fill:#FFFFFF;" points="1500.52,2233.828 1367.251,2237.501 1367.251,2199.923 1500.52,2196.527 
											"/>
					<polygon style="opacity:0.36;fill:#FFFFFF;" points="1500.52,2285.655 1367.251,2289.713 1367.251,2252.135 1500.52,2248.354 
											"/>
					<polygon style="opacity:0.36;fill:#FFFFFF;" points="1500.52,2337.481 1367.251,2341.925 1367.251,2304.346 1500.52,2300.18 
											"/>
					<polygon style="opacity:0.36;fill:#FFFFFF;" points="1500.52,2389.308 1367.251,2394.137 1367.251,2356.558 1500.52,2352.007 
											"/>
					<polygon style="opacity:0.36;fill:#FFFFFF;" points="1500.52,2441.134 1367.251,2446.348 1367.251,2408.77 1500.52,2403.833 
											"/>
					<polygon style="opacity:0.36;fill:#FFFFFF;" points="1500.52,2492.961 1367.251,2498.56 1367.251,2460.981 1500.52,2455.659 
											"/>
					<polygon style="opacity:0.36;fill:#FFFFFF;" points="1500.52,2544.787 1367.251,2550.772 1367.251,2513.193 1500.52,2507.486 
											"/>
					<polygon style="fill:#FFFFFF;" points="1892.154,1209.151 1528.696,1198.152 1528.696,1160.909 1892.154,1172.664 					"/>
					<polygon style="fill:#FFFFFF;" points="2164.654,2265.431 1647.63,2281.175 1647.63,2244.18 2164.654,2229.512 					"/>
					<polygon style="fill:#FFFFFF;" points="2249.435,2312.51 1737.553,2329.578 1737.553,2292.77 2249.435,2276.768 					"/>
					<polygon style="fill:#FFFFFF;" points="2249.435,2362.172 1737.553,2380.719 1737.553,2343.911 2249.435,2326.429 					"/>
					<polygon style="fill:#FFFFFF;" points="2470.019,2403.203 1971.39,2422.711 1971.39,2386.39 2470.019,2367.919 					"/>
					<polygon style="fill:#FFFFFF;" points="2470.019,2452.226 1971.39,2473.177 1971.39,2436.855 2470.019,2416.942 					"/>
					<polygon style="fill:#FFFFFF;" points="2470.019,2501.25 1971.39,2523.642 1971.39,2487.32 2470.019,2465.966 					"/>
					<polygon style="fill:#FFFFFF;" points="1892.154,2223.035 1528.696,2233.052 1528.696,2195.809 1892.154,2186.549 					"/>
					<polygon style="fill:#FFFFFF;" points="2164.654,1716.461 1647.63,1715.762 1647.63,1678.767 2164.654,1680.542 					"/>
					<polygon style="fill:#FFFFFF;" points="2249.435,1766.237 1737.553,1767.025 1737.553,1730.217 2249.435,1730.494 					"/>
					<polygon style="fill:#FFFFFF;" points="2249.435,1815.898 1737.553,1818.166 1737.553,1781.358 2249.435,1780.155 					"/>
					<polygon style="fill:#FFFFFF;" points="2249.435,1865.559 1737.553,1869.308 1737.553,1832.5 2249.435,1829.816 					"/>
					<polygon style="fill:#FFFFFF;" points="1857.635,1919.222 1529.601,1922.573 1529.601,1885.332 1857.635,1882.664 					"/>
					<polygon style="fill:#FFFFFF;" points="2011.325,1968.002 1647.63,1972.768 1647.63,1935.773 2011.325,1931.764 					"/>
					<polygon style="fill:#FFFFFF;" points="2200.272,2015.329 1737.553,2022.731 1737.553,1985.923 2200.272,1979.484 					"/>
					<polygon style="fill:#FFFFFF;" points="2200.272,2065.133 1737.553,2073.872 1737.553,2037.064 2200.272,2029.287 					"/>
					<polygon style="fill:#FFFFFF;" points="2302.851,2112.702 1845.7,2122.658 1845.7,2086.075 2302.851,2077.07 					"/>
					<polygon style="fill:#FFFFFF;" points="2302.851,2162.209 1845.7,2173.487 1845.7,2136.904 2302.851,2126.577 					"/>
					<polygon style="fill:#FFFFFF;" points="1892.154,1665.399 1528.696,1663.857 1528.696,1626.614 1892.154,1628.912 					"/>
					<polygon style="fill:#FFFFFF;" points="1228.839,1287.827 898.635,1279.626 898.635,1225.345 1228.839,1234.514 					"/>
					<polygon style="opacity:0.6;fill:#FFFFFF;" points="813.228,1277.505 875.42,1279.05 875.42,1224.701 813.228,1222.974 					
						"/>
					<polygon style="opacity:0.6;fill:#FFFFFF;" points="1228.839,1364.465 898.635,1357.655 898.635,1303.374 1228.839,1311.151 
											"/>
					<polygon style="opacity:0.6;fill:#FFFFFF;" points="813.228,1355.894 875.42,1357.176 875.42,1302.827 813.228,1301.363 					
						"/>
					<polygon style="opacity:0.6;fill:#FFFFFF;" points="1228.839,1441.103 898.635,1435.683 898.635,1381.403 1228.839,1387.789 
											"/>
					<polygon style="opacity:0.6;fill:#FFFFFF;" points="813.228,1434.282 875.42,1435.303 875.42,1380.954 813.228,1379.751 					
						"/>
					<polygon style="fill:#FFFFFF;" points="1228.839,1985.099 651.941,1992.876 651.941,1937.872 1228.839,1931.785 					"/>
					<polygon style="opacity:0.6;fill:#FFFFFF;" points="1228.839,2068.401 898.635,2074.364 898.635,2020.083 1228.839,2015.088 
											"/>
					<polygon style="opacity:0.6;fill:#FFFFFF;" points="813.228,2075.906 875.42,2074.783 875.42,2020.434 813.228,2021.375 					
						"/>
					<polygon style="opacity:0.6;fill:#FFFFFF;" points="1228.839,2145.039 898.635,2152.393 898.635,2098.112 1228.839,2091.726 
											"/>
					<polygon style="opacity:0.6;fill:#FFFFFF;" points="813.228,2154.294 875.42,2152.91 875.42,2098.561 813.228,2099.764 					
						"/>
					<polygon style="opacity:0.6;fill:#FFFFFF;" points="1228.839,2221.677 898.635,2230.421 898.635,2176.14 1228.839,2168.363 
											"/>
					<polygon style="opacity:0.6;fill:#FFFFFF;" points="813.228,2232.683 875.42,2231.036 875.42,2176.687 813.228,2178.152 					
						"/>
					<polygon style="fill:#FFFFFF;" points="1228.839,1518.26 651.941,1511.238 651.941,1456.234 1228.839,1464.947 					"/>
					<polygon style="opacity:0.6;fill:#FFFFFF;" points="1228.839,1601.562 898.635,1599.054 898.635,1544.774 1228.839,1548.249 
											"/>
					<polygon style="opacity:0.6;fill:#FFFFFF;" points="813.228,1598.406 875.42,1598.878 875.42,1544.529 813.228,1543.875 					
						"/>
					<polygon style="opacity:0.6;fill:#FFFFFF;" points="1228.839,1678.2 898.635,1677.083 898.635,1622.802 1228.839,1624.887 
											"/>
					<polygon style="opacity:0.6;fill:#FFFFFF;" points="813.228,1676.794 875.42,1677.005 875.42,1622.656 813.228,1622.263 					
						"/>
					<polygon style="opacity:0.6;fill:#FFFFFF;" points="1228.839,1832.472 898.635,1834.154 898.635,1779.873 1228.839,1779.158 
											"/>
					<polygon style="opacity:0.6;fill:#FFFFFF;" points="813.228,1834.589 875.42,1834.272 875.42,1779.923 813.228,1780.058 					
						"/>
					<polygon style="opacity:0.6;fill:#FFFFFF;" points="1228.839,1909.11 898.635,1912.182 898.635,1857.902 1228.839,1855.796 
											"/>
					<polygon style="opacity:0.6;fill:#FFFFFF;" points="813.228,1912.977 875.42,1912.399 875.42,1858.05 813.228,1858.446 					
						"/>
					<polygon style="opacity:0.6;fill:#FFFFFF;" points="1228.839,1754.839 898.635,1755.112 898.635,1700.831 1228.839,1701.525 
											"/>
					<polygon style="opacity:0.6;fill:#FFFFFF;" points="813.228,1755.182 875.42,1755.131 875.42,1700.782 813.228,1700.652 					
						"/>
					<polygon style="fill:#FFFFFF;" points="1228.839,2298.289 651.941,2315.995 651.941,2260.991 1228.839,2244.975 					"/>
					<polygon style="opacity:0.6;fill:#FFFFFF;" points="1228.839,2381.591 898.635,2393.237 898.635,2338.956 1228.839,2328.278 
											"/>
					<polygon style="opacity:0.6;fill:#FFFFFF;" points="813.228,2396.249 875.42,2394.056 875.42,2339.707 813.228,2341.718 					
						"/>
					<polygon style="opacity:0.6;fill:#FFFFFF;" points="1228.839,2458.229 898.635,2471.266 898.635,2416.985 1228.839,2404.916 
											"/>
					<polygon style="opacity:0.6;fill:#FFFFFF;" points="813.228,2474.638 875.42,2472.182 875.42,2417.833 813.228,2420.106 					
						"/>
					<polygon style="opacity:0.6;fill:#FFFFFF;" points="1228.839,2534.867 898.635,2549.294 898.635,2495.013 1228.839,2481.554 
											"/>
					<polygon style="opacity:0.6;fill:#FFFFFF;" points="813.228,2553.026 875.42,2550.309 875.42,2495.96 813.228,2498.495 					
						"/>
					<polygon style="opacity:0.6;fill:#FFFFFF;" points="1298.944,2532.069 1286.238,2532.625 1286.238,1153.068 1298.944,1153.479 
											"/>
				</g>
				<path style="opacity:0.3;fill:#FFFFFF;" d="M2875.251,2596.203c-560.124,11.711-686.085,91.688-845.245-4.141
					c-218.7-131.678-119.1-365.913-332.182-488.782c-267.887-154.471-576.749,128.433-716.564-9.491
					c-139.236-137.353,123.789-460.62-28.473-820.964c-61.103-144.608-165.146-238.531-237.019-292.381l-144.983-6.282
					c-55.64-2.411-101.158,34.426-101.158,82.126v1719.247c0,47.701,45.518,83.796,101.158,80.479l2573.084-153.395
					c40.849-2.435,73.925-37.413,73.925-77.984v-25.996C3140.677,2595.906,3021.222,2593.151,2875.251,2596.203z"/>
			</g>
		</g>
		<g>
			<g>
				
					<linearGradient id="SVGID_00000004534864025136953220000004991047538654102420_" gradientUnits="userSpaceOnUse" x1="2614.8171" y1="2452.738" x2="2727.4871" y2="2452.738" gradientTransform="matrix(-0.7793 -0.6266 -0.6266 0.7793 5478.5518 1929.7112)">
					<stop  offset="0" style="stop-color:#311944"/>
					<stop  offset="1" style="stop-color:#893976"/>
				</linearGradient>
				<path style="fill:url(#SVGID_00000004534864025136953220000004991047538654102420_);" d="M1820.528,2161.694
					c0.173-0.024,0.672-0.155,1.041-0.236l1.251-0.264c0.845-0.171,1.711-0.323,2.579-0.456c1.735-0.279,3.498-0.452,5.245-0.582
					c3.501-0.229,6.977-0.17,10.32,0.221c6.702,0.766,12.784,2.935,17.664,6.316c0.594,0.452,1.227,0.831,1.79,1.315l1.689,1.423
					c1.045,1.056,2.121,2.035,3.044,3.214c1.002,1.065,1.808,2.378,2.699,3.556c0.764,1.342,1.633,2.538,2.288,3.98
					c2.84,5.502,4.793,11.815,5.983,18.547c1.472,8.319,9.408,13.869,17.727,12.397c8.319-1.472,13.869-9.408,12.397-17.727
					c-0.139-0.788-0.337-1.551-0.587-2.285l-0.153-0.434c-3.007-8.634-7.13-17.269-12.995-25.141
					c-1.384-1.992-3.111-3.84-4.709-5.706c-1.782-1.773-3.473-3.589-5.463-5.169c-1.88-1.665-3.984-3.104-6.056-4.527l-3.259-1.933
					c-1.087-0.633-2.247-1.143-3.367-1.705c-9.127-4.286-19.013-5.822-28.227-5.396c-4.627,0.201-9.131,0.857-13.505,1.851
					c-2.185,0.514-4.342,1.083-6.473,1.78c-1.067,0.343-2.127,0.707-3.192,1.105c-0.528,0.189-1.071,0.412-1.604,0.619l-1.781,0.75
					c-3.916,1.649-5.753,6.159-4.105,10.075c1.381,3.279,4.769,5.101,8.133,4.638L1820.528,2161.694z"/>
				
					<linearGradient id="SVGID_00000029029890764016084720000010439918944746719923_" gradientUnits="userSpaceOnUse" x1="3082.9324" y1="2385.2239" x2="2977.5317" y2="2425.0405" gradientTransform="matrix(-0.7793 -0.6266 -0.6266 0.7793 5478.5518 1929.7112)">
					<stop  offset="0" style="stop-color:#311944"/>
					<stop  offset="1" style="stop-color:#893976"/>
				</linearGradient>
				<path style="fill:url(#SVGID_00000029029890764016084720000010439918944746719923_);" d="M1623.487,1952.891l0.999-1.654
					c0.282-0.498,0.58-1.003,0.844-1.498c0.548-0.997,1.061-1.993,1.554-2.999c0.996-2.008,1.871-4.06,2.695-6.148
					c1.615-4.185,2.913-8.547,3.78-13.096c1.751-9.056,1.657-19.06-1.268-28.71c-0.394-1.189-0.731-2.411-1.201-3.578l-1.443-3.504
					c-1.11-2.256-2.23-4.545-3.606-6.646c-1.276-2.197-2.83-4.132-4.327-6.151c-1.615-1.851-3.195-3.826-4.967-5.483
					c-6.943-6.939-14.894-12.265-23.003-16.486l-0.331-0.172c-7.494-3.9-16.73-0.988-20.63,6.506
					c-3.9,7.493-0.988,16.73,6.506,20.63c0.71,0.369,1.517,0.703,2.252,0.952c6.489,2.15,12.456,4.992,17.489,8.596
					c1.333,0.856,2.392,1.888,3.609,2.838c1.037,1.051,2.221,2.038,3.13,3.184c1.033,1.083,1.847,2.289,2.741,3.475l1.165,1.876
					c0.398,0.627,0.681,1.308,1.043,1.961c2.641,5.317,3.91,11.647,3.701,18.39c-0.095,3.365-0.538,6.812-1.27,10.244
					c-0.381,1.71-0.806,3.429-1.332,5.106c-0.257,0.839-0.532,1.675-0.823,2.486l-0.442,1.2c-0.134,0.353-0.336,0.828-0.385,0.996
					l-0.455,1.571c-1.181,4.081,1.17,8.347,5.251,9.528C1618.182,1957.293,1621.731,1955.798,1623.487,1952.891z"/>
				
					<linearGradient id="SVGID_00000026124492366014704860000002463912143271804339_" gradientUnits="userSpaceOnUse" x1="2594.9355" y1="2592.9648" x2="2696.4275" y2="2544.0376" gradientTransform="matrix(-0.7793 -0.6266 -0.6266 0.7793 5478.5518 1929.7112)">
					<stop  offset="0" style="stop-color:#311944"/>
					<stop  offset="1" style="stop-color:#893976"/>
				</linearGradient>
				<path style="fill:url(#SVGID_00000026124492366014704860000002463912143271804339_);" d="M1774.231,2251.275
					c0.166,0.054,0.673,0.152,1.04,0.239l1.242,0.305c0.835,0.213,1.681,0.453,2.521,0.709c1.684,0.502,3.347,1.112,4.977,1.753
					c3.253,1.315,6.359,2.877,9.2,4.681c5.705,3.601,10.241,8.195,13.169,13.359c0.339,0.665,0.744,1.281,1.041,1.962l0.903,2.015
					c0.483,1.405,1.027,2.754,1.346,4.217c0.441,1.394,0.596,2.927,0.887,4.375c0.105,1.541,0.369,2.996,0.332,4.58
					c0.169,6.188-0.814,12.724-2.664,19.305c-2.286,8.132,2.452,16.579,10.585,18.865c8.132,2.287,16.578-2.452,18.865-10.585
					c0.216-0.77,0.37-1.543,0.464-2.314l0.05-0.457c1.041-9.083,1.076-18.652-0.789-28.29c-0.381-2.396-1.134-4.81-1.765-7.185
					c-0.836-2.371-1.57-4.741-2.676-7.029c-0.971-2.316-2.241-4.525-3.49-6.708l-2.096-3.156c-0.704-1.043-1.528-2.005-2.293-2.998
					c-6.361-7.824-14.599-13.501-23.083-17.118c-4.255-1.828-8.597-3.193-12.969-4.197c-2.191-0.486-4.382-0.91-6.604-1.208
					c-1.11-0.155-2.223-0.287-3.355-0.391c-0.558-0.058-1.144-0.094-1.715-0.139l-1.929-0.098c-4.243-0.215-7.857,3.05-8.072,7.293
					c-0.18,3.553,2.08,6.666,5.312,7.71L1774.231,2251.275z"/>
				
					<linearGradient id="SVGID_00000035527334644140031440000003101730787237610161_" gradientUnits="userSpaceOnUse" x1="2666.696" y1="2741.2524" x2="2720.3057" y2="2642.1541" gradientTransform="matrix(-0.7793 -0.6266 -0.6266 0.7793 5478.5518 1929.7112)">
					<stop  offset="0" style="stop-color:#311944"/>
					<stop  offset="1" style="stop-color:#893976"/>
				</linearGradient>
				<path style="fill:url(#SVGID_00000035527334644140031440000003101730787237610161_);" d="M1679.093,2302.149
					c0.103,0.141,0.456,0.518,0.703,0.803l0.828,0.974c0.552,0.662,1.097,1.352,1.628,2.051c1.071,1.393,2.062,2.861,3.007,4.336
					c1.867,2.971,3.469,6.056,4.716,9.182c2.515,6.26,3.501,12.641,2.85,18.541c-0.115,0.738-0.147,1.474-0.305,2.2l-0.448,2.162
					c-0.431,1.422-0.781,2.834-1.378,4.206c-0.459,1.388-1.231,2.722-1.844,4.066c-0.816,1.311-1.455,2.645-2.413,3.906
					c-3.487,5.115-8.112,9.837-13.466,14.087c-6.616,5.252-7.722,14.874-2.469,21.49c5.253,6.616,14.874,7.721,21.49,2.469
					c0.627-0.498,1.204-1.034,1.731-1.604l0.308-0.341c6.163-6.753,11.796-14.488,15.929-23.392
					c1.094-2.165,1.898-4.563,2.778-6.857c0.711-2.411,1.505-4.762,1.947-7.264c0.57-2.446,0.834-4.981,1.1-7.48l0.15-3.786
					c0.04-1.257-0.064-2.52-0.103-3.772c-0.573-10.067-3.926-19.493-8.685-27.394c-2.378-3.974-5.098-7.623-8.053-10.998
					c-1.492-1.677-3.019-3.303-4.645-4.846c-0.81-0.775-1.634-1.534-2.491-2.281c-0.418-0.375-0.872-0.746-1.308-1.117l-1.506-1.21
					c-3.313-2.659-8.155-2.129-10.814,1.184c-2.227,2.774-2.218,6.621-0.21,9.361L1679.093,2302.149z"/>
				
					<linearGradient id="SVGID_00000073696868270445839990000006739747593307419316_" gradientUnits="userSpaceOnUse" x1="3178.5081" y1="3701.6692" x2="3081.2417" y2="3644.8198" gradientTransform="matrix(-0.3338 -0.9427 -0.9427 0.3338 6034.5605 3684.5117)">
					<stop  offset="0" style="stop-color:#311944"/>
					<stop  offset="1" style="stop-color:#893976"/>
				</linearGradient>
				<path style="fill:url(#SVGID_00000073696868270445839990000006739747593307419316_);" d="M1555.47,2000.59l0.396-1.891
					c0.101-0.563,0.216-1.139,0.301-1.693c0.188-1.122,0.343-2.231,0.476-3.344c0.277-2.224,0.424-4.45,0.511-6.693
					c0.141-4.483-0.075-9.029-0.762-13.61c-1.341-9.125-4.736-18.536-10.686-26.677c-0.765-0.992-1.487-2.034-2.316-2.98l-2.52-2.83
					c-1.793-1.762-3.607-3.552-5.6-5.08c-1.931-1.652-4.036-2.964-6.116-4.376c-2.137-1.213-4.28-2.555-6.5-3.533
					c-8.847-4.255-18.111-6.653-27.159-7.956l-0.369-0.053c-8.361-1.204-16.116,4.598-17.321,12.959
					c-1.204,8.361,4.598,16.116,12.959,17.32c0.792,0.114,1.665,0.162,2.44,0.154c6.835-0.116,13.406,0.595,19.348,2.332
					c1.541,0.367,2.881,0.992,4.344,1.486c1.326,0.649,2.77,1.19,4.006,1.97c1.333,0.681,2.499,1.55,3.736,2.374l1.719,1.386
					c0.583,0.46,1.075,1.009,1.632,1.506c4.25,4.145,7.54,9.7,9.571,16.133c1.023,3.206,1.744,6.607,2.188,10.088
					c0.206,1.74,0.373,3.503,0.43,5.259c0.034,0.877,0.051,1.756,0.045,2.618l-0.021,1.279c-0.01,0.377-0.043,0.893-0.034,1.067
					l0.09,1.633c0.234,4.242,3.863,7.491,8.105,7.256C1551.917,2006.498,1554.772,2003.914,1555.47,2000.59z"/>
				
					<linearGradient id="SVGID_00000074425944871918062480000014450872327258489773_" gradientUnits="userSpaceOnUse" x1="3074.5005" y1="2694.3538" x2="2990.8" y2="2618.9292" gradientTransform="matrix(-0.7793 -0.6266 -0.6266 0.7793 5478.5518 1929.7112)">
					<stop  offset="0" style="stop-color:#311944"/>
					<stop  offset="1" style="stop-color:#893976"/>
				</linearGradient>
				<path style="fill:url(#SVGID_00000074425944871918062480000014450872327258489773_);" d="M1499.03,2109.639l-1.012-1.646
					c-0.313-0.479-0.626-0.976-0.945-1.437c-0.635-0.944-1.285-1.856-1.953-2.756c-1.328-1.806-2.75-3.524-4.229-5.213
					c-2.979-3.354-6.26-6.507-9.907-9.363c-7.246-5.707-16.18-10.208-26.097-12.033c-1.238-0.194-2.478-0.455-3.73-0.572
					l-3.775-0.323c-2.513-0.048-5.062-0.101-7.559,0.159c-2.538,0.128-4.969,0.621-7.45,1.026c-2.386,0.587-4.865,1.086-7.15,1.901
					c-9.35,2.99-17.728,7.615-25.196,12.887l-0.305,0.215c-6.901,4.872-8.546,14.416-3.674,21.317
					c4.872,6.901,14.416,8.547,21.317,3.675c0.654-0.461,1.32-1.026,1.879-1.566c4.885-4.782,10.146-8.781,15.657-11.604
					c1.372-0.792,2.775-1.26,4.177-1.906c1.409-0.44,2.829-1.04,4.264-1.323c1.436-0.422,2.88-0.592,4.345-0.842l2.202-0.176
					c0.74-0.066,1.474-0.006,2.221-0.028c5.936,0.089,12.144,1.863,18.041,5.14c2.947,1.626,5.808,3.601,8.522,5.824
					c1.345,1.122,2.678,2.288,3.927,3.524c0.628,0.614,1.245,1.24,1.833,1.871l0.864,0.943c0.252,0.281,0.582,0.678,0.709,0.798
					l1.188,1.124c3.086,2.92,7.954,2.786,10.874-0.299C1500.51,2116.372,1500.808,2112.532,1499.03,2109.639z"/>
				
					<linearGradient id="SVGID_00000025433415642424046730000015111263079439743400_" gradientUnits="userSpaceOnUse" x1="2858.4995" y1="2416.6511" x2="2855.1672" y2="2748.2239" gradientTransform="matrix(-0.7793 -0.6266 -0.6266 0.7793 5478.5518 1929.7112)">
					<stop  offset="0" style="stop-color:#311944"/>
					<stop  offset="1" style="stop-color:#893976"/>
				</linearGradient>
				<path style="fill:url(#SVGID_00000025433415642424046730000015111263079439743400_);" d="M1517.906,2020.312
					c-49.118,70.999-82.762,207.137-6.304,272.87c72.693,62.497,197.156,27.845,261.618-39.088
					c80.696-83.79,86.347-238.069,9.837-298.537c-59.007-46.634-146.778-21.573-154.959-19.114
					C1563.553,1955.838,1529.661,2003.319,1517.906,2020.312z"/>
				
					<linearGradient id="SVGID_00000033355541104561799300000018348587678451929012_" gradientUnits="userSpaceOnUse" x1="2910.9265" y1="2188.1531" x2="2884.2681" y2="2314.7798" gradientTransform="matrix(-0.7793 -0.6266 -0.6266 0.7793 5478.5518 1929.7112)">
					<stop  offset="0" style="stop-color:#FFC444"/>
					<stop  offset="0.9964" style="stop-color:#F36F56"/>
				</linearGradient>
				<path style="fill:url(#SVGID_00000033355541104561799300000018348587678451929012_);" d="M1628.097,1936.442
					c8.181-2.458,95.952-27.52,154.959,19.114c43.829,34.638,60.684,100.062,51.927,165.384
					c-18.093-28.836-44.623-64.412-81.161-98.138c-34.831-32.15-78.759-62.611-133.139-83.946
					C1623.113,1938.016,1625.573,1937.201,1628.097,1936.442z"/>
				
					<linearGradient id="SVGID_00000109005723931202680820000005896755122004706478_" gradientUnits="userSpaceOnUse" x1="2981.2041" y1="2388.5269" x2="2987.7427" y2="1796.8268" gradientTransform="matrix(-0.7793 -0.6266 -0.6266 0.7793 5478.5518 1929.7112)">
					<stop  offset="0" style="stop-color:#FFC444"/>
					<stop  offset="0.9964" style="stop-color:#F36F56"/>
				</linearGradient>
				<path style="fill:url(#SVGID_00000109005723931202680820000005896755122004706478_);" d="M1736.703,1944.303
					c4.965-6.755,9.532-13.522,14.031-20.453c4.469-6.922,8.798-13.938,12.941-21.073c4.144-7.135,8.12-14.377,11.934-21.72
					c3.792-7.356,7.367-14.84,10.774-22.422c6.674-15.227,12.565-30.929,16.693-47.373l0.794-3.077l0.674-3.118
					c0.437-2.083,0.925-4.153,1.316-6.253c0.711-4.221,1.497-8.429,1.918-12.737c0.602-4.266,0.745-8.635,1.02-12.982
					c-0.004-4.39,0.11-8.779-0.313-13.221l-0.231-3.326c-0.075-1.109-0.29-2.221-0.431-3.331l-0.482-3.336
					c-0.186-1.11-0.27-2.23-0.561-3.333l-1.527-6.645c-0.241-1.144-0.575-2.106-0.86-3.167c-0.289-1.038-0.599-2.075-0.927-3.113
					c-2.579-8.295-5.684-16.614-10.548-24.854c-2.455-4.106-5.374-8.227-9.455-12.083c-2.045-1.916-4.404-3.766-7.241-5.326
					c-2.823-1.554-6.172-2.799-9.833-3.297c-3.651-0.529-7.549-0.198-11.029,0.84c-3.501,1.021-6.593,2.669-9.174,4.554
					c-5.189,3.807-8.685,8.37-11.414,12.963c-2.716,4.621-4.613,9.385-5.999,14.203c-1.386,4.82-2.23,9.704-2.613,14.61
					c-0.385,4.905-0.312,9.838,0.24,14.735c0.258,2.451,0.661,4.89,1.159,7.313l0.393,1.815l0.406,1.683
					c0.267,1.116,0.577,2.255,0.893,3.396c0.638,2.285,1.399,4.64,2.37,7.114c1.001,2.485,2.135,5.073,4.128,8.068
					c0.468,0.725,1.089,1.535,1.697,2.305l1.076,1.227c0.356,0.399,0.833,0.85,1.258,1.259c1.8,1.669,4.309,3.526,7.808,4.705
					c1.755,0.57,3.683,0.94,5.604,0.983c1.944,0.074,3.765-0.187,5.441-0.586c3.316-0.842,5.692-2.216,7.568-3.499
					c1.872-1.306,3.271-2.595,4.481-3.828c1.203-1.235,2.205-2.425,3.111-3.585c1.804-2.321,3.211-4.523,4.501-6.702
					c1.282-2.176,2.402-4.314,3.448-6.461c0.522-1.074,1.023-2.147,1.507-3.238l0.718-1.655l0.357-0.858l0.399-1.008l0.044-0.112
					c3.102-7.827-0.728-16.687-8.555-19.79c-7.827-3.102-16.688,0.728-19.79,8.556c-0.131,0.33-0.26,0.698-0.367,1.031
					c0.004,0.008-0.083,0.264-0.138,0.423l-0.199,0.567l-0.434,1.177c-0.299,0.792-0.618,1.585-0.944,2.365
					c-0.653,1.558-1.347,3.075-2.058,4.455c-0.706,1.374-1.443,2.65-2.085,3.592c-0.598,0.935-1.268,1.573-0.891,1.33
					c0.219-0.109,0.775-0.487,2.112-0.82c0.685-0.177,1.492-0.252,2.414-0.236c0.9,0.043,1.822,0.2,2.6,0.485
					c1.558,0.536,2.335,1.238,2.633,1.538c0.063,0.051,0.146,0.175,0.165,0.191c0.024,0.025,0.041,0.057,0.051,0.093
					c-0.02-0.033-0.051-0.008-0.141-0.137c-0.337-0.355-0.991-1.459-1.573-2.726c-0.596-1.289-1.193-2.783-1.739-4.399
					c-0.271-0.81-0.547-1.624-0.801-2.479l-0.382-1.271l-0.319-1.159c-0.41-1.55-0.768-3.121-1.024-4.715
					c-0.547-3.18-0.777-6.435-0.708-9.668c0.066-3.231,0.442-6.453,1.139-9.516c0.687-3.061,1.696-5.987,2.975-8.479
					c1.254-2.494,2.83-4.542,4.162-5.666c0.661-0.582,1.218-0.889,1.615-1.068c0.408-0.181,0.658-0.27,1.052-0.268
					c0.388-0.004,0.96,0.083,1.739,0.43c0.772,0.341,1.713,0.939,2.691,1.751c1.97,1.62,4.044,4.052,5.908,6.845
					c3.778,5.612,6.906,12.494,9.532,19.629c0.337,0.89,0.661,1.789,0.968,2.701c0.292,0.894,0.678,1.845,0.889,2.691l1.501,5.204
					c0.293,0.855,0.394,1.778,0.595,2.668l0.54,2.693c0.165,0.903,0.404,1.787,0.512,2.708l0.336,2.762
					c0.572,3.661,0.657,7.437,0.885,11.196c-0.052,3.796,0.059,7.594-0.281,11.433c-0.155,3.831-0.669,7.677-1.095,11.529
					c-0.251,1.925-0.6,3.848-0.894,5.774l-0.459,2.891l-0.581,2.882c-2.98,15.402-7.745,30.645-13.359,45.611
					c-2.879,7.464-5.937,14.881-9.226,22.215c-3.312,7.324-6.798,14.584-10.462,21.765c-3.663,7.181-7.523,14.272-11.527,21.282
					c-4.006,6.979-8.202,13.974-12.543,20.609l-0.054,0.082c-1.39,2.125-0.795,4.975,1.33,6.365
					C1732.532,1946.77,1735.266,1946.252,1736.703,1944.303z"/>
				
					<linearGradient id="SVGID_00000038403705330337846240000009798842951719809933_" gradientUnits="userSpaceOnUse" x1="2722.4434" y1="2385.6648" x2="2728.9819" y2="1793.9504" gradientTransform="matrix(-0.7793 -0.6266 -0.6266 0.7793 5478.5518 1929.7112)">
					<stop  offset="0" style="stop-color:#FFC444"/>
					<stop  offset="0.9964" style="stop-color:#F36F56"/>
				</linearGradient>
				<path style="fill:url(#SVGID_00000038403705330337846240000009798842951719809933_);" d="M1822.632,2024.076
					c5.548-5.665,11.479-11.265,17.435-16.676c5.987-5.416,12.083-10.708,18.31-15.829c6.226-5.121,12.568-10.085,19.01-14.892
					c6.457-4.788,13.044-9.367,19.716-13.782c13.411-8.697,27.275-16.624,41.678-22.842l2.69-1.187l2.725-1.069
					c1.819-0.701,3.622-1.454,5.448-2.113c3.671-1.244,7.317-2.572,11.025-3.546c3.677-1.157,7.41-1.864,11.106-2.73
					c3.721-0.584,7.426-1.312,11.125-1.54l2.77-0.265c0.923-0.093,1.837-0.049,2.754-0.082l2.747-0.051
					c0.912,0.005,1.835-0.095,2.733,0.008l5.405,0.348c0.872,0.024,1.883,0.197,2.819,0.29c0.957,0.104,1.905,0.227,2.846,0.365
					c7.532,1.032,14.926,2.609,21.218,5.094c3.129,1.221,5.949,2.724,7.954,4.301c1.004,0.78,1.79,1.571,2.289,2.252
					c0.506,0.686,0.714,1.226,0.793,1.606c0.087,0.385,0.054,0.648-0.036,1.085c-0.089,0.426-0.27,1.035-0.696,1.806
					c-0.813,1.542-2.474,3.521-4.641,5.281c-2.159,1.785-4.8,3.398-7.642,4.726c-2.842,1.339-5.908,2.398-9.05,3.156
					c-3.142,0.762-6.371,1.237-9.594,1.385c-1.612,0.092-3.223,0.08-4.825,0.012l-1.2-0.062l-1.323-0.101
					c-0.889-0.064-1.744-0.158-2.593-0.249c-1.695-0.186-3.283-0.448-4.67-0.753c-1.362-0.296-2.58-0.698-3-0.951
					c-0.145-0.061-0.128-0.096-0.164-0.109c0.037,0.002,0.072,0.012,0.102,0.03c0.02,0.014,0.159,0.07,0.222,0.12
					c0.357,0.227,1.209,0.835,2.067,2.242c0.445,0.699,0.796,1.565,1.032,2.435c0.214,0.898,0.314,1.702,0.288,2.409
					c-0.037,1.377-0.288,2.002-0.347,2.238c-0.157,0.42,0.323-0.371,1.107-1.156c0.782-0.83,1.87-1.823,3.06-2.808
					c1.195-0.991,2.528-1.994,3.909-2.967c0.691-0.486,1.398-0.967,2.107-1.429l1.056-0.677l0.511-0.316
					c0.144-0.088,0.375-0.228,0.384-0.225c7.299-4.198,9.812-13.518,5.614-20.816c-4.198-7.298-13.517-9.812-20.816-5.614
					c-0.307,0.177-0.607,0.363-0.897,0.557l-0.131,0.089l-0.899,0.607l-0.761,0.533l-1.462,1.057
					c-0.961,0.707-1.902,1.427-2.839,2.167c-1.872,1.483-3.719,3.037-5.569,4.756c-1.851,1.728-3.699,3.575-5.579,5.836
					c-0.939,1.133-1.886,2.367-2.833,3.808c-0.944,1.446-1.903,3.09-2.776,5.199c-0.85,2.109-1.682,4.724-1.792,8.143
					c-0.03,1.723,0.106,3.557,0.596,5.44c0.454,1.868,1.23,3.671,2.163,5.262c1.902,3.164,4.255,5.216,6.272,6.615
					c0.49,0.327,1.034,0.697,1.499,0.958l1.43,0.788c0.883,0.428,1.806,0.861,2.615,1.162c3.354,1.303,6.124,1.855,8.766,2.299
					c2.625,0.417,5.089,0.655,7.458,0.787c1.183,0.063,2.362,0.122,3.509,0.143l1.731,0.034l1.857-0.006
					c2.474-0.034,4.942-0.164,7.391-0.438c4.902-0.512,9.734-1.501,14.443-2.93c4.71-1.428,9.299-3.301,13.708-5.689
					c4.408-2.389,8.653-5.264,12.583-8.91c3.9-3.652,7.605-8.046,10.209-13.932c1.287-2.925,2.232-6.299,2.477-9.938
					c0.267-3.621-0.247-7.499-1.548-10.952c-1.273-3.469-3.208-6.472-5.332-8.896c-2.133-2.436-4.446-4.342-6.757-5.928
					c-4.643-3.158-9.295-5.123-13.832-6.64c-9.093-2.981-17.884-4.228-26.54-4.965c-1.083-0.097-2.163-0.178-3.239-0.237
					c-1.097-0.051-2.109-0.17-3.277-0.16l-6.818-0.065c-1.14-0.047-2.251,0.111-3.376,0.168l-3.361,0.246
					c-1.115,0.101-2.247,0.129-3.346,0.294l-3.298,0.488c-4.43,0.541-8.692,1.595-12.98,2.534
					c-4.187,1.202-8.423,2.279-12.461,3.784c-4.117,1.336-8.058,3.008-12.028,4.608c-1.967,0.834-3.884,1.755-5.824,2.629
					l-2.901,1.328l-2.834,1.436c-15.175,7.564-29.245,16.689-42.683,26.477c-6.674,4.956-13.215,10.055-19.585,15.338
					c-6.353,5.301-12.573,10.74-18.651,16.32c-6.079,5.579-12.002,11.314-17.803,17.165c-5.803,5.883-11.431,11.797-16.963,18.096
					c-1.676,1.908-1.487,4.813,0.421,6.489c1.842,1.617,4.612,1.498,6.31-0.228L1822.632,2024.076z"/>
			</g>
			
				<linearGradient id="SVGID_00000089555232215232148630000011256499936272435116_" gradientUnits="userSpaceOnUse" x1="1375.1169" y1="2173.4368" x2="1753.8214" y2="2173.4368">
				<stop  offset="0" style="stop-color:#FF9085"/>
				<stop  offset="1" style="stop-color:#FB6FBB"/>
			</linearGradient>
			<path style="fill:url(#SVGID_00000089555232215232148630000011256499936272435116_);" d="M1753.821,2022.803
				c0,0-286.468,352.091-349.453,295.007c-62.985-57.084-4.648-225.327-4.648-225.327L1753.821,2022.803z"/>
			
				<linearGradient id="SVGID_00000168799658428489373150000013617718099513801638_" gradientUnits="userSpaceOnUse" x1="1532.3496" y1="2233.1147" x2="1753.8214" y2="2233.1147">
				<stop  offset="0" style="stop-color:#FF9085"/>
				<stop  offset="1" style="stop-color:#FB6FBB"/>
			</linearGradient>
			<path style="fill:url(#SVGID_00000168799658428489373150000013617718099513801638_);" d="M1753.821,2022.803l-38.036,322.883
				c0,0-89.67,130.95-165.241,89.704C1457.129,2384.405,1753.821,2022.803,1753.821,2022.803z"/>
			
				<linearGradient id="SVGID_00000140013335227220894140000013600310196124131215_" gradientUnits="userSpaceOnUse" x1="9426.708" y1="-7777.5742" x2="8218.0898" y2="-6197.0752" gradientTransform="matrix(0.7793 0.6266 -0.6266 0.7793 1939.8146 -915.0416)">
				<stop  offset="0" style="stop-color:#311944"/>
				<stop  offset="1" style="stop-color:#A03976"/>
			</linearGradient>
			<path style="fill:url(#SVGID_00000140013335227220894140000013600310196124131215_);" d="M1753.821,2022.803l-397.553,136.215
				c-7.17,2.457-14.41-3.495-13.377-11.003c7.245-52.689,48.233-216.112,277.79-209.157
				C1620.682,1938.857,1703.854,1968.781,1753.821,2022.803z"/>
			
				<linearGradient id="SVGID_00000136384535159348252890000007306587180670081190_" gradientUnits="userSpaceOnUse" x1="9613.1035" y1="-7634.6426" x2="8404.5146" y2="-6054.1826" gradientTransform="matrix(0.7793 0.6266 -0.6266 0.7793 1939.8146 -915.0416)">
				<stop  offset="0" style="stop-color:#311944"/>
				<stop  offset="1" style="stop-color:#A03976"/>
			</linearGradient>
			<path style="fill:url(#SVGID_00000136384535159348252890000007306587180670081190_);" d="M1675.302,2417.818l78.519-395.015
				c0,0,46.008,38.898,81.161,98.138c0,0,90.51,174.556-144.656,307.701C1682.741,2432.936,1673.603,2426.367,1675.302,2417.818z"/>
		</g>
		<g>
			<g>
				
					<linearGradient id="SVGID_00000034768799450168929380000006090340225180609416_" gradientUnits="userSpaceOnUse" x1="9127.0039" y1="636.7093" x2="9222.8867" y2="636.7093" gradientTransform="matrix(-0.7853 0.6191 0.6191 0.7853 9754.3164 -5083.4272)">
					<stop  offset="0" style="stop-color:#311944"/>
					<stop  offset="1" style="stop-color:#893976"/>
				</linearGradient>
				<path style="fill:url(#SVGID_00000034768799450168929380000006090340225180609416_);" d="M2931.163,1128.472
					c0.013-0.148,0-0.587,0.002-0.908l0.019-1.088c0.019-0.733,0.059-1.481,0.114-2.226c0.099-1.492,0.292-2.987,0.518-4.461
					c0.478-2.948,1.19-5.819,2.152-8.517c1.914-5.413,4.872-10.043,8.606-13.446c0.488-0.407,0.923-0.859,1.432-1.234l1.502-1.129
					c1.075-0.665,2.092-1.371,3.246-1.911c1.074-0.628,2.317-1.047,3.464-1.56c1.259-0.378,2.417-0.871,3.738-1.139
					c5.104-1.306,10.713-1.722,16.523-1.426c7.18,0.366,13.297-5.158,13.662-12.338c0.365-7.18-5.158-13.297-12.338-13.662
					c-0.68-0.035-1.351-0.016-2.007,0.051l-0.389,0.044c-7.734,0.847-15.682,2.62-23.329,5.984c-1.916,0.768-3.778,1.848-5.63,2.818
					c-1.81,1.14-3.639,2.196-5.329,3.545c-1.74,1.242-3.334,2.712-4.91,4.159l-2.225,2.334c-0.732,0.781-1.376,1.646-2.056,2.467
					c-5.295,6.753-8.454,14.659-9.858,22.382c-0.716,3.876-1.031,7.736-1.04,11.554c0.01,1.91,0.07,3.808,0.242,5.708
					c0.081,0.951,0.181,1.899,0.308,2.858c0.057,0.474,0.137,0.967,0.207,1.449l0.282,1.62c0.62,3.562,4.011,5.946,7.573,5.326
					c2.983-0.52,5.14-2.982,5.398-5.861L2931.163,1128.472z"/>
				
					<linearGradient id="SVGID_00000029731925221630443420000011094867552431650706_" gradientUnits="userSpaceOnUse" x1="9525.3701" y1="579.2521" x2="9435.6748" y2="613.1362" gradientTransform="matrix(-0.7853 0.6191 0.6191 0.7853 9754.3164 -5083.4272)">
					<stop  offset="0" style="stop-color:#311944"/>
					<stop  offset="1" style="stop-color:#893976"/>
				</linearGradient>
				<path style="fill:url(#SVGID_00000029731925221630443420000011094867552431650706_);" d="M2720.412,1252.077l-1.181-1.143
					c-0.359-0.329-0.721-0.673-1.082-0.986c-0.722-0.645-1.45-1.26-2.191-1.861c-1.475-1.209-3.01-2.326-4.586-3.408
					c-3.163-2.137-6.533-4.046-10.141-5.632c-7.177-3.179-15.492-5.009-24.053-4.423c-1.062,0.1-2.139,0.147-3.196,0.314
					l-3.181,0.529c-2.083,0.49-4.195,0.983-6.199,1.724c-2.065,0.64-3.967,1.559-5.927,2.416c-1.844,0.987-3.783,1.92-5.495,3.074
					c-7.079,4.435-13.012,10.014-18.06,15.934l-0.206,0.242c-4.664,5.471-4.01,13.687,1.462,18.351
					c5.471,4.664,13.687,4.01,18.351-1.462c0.442-0.518,0.872-1.125,1.219-1.686c3.02-4.972,6.516-9.379,10.465-12.866
					c0.964-0.942,2.022-1.624,3.042-2.452c1.069-0.66,2.114-1.454,3.237-1.989c1.095-0.65,2.25-1.095,3.405-1.61l1.778-0.608
					c0.596-0.21,1.214-0.316,1.825-0.491c4.913-1.177,10.406-1.022,15.958,0.437c2.772,0.72,5.547,1.746,8.254,3.006
					c1.346,0.642,2.69,1.322,3.981,2.079c0.647,0.373,1.288,0.76,1.905,1.157l0.911,0.595c0.267,0.179,0.623,0.437,0.753,0.509
					l1.216,0.677c3.159,1.758,7.146,0.621,8.903-2.538C2723.051,1257.316,2722.488,1254.088,2720.412,1252.077z"/>
				
					<linearGradient id="SVGID_00000173149431733250800330000015285301998520982714_" gradientUnits="userSpaceOnUse" x1="9110.085" y1="756.0428" x2="9196.4551" y2="714.4055" gradientTransform="matrix(-0.7853 0.6191 0.6191 0.7853 9754.3164 -5083.4272)">
					<stop  offset="0" style="stop-color:#311944"/>
					<stop  offset="1" style="stop-color:#893976"/>
				</linearGradient>
				<path style="fill:url(#SVGID_00000173149431733250800330000015285301998520982714_);" d="M2996.633,1183.952
					c0.076-0.128,0.255-0.529,0.396-0.817l0.49-0.972c0.336-0.652,0.696-1.308,1.069-1.955c0.738-1.301,1.561-2.564,2.403-3.793
					c1.711-2.447,3.599-4.725,5.637-6.738c4.074-4.045,8.75-6.931,13.591-8.375c0.616-0.154,1.205-0.373,1.826-0.489l1.844-0.365
					c1.258-0.133,2.48-0.326,3.754-0.313c1.24-0.1,2.542,0.064,3.798,0.099c1.298,0.206,2.555,0.266,3.862,0.598
					c5.165,1.04,10.398,3.102,15.503,5.891c6.309,3.447,14.218,1.127,17.665-5.181c3.448-6.309,1.127-14.218-5.181-17.665
					c-0.597-0.326-1.209-0.601-1.83-0.826l-0.369-0.129c-7.335-2.595-15.264-4.45-23.613-4.74c-2.06-0.141-4.206,0.024-6.295,0.093
					c-2.126,0.241-4.232,0.398-6.34,0.879c-2.106,0.364-4.181,0.996-6.229,1.615l-3.017,1.136c-0.999,0.385-1.954,0.885-2.924,1.33
					c-7.702,3.783-13.981,9.533-18.599,15.88c-2.328,3.181-4.288,6.521-5.954,9.956c-0.821,1.725-1.591,3.461-2.261,5.247
					c-0.34,0.891-0.662,1.788-0.964,2.708c-0.155,0.452-0.296,0.931-0.442,1.396l-0.449,1.581c-0.988,3.478,1.031,7.098,4.509,8.086
					c2.913,0.827,5.925-0.454,7.407-2.935L2996.633,1183.952z"/>
				
					<linearGradient id="SVGID_00000042695852904776329970000006695568383338673331_" gradientUnits="userSpaceOnUse" x1="9171.1543" y1="882.2356" x2="9216.7764" y2="797.9025" gradientTransform="matrix(-0.7853 0.6191 0.6191 0.7853 9754.3164 -5083.4272)">
					<stop  offset="0" style="stop-color:#311944"/>
					<stop  offset="1" style="stop-color:#893976"/>
				</linearGradient>
				<path style="fill:url(#SVGID_00000042695852904776329970000006695568383338673331_);" d="M3020.684,1272.559
					c0.136-0.059,0.517-0.28,0.8-0.43l0.966-0.501c0.654-0.332,1.33-0.653,2.012-0.959c1.359-0.623,2.766-1.164,4.169-1.667
					c2.82-0.982,5.685-1.722,8.515-2.16c5.672-0.892,11.152-0.493,15.921,1.172c0.59,0.236,1.195,0.403,1.767,0.672l1.708,0.784
					c1.097,0.629,2.201,1.188,3.226,1.945c1.064,0.646,2.023,1.541,3.021,2.305c0.931,0.927,1.916,1.711,2.78,2.746
					c3.577,3.868,6.612,8.604,9.116,13.854c3.094,6.489,10.864,9.241,17.353,6.146c6.489-3.095,9.24-10.864,6.146-17.353
					c-0.293-0.615-0.628-1.196-1-1.741l-0.224-0.321c-4.425-6.399-9.767-12.546-16.364-17.672c-1.587-1.32-3.423-2.444-5.157-3.611
					c-1.864-1.05-3.663-2.156-5.653-3c-1.92-0.939-3.972-1.642-5.994-2.339l-3.112-0.847c-1.035-0.272-2.102-0.427-3.148-0.634
					c-8.459-1.444-16.916-0.461-24.376,1.979c-3.75,1.215-7.295,2.775-10.657,4.582c-1.676,0.917-3.316,1.874-4.905,2.929
					c-0.797,0.524-1.584,1.063-2.367,1.631c-0.391,0.275-0.785,0.581-1.176,0.872l-1.291,1.019
					c-2.837,2.241-3.321,6.357-1.081,9.195c1.876,2.376,5.069,3.102,7.723,1.959L3020.684,1272.559z"/>
				
					<linearGradient id="SVGID_00000043419407114609366220000018195176676990561962_" gradientUnits="userSpaceOnUse" x1="9613.5518" y1="5533.5781" x2="9530.7744" y2="5485.1973" gradientTransform="matrix(-0.9935 0.1141 0.1141 0.9935 11589.3291 -5232.3159)">
					<stop  offset="0" style="stop-color:#311944"/>
					<stop  offset="1" style="stop-color:#893976"/>
				</linearGradient>
				<path style="fill:url(#SVGID_00000043419407114609366220000018195176676990561962_);" d="M2747.002,1317.585l-1.493-0.689
					c-0.448-0.192-0.903-0.396-1.347-0.572c-0.895-0.37-1.785-0.71-2.683-1.032c-1.792-0.654-3.61-1.2-5.454-1.7
					c-3.691-0.972-7.503-1.659-11.433-1.964c-7.824-0.628-16.277,0.393-24.163,3.776c-0.969,0.445-1.97,0.845-2.913,1.353
					l-2.827,1.551c-1.803,1.151-3.634,2.314-5.281,3.676c-1.738,1.286-3.228,2.782-4.795,4.238c-1.414,1.541-2.936,3.063-4.17,4.717
					c-5.216,6.526-8.972,13.752-11.778,21.008l-0.115,0.296c-2.594,6.705,0.74,14.243,7.445,16.837
					c6.705,2.593,14.243-0.74,16.836-7.445c0.246-0.635,0.452-1.35,0.593-1.994c1.207-5.691,3.05-11.005,5.624-15.602
					c0.598-1.208,1.372-2.2,2.061-3.32c0.791-0.976,1.515-2.07,2.398-2.946c0.819-0.976,1.762-1.777,2.681-2.646l1.477-1.162
					c0.493-0.395,1.042-0.7,1.561-1.067c4.248-2.734,9.483-4.404,15.206-4.862c2.854-0.237,5.812-0.186,8.784,0.109
					c1.482,0.161,2.976,0.359,4.444,0.646c0.734,0.139,1.467,0.292,2.18,0.462l1.056,0.261c0.311,0.08,0.732,0.206,0.878,0.231
					l1.372,0.237c3.563,0.614,6.949-1.775,7.564-5.339C2751.225,1321.658,2749.626,1318.797,2747.002,1317.585z"/>
				
					<linearGradient id="SVGID_00000091008860999596375760000006439890855879922620_" gradientUnits="userSpaceOnUse" x1="9518.1963" y1="842.3224" x2="9446.9678" y2="778.1358" gradientTransform="matrix(-0.7853 0.6191 0.6191 0.7853 9754.3164 -5083.4272)">
					<stop  offset="0" style="stop-color:#311944"/>
					<stop  offset="1" style="stop-color:#893976"/>
				</linearGradient>
				<path style="fill:url(#SVGID_00000091008860999596375760000006439890855879922620_);" d="M2826.683,1385.19l-1.558,0.526
					c-0.457,0.168-0.928,0.333-1.372,0.51c-0.904,0.346-1.784,0.712-2.658,1.094c-1.751,0.757-3.448,1.609-5.13,2.513
					c-3.349,1.831-6.591,3.951-9.655,6.431c-6.115,4.921-11.552,11.473-14.957,19.35c-0.397,0.99-0.85,1.968-1.186,2.985
					l-0.988,3.069c-0.519,2.075-1.049,4.179-1.31,6.3c-0.378,2.129-0.433,4.24-0.57,6.375c0.032,2.091-0.027,4.242,0.213,6.293
					c0.697,8.325,2.935,16.155,5.884,23.355l0.12,0.294c2.725,6.653,10.327,9.837,16.979,7.113
					c6.653-2.725,9.837-10.327,7.113-16.979c-0.258-0.63-0.599-1.291-0.94-1.857c-3.034-4.963-5.348-10.09-6.638-15.198
					c-0.396-1.289-0.516-2.542-0.785-3.828c-0.096-1.253-0.323-2.544-0.283-3.789c-0.076-1.271,0.058-2.502,0.13-3.764l0.274-1.86
					c0.086-0.626,0.276-1.224,0.4-1.847c1.206-4.906,3.861-9.717,7.703-13.983c1.911-2.134,4.094-4.13,6.456-5.958
					c1.187-0.902,2.408-1.785,3.672-2.585c0.629-0.404,1.266-0.796,1.901-1.163l0.947-0.536c0.281-0.156,0.673-0.353,0.797-0.436
					l1.159-0.771c3.01-2.002,3.828-6.066,1.825-9.076C2832.55,1385.246,2829.422,1384.267,2826.683,1385.19z"/>
				
					<linearGradient id="SVGID_00000072986806269165890150000003259983315713712515_" gradientUnits="userSpaceOnUse" x1="9334.3789" y1="605.998" x2="9331.543" y2="888.1671" gradientTransform="matrix(-0.7853 0.6191 0.6191 0.7853 9754.3164 -5083.4272)">
					<stop  offset="0" style="stop-color:#311944"/>
					<stop  offset="1" style="stop-color:#893976"/>
				</linearGradient>
				<path style="fill:url(#SVGID_00000072986806269165890150000003259983315713712515_);" d="M2756.196,1352.501
					c49.519,54.276,156.013,108.141,225.112,57.263c65.695-48.372,60.69-158.208,17.469-224.435
					c-54.106-82.906-180.985-117.013-245.725-65.087c-49.93,40.046-45.881,117.621-45.403,124.875
					C2711.427,1302.347,2744.344,1339.51,2756.196,1352.501z"/>
				
					<linearGradient id="SVGID_00000103233809438245728010000006582440793446619537_" gradientUnits="userSpaceOnUse" x1="9378.9932" y1="411.5442" x2="9356.3066" y2="519.305" gradientTransform="matrix(-0.7853 0.6191 0.6191 0.7853 9754.3164 -5083.4272)">
					<stop  offset="0" style="stop-color:#FFC444"/>
					<stop  offset="0.9964" style="stop-color:#F36F56"/>
				</linearGradient>
				<path style="fill:url(#SVGID_00000103233809438245728010000006582440793446619537_);" d="M2707.649,1245.117
					c-0.479-7.254-4.527-84.829,45.403-124.875c37.086-29.746,94.561-31.249,147.069-11.53
					c-27.366,9.507-61.931,24.726-96.871,48.599c-33.306,22.758-66.948,53.382-95.012,94.416
					C2708.004,1249.551,2707.797,1247.355,2707.649,1245.117z"/>
				
					<linearGradient id="SVGID_00000180362672721705837070000014061733454070793658_" gradientUnits="userSpaceOnUse" x1="9438.7988" y1="582.0637" x2="9444.3623" y2="78.5236" gradientTransform="matrix(-0.7853 0.6191 0.6191 0.7853 9754.3164 -5083.4272)">
					<stop  offset="0" style="stop-color:#FFC444"/>
					<stop  offset="0.9964" style="stop-color:#F36F56"/>
				</linearGradient>
				<path style="fill:url(#SVGID_00000180362672721705837070000014061733454070793658_);" d="M2734.879,1156.54
					c-4.656-5.406-9.397-10.484-14.288-15.538c-4.889-5.026-9.882-9.955-15.01-14.752c-5.127-4.798-10.375-9.477-15.739-14.04
					c-5.378-4.548-10.903-8.94-16.542-13.212c-11.356-8.439-23.256-16.319-36.107-22.879l-2.4-1.245l-2.458-1.154
					c-1.645-0.759-3.268-1.559-4.935-2.284c-3.365-1.394-6.706-2.849-10.198-4.019c-3.424-1.313-7.02-2.264-10.573-3.322
					c-3.642-0.833-7.26-1.766-11.025-2.262l-2.803-0.442c-0.934-0.149-1.897-0.182-2.845-0.278l-2.858-0.236
					c-0.956-0.057-1.901-0.202-2.871-0.171l-5.802,0c-0.994-0.018-1.857,0.075-2.79,0.109c-0.916,0.042-1.835,0.101-2.758,0.175
					c-7.372,0.557-14.863,1.546-22.625,4.009c-3.873,1.254-7.848,2.888-11.825,5.538c-1.979,1.331-3.963,2.934-5.798,4.99
					c-1.828,2.045-3.498,4.585-4.61,7.527c-1.135,2.927-1.604,6.223-1.406,9.307c0.179,3.098,0.956,5.977,2.027,8.477
					c2.168,5.03,5.285,8.799,8.574,11.939c3.315,3.134,6.904,5.615,10.635,7.684c3.733,2.069,7.623,3.7,11.619,4.953
					c3.995,1.254,8.1,2.135,12.267,2.61c2.082,0.253,4.181,0.384,6.286,0.433l1.58,0.02l1.473-0.015
					c0.976-0.009,1.98-0.049,2.987-0.093c2.017-0.093,4.115-0.276,6.352-0.609c2.252-0.356,4.615-0.803,7.479-1.885
					c0.691-0.25,1.481-0.61,2.235-0.968l1.223-0.659c0.398-0.219,0.864-0.529,1.284-0.803c1.728-1.174,3.747-2.902,5.391-5.579
					c0.807-1.347,1.482-2.875,1.884-4.46c0.432-1.598,0.563-3.158,0.551-4.624c-0.066-2.911-0.752-5.143-1.459-6.945
					c-0.726-1.801-1.529-3.208-2.32-4.447c-0.795-1.234-1.59-2.291-2.38-3.264c-1.581-1.939-3.139-3.526-4.7-5.011
					c-1.561-1.478-3.12-2.815-4.701-4.092c-0.791-0.637-1.586-1.258-2.398-1.867l-1.236-0.911l-0.643-0.46l-0.76-0.523l-0.084-0.058
					c-5.9-4.065-13.979-2.578-18.044,3.322c-4.065,5.9-2.578,13.979,3.322,18.044c0.249,0.172,0.53,0.349,0.785,0.501
					c0.008-0.002,0.203,0.119,0.325,0.195l0.432,0.273l0.893,0.585c0.6,0.399,1.197,0.814,1.781,1.234
					c1.167,0.839,2.293,1.704,3.302,2.557c1.005,0.848,1.923,1.702,2.581,2.415c0.661,0.674,1.063,1.352,0.933,0.992
					c-0.049-0.202-0.257-0.735-0.277-1.907c-0.017-0.602,0.075-1.285,0.265-2.047c0.208-0.738,0.513-1.473,0.898-2.064
					c0.742-1.19,1.472-1.701,1.778-1.891c0.054-0.042,0.173-0.088,0.19-0.1c0.026-0.015,0.055-0.023,0.087-0.024
					c-0.031,0.01-0.017,0.04-0.14,0.091c-0.359,0.212-1.399,0.544-2.561,0.785c-1.183,0.249-2.536,0.459-3.98,0.603
					c-0.723,0.071-1.451,0.144-2.209,0.191l-1.127,0.075l-1.022,0.043c-1.364,0.045-2.735,0.042-4.106-0.05
					c-2.742-0.152-5.486-0.582-8.153-1.257c-2.668-0.671-5.268-1.597-7.676-2.759c-2.408-1.154-4.642-2.548-6.465-4.085
					c-1.829-1.516-3.227-3.213-3.906-4.532c-0.356-0.66-0.505-1.18-0.578-1.543c-0.073-0.373-0.098-0.597-0.021-0.924
					c0.07-0.322,0.252-0.781,0.688-1.36c0.43-0.575,1.105-1.242,1.966-1.897c1.719-1.325,4.131-2.581,6.803-3.595
					c5.375-2.063,11.679-3.345,18.098-4.162c0.802-0.11,1.61-0.207,2.425-0.287c0.797-0.071,1.659-0.21,2.402-0.224l4.602-0.252
					c0.765-0.08,1.55,0.013,2.326,0.016l2.337,0.066c0.781,0.036,1.559,0.006,2.344,0.092l2.355,0.248
					c3.146,0.224,6.293,0.874,9.455,1.401c3.139,0.767,6.31,1.399,9.429,2.414c3.148,0.859,6.24,2.018,9.353,3.107
					c1.549,0.575,3.077,1.231,4.619,1.842l2.31,0.932l2.279,1.031c12.206,5.408,23.939,12.267,35.281,19.777
					c5.642,3.811,11.21,7.762,16.666,11.888c5.442,4.143,10.799,8.419,16.056,12.827c5.258,4.408,10.402,8.961,15.453,13.619
					c5.024,4.653,10.026,9.467,14.701,14.333l0.058,0.06c1.497,1.558,3.974,1.608,5.532,0.111
					C2736.13,1160.47,2736.221,1158.104,2734.879,1156.54z"/>
				
					<linearGradient id="SVGID_00000171701038782498561830000006027898981389897125_" gradientUnits="userSpaceOnUse" x1="9218.5928" y1="579.629" x2="9224.1572" y2="76.0811" gradientTransform="matrix(-0.7853 0.6191 0.6191 0.7853 9754.3164 -5083.4272)">
					<stop  offset="0" style="stop-color:#FFC444"/>
					<stop  offset="0.9964" style="stop-color:#F36F56"/>
				</linearGradient>
				<path style="fill:url(#SVGID_00000171701038782498561830000006027898981389897125_);" d="M2817.427,1100.484
					c-3.64-5.682-7.154-11.669-10.506-17.641c-3.35-5.998-6.577-12.063-9.636-18.204c-3.06-6.14-5.967-12.347-8.726-18.606
					c-2.74-6.268-5.281-12.604-7.671-18.98c-4.656-12.782-8.587-25.791-10.997-38.923l-0.471-2.457l-0.367-2.464
					c-0.234-1.642-0.516-3.281-0.714-4.921c-0.332-3.282-0.738-6.558-0.838-9.82c-0.259-3.27-0.133-6.501-0.146-9.732
					c0.225-3.197,0.328-6.409,0.844-9.52l0.308-2.348c0.099-0.783,0.31-1.533,0.457-2.3l0.482-2.288
					c0.178-0.755,0.271-1.541,0.528-2.266l1.319-4.416c0.187-0.718,0.523-1.524,0.779-2.283c0.269-0.773,0.552-1.536,0.845-2.291
					c2.293-6.05,5.01-11.882,8.271-16.626c1.609-2.362,3.394-4.415,5.083-5.777c0.838-0.684,1.644-1.185,2.304-1.469
					c0.665-0.289,1.153-0.359,1.483-0.352c0.336,0.002,0.548,0.079,0.893,0.236c0.336,0.155,0.807,0.422,1.365,0.922
					c1.124,0.968,2.448,2.723,3.495,4.856c1.069,2.131,1.903,4.629,2.463,7.24c0.568,2.612,0.863,5.357,0.892,8.107
					c0.033,2.751-0.189,5.52-0.681,8.221c-0.231,1.354-0.549,2.689-0.91,4.004l-0.281,0.983l-0.336,1.078
					c-0.223,0.725-0.464,1.416-0.702,2.103c-0.477,1.371-0.997,2.637-1.515,3.729c-0.505,1.073-1.071,2.007-1.361,2.307
					c-0.078,0.109-0.104,0.087-0.121,0.115c0.009-0.031,0.024-0.057,0.044-0.079c0.016-0.014,0.088-0.118,0.142-0.161
					c0.256-0.253,0.923-0.843,2.254-1.287c0.665-0.236,1.45-0.362,2.216-0.391c0.785-0.007,1.471,0.064,2.053,0.22
					c1.135,0.294,1.605,0.62,1.79,0.715c0.319,0.21-0.246-0.338-0.747-1.139c-0.539-0.807-1.156-1.899-1.745-3.073
					c-0.594-1.18-1.172-2.477-1.715-3.808c-0.271-0.666-0.535-1.344-0.784-2.02l-0.36-1.005l-0.165-0.484
					c-0.045-0.136-0.117-0.355-0.114-0.361c-2.09-6.854-9.34-10.716-16.194-8.626c-6.854,2.09-10.716,9.34-8.625,16.194
					c0.088,0.289,0.185,0.572,0.291,0.85l0.049,0.126l0.332,0.861l0.297,0.732l0.598,1.414c0.403,0.932,0.821,1.849,1.256,2.768
					c0.873,1.836,1.809,3.664,2.882,5.526c1.08,1.865,2.26,3.75,3.776,5.74c0.761,0.995,1.604,2.015,2.618,3.076
					c1.02,1.058,2.2,2.168,3.782,3.294c1.587,1.107,3.598,2.296,6.412,3.039c1.423,0.354,2.97,0.59,4.625,0.543
					c1.635-0.021,3.279-0.321,4.777-0.791c2.987-0.974,5.137-2.534,6.683-3.941c0.365-0.344,0.775-0.724,1.081-1.061l0.926-1.035
					c0.523-0.65,1.058-1.334,1.463-1.947c1.72-2.533,2.706-4.726,3.578-6.832c0.846-2.097,1.514-4.096,2.075-6.035
					c0.278-0.969,0.551-1.935,0.788-2.883l0.358-1.429l0.349-1.541c0.444-2.058,0.806-4.13,1.046-6.214
					c0.51-4.163,0.612-8.36,0.324-12.537c-0.286-4.178-0.964-8.342-2.104-12.454c-1.141-4.111-2.716-8.18-4.99-12.135
					c-2.285-3.931-5.223-7.842-9.608-11.124c-2.181-1.625-4.798-3.052-7.77-3.95c-2.953-0.912-6.267-1.225-9.378-0.805
					c-3.12,0.394-5.98,1.426-8.395,2.726c-2.427,1.305-4.449,2.86-6.205,4.474c-3.504,3.248-6.021,6.732-8.144,10.206
					c-4.206,6.973-6.917,14.026-9.179,21.065c-0.287,0.88-0.56,1.76-0.814,2.641c-0.251,0.9-0.543,1.717-0.758,2.688l-1.354,5.642
					c-0.257,0.937-0.337,1.888-0.504,2.832l-0.437,2.835c-0.129,0.944-0.321,1.888-0.394,2.831l-0.224,2.829
					c-0.396,3.777-0.334,7.513-0.374,11.249c0.199,3.702,0.284,7.421,0.762,11.056c0.323,3.669,0.958,7.257,1.528,10.855
					c0.316,1.79,0.715,3.556,1.07,5.332l0.548,2.659l0.65,2.624c3.379,14.028,8.264,27.438,13.82,40.45
					c2.838,6.48,5.819,12.878,8.986,19.168c3.185,6.28,6.51,12.476,9.979,18.581c3.468,6.106,7.094,12.111,10.841,18.038
					c3.773,5.935,7.604,11.73,11.774,17.52c1.263,1.754,3.708,2.151,5.462,0.888c1.692-1.219,2.122-3.54,1.014-5.276
					L2817.427,1100.484z"/>
			</g>
			
				<linearGradient id="SVGID_00000141454879678204360560000012675249869678275465_" gradientUnits="userSpaceOnUse" x1="-2483.5999" y1="-3318.0947" x2="-2161.3284" y2="-3318.0947" gradientTransform="matrix(0.2241 -0.9746 0.9746 0.2241 6646.353 -176.8063)">
				<stop  offset="0" style="stop-color:#FF9085"/>
				<stop  offset="1" style="stop-color:#FB6FBB"/>
			</linearGradient>
			<path style="fill:url(#SVGID_00000141454879678204360560000012675249869678275465_);" d="M2803.25,1157.312
				c0,0,237.391,304.732,178.036,346.085c-59.355,41.353-187.768-39.113-187.768-39.113L2803.25,1157.312z"/>
			
				<linearGradient id="SVGID_00000171718514891088597370000007667381474083685275_" gradientUnits="userSpaceOnUse" x1="-2345.2791" y1="-3267.1387" x2="-2164.8699" y2="-3267.1387" gradientTransform="matrix(0.2241 -0.9746 0.9746 0.2241 6646.353 -176.8063)">
				<stop  offset="0" style="stop-color:#FF9085"/>
				<stop  offset="1" style="stop-color:#FB6FBB"/>
			</linearGradient>
			<path style="fill:url(#SVGID_00000171718514891088597370000007667381474083685275_);" d="M2802.36,1160.741l261.43,89.688
				c0,0,92.729,100.45,42.889,154.154S2802.36,1160.741,2802.36,1160.741z"/>
			
				<linearGradient id="SVGID_00000148663387352891644780000004842130901964005802_" gradientUnits="userSpaceOnUse" x1="-1142.8356" y1="5896.0815" x2="-1616.5444" y2="5244.4741" gradientTransform="matrix(0.7853 -0.6191 0.6191 0.7853 6189.1113 -2272.375)">
				<stop  offset="0" style="stop-color:#311944"/>
				<stop  offset="1" style="stop-color:#A03976"/>
			</linearGradient>
			<path style="fill:url(#SVGID_00000148663387352891644780000004842130901964005802_);" d="M2803.25,1157.312l37.164,355.698
				c0.67,6.415-5.646,11.284-11.677,8.997c-42.318-16.056-170.041-81.215-120.499-270.279
				C2708.238,1251.727,2748.917,1188.453,2803.25,1157.312z"/>
			
				<linearGradient id="SVGID_00000012459971088588156630000005095017248377755273_" gradientUnits="userSpaceOnUse" x1="-987.2709" y1="5782.8584" x2="-1460.9724" y2="5131.2617" gradientTransform="matrix(0.7853 -0.6191 0.6191 0.7853 6189.1113 -2272.375)">
				<stop  offset="0" style="stop-color:#311944"/>
				<stop  offset="1" style="stop-color:#A03976"/>
			</linearGradient>
			<path style="fill:url(#SVGID_00000012459971088588156630000005095017248377755273_);" d="M3115.895,1297.76l-312.645-140.448
				c0,0,41.035-30.74,96.871-48.599c0,0,162.033-41.781,227.616,178.651C3129.852,1294.473,3122.661,1300.8,3115.895,1297.76z"/>
		</g>
		<g>
			
				<linearGradient id="SVGID_00000072984278220605531350000002850002880918627747_" gradientUnits="userSpaceOnUse" x1="2010.9956" y1="3228.4944" x2="313.4705" y2="2513.9648">
				<stop  offset="0" style="stop-color:#AB316D"/>
				<stop  offset="1" style="stop-color:#792D3D"/>
			</linearGradient>
			<path style="fill:url(#SVGID_00000072984278220605531350000002850002880918627747_);" d="M1193.782,2988.222
				c30.478,15.474,68.768,1.266,85.524-31.735c16.755-33.001,5.631-72.298-24.847-87.772c-1.579-0.802-3.19-1.475-4.806-2.121
				c5.663-18.26,9.932-36.664,12.794-55.074c1.747-0.005,3.5-0.034,5.282-0.193c34.772-3.1,62.369-35.052,61.641-71.37
				c-0.728-36.317-29.506-63.246-64.279-60.146c-1.818,0.163-3.603,0.45-5.378,0.765c-3.632-17.997-8.609-35.579-14.887-52.594
				c1.599-0.936,3.191-1.903,4.746-2.992c29.749-20.841,39.26-61.978,21.244-91.88c-18.017-29.902-56.74-37.245-86.488-16.404
				c-1.525,1.069-2.958,2.222-4.376,3.393c-11.75-12.989-24.637-25.027-38.58-36.013c0.98-1.607,1.94-3.235,2.808-4.945
				c16.755-33.001,38.651-69.05,7.934-84.044c-71.056-34.688-101.548-4.994-118.304,28.007c-0.868,1.709-1.616,3.446-2.335,5.185
				c-17.098-4.774-34.42-8.075-51.841-9.896c0.109-1.834,0.193-3.673,0.157-5.534c-0.729-36.316,10.047-55.969-24.857-56.648
				c-76.113-1.48-101.793,31.557-101.065,67.872c0.038,1.898,0.197,3.754,0.385,5.598c-17.442,4.972-34.572,11.328-51.246,19.017
				c-0.792-1.619-1.615-3.229-2.556-4.794c-18.016-29.901-56.739-37.244-86.489-16.401c-29.75,20.844-39.261,61.979-21.244,91.88
				c0.923,1.532,1.934,2.965,2.961,4.378c-13.174,13.176-25.512,27.483-36.913,42.83c-1.474-0.925-2.97-1.828-4.549-2.63
				c-30.477-15.474-68.768-1.266-85.523,31.735c-16.755,33.001-5.631,72.298,24.847,87.772c1.579,0.802,3.191,1.476,4.808,2.121
				c-5.663,18.26-9.932,36.664-12.796,55.075c-1.747,0.005-3.5,0.034-5.28,0.191c-34.773,3.102-62.37,35.053-61.643,71.372
				c0.728,36.317,29.508,63.244,64.28,60.145c1.816-0.162,3.602-0.448,5.377-0.764c3.632,17.998,8.608,35.579,14.887,52.595
				c-1.599,0.936-3.191,1.903-4.745,2.992c-29.749,20.842-39.261,61.979-21.244,91.88c18.017,29.902,77.664,43.793,107.413,22.951
				c1.525-1.068-17.966-8.77-16.549-9.941c11.751,12.989,24.638,25.027,38.581,36.013c-0.979,1.607-1.94,3.235-2.808,4.945
				c-16.755,33.001-5.631,72.298,24.847,87.772c30.478,15.474,68.768,1.266,85.523-31.735c0.868-1.709,1.616-3.446,2.335-5.185
				c17.098,4.774,34.42,8.074,51.841,9.896c-0.109,1.834-0.193,3.673-0.157,5.535c0.729,36.316,29.507,63.244,64.28,60.145
				c34.772-3.1,62.37-35.053,61.642-71.37c-0.038-1.898-0.197-3.754-0.385-5.597c17.443-4.971,34.573-11.328,51.246-19.017
				c0.792,1.62,1.616,3.23,2.557,4.792c18.017,29.901,56.738,37.246,86.488,16.403c29.75-20.844,39.26-61.978,21.245-91.881
				c-0.923-1.531-1.934-2.963-2.961-4.376c13.174-13.176,25.512-27.483,36.913-42.83
				C1190.709,2986.517,1192.204,2987.421,1193.782,2988.222z M813.849,2993.043c-110.658-56.183-151.047-198.862-90.211-318.681
				c60.835-119.821,199.857-171.408,310.515-115.224c110.658,56.183,151.047,198.862,90.212,318.681
				C1063.528,2997.64,924.506,3049.227,813.849,2993.043z"/>
			
				<linearGradient id="SVGID_00000127041499371360268700000010616314990368060055_" gradientUnits="userSpaceOnUse" x1="2012.259" y1="3225.4937" x2="314.7375" y2="2510.9656">
				<stop  offset="0" style="stop-color:#AB316D"/>
				<stop  offset="1" style="stop-color:#792D3D"/>
			</linearGradient>
			<path style="fill:url(#SVGID_00000127041499371360268700000010616314990368060055_);" d="M1267.728,2811.327
				c34.772-3.101,62.369-35.054,61.641-71.371c-0.728-36.317-29.506-63.246-64.279-60.145c-1.818,0.162-3.603,0.449-5.378,0.764
				c-3.631-17.998-8.609-35.578-14.887-52.594c1.599-0.935,3.191-1.903,4.746-2.993c29.749-20.842,66.553-71.203,45.565-99.098
				c-39.836-52.943-81.061-30.027-110.81-9.185c-1.525,1.069-2.958,2.221-4.375,3.392c-11.751-12.989-24.638-25.026-38.581-36.013
				c0.98-1.607,1.94-3.235,2.808-4.944c9.119-17.961,9.924-37.763,3.901-54.598c-28.735,50.574-57.082,101.361-84.921,152.423
				c88.279,64.689,116.384,192.17,61.204,300.854c-46.76,92.099-139.711,143.813-230.471,137.333
				c-4.049,10.499-8.024,21.056-12.359,31.454c-11.765,28.219-25.13,55.856-38.513,83.458c8.417,1.586,16.87,2.835,25.347,3.723
				c-0.109,1.836-0.193,3.674-0.157,5.535c0.729,36.316,22.778,67.173,85.797,63.829c34.861-1.848,40.852-38.737,40.124-75.054
				c-0.038-1.897-0.196-3.753-0.384-5.597c17.442-4.971,34.572-11.329,51.245-19.017c0.792,1.62,1.616,3.229,2.557,4.792
				c18.016,29.903,80.518,42.607,110.268,21.764c29.75-20.844,15.481-67.339-2.535-97.241c-0.923-1.532-1.934-2.964-2.961-4.378
				c13.174-13.175,25.512-27.482,36.913-42.829c1.475,0.926,2.97,1.829,4.548,2.629c30.478,15.476,68.768,1.266,85.524-31.735
				c16.755-32.999,5.631-72.298-24.846-87.771c-1.58-0.802-3.191-1.475-4.807-2.12c5.663-18.26,9.932-36.665,12.794-55.074
				C1264.194,2811.515,1265.947,2811.485,1267.728,2811.327z"/>
			
				<linearGradient id="SVGID_00000095314993300240780640000014746979163525802677_" gradientUnits="userSpaceOnUse" x1="952.7632" y1="2455.3892" x2="967.6455" y2="3657.1455">
				<stop  offset="0" style="stop-color:#FFC444"/>
				<stop  offset="0.9964" style="stop-color:#F36F56"/>
			</linearGradient>
			<path style="fill:url(#SVGID_00000095314993300240780640000014746979163525802677_);" d="M1226.563,2991.95
				c30.478,15.474,68.768,1.266,85.524-31.736c16.755-33.001,5.631-72.298-24.847-87.772c-1.579-0.802-3.19-1.475-4.807-2.119
				c5.663-18.261,9.932-36.665,12.795-55.075c1.747-0.005,3.5-0.034,5.281-0.193c34.772-3.1,62.369-35.052,61.641-71.369
				c-0.727-36.318-29.506-63.247-64.279-60.147c-1.818,0.163-3.602,0.449-5.378,0.765c-3.632-17.998-8.609-35.579-14.887-52.594
				c1.6-0.936,3.191-1.903,4.746-2.992c29.749-20.842,39.261-61.979,21.244-91.88c-18.017-29.901-56.739-37.245-86.488-16.403
				c-1.525,1.068-2.958,2.222-4.376,3.392c-11.75-12.989-24.637-25.026-38.58-36.013c0.98-1.607,1.94-3.236,2.808-4.945
				c16.755-33.001,5.631-72.298-24.846-87.772c-30.478-15.475-68.768-1.266-85.523,31.735c-0.868,1.709-1.616,3.446-2.336,5.185
				c-17.097-4.774-34.42-8.074-51.84-9.896c0.109-1.835,0.193-3.673,0.156-5.534c-0.729-36.316-29.507-63.244-64.28-60.145
				c-34.772,3.099-62.37,35.053-61.642,71.369c0.038,1.898,0.197,3.754,0.385,5.597c-17.442,4.973-34.572,11.329-51.246,19.018
				c-0.793-1.62-1.615-3.23-2.556-4.794c-18.017-29.901-56.739-37.245-86.489-16.402c-29.75,20.844-39.26,61.979-21.244,91.881
				c0.923,1.531,1.934,2.964,2.961,4.378c-13.174,13.176-25.513,27.482-36.913,42.83c-1.474-0.925-2.969-1.829-4.549-2.63
				c-30.477-15.474-68.767-1.266-85.522,31.735c-16.756,33.001-5.632,72.298,24.846,87.772c1.579,0.802,3.191,1.476,4.807,2.12
				c-5.662,18.26-9.932,36.664-12.794,55.075c-1.747,0.005-3.501,0.034-5.281,0.192c-34.773,3.101-62.37,35.053-61.642,71.371
				c0.727,36.317,29.507,63.244,64.279,60.145c1.816-0.162,3.602-0.448,5.377-0.764c3.632,17.998,8.609,35.579,14.887,52.594
				c-1.599,0.936-3.191,1.903-4.745,2.993c-29.749,20.842-39.261,61.979-21.244,91.88c18.017,29.902,56.739,37.245,86.487,16.403
				c1.525-1.069,2.959-2.222,4.376-3.393c11.751,12.99,24.638,25.028,38.581,36.013c-0.979,1.607-1.94,3.235-2.808,4.945
				c-16.755,33.001-5.631,72.298,24.847,87.772c30.478,15.474,68.768,1.266,85.523-31.736c0.868-1.709,1.616-3.445,2.335-5.185
				c17.097,4.774,34.421,8.074,51.841,9.896c-0.109,1.835-0.193,3.673-0.156,5.535c0.729,36.315,29.507,63.244,64.279,60.145
				c34.772-3.1,62.371-35.053,61.642-71.369c-0.037-1.898-0.196-3.754-0.385-5.597c17.443-4.972,34.573-11.328,51.246-19.017
				c0.792,1.619,1.615,3.23,2.557,4.791c18.017,29.902,56.738,37.247,86.488,16.404c29.75-20.844,39.26-61.979,21.245-91.882
				c-0.923-1.531-1.935-2.963-2.962-4.376c13.175-13.175,25.513-27.482,36.914-42.829
				C1223.489,2990.245,1224.984,2991.148,1226.563,2991.95z M846.629,2996.771c-110.658-56.183-151.048-198.861-90.212-318.682
				c60.836-119.82,199.857-171.406,310.515-115.223c110.658,56.183,151.047,198.861,90.212,318.681
				C1096.309,3001.368,957.287,3052.954,846.629,2996.771z"/>
		</g>
		<g>
			
				<linearGradient id="SVGID_00000156552755187391363140000008410543525297105048_" gradientUnits="userSpaceOnUse" x1="3274.5786" y1="3145.5686" x2="3297.5742" y2="3438.2375" gradientTransform="matrix(1 -0.0024 0.0024 1 -794.8005 3.3687)">
				<stop  offset="0" style="stop-color:#311944"/>
				<stop  offset="1" style="stop-color:#A03976"/>
			</linearGradient>
			<path style="fill:url(#SVGID_00000156552755187391363140000008410543525297105048_);" d="M2532.525,3286.931
				c0,0-92.464,42.292-93.959,49.012c-1.496,6.719,59.523-2.394,84.444-1.486c24.921,0.909,45.402-6.505,43.122-17.055
				c-2.283-10.549-11.069-37.075-11.069-37.075L2532.525,3286.931z"/>
			
				<linearGradient id="SVGID_00000078748515433055786950000017049270008142088870_" gradientUnits="userSpaceOnUse" x1="3333.9431" y1="3308.5071" x2="3329.7625" y2="3005.3953" gradientTransform="matrix(1 -0.0024 0.0024 1 -794.8005 3.3687)">
				<stop  offset="0" style="stop-color:#FFC444"/>
				<stop  offset="0.9964" style="stop-color:#F36F56"/>
			</linearGradient>
			<path style="fill:url(#SVGID_00000078748515433055786950000017049270008142088870_);" d="M2529.056,3252.798l5.731,41.662
				c0,0,14.667,5.181,24.496-1.01l4.09-45.719L2529.056,3252.798z"/>
			
				<linearGradient id="SVGID_00000097461247719076363730000000717920242797152152_" gradientUnits="userSpaceOnUse" x1="3709.1338" y1="3111.4307" x2="3732.1284" y2="3404.0891" gradientTransform="matrix(1 -0.0024 0.0024 1 -794.8005 3.3687)">
				<stop  offset="0" style="stop-color:#311944"/>
				<stop  offset="1" style="stop-color:#A03976"/>
			</linearGradient>
			<path style="fill:url(#SVGID_00000097461247719076363730000000717920242797152152_);" d="M2964.98,3252.75l10.808,17.258
				c3.023,4.827,3.935,10.644,2.504,16.156c-3.731,14.383-11.184,42.411-14.445,49.723c-4.44,9.96-64.329,16.014-64.329,16.014
				s-5.359-7.503,7.056-16.613c12.414-9.109,20.405-10.556,24.763-23.965c4.355-13.407,7.193-51.311,7.193-51.311L2964.98,3252.75z"
				/>
			
				<linearGradient id="SVGID_00000048461059626449086580000003296887106518016423_" gradientUnits="userSpaceOnUse" x1="3732.1931" y1="3303.0142" x2="3728.0122" y2="2999.8926" gradientTransform="matrix(1 -0.0024 0.0024 1 -794.8005 3.3687)">
				<stop  offset="0" style="stop-color:#FFC444"/>
				<stop  offset="0.9964" style="stop-color:#F36F56"/>
			</linearGradient>
			<path style="fill:url(#SVGID_00000048461059626449086580000003296887106518016423_);" d="M2920.059,3208.933
				c3.941,3.126,23.32,61.475,23.32,61.475s6.247,7.948,18.049-3.832c11.801-11.781,5.342-5.285,5.342-5.285l-2.357-57.429
				L2920.059,3208.933z"/>
			
				<linearGradient id="SVGID_00000029767359583940575260000008939956842316370064_" gradientUnits="userSpaceOnUse" x1="3261.6021" y1="2817.4697" x2="3485.7166" y2="2817.4697" gradientTransform="matrix(1 -0.0024 0.0024 1 -794.8005 3.3687)">
				<stop  offset="0" style="stop-color:#444B8C"/>
				<stop  offset="0.9964" style="stop-color:#3E4177"/>
			</linearGradient>
			<path style="fill:url(#SVGID_00000029767359583940575260000008939956842316370064_);" d="M2476.115,2415.62
				c-4.585,124.33-4.46,259.398,3.041,403.673c8.443,162.465,24.989,312.603,45.713,448.689c7.583,0.224,15.551,0.244,23.873-0.009
				c5.62-0.169,11.065-0.457,16.328-0.832c10.516-28.254,22.938-65.406,34.036-109.771c11.665-46.652,18.671-88.49,23.638-128.494
				c17.487-140.852-3.432-153.086,10.783-257.473c12.589-92.451,30.801-96.104,51.874-227.37
				c22.864-142.429,5.538-163.747-2.883-171.443C2646.675,2339.826,2562.721,2362.391,2476.115,2415.62z"/>
			
				<linearGradient id="SVGID_00000123399471296062529780000004319247378918168744_" gradientUnits="userSpaceOnUse" x1="3261.6013" y1="2817.4792" x2="3485.7151" y2="2817.4792" gradientTransform="matrix(1 -0.0024 0.0024 1 -794.8005 3.3687)">
				<stop  offset="0" style="stop-color:#444B8C"/>
				<stop  offset="0.9964" style="stop-color:#3E4177"/>
			</linearGradient>
			<path style="opacity:0.3;fill:url(#SVGID_00000123399471296062529780000004319247378918168744_);" d="M2682.518,2372.59
				c-34.186-31.25-112.15-12.094-194.429,35.922c95.032,102.181,105.525,168.589,94.265,211.722
				c-12.725,48.749-51.736,62.873-51.459,116.145c0.341,65.463,59.466,82.663,58.375,151.94
				c-0.72,45.809-26.684,45.395-32.678,101.988c-7.094,66.96,26.879,89.946,16.013,139.501
				c-4.675,21.319-18.098,49.194-56.448,77.968c2.819,20.332,5.708,40.46,8.716,60.207c7.58,0.221,15.549,0.244,23.871-0.011
				c5.62-0.168,11.067-0.455,16.326-0.832c10.518-28.254,22.94-65.404,34.038-109.771c11.665-46.653,18.671-88.49,23.638-128.495
				c17.486-140.851-3.432-153.086,10.783-257.473c12.589-92.451,30.801-96.106,51.873-227.371
				C2708.264,2401.601,2690.939,2380.283,2682.518,2372.59z"/>
			
				<linearGradient id="SVGID_00000171682653488892091010000014579498229327509930_" gradientUnits="userSpaceOnUse" x1="3323.8206" y1="2795.3774" x2="3774.989" y2="2795.3774" gradientTransform="matrix(1 -0.0024 0.0024 1 -794.8005 3.3687)">
				<stop  offset="0" style="stop-color:#444B8C"/>
				<stop  offset="0.9964" style="stop-color:#3E4177"/>
			</linearGradient>
			<path style="fill:url(#SVGID_00000171682653488892091010000014579498229327509930_);" d="M2534.823,2413.391
				c81.901,119.223,170.289,267.634,249.441,445.34c59.816,134.293,103.268,260.412,135.218,372.83
				c4.292,1.973,14.413,5.909,27.331,4.17c17.619-2.374,28.155-13.649,30.909-16.796c12.699-80.673,11.115-148.966,6.62-198.248
				c-2.878-31.552-7.963-84.096-28.235-148.929c-22.706-72.621-38.207-76.667-67.787-153.487
				c-30.701-79.734-23.359-99.667-52.817-199.47c-12.102-41-32.342-102.007-65.671-174.96
				C2691.495,2367.024,2613.158,2390.208,2534.823,2413.391z"/>
			
				<linearGradient id="SVGID_00000127750513960978286890000013960770799597151411_" gradientUnits="userSpaceOnUse" x1="2911.1213" y1="1770.4854" x2="2402.7815" y2="2605.0735">
				<stop  offset="0" style="stop-color:#FFC444"/>
				<stop  offset="0.9964" style="stop-color:#F36F56"/>
			</linearGradient>
			<path style="fill:url(#SVGID_00000127750513960978286890000013960770799597151411_);" d="M2202.122,2245.171
				c0.776,29.01,48.456,54.563,86.847,62.4c89.764,18.321,193.835-46.903,243.23-119.052c9.699-14.167,20.476-31.344,23.074-30.015
				c5.873,3.008-48.091,91.672-71.488,192.514c-11.97,51.589-8.837,75.75-31.216,110.095c-5.069,7.78-11.316,15.881-9.121,25.086
				c5.498,23.051,58.216,29.037,94.785,33.189c38.609,4.384,74.612,3.959,110.204,3.439c56.977-0.831,61.465-3.792,74.47,2.593
				c39.631,19.449,36.945,66.051,66.768,72.265c25.044,5.22,50.45-22.748,58.505-31.615c41.87-46.091,39.633-101.661,47.059-157.711
				c17.264-130.311,88.061-273.079,157.315-363.457c21.004-27.41,35.61-41.828,36.522-67.302
				c2.678-74.779-115.789-157.327-214.424-166.812c-27.035-2.598-75.447-1.781-120.831,2.499
				c-18.139,1.708-37.45,4.224-58.207,7.856c-50.338,8.807-85.381,14.935-121.094,31.274
				c-144.01,65.891-112.582,212.563-268.449,313.973C2252.478,2201.259,2201.31,2214.792,2202.122,2245.171z"/>
			<path style="fill:#FFFFFF;" d="M2792.173,1733.214c0,0,6.185,34.517,20.422,59.088c12.868,22.206,66.067,30.167,77.151,34.032
				c11.083,3.864-16.721,23.167-46.291,30.165c-29.567,7-116.059,11.576-132.998,2.266c-16.94-9.308,11-12.155,31.347-22.852
				c20.347-10.697,27.152-54.179,20.852-72.663C2756.355,1744.763,2792.173,1733.214,2792.173,1733.214z"/>
			<g>
				
					<linearGradient id="SVGID_00000169539511002798589610000017084825675809310139_" gradientUnits="userSpaceOnUse" x1="2760.6182" y1="1518.0277" x2="2771.5562" y2="1897.2096">
					<stop  offset="0" style="stop-color:#444B8C"/>
					<stop  offset="0.9964" style="stop-color:#26264F"/>
				</linearGradient>
				<path style="fill:url(#SVGID_00000169539511002798589610000017084825675809310139_);" d="M2735.958,1723.224
					c-21.457-15.335-27.399-56.804-15.482-66.114c3.407-2.661,6.66-1.439,55.085,17.986c24.047,9.648,35.875,14.784,39.77,25.404
					c2.379,6.483,1.994,15.24-0.633,22.141c-1.354,3.551-3.989,7.972-9.85,16.409c-5.202,7.487-4.852,7.233-6.447,9.409
					c-3.831,5.227-11.221,14.027-24.761,24.229c-0.753-3.817-1.943-8.553-3.937-13.718c-0.767-1.987-3.86-9.756-8.765-16.3
					C2752.497,1731.407,2742.922,1728.203,2735.958,1723.224z"/>
				<path style="fill:#FFFFFF;" d="M2790.95,1762.663c0,0-14.039,20.914-40.043,18.076c-23.283-2.542-24.412-55.052-9.011-65.512
					c5.137-3.49,15.169-4.591,23.173-1.967c4.728,1.55,6.259,3.612,14.032,5.993c7.169,2.198,9.254,1.483,11.362,3.423
					c2.638,2.424,4.396,8.161-0.847,23.27c4.652-4.317,10.076-5.813,13.785-3.859c0.591,0.312,2.148,1.473,2.976,3.165
					C2809.38,1751.377,2803.586,1758.775,2790.95,1762.663z"/>
			</g>
			
				<linearGradient id="SVGID_00000117666950216279983000000017009884898128829375_" gradientUnits="userSpaceOnUse" x1="2216.2268" y1="2201.5989" x2="2579.1887" y2="2201.5989">
				<stop  offset="0" style="stop-color:#FFC444"/>
				<stop  offset="0.9964" style="stop-color:#F36F56"/>
			</linearGradient>
			<path style="opacity:0.3;fill:url(#SVGID_00000117666950216279983000000017009884898128829375_);" d="M2328.038,2240.712
				c65.083-14.658,91.016-14.185,123.201-40.117c53.585-43.175,61.633-108.887,92.772-108.085
				c14.716,0.38,26.67,15.408,35.177,30.124c-7.839,12.277-15.678,24.555-23.518,36.831c-0.032-0.467-0.135-0.829-0.397-0.962
				c-2.598-1.329-13.375,15.848-23.074,30.015c-49.396,72.15-153.466,137.373-243.23,119.052
				c-25.738-5.254-55.587-18.49-72.743-35.372C2260.53,2257.234,2298.368,2247.395,2328.038,2240.712z"/>
			
				<linearGradient id="SVGID_00000139251307677965892410000003830115524314963108_" gradientUnits="userSpaceOnUse" x1="6255.0015" y1="930.5131" x2="6336.6353" y2="930.5131" gradientTransform="matrix(0.8553 0.5182 -0.5182 0.8553 -2728.719 -1761.0112)">
				<stop  offset="0" style="stop-color:#FFC444"/>
				<stop  offset="0.9964" style="stop-color:#F36F56"/>
			</linearGradient>
			<path style="fill:url(#SVGID_00000139251307677965892410000003830115524314963108_);" d="M2222.038,2296.673
				c0,0-36.725-3.652-58.607-13.015c-21.883-9.364-36.02,4.081-34.009,13.389c2.01,9.305,38.013,22.262,52.396,22.727
				C2196.201,2320.24,2222.038,2296.673,2222.038,2296.673z"/>
			
				<linearGradient id="SVGID_00000171720629368597544880000015661701353448584361_" gradientUnits="userSpaceOnUse" x1="3186.1582" y1="1938.0084" x2="2677.8174" y2="2772.5984">
				<stop  offset="0" style="stop-color:#FFC444"/>
				<stop  offset="0.9964" style="stop-color:#F36F56"/>
			</linearGradient>
			<path style="fill:url(#SVGID_00000171720629368597544880000015661701353448584361_);" d="M3012.977,2490.924
				c39.429,3.518,128.184,5.123,190.958-52.952c104.505-96.677,52.662-280.703,16.284-359.846
				c-41.706-90.742-108.087-141.533-148.427-172.4c-50.049-38.295-80.596-61.669-117.347-56.435
				c-95.049,13.536-160.875,208.34-108.697,264.114c17.082,18.258,33.998,7.919,83.433,23.663
				c16.098,5.128,136.255,43.398,157.175,131.895c14.642,61.939-22.637,134.465-88.987,183.176
				C3002.572,2465.066,3007.774,2477.996,3012.977,2490.924z"/>
			
				<linearGradient id="SVGID_00000152228516913934978300000005311524726646391168_" gradientUnits="userSpaceOnUse" x1="2447.0083" y1="2316.7231" x2="3191.6731" y2="2316.7231">
				<stop  offset="0" style="stop-color:#FFC444"/>
				<stop  offset="0.9964" style="stop-color:#F36F56"/>
			</linearGradient>
			<path style="opacity:0.3;fill:url(#SVGID_00000152228516913934978300000005311524726646391168_);" d="M2571.024,2458.836
				c44.638-28.209,51.243-56.8,101.229-76.119c64.937-25.098,96.142,6.783,128.336-18.957c38.314-30.633,4.397-84,33.069-176.609
				c4.866-15.719,41.829-135.111,126.641-150.322c39.548-7.093,91.783,8.057,111.912,41.572
				c15.752,26.228,1.077,45.781,20.23,74.736c19.14,28.937,42.03,21.859,66.428,45.993c38.74,38.323,44.679,119.133,9.703,164.833
				c-16.314,21.316-37.513,29.745-77.403,45.607c-24.365,9.687-47.015,15.713-66.521,19.54
				c48.844-46.88,74.192-107.339,61.707-160.149c-13.04-55.165-64.637-90.808-105.557-111.077
				c-40.947,77.059-74.413,166.353-85.557,250.475c-7.426,56.05-5.189,111.62-47.059,157.711
				c-8.055,8.867-33.461,36.835-58.505,31.615c-29.823-6.214-27.137-52.816-66.768-72.265c-13.006-6.384-17.493-3.424-74.47-2.593
				c-35.593,0.52-71.595,0.945-110.204-3.439c-32.521-3.693-77.732-8.868-91.226-26.175
				C2505.719,2491.616,2544.903,2475.344,2571.024,2458.836z"/>
			<g>
				
					<linearGradient id="SVGID_00000116197888156514537120000003450271800796348077_" gradientUnits="userSpaceOnUse" x1="2069.4338" y1="2371.4126" x2="2993.8279" y2="2371.4126">
					<stop  offset="0" style="stop-color:#444B8C"/>
					<stop  offset="0.9964" style="stop-color:#26264F"/>
				</linearGradient>
				<path style="fill:url(#SVGID_00000116197888156514537120000003450271800796348077_);" d="M2987.09,2521.913l4.594-13.512
					c7.323-21.544-4.718-44.52-26.879-51.27l-868.895-264.682l-26.476,89.739l864.505,266.277
					C2955.985,2555.255,2979.789,2543.388,2987.09,2521.913z"/>
				
					<linearGradient id="SVGID_00000086685954249987071480000015192101543951802264_" gradientUnits="userSpaceOnUse" x1="1216.8896" y1="2079.623" x2="2170.6934" y2="2079.623">
					<stop  offset="0" style="stop-color:#444B8C"/>
					<stop  offset="0.9964" style="stop-color:#26264F"/>
				</linearGradient>
				<path style="fill:url(#SVGID_00000086685954249987071480000015192101543951802264_);" d="M1232.477,1949.323
					c66.433-262.457,326.763-420.626,584.219-346.498c262.181,75.489,412.284,359.562,332.625,627.344
					c-77.788,261.494-344.55,402.562-593.475,321.883C1311.223,2472.768,1167.554,2205.811,1232.477,1949.323z M2073.696,2207.003
					c65.836-224.102-59.778-461.461-278.715-525.152c-215.63-62.73-434.702,68.939-491.232,289.304
					c-55.446,216.137,65.63,441.427,272.187,507.793C1785.549,2546.297,2009.158,2426.69,2073.696,2207.003z"/>
				<path style="opacity:0.3;fill:#D8DEE8;" d="M2095.91,2192.449l110.788,33.748c7.602,35.334,22.382,55.579,37.257,67.908
					c55.96,46.389,130.684-4.204,234.934,50.19c52.313,27.296,42.373,44.666,91.408,63.711
					c81.065,31.487,118.174-12.129,189.917,16.53c72.567,28.989,79.721,91.634,120.876,89.386
					c17.605-0.961,40.27-13.769,65.542-62.328l18.173,5.536c22.161,6.751,34.202,29.725,26.879,51.271l-4.594,13.51
					c-7.301,21.474-31.104,33.342-53.151,26.551l-864.505-266.277L2095.91,2192.449z"/>
				
					<linearGradient id="SVGID_00000071529999608951947410000005763642301898298251_" gradientUnits="userSpaceOnUse" x1="-6741.02" y1="3659.9045" x2="-7221.2759" y2="3122.1821" gradientTransform="matrix(-0.8705 0.4922 0.4922 0.8705 -6104.4209 2747.6741)">
					<stop  offset="0" style="stop-color:#444B8C"/>
					<stop  offset="0.9964" style="stop-color:#26264F"/>
				</linearGradient>
				<path style="fill:url(#SVGID_00000071529999608951947410000005763642301898298251_);" d="M1215.647,1971.832
					c66.433-262.456,326.763-420.626,584.22-346.498c262.182,75.489,412.284,359.562,332.626,627.343
					c-77.789,261.495-344.551,402.563-593.476,321.884C1294.394,2495.276,1150.725,2228.319,1215.647,1971.832z M2056.867,2229.512
					c65.836-224.103-59.778-461.46-278.716-525.152c-215.63-62.73-434.702,68.939-491.233,289.304
					c-55.445,216.137,65.631,441.427,272.188,507.793C1768.72,2568.805,1992.328,2449.198,2056.867,2229.512z"/>
				
					<linearGradient id="SVGID_00000065759113461928529710000002936205667149421480_" gradientUnits="userSpaceOnUse" x1="-7447" y1="2874.7991" x2="-6795.6543" y2="3591.8269" gradientTransform="matrix(-0.8705 0.4922 0.4922 0.8705 -6104.4209 2747.6741)">
					<stop  offset="0" style="stop-color:#444B8C"/>
					<stop  offset="0.9964" style="stop-color:#26264F"/>
				</linearGradient>
				<path style="fill:url(#SVGID_00000065759113461928529710000002936205667149421480_);" d="M1240.812,1979.54
					c62.963-247.568,308.72-396.315,551.358-326.196c246.831,71.331,388.254,338.827,313.532,591.127
					c-73.067,246.711-324.549,380.238-559.595,304.291C1314.899,2474.055,1179.201,2221.789,1240.812,1979.54z M2056.867,2229.512
					c65.836-224.103-59.778-461.46-278.716-525.152c-215.63-62.73-434.702,68.939-491.233,289.304
					c-55.445,216.137,65.631,441.427,272.188,507.793C1768.72,2568.805,1992.328,2449.198,2056.867,2229.512z"/>
			</g>
			<path style="fill:#FFFFFF;" d="M3009.629,2482.606l-8.781-21.824c0,0-14.335,0.874-26.098-7.562
				c-6.41-4.596-17.785-5.966-21.092-5.048c-3.305,0.917-15.791,0.37-1.559,7.161c14.23,6.788,14.119,11.833,8.187,17.406
				c-5.932,5.572-28.504,17.56-36.628,18.136c-8.125,0.578,6.565,13.144,14.758,14.75c8.194,1.602,21.63,3.633,38.253-6.154
				C2982.732,2495.901,3009.629,2482.606,3009.629,2482.606z"/>
		</g>
	</g>
</g>
</svg>
