<svg width="3303" height="2000" viewBox="0 0 3303 2000" fill="none" xmlns="http://www.w3.org/2000/svg">
<g clip-path="url(#clip0_32_2)">
<mask id="mask0_32_2" style="mask-type:luminance" maskUnits="userSpaceOnUse" x="0" y="629" width="3303" height="1371">
<path style="mix-blend-mode:multiply" d="M3302.76 986.04V2000H0V888.28H125.4V1085.72H329.24V837.96H490.12V942.2H573.76L646.2 869.801H728.56V629.6H958.96V986.04H1194.4V1071.92H1285.68V942.28H1633.64V1085.72H1766.72V888.28H1969.72V1182.92H1981.56V786H2160.4V888.28H2312.16V1085.72H2515.92V837.96H2676.8V942.2H2760.52L2832.96 869.801H2915.32V629.6H3145.64V986.04H3302.76Z" fill="url(#paint0_linear_32_2)"/>
</mask>
<g mask="url(#mask0_32_2)">
<path d="M3302.76 986.04V2000H0V888.28H125.4V1085.72H329.24V837.96H490.12V942.2H573.76L646.2 869.801H728.56V629.6H958.96V986.04H1194.4V1071.92H1285.68V942.28H1633.64V1085.72H1766.72V888.28H1969.72V1182.92H1981.56V786H2160.4V888.28H2312.16V1085.72H2515.92V837.96H2676.8V942.2H2760.52L2832.96 869.801H2915.32V629.6H3145.64V986.04H3302.76Z" fill="url(#paint1_linear_32_2)"/>
</g>
<path d="M875.685 447.848H1087.4C1100.7 447.848 1111.49 458.645 1111.49 471.943V477.389C1111.49 490.688 1100.7 501.484 1087.4 501.484H875.685C862.386 501.484 851.589 490.687 851.589 477.388V471.943C851.589 458.644 862.386 447.847 875.685 447.847V447.848Z" fill="url(#paint2_linear_32_2)"/>
<path d="M1478.4 620.187H1266.69C1253.38 620.187 1242.59 630.975 1242.59 644.283V649.729C1242.59 663.037 1253.38 673.825 1266.69 673.825H1478.4C1491.71 673.825 1502.5 663.037 1502.5 649.729V644.283C1502.5 630.975 1491.71 620.187 1478.4 620.187Z" fill="url(#paint3_linear_32_2)"/>
<path d="M1948.47 640.099H1736.76C1723.45 640.099 1712.66 650.887 1712.66 664.195V669.641C1712.66 682.949 1723.45 693.737 1736.76 693.737H1948.47C1961.78 693.737 1972.57 682.949 1972.57 669.641V664.195C1972.57 650.887 1961.78 640.099 1948.47 640.099Z" fill="url(#paint4_linear_32_2)"/>
<path d="M2416.84 1214.47L2281.52 1276L2146.26 1337.48L1969.15 1418.03L1593.88 1588.64L1177.93 1271.9L1036.46 1164.18L922.95 1077.78L807.639 989.961C911.761 654.757 1224.41 411.323 1593.89 411.323C2041.82 411.323 2406.22 769.08 2416.84 1214.48L2416.84 1214.47Z" fill="url(#paint5_linear_32_2)"/>
<path d="M2282.75 1234.52C2282.75 1248.46 2282.33 1262.3 2281.52 1275.99L2146.26 1337.48L1969.15 1418.02L1593.88 1588.64L1177.93 1271.9L1036.46 1164.18L922.95 1077.77C993.894 772.855 1267.36 545.622 1593.88 545.622C1974.34 545.622 2282.75 854.071 2282.75 1234.52Z" fill="white"/>
<path d="M2155.69 1234.52C2155.69 1269.68 2152.44 1304.12 2146.26 1337.48L1969.15 1418.02L1593.88 1588.64L1177.93 1271.9L1036.46 1164.18C1071.05 887.072 1307.43 672.685 1593.88 672.685C1904.17 672.685 2155.69 924.238 2155.69 1234.52Z" fill="url(#paint6_linear_32_2)"/>
<path d="M2011.54 1234.52C2011.54 1300.35 1996.29 1362.65 1969.15 1418.02L1593.88 1588.64L1177.93 1271.9C1176.8 1259.58 1176.23 1247.12 1176.23 1234.52C1176.23 1003.83 1363.23 816.869 1593.88 816.869C1824.54 816.869 2011.54 1003.83 2011.54 1234.52Z" fill="white"/>
<path d="M1730.3 1370.91C1805.63 1295.58 1805.63 1173.44 1730.3 1098.1C1654.96 1022.76 1532.82 1022.76 1457.48 1098.1C1382.15 1173.44 1382.15 1295.58 1457.48 1370.91C1532.82 1446.25 1654.96 1446.25 1730.3 1370.91Z" fill="url(#paint7_linear_32_2)"/>
<path d="M1096.09 278.008C1096.09 324.395 1068.52 364.331 1028.88 382.347C1014.46 388.907 998.422 392.555 981.542 392.555C964.662 392.555 948.626 388.907 934.202 382.347C894.559 364.331 866.995 324.395 866.995 278.008C866.995 214.741 918.275 163.461 981.542 163.461C1044.81 163.461 1096.09 214.741 1096.09 278.008Z" fill="url(#paint8_linear_32_2)"/>
<path opacity="0.72" d="M1007.89 247.538C1007.89 261.962 996.195 273.655 981.77 273.655C967.345 273.655 955.653 261.962 955.653 247.538C955.653 233.114 967.346 221.422 981.77 221.422C996.194 221.422 1007.89 233.114 1007.89 247.538Z" fill="url(#paint9_linear_32_2)"/>
<path opacity="0.72" d="M1028.88 332.679V382.347C1014.46 388.907 998.422 392.555 981.542 392.555C964.662 392.555 948.626 388.907 934.202 382.347V332.679C934.202 306.544 955.388 285.339 981.542 285.339C1007.7 285.339 1028.88 306.544 1028.88 332.679Z" fill="url(#paint10_linear_32_2)"/>
<path d="M1452.52 206.899H1175.96C1167.96 206.899 1161.48 200.417 1161.48 192.419C1161.48 184.422 1167.96 177.939 1175.96 177.939H1452.52C1460.51 177.939 1467 184.422 1467 192.419C1467 200.416 1460.51 206.899 1452.52 206.899Z" fill="url(#paint11_linear_32_2)"/>
<path d="M1412.04 271.484H1175.96C1167.97 271.484 1161.48 265.002 1161.48 257.005C1161.48 249.008 1167.96 242.525 1175.96 242.525H1412.04C1420.03 242.525 1426.52 249.008 1426.52 257.005C1426.52 265.002 1420.03 271.484 1412.04 271.484Z" fill="url(#paint12_linear_32_2)"/>
<path d="M1573.04 336.068H1175.96C1167.96 336.068 1161.48 329.585 1161.48 321.588C1161.48 313.592 1167.96 307.108 1175.96 307.108H1573.04C1581.04 307.108 1587.52 313.591 1587.52 321.588C1587.52 329.585 1581.03 336.068 1573.04 336.068Z" fill="url(#paint13_linear_32_2)"/>
<path d="M2305.78 1319.61H2411.73C2416.21 1319.61 2419.84 1323.25 2419.84 1327.72V1344.08C2419.84 1348.56 2416.21 1352.19 2411.73 1352.19H2305.78C2301.3 1352.19 2297.67 1348.56 2297.67 1344.08V1327.72C2297.67 1323.25 2301.3 1319.61 2305.78 1319.61Z" fill="url(#paint14_linear_32_2)"/>
<path d="M2305.78 1380.61H2411.73C2416.21 1380.61 2419.84 1384.24 2419.84 1388.72V1405.08C2419.84 1409.56 2416.21 1413.19 2411.73 1413.19H2305.78C2301.3 1413.19 2297.67 1409.56 2297.67 1405.08V1388.72C2297.67 1384.24 2301.3 1380.61 2305.78 1380.61Z" fill="url(#paint15_linear_32_2)"/>
<path d="M2305.78 1441.61H2411.73C2416.21 1441.61 2419.84 1445.24 2419.84 1449.72V1466.08C2419.84 1470.55 2416.21 1474.19 2411.73 1474.19H2305.78C2301.3 1474.19 2297.67 1470.56 2297.67 1466.08V1449.72C2297.67 1445.24 2301.3 1441.61 2305.78 1441.61Z" fill="url(#paint16_linear_32_2)"/>
<path opacity="0.18" d="M1648.76 117.476H1810.67C1823.36 117.476 1833.66 127.778 1833.66 140.468V302.377C1833.66 315.066 1823.36 325.368 1810.67 325.368H1648.76C1636.07 325.368 1625.77 315.066 1625.77 302.378V140.467C1625.77 127.778 1636.07 117.476 1648.76 117.476Z" fill="url(#paint17_linear_32_2)"/>
<path d="M1799.52 196.457C1788.42 165.423 1758.76 146.362 1727.5 147.302C1719.93 147.53 1712.27 148.929 1704.75 151.617C1681.98 159.761 1665.66 177.898 1658.95 199.324C1654.3 214.174 1654.27 230.602 1659.92 246.384C1660.48 247.954 1661.09 249.498 1661.74 251.006C1664.71 257.841 1668.6 264.025 1673.23 269.459C1692.63 292.266 1724.82 301.903 1754.68 291.226C1793.23 277.436 1813.31 235.009 1799.52 196.457ZM1748.43 273.754C1726.04 281.762 1701.91 274.535 1687.37 257.439C1683.9 253.364 1680.98 248.728 1678.76 243.602C1678.26 242.469 1677.81 241.313 1677.38 240.136C1673.15 228.305 1673.18 215.987 1676.66 204.856C1681.69 188.79 1693.93 175.191 1711 169.087C1716.64 167.071 1722.38 166.023 1728.05 165.85C1751.49 165.143 1773.73 179.435 1782.05 202.703C1792.39 231.607 1777.34 263.416 1748.43 273.754Z" fill="url(#paint18_linear_32_2)"/>
<path d="M1676.66 204.855L1658.95 199.324C1665.66 177.898 1681.98 159.762 1704.75 151.617C1712.27 148.929 1719.93 147.529 1727.5 147.302L1728.05 165.849C1722.38 166.022 1716.64 167.071 1711 169.086C1693.93 175.189 1681.69 188.788 1676.66 204.855Z" fill="#15456E"/>
<path d="M1678.75 243.602L1661.74 251.006C1661.09 249.498 1660.47 247.954 1659.92 246.384C1654.27 230.603 1654.3 214.174 1658.95 199.324L1676.66 204.855C1673.18 215.986 1673.15 228.304 1677.38 240.135C1677.81 241.313 1678.26 242.468 1678.75 243.601V243.602Z" fill="#1B5C91"/>
<path d="M1673.23 269.459C1668.6 264.024 1664.71 257.841 1661.74 251.006L1678.75 243.602C1680.98 248.728 1683.9 253.364 1687.37 257.439L1673.23 269.459Z" fill="#2273B5"/>
<path d="M932.441 842.154H1070.8V942.442V963.566L1049.68 942.442H932.441V842.154Z" fill="#FFCB55"/>
<path d="M1421.27 639.232C1383.38 621.304 1339.56 630.835 1312.3 659.793C1305.7 666.804 1300.07 674.952 1295.72 684.131C1282.57 711.932 1284.2 742.925 1297.43 768.226C1306.61 785.761 1321.35 800.562 1340.62 809.679C1342.54 810.586 1344.48 811.426 1346.42 812.194C1355.24 815.671 1364.3 817.729 1373.35 818.455C1411.31 821.519 1448.92 801.239 1466.17 764.781C1488.44 717.712 1468.34 661.504 1421.27 639.233L1421.27 639.232ZM1444.84 754.688C1431.91 782.024 1403.71 797.227 1375.25 794.933C1368.47 794.386 1361.67 792.846 1355.06 790.234C1353.6 789.658 1352.15 789.03 1350.71 788.35C1336.27 781.516 1325.21 770.416 1318.33 757.273C1308.41 738.301 1307.18 715.065 1317.05 694.223C1320.3 687.343 1324.53 681.233 1329.47 675.975C1349.91 654.265 1382.77 647.118 1411.18 660.558C1446.47 677.256 1461.54 719.398 1444.84 754.688H1444.84Z" fill="url(#paint19_linear_32_2)"/>
<path d="M1318.33 757.273L1297.43 768.227C1284.2 742.926 1282.57 711.933 1295.72 684.132C1300.07 674.953 1305.7 666.805 1312.3 659.794L1329.48 675.976C1324.53 681.234 1320.31 687.344 1317.05 694.224C1307.19 715.066 1308.41 738.302 1318.34 757.274L1318.33 757.273Z" fill="#FFAD5B"/>
<path d="M1355.06 790.233L1346.42 812.193C1344.48 811.425 1342.54 810.585 1340.62 809.678C1321.35 800.562 1306.61 785.76 1297.43 768.225L1318.33 757.271C1325.21 770.415 1336.27 781.514 1350.71 788.348C1352.15 789.028 1353.6 789.656 1355.06 790.232L1355.06 790.233Z" fill="#FFAD5B"/>
<path d="M1889.88 1114.48H1790.99V1132H1889.88V1114.48Z" fill="url(#paint20_linear_32_2)"/>
<path d="M1889.88 1084.07H1790.99V1101.59H1889.88V1084.07Z" fill="url(#paint21_linear_32_2)"/>
<path d="M1889.88 1053.66H1790.99V1071.18H1889.88V1053.66Z" fill="url(#paint22_linear_32_2)"/>
<path d="M1278.65 891.994H1230.3V905.021H1278.65V891.994Z" fill="#D8E7FF"/>
<path d="M1278.65 918.048H1230.3V931.075H1278.65V918.048Z" fill="#D8E7FF"/>
<path d="M1278.65 865.94H1230.3V878.967H1278.65V865.94Z" fill="#D8E7FF"/>
<path d="M987.803 1175.83L985.38 1179.02L1379.74 1479.3L1382.16 1476.12L987.803 1175.83Z" fill="url(#paint23_linear_32_2)"/>
<path d="M1954.68 1461.82L1660.76 1595.58L1662.42 1599.22L1956.34 1465.46L1954.68 1461.82Z" fill="url(#paint24_linear_32_2)"/>
<path opacity="0.18" d="M2275 243.584H1962.49C1935.98 243.584 1914.48 265.079 1914.48 291.594V604.101C1914.48 630.616 1935.98 652.111 1962.49 652.111H2275C2301.51 652.111 2323.01 630.616 2323.01 604.101V291.594C2323.01 265.079 2301.51 243.584 2275 243.584Z" fill="url(#paint25_linear_32_2)"/>
<path d="M1959.33 354.579H1957.69V564.463H1959.33V354.579Z" fill="url(#paint26_linear_32_2)"/>
<path d="M2038.9 354.579H2037.26V564.463H2038.9V354.579Z" fill="url(#paint27_linear_32_2)"/>
<path d="M2118.47 354.579H2116.83V564.463H2118.47V354.579Z" fill="url(#paint28_linear_32_2)"/>
<path d="M2198.03 354.579H2196.4V564.463H2198.03V354.579Z" fill="url(#paint29_linear_32_2)"/>
<path d="M2277.6 354.579H2275.97V564.463H2277.6V354.579Z" fill="url(#paint30_linear_32_2)"/>
<path d="M1958.51 479.362C1958.51 479.362 1988 497.233 2019.34 464.895C2050.67 432.557 2084.47 407.027 2116.42 434.258C2148.37 461.49 2168.03 468.299 2199.98 437.662C2231.93 407.026 2229.47 369.582 2277.6 369.582V564.463H1958.51V479.362Z" fill="url(#paint31_linear_32_2)"/>
<path d="M1990.05 337.097H1958.51V344.737H1990.05V337.097Z" fill="#B6D2FF"/>
<path d="M2057.85 337.097H2038.08V344.737H2057.85V337.097Z" fill="#B6D2FF"/>
<path d="M2142.01 337.097H2117.65V344.737H2142.01V337.097Z" fill="#B6D2FF"/>
<path d="M2234.77 337.097H2197.21V344.737H2234.77V337.097Z" fill="#B6D2FF"/>
<path d="M2289.88 337.097H2276.78V344.737H2289.88V337.097Z" fill="#B6D2FF"/>
<path d="M2116.83 593.633H1959.33V612.027H2116.83V593.633Z" fill="url(#paint32_linear_32_2)"/>
<path d="M2437.72 1104.29L2472.02 1009.59L2267.91 1038.12L2223.76 1134.19L2437.72 1104.29Z" fill="url(#paint33_linear_32_2)"/>
<path d="M2296.07 1241.77L2237.39 1160.56L2441.6 1132.02L2510.12 1212.53L2296.07 1241.77Z" fill="url(#paint34_linear_32_2)"/>
<path d="M1739.17 1230.19L2441.6 1132.02L2437.72 1104.29L1734.97 1202.51C1727.45 1203.7 1722.23 1210.72 1723.29 1218.3C1724.35 1225.87 1731.29 1231.15 1738.85 1230.22L1738.85 1230.24L1739.03 1230.21C1739.05 1230.21 1739.08 1230.22 1739.1 1230.21C1739.12 1230.21 1739.15 1230.2 1739.17 1230.19Z" fill="url(#paint35_linear_32_2)"/>
<path d="M1199.77 1918.96C1321.65 1918.96 1420.44 1893.08 1420.44 1861.17C1420.44 1829.25 1321.65 1803.38 1199.77 1803.38C1077.9 1803.38 979.107 1829.25 979.107 1861.17C979.107 1893.08 1077.9 1918.96 1199.77 1918.96Z" fill="#FF834A"/>
<path d="M1199.77 1901.23C1314.28 1901.23 1407.1 1876.92 1407.1 1846.93C1407.1 1816.94 1314.28 1792.63 1199.77 1792.63C1085.27 1792.63 992.446 1816.94 992.446 1846.93C992.446 1876.92 1085.27 1901.23 1199.77 1901.23Z" fill="#FFB796"/>
<path d="M1215.88 1077.06C1215.88 1077.06 1224.68 1061.67 1210.73 1020.43C1197.25 980.549 1150.56 984.164 1135.73 1009.72C1120.89 1035.27 1125.9 1051.14 1147.74 1079.99C1169.59 1108.84 1206.82 1090.24 1215.88 1077.06Z" fill="#EEA886"/>
<path d="M1107.45 1786.55C1107.45 1786.55 1105.14 1803.49 1104.85 1806.03C1104.57 1808.57 1079.16 1804.53 1079.16 1804.53L1077.1 1784.37C1077.1 1784.37 1104.28 1784.16 1107.45 1786.55Z" fill="#EEA886"/>
<path d="M1105.13 1803.88C1105.13 1803.88 1113.18 1814.08 1120.96 1818.53C1128.75 1822.98 1140.98 1824.74 1145.59 1829.34C1148.91 1832.67 1157.69 1846.98 1125.36 1846.69C1093.02 1846.4 1077.43 1848.71 1073.96 1843.22C1070.5 1837.74 1078.97 1802.73 1078.97 1802.73C1078.97 1802.73 1086.89 1804.96 1105.13 1803.88Z" fill="#414773"/>
<path d="M1283.39 1786.55C1283.39 1786.55 1281.08 1803.49 1280.79 1806.03C1280.5 1808.57 1255.09 1804.53 1255.09 1804.53L1253.03 1784.37C1253.03 1784.37 1280.21 1784.16 1283.39 1786.55Z" fill="#EEA886"/>
<path d="M1281.06 1803.88C1281.06 1803.88 1289.11 1814.08 1296.89 1818.53C1304.68 1822.98 1333.33 1826.63 1337.94 1831.23C1341.26 1834.56 1346.79 1847.94 1301.29 1846.69C1268.96 1845.8 1253.36 1848.71 1249.89 1843.22C1246.43 1837.73 1254.91 1802.73 1254.91 1802.73C1254.91 1802.73 1264.95 1804.52 1281.06 1803.88Z" fill="#414773"/>
<path d="M1116.01 1364.85C1116.01 1364.85 1102.98 1405.34 1104.7 1440.23C1106.41 1475.12 1097.96 1513.29 1094.5 1549.74C1090.65 1590.37 1074.89 1686.56 1074.32 1708.29C1073.75 1730.03 1076.76 1799.43 1076.76 1799.43L1108.32 1800.19C1108.32 1800.19 1134.82 1632.03 1141.68 1614.87C1148.55 1597.71 1182.58 1475.39 1183.73 1461.66C1184.87 1447.93 1116.01 1364.85 1116.01 1364.85L1116.01 1364.85Z" fill="#2D314F"/>
<path d="M1246.84 1360.64C1246.84 1360.64 1265.99 1467.68 1268.28 1489.04C1270.57 1510.39 1272.09 1592.37 1273.24 1605.72C1274.38 1619.06 1280.86 1780.36 1286.96 1800.19H1251.78C1251.78 1800.19 1215.66 1682.93 1215.66 1627.45C1215.66 1571.98 1191.73 1506.84 1176.29 1470.24C1160.85 1433.64 1125.5 1432.77 1116.01 1364.85C1116.01 1364.85 1233.98 1339.1 1246.84 1360.64Z" fill="#2D314F"/>
<path d="M1203.12 1087.94C1203.12 1087.94 1199.15 1099.49 1203.12 1107.74C1207.09 1115.98 1152.42 1111.03 1152.42 1111.03C1152.42 1111.03 1154.89 1094 1147.74 1079.99C1140.6 1065.97 1203.12 1087.94 1203.12 1087.94Z" fill="#EEA886"/>
<path d="M1113.47 1373.67C1113.47 1373.67 1133.13 1393.87 1248.6 1370.53L1246.84 1360.64L1115.58 1365.58L1113.47 1373.67Z" fill="#2B3B57"/>
<path d="M1211.4 1110.41C1211.4 1110.41 1231.59 1112.47 1237.36 1113.57C1243.13 1114.67 1281.97 1106.63 1289.94 1105.8C1297.91 1104.98 1331.88 1081.7 1332.98 1078.95C1334.08 1076.2 1353.65 1026.65 1354.75 1015.94C1355.85 1005.22 1373.81 1010.75 1372.27 1018.14C1369.39 1031.95 1365.69 1065.48 1363.66 1075.2C1361.47 1085.69 1355.6 1109.45 1352.3 1112.38C1349.01 1115.3 1318.42 1138.57 1288.47 1148.46C1258.52 1158.36 1235.98 1172.92 1235.98 1172.92H1088.38C1088.38 1172.92 1030.97 1090.86 1029.73 1078.49C1028.5 1066.13 1069.83 983.953 1078.08 973.65C1086.32 963.347 1098.24 977.014 1098.24 977.014C1098.24 977.014 1073.54 1049.48 1070.25 1059.78C1066.95 1070.09 1098.97 1115.36 1107.77 1115.49C1116.56 1115.63 1139.13 1112.75 1149.16 1112.33C1159.19 1111.92 1169.77 1107.53 1169.77 1107.53L1211.4 1110.41V1110.41Z" fill="#EEA886"/>
<path d="M1275 1165.23C1275 1165.23 1256.94 1177.24 1255.29 1197.85C1253.64 1218.45 1247.05 1251.01 1243.75 1262.14C1240.45 1273.26 1246.63 1354.04 1247.46 1359.81C1248.28 1365.58 1133.25 1379.29 1115.58 1365.58C1115.58 1365.58 1110.63 1290.16 1108.57 1268.73C1106.51 1247.3 1096.62 1195.37 1093.33 1188.37C1090.03 1181.36 1050.05 1125.29 1048.4 1117.89C1048.4 1117.89 1069.09 1084.92 1083.92 1084.51C1083.92 1084.51 1107.49 1112.12 1115.17 1113.36C1122.85 1114.6 1169.94 1105.97 1169.95 1105.9C1169.95 1105.9 1175.09 1112.89 1202.41 1104.65C1202.41 1104.65 1234.96 1108.32 1240.25 1109C1246.66 1109.82 1291.22 1103.41 1291.22 1103.41C1291.22 1103.41 1309.09 1133.59 1305.96 1148.83L1275 1165.23Z" fill="#557AFF"/>
<path d="M1353.71 1022.38C1353.71 1022.38 1357.75 1003.28 1352.89 997.793C1350.13 994.673 1343.48 986.406 1342.87 985.192C1342.26 983.977 1335.13 979.878 1335.13 977.905C1335.13 975.932 1342.11 973.502 1348.18 979.119C1354.26 984.736 1358.05 985.951 1360.48 985.344C1362.91 984.737 1366.4 964.546 1366.71 959.536C1367.01 954.526 1368.94 941.318 1372.07 942.229C1375.21 943.14 1375.06 948.909 1375.06 948.909C1375.06 948.909 1378.7 938.889 1381.13 940.863C1383.56 942.836 1383.25 947.695 1383.25 947.695C1383.25 947.695 1387.81 942.078 1389.02 946.176C1390.24 950.276 1389.02 953.919 1389.02 953.919C1389.02 953.919 1393.73 951.339 1394.03 957.714C1394.34 964.09 1392.67 982.763 1389.33 989.443C1385.99 996.123 1373.49 1013.59 1371.99 1020.42C1370.5 1027.24 1353.72 1022.38 1353.72 1022.38H1353.71Z" fill="#EEA886"/>
<path d="M1094.22 988.833C1094.22 988.833 1107.95 965.751 1112.62 963.69C1117.29 961.63 1123.88 960.462 1129.66 956.34C1135.43 952.218 1143.05 948.784 1142.64 947.41C1142.23 946.036 1135.43 946.586 1128.14 949.745C1120.86 952.905 1117.67 951.378 1116.98 949.729C1116.29 948.081 1120.86 936.442 1123.06 933.694C1125.26 930.947 1140.92 915.194 1138.31 912.859C1135.7 910.523 1125.53 919.177 1123.88 920.964C1123.88 920.964 1131.99 903.928 1128.83 903.104C1125.67 902.28 1119.76 908.325 1119.76 908.325C1119.76 908.325 1120.45 893.763 1104.79 917.392C1104.79 917.392 1108.09 909.561 1103.28 912.171C1098.47 914.781 1093.8 929.481 1092.29 936.9C1090.78 944.318 1083.92 967.951 1078.08 973.651C1072.23 979.35 1094.22 988.832 1094.22 988.832V988.833Z" fill="#EEA886"/>
<path d="M1147.74 1079.99C1147.74 1079.99 1154.98 1080.62 1170.37 1075.31C1185.75 1070 1186.9 1043.09 1190.23 1046.28C1197.02 1052.78 1203.43 1048.3 1205.99 1044.45C1205.99 1044.45 1198.48 1034.56 1201.96 1029.8C1205.44 1025.03 1211.11 1021.56 1211.11 1021.56C1211.11 1021.56 1200.29 969.398 1151.04 993.161C1093.34 1021 1147.74 1079.99 1147.74 1079.99Z" fill="#353A3D"/>
<path d="M1203.12 1107.74L1201.39 1100.2C1201.39 1100.2 1169.96 1099.56 1152.81 1102.05L1151 1111.06C1151 1111.06 1172.96 1121.02 1203.12 1107.74Z" fill="#D4D8E8"/>
<path d="M1195.37 1039.69C1192.51 1034.94 1181.96 1031.74 1180.72 1045.18C1179.76 1055.6 1199.58 1066.98 1199.77 1057.27C1199.95 1047.56 1197.27 1042.85 1195.37 1039.69Z" fill="#EEA886"/>
<path d="M1354.41 1018.04C1354.41 1018.04 1365.8 1018.32 1371.3 1023.29C1371.3 1023.29 1371.66 1026.44 1370.39 1028.93C1370.39 1028.93 1360.56 1024.35 1353.02 1023.49C1353.02 1023.49 1353.09 1019.36 1354.41 1018.04Z" fill="#E55353"/>
<path d="M1367.83 1020.87C1368.88 1023.35 1367.72 1026.21 1365.24 1027.26C1362.76 1028.3 1359.89 1027.14 1358.85 1024.66C1357.8 1022.18 1358.96 1019.32 1361.44 1018.27C1363.92 1017.22 1366.79 1018.38 1367.83 1020.87Z" fill="#353A3D"/>
<mask id="mask1_32_2" style="mask-type:luminance" maskUnits="userSpaceOnUse" x="992" y="1597" width="416" height="305">
<path style="mix-blend-mode:multiply" d="M1407.1 1597.36V1846.93C1407.1 1876.91 1314.28 1901.22 1199.77 1901.22C1085.27 1901.22 992.445 1876.91 992.445 1846.93V1597.36H1407.1Z" fill="url(#paint36_linear_32_2)"/>
</mask>
<g mask="url(#mask1_32_2)">
<path d="M1407.1 1597.36V1846.93C1407.1 1876.91 1314.28 1901.22 1199.77 1901.22C1085.27 1901.22 992.445 1876.91 992.445 1846.93V1597.36H1407.1Z" fill="url(#paint37_linear_32_2)"/>
</g>
<path d="M1808.46 1213.77C1808.46 1213.77 1798.43 1211.91 1793.34 1206.75C1788.26 1201.59 1774.62 1197.85 1770.24 1197.96C1765.85 1198.08 1733.64 1197.41 1730.92 1199.12C1728.2 1200.83 1730.5 1204.71 1733.72 1204.69C1736.93 1204.66 1766.71 1206.96 1766.71 1206.96C1766.71 1206.96 1733.65 1206.25 1731.43 1208.23C1729.2 1210.21 1729.22 1214.32 1733.73 1215.75C1733.73 1215.75 1730.34 1222.54 1738.44 1223.13L1754.59 1224.36C1754.59 1224.36 1746.04 1225.23 1751.5 1228.75C1754.41 1230.62 1772.9 1229.81 1776.54 1230.82C1780.18 1231.83 1802.53 1231.29 1802.53 1231.29L1808.46 1213.77L1808.46 1213.77Z" fill="#EEA886"/>
<path d="M1849.72 1825.03C1849.72 1856.95 1948.52 1882.82 2070.39 1882.82C2192.26 1882.82 2291.06 1856.95 2291.06 1825.03C2291.06 1793.12 2192.26 1767.24 2070.39 1767.24C1948.52 1767.24 1849.72 1793.12 1849.72 1825.03Z" fill="#FF834A"/>
<path d="M2070.39 1865.09C2184.9 1865.09 2277.72 1840.78 2277.72 1810.8C2277.72 1780.81 2184.9 1756.5 2070.39 1756.5C1955.89 1756.5 1863.06 1780.81 1863.06 1810.8C1863.06 1840.78 1955.89 1865.09 2070.39 1865.09Z" fill="#FFB796"/>
<path d="M2138.87 1143.93C2138.87 1143.93 2144.89 1228.41 2128.39 1238.52C2118.05 1244.86 2076.82 1266.22 2078.04 1270.23C2079.26 1274.23 2101.32 1305.87 2101.32 1305.87C2101.32 1305.87 2180.51 1253.72 2183.07 1237.29C2185.56 1221.23 2179.17 1113.59 2168.28 1108.63C2160.13 1104.92 2155.83 1107.99 2145.55 1115.62C2131.13 1126.33 2138.87 1143.93 2138.87 1143.93Z" fill="#323657"/>
<path d="M2148.08 1758.72C2148.08 1758.72 2150.54 1775.81 2150.85 1778.38C2151.16 1780.95 2178.24 1776.87 2178.24 1776.87L2180.44 1756.52C2180.44 1756.52 2151.46 1756.31 2148.08 1758.72L2148.08 1758.72Z" fill="#424773"/>
<path d="M2150.56 1776.21C2150.56 1776.21 2141.98 1786.51 2133.68 1791C2125.38 1795.48 2112.33 1797.26 2107.42 1801.91C2103.88 1805.27 2094.52 1819.71 2128.99 1819.42C2163.47 1819.12 2180.09 1821.46 2183.78 1815.92C2187.48 1810.38 2178.44 1775.05 2178.44 1775.05C2178.44 1775.05 2170.27 1777.99 2150.56 1776.21Z" fill="#292C47"/>
<path d="M2012.51 1758.72C2012.51 1758.72 2014.98 1775.81 2015.29 1778.38C2015.59 1780.95 2042.68 1776.87 2042.68 1776.87L2044.87 1756.52C2044.87 1756.52 2015.9 1756.31 2012.51 1758.72L2012.51 1758.72Z" fill="#424773"/>
<path d="M2015 1776.21C2015 1776.21 2006.41 1786.51 1998.11 1791C1989.81 1795.48 1959.27 1799.17 1954.36 1803.82C1950.82 1807.17 1944.92 1820.68 1993.43 1819.42C2027.89 1818.52 2044.53 1821.46 2048.22 1815.92C2051.91 1810.38 2042.87 1775.05 2042.87 1775.05C2042.87 1775.05 2035.18 1778.19 2015 1776.21Z" fill="#292C47"/>
<path d="M2138.36 1319.5C2138.36 1319.5 2163.81 1359.93 2161.91 1396.49C2160.01 1433.04 2164.18 1472.09 2168 1510.27C2172.27 1552.84 2183.88 1641.43 2184.51 1664.2C2185.14 1686.97 2183.68 1772.65 2183.68 1772.65L2139.53 1772.32C2139.53 1772.32 2123.86 1599.23 2116.27 1581.25C2108.67 1563.27 2077.5 1433.23 2076.23 1418.85C2074.96 1404.47 2138.36 1319.5 2138.36 1319.5L2138.36 1319.5Z" fill="#292C47"/>
<path d="M2004.38 1324.97C2004.38 1324.97 1994.32 1424.35 1991.79 1446.72C1989.26 1469.09 1990.99 1566.03 1989.73 1580.01C1988.46 1593.99 1998.19 1741.89 2000.59 1770.05L2049.11 1769.74C2049.11 1769.74 2052.46 1650.1 2052.46 1591.98C2052.46 1533.85 2067.37 1466.19 2084.46 1427.84C2101.55 1389.49 2140.66 1388.58 2151.17 1317.43C2151.17 1317.43 2018.6 1302.41 2004.38 1324.97L2004.38 1324.97Z" fill="#292C47"/>
<path d="M2098.81 976.099C2098.81 976.099 2065.31 961.69 2048.31 986.897C2031.3 1012.1 2030.28 1064.18 2047.17 1071.41C2064.06 1078.64 2090.06 1076.56 2099.66 1060.74C2109.26 1044.91 2118.35 1021.8 2118.74 1006.08C2119.12 990.363 2107.54 981.07 2098.8 976.1L2098.81 976.099Z" fill="#EEA886"/>
<path d="M2053.69 1066.33C2053.69 1066.33 2054.09 1087.65 2051.74 1092.19C2049.39 1096.73 2096 1096.85 2096 1096.85C2096 1096.85 2101.13 1068.83 2108.31 1047.95C2115.48 1027.07 2053.69 1066.33 2053.69 1066.33Z" fill="#EEA886"/>
<path d="M2107.5 1048.94C2107.5 1048.94 2102.89 1053.44 2089.88 1050.74C2076.86 1048.04 2061.71 1029.81 2056.33 1027.63C2050.95 1025.45 2051.05 1022.23 2051.05 1022.23L2047.38 1027.07L2041.55 1027.15C2041.55 1027.15 2047.61 1011.8 2039.92 1005.05C2032.23 998.291 2050.69 954.93 2092.04 971.682C2092.04 971.682 2123.91 982.163 2121.84 1000.48C2119.77 1018.8 2115.17 1040.14 2107.5 1048.94V1048.94Z" fill="#292C47"/>
<path d="M2048.98 1091.64C2048.98 1091.64 2049.12 1082.96 2053.06 1082.13C2056.99 1081.3 2096.49 1077.5 2101.32 1079.4V1089.51C2101.32 1089.51 2092.01 1095.24 2048.98 1091.64Z" fill="#E2D2CA"/>
<path d="M2052.25 1015.59C2053.13 1012.54 2061.4 1004.12 2063.94 1013.69C2066.48 1023.27 2058.33 1035.58 2054.18 1034.29C2050.03 1033 2050 1023.31 2052.25 1015.59Z" fill="#EEA886"/>
<path d="M2108.37 979.638C2108.37 979.638 2153.14 983.195 2107.79 1046.32L2108.37 979.638Z" fill="#292C47"/>
<path d="M1991.28 1103.68C2019.39 1098.74 2048.97 1091.64 2048.97 1091.64L2101.32 1089.51C2101.32 1089.51 2149.36 1100.09 2168.28 1108.63C2170.08 1109.44 2170.09 1151.49 2175.01 1162.52L2159.32 1195.61C2159.32 1195.61 2150.26 1261.17 2148.38 1290.32C2147.52 1303.71 2167.07 1415.83 2167.07 1415.83C2167.07 1415.83 2146.12 1422 2110.39 1425.94C2074.67 1429.88 1985.4 1424.51 1984.84 1420.29C1984.27 1416.07 2002.13 1263.17 2002.92 1255.25C2004.13 1243.1 1999.41 1186.94 1999.41 1186.94C1992.67 1195.98 1953.76 1229.9 1934.76 1240.68C1921.24 1248.34 1888.09 1243.66 1878.33 1242.66C1857.19 1240.5 1798.8 1236.33 1797.66 1234.25C1796.75 1233 1801.02 1211.72 1803.46 1210.9C1805.61 1210.19 1880.97 1206.46 1899.88 1207.44C1907.55 1207.84 1932.57 1179.9 1932.57 1179.9C1932.57 1179.9 1975.77 1110.64 1991.28 1103.67L1991.28 1103.68Z" fill="#323657"/>
<mask id="mask2_32_2" style="mask-type:luminance" maskUnits="userSpaceOnUse" x="1863" y="1561" width="415" height="305">
<path style="mix-blend-mode:multiply" d="M2277.72 1561.23V1810.8C2277.72 1840.78 2184.9 1865.09 2070.39 1865.09C1955.89 1865.09 1863.06 1840.78 1863.06 1810.8V1561.23H2277.72Z" fill="url(#paint38_linear_32_2)"/>
</mask>
<g mask="url(#mask2_32_2)">
<path d="M2277.72 1561.23V1810.8C2277.72 1840.78 2184.9 1865.09 2070.39 1865.09C1955.89 1865.09 1863.06 1840.78 1863.06 1810.8V1561.23H2277.72Z" fill="url(#paint39_linear_32_2)"/>
</g>
<path d="M1592.63 1306.21C1659.65 1306.21 1713.98 1274.32 1713.98 1234.99C1713.98 1195.66 1659.65 1163.78 1592.63 1163.78C1525.61 1163.78 1471.28 1195.66 1471.28 1234.99C1471.28 1274.32 1525.61 1306.21 1592.63 1306.21Z" fill="white"/>
<path d="M1592.63 1306.21C1659.65 1306.21 1713.98 1274.32 1713.98 1234.99C1713.98 1195.66 1659.65 1163.78 1592.63 1163.78C1525.61 1163.78 1471.28 1195.66 1471.28 1234.99C1471.28 1274.32 1525.61 1306.21 1592.63 1306.21Z" fill="white"/>
<path d="M1593.5 1287.33C1623.31 1287.33 1647.48 1263.17 1647.48 1233.35C1647.48 1203.54 1623.31 1179.37 1593.5 1179.37C1563.69 1179.37 1539.52 1203.54 1539.52 1233.35C1539.52 1263.17 1563.69 1287.33 1593.5 1287.33Z" fill="#A57939"/>
<path d="M1592.63 1306.21C1659.65 1306.21 1713.98 1274.32 1713.98 1234.99C1713.98 1195.66 1659.65 1163.78 1592.63 1163.78C1525.61 1163.78 1471.28 1195.66 1471.28 1234.99C1471.28 1274.32 1525.61 1306.21 1592.63 1306.21Z" stroke="black" stroke-width="0.5" stroke-miterlimit="10" stroke-linecap="round" stroke-linejoin="round"/>
<path d="M1593.5 1262.78C1609.75 1262.78 1622.93 1249.61 1622.93 1233.35C1622.93 1217.1 1609.75 1203.92 1593.5 1203.92C1577.25 1203.92 1564.07 1217.1 1564.07 1233.35C1564.07 1249.61 1577.25 1262.78 1593.5 1262.78Z" fill="black"/>
<path d="M1593.5 1262.78C1609.75 1262.78 1622.93 1249.61 1622.93 1233.35C1622.93 1217.1 1609.75 1203.92 1593.5 1203.92C1577.25 1203.92 1564.07 1217.1 1564.07 1233.35C1564.07 1249.61 1577.25 1262.78 1593.5 1262.78Z" stroke="black" stroke-width="0.5" stroke-miterlimit="10" stroke-linecap="round" stroke-linejoin="round"/>
<path d="M1593.5 1287.33C1623.31 1287.33 1647.48 1263.17 1647.48 1233.35C1647.48 1203.54 1623.31 1179.37 1593.5 1179.37C1563.69 1179.37 1539.52 1203.54 1539.52 1233.35C1539.52 1263.17 1563.69 1287.33 1593.5 1287.33Z" stroke="black" stroke-width="0.5" stroke-miterlimit="10" stroke-linecap="round" stroke-linejoin="round"/>
</g>
<defs>
<linearGradient id="paint0_linear_32_2" x1="1651.38" y1="717.836" x2="1651.38" y2="1908.93" gradientUnits="userSpaceOnUse">
<stop stop-color="white"/>
<stop offset="1"/>
</linearGradient>
<linearGradient id="paint1_linear_32_2" x1="1651.38" y1="717.836" x2="1651.38" y2="1908.93" gradientUnits="userSpaceOnUse">
<stop stop-color="#EAF1FF"/>
<stop offset="1" stop-color="white"/>
</linearGradient>
<linearGradient id="paint2_linear_32_2" x1="851.589" y1="474.666" x2="1111.49" y2="474.666" gradientUnits="userSpaceOnUse">
<stop stop-color="#D5E4FF"/>
<stop offset="1" stop-color="#EDFFFE"/>
</linearGradient>
<linearGradient id="paint3_linear_32_2" x1="1242.59" y1="647.005" x2="1502.5" y2="647.005" gradientUnits="userSpaceOnUse">
<stop stop-color="#D5E4FF"/>
<stop offset="1" stop-color="#EDFFFE"/>
</linearGradient>
<linearGradient id="paint4_linear_32_2" x1="1712.66" y1="666.917" x2="1972.57" y2="666.917" gradientUnits="userSpaceOnUse">
<stop stop-color="#D5E4FF"/>
<stop offset="1" stop-color="#EDFFFE"/>
</linearGradient>
<linearGradient id="paint5_linear_32_2" x1="1254.25" y1="249.163" x2="1824.6" y2="1478.73" gradientUnits="userSpaceOnUse">
<stop stop-color="#FFC05C"/>
<stop offset="1" stop-color="#FF3857"/>
</linearGradient>
<linearGradient id="paint6_linear_32_2" x1="1247.62" y1="386.018" x2="1823.92" y2="1628.39" gradientUnits="userSpaceOnUse">
<stop stop-color="#FFC05C"/>
<stop offset="1" stop-color="#FF3857"/>
</linearGradient>
<linearGradient id="paint7_linear_32_2" x1="1118.99" y1="210.722" x2="1934.66" y2="1969.13" gradientUnits="userSpaceOnUse">
<stop stop-color="#303257"/>
<stop offset="1" stop-color="#303B7D"/>
</linearGradient>
<linearGradient id="paint8_linear_32_2" x1="866.995" y1="278.008" x2="1096.09" y2="278.008" gradientUnits="userSpaceOnUse">
<stop stop-color="#D5E4FF"/>
<stop offset="1" stop-color="#EDFFFE"/>
</linearGradient>
<linearGradient id="paint9_linear_32_2" x1="955.654" y1="247.539" x2="1007.89" y2="247.539" gradientUnits="userSpaceOnUse">
<stop stop-color="#40CDE6"/>
<stop offset="1" stop-color="#5577FF"/>
</linearGradient>
<linearGradient id="paint10_linear_32_2" x1="934.202" y1="338.947" x2="1028.88" y2="338.947" gradientUnits="userSpaceOnUse">
<stop stop-color="#40CDE6"/>
<stop offset="1" stop-color="#5577FF"/>
</linearGradient>
<linearGradient id="paint11_linear_32_2" x1="1161.48" y1="192.42" x2="1467" y2="192.42" gradientUnits="userSpaceOnUse">
<stop stop-color="#D5E4FF"/>
<stop offset="1" stop-color="#EDFFFE"/>
</linearGradient>
<linearGradient id="paint12_linear_32_2" x1="1161.48" y1="257.005" x2="1426.52" y2="257.005" gradientUnits="userSpaceOnUse">
<stop stop-color="#D5E4FF"/>
<stop offset="1" stop-color="#EDFFFE"/>
</linearGradient>
<linearGradient id="paint13_linear_32_2" x1="1161.48" y1="321.589" x2="1587.52" y2="321.589" gradientUnits="userSpaceOnUse">
<stop stop-color="#D5E4FF"/>
<stop offset="1" stop-color="#EDFFFE"/>
</linearGradient>
<linearGradient id="paint14_linear_32_2" x1="2297.67" y1="1335.9" x2="2419.84" y2="1335.9" gradientUnits="userSpaceOnUse">
<stop stop-color="#D5E4FF"/>
<stop offset="1" stop-color="#EDFFFE"/>
</linearGradient>
<linearGradient id="paint15_linear_32_2" x1="2297.67" y1="1396.9" x2="2419.84" y2="1396.9" gradientUnits="userSpaceOnUse">
<stop stop-color="#D5E4FF"/>
<stop offset="1" stop-color="#EDFFFE"/>
</linearGradient>
<linearGradient id="paint16_linear_32_2" x1="2297.67" y1="1457.9" x2="2419.84" y2="1457.9" gradientUnits="userSpaceOnUse">
<stop stop-color="#D5E4FF"/>
<stop offset="1" stop-color="#EDFFFE"/>
</linearGradient>
<linearGradient id="paint17_linear_32_2" x1="1729.71" y1="357.896" x2="1729.71" y2="66.802" gradientUnits="userSpaceOnUse">
<stop stop-color="#80C0FF"/>
<stop offset="1" stop-color="#EDFFFE"/>
</linearGradient>
<linearGradient id="paint18_linear_32_2" x1="1655.56" y1="221.422" x2="1803.87" y2="221.422" gradientUnits="userSpaceOnUse">
<stop stop-color="#ABC9FF"/>
<stop offset="1" stop-color="#EDFFFE"/>
</linearGradient>
<linearGradient id="paint19_linear_32_2" x1="1286.64" y1="724.455" x2="1475.25" y2="724.455" gradientUnits="userSpaceOnUse">
<stop stop-color="#D5E4FF"/>
<stop offset="1" stop-color="#EDFFFE"/>
</linearGradient>
<linearGradient id="paint20_linear_32_2" x1="1790.99" y1="1123.24" x2="1889.88" y2="1123.24" gradientUnits="userSpaceOnUse">
<stop stop-color="#D5E4FF"/>
<stop offset="1" stop-color="#EDFFFE"/>
</linearGradient>
<linearGradient id="paint21_linear_32_2" x1="1790.99" y1="1092.83" x2="1889.88" y2="1092.83" gradientUnits="userSpaceOnUse">
<stop stop-color="#D5E4FF"/>
<stop offset="1" stop-color="#EDFFFE"/>
</linearGradient>
<linearGradient id="paint22_linear_32_2" x1="1790.99" y1="1062.42" x2="1889.88" y2="1062.42" gradientUnits="userSpaceOnUse">
<stop stop-color="#D5E4FF"/>
<stop offset="1" stop-color="#EDFFFE"/>
</linearGradient>
<linearGradient id="paint23_linear_32_2" x1="985.379" y1="1327.57" x2="1382.16" y2="1327.57" gradientUnits="userSpaceOnUse">
<stop stop-color="#FFC05C"/>
<stop offset="1" stop-color="#FF3857"/>
</linearGradient>
<linearGradient id="paint24_linear_32_2" x1="1660.73" y1="1530.53" x2="1956.35" y2="1530.53" gradientUnits="userSpaceOnUse">
<stop stop-color="#FFC05C"/>
<stop offset="1" stop-color="#FF3857"/>
</linearGradient>
<linearGradient id="paint25_linear_32_2" x1="2118.75" y1="629.892" x2="2118.75" y2="221.86" gradientUnits="userSpaceOnUse">
<stop stop-color="#80C0FF"/>
<stop offset="1" stop-color="#EDFFFE"/>
</linearGradient>
<linearGradient id="paint26_linear_32_2" x1="1957.69" y1="459.521" x2="1959.33" y2="459.521" gradientUnits="userSpaceOnUse">
<stop stop-color="#ABC9FF"/>
<stop offset="1" stop-color="#EDFFFE"/>
</linearGradient>
<linearGradient id="paint27_linear_32_2" x1="2037.26" y1="459.521" x2="2038.9" y2="459.521" gradientUnits="userSpaceOnUse">
<stop stop-color="#ABC9FF"/>
<stop offset="1" stop-color="#EDFFFE"/>
</linearGradient>
<linearGradient id="paint28_linear_32_2" x1="2116.83" y1="459.521" x2="2118.47" y2="459.521" gradientUnits="userSpaceOnUse">
<stop stop-color="#ABC9FF"/>
<stop offset="1" stop-color="#EDFFFE"/>
</linearGradient>
<linearGradient id="paint29_linear_32_2" x1="2196.4" y1="459.521" x2="2198.03" y2="459.521" gradientUnits="userSpaceOnUse">
<stop stop-color="#ABC9FF"/>
<stop offset="1" stop-color="#EDFFFE"/>
</linearGradient>
<linearGradient id="paint30_linear_32_2" x1="2275.97" y1="459.521" x2="2277.6" y2="459.521" gradientUnits="userSpaceOnUse">
<stop stop-color="#ABC9FF"/>
<stop offset="1" stop-color="#EDFFFE"/>
</linearGradient>
<linearGradient id="paint31_linear_32_2" x1="1958.51" y1="467.022" x2="2277.6" y2="467.022" gradientUnits="userSpaceOnUse">
<stop stop-color="#ABC9FF"/>
<stop offset="1" stop-color="#EDFFFE"/>
</linearGradient>
<linearGradient id="paint32_linear_32_2" x1="1959.33" y1="602.83" x2="2116.83" y2="602.83" gradientUnits="userSpaceOnUse">
<stop stop-color="#ABC9FF"/>
<stop offset="1" stop-color="#EDFFFE"/>
</linearGradient>
<linearGradient id="paint33_linear_32_2" x1="2250.57" y1="1043.07" x2="2444.9" y2="1100.61" gradientUnits="userSpaceOnUse">
<stop stop-color="#303257"/>
<stop offset="1" stop-color="#303B7D"/>
</linearGradient>
<linearGradient id="paint34_linear_32_2" x1="2240.67" y1="1148.94" x2="2505.56" y2="1227.36" gradientUnits="userSpaceOnUse">
<stop stop-color="#303257"/>
<stop offset="1" stop-color="#303B7D"/>
</linearGradient>
<linearGradient id="paint35_linear_32_2" x1="1795.89" y1="548.442" x2="2290.35" y2="1614.39" gradientUnits="userSpaceOnUse">
<stop stop-color="#ABC9FF"/>
<stop offset="1" stop-color="#EDFFFE"/>
</linearGradient>
<linearGradient id="paint36_linear_32_2" x1="1199.78" y1="1656.24" x2="1199.78" y2="2105.72" gradientUnits="userSpaceOnUse">
<stop/>
<stop offset="1" stop-color="white"/>
</linearGradient>
<linearGradient id="paint37_linear_32_2" x1="1199.78" y1="1656.24" x2="1199.78" y2="2105.72" gradientUnits="userSpaceOnUse">
<stop stop-color="#FFC05C"/>
<stop offset="1" stop-color="#FF5338"/>
</linearGradient>
<linearGradient id="paint38_linear_32_2" x1="2070.39" y1="1656.24" x2="2070.39" y2="2082.15" gradientUnits="userSpaceOnUse">
<stop/>
<stop offset="1" stop-color="white"/>
</linearGradient>
<linearGradient id="paint39_linear_32_2" x1="2070.39" y1="1656.24" x2="2070.39" y2="2082.15" gradientUnits="userSpaceOnUse">
<stop stop-color="#FFC05C"/>
<stop offset="1" stop-color="#FF5338"/>
</linearGradient>
<clipPath id="clip0_32_2">
<rect width="3302.76" height="2000" fill="white"/>
</clipPath>
</defs>
</svg>
